<?xml version="1.0" encoding="utf-8"?>
<!-- Generator: Adobe Illustrator 24.1.0, SVG Export Plug-In . SVG Version: 6.00 Build 0)  -->
<svg version="1.1" id="Capa_1" xmlns="http://www.w3.org/2000/svg" xmlns:xlink="http://www.w3.org/1999/xlink" x="0px" y="0px"
	 viewBox="0 0 724.58 380.31" style="enable-background:new 0 0 724.58 380.31;" xml:space="preserve">
<g>
	<path d="M715.57,63.85c0.01-1.31-0.15-2.68-0.72-3.83c-0.16-0.32-0.36-0.74-0.63-1c-0.21-0.95-0.52-2.1-0.98-3.05
		c-0.68-1.37-1.67-2.58-2.56-3.05c-1.36-0.64-3.1-0.17-4.88,0.71c-1.47,0.73-3.05,1.77-4.42,2.71c-0.32,0.16-0.58,0.42-0.89,0.57
		c-8.53,5.79-17.68,11.63-27.1,16.94c-3.47,1.98-29.19,15.62-30.82,16.56c3.64-4.29,6.8-6.37,6.34-9.68
		c-0.1-0.73-0.36-1.52-0.73-2.26c-1.14-2.31-3.23-4.42-4.44-5.53c-11.5,13.02-18.18,18.03-29.76,24.54
		c-1.95,1.09-3.84,2.29-4.11,3.87c-0.32,0.94-0.74,2.2-1.59,2.88l-0.21,0.1c-0.74,0.36-1.36-0.11-2.1,0.25l-0.11,0.05
		c-0.84,0.68-1.32,2.09-0.8,3.15l0.1,0.21c0.31,0.63,1.04,1.32,1.3,1.58c1.05,0.79,4.08,2.43,7.02,2.81
		c10.67-3.58,18.33-3.96,27.36-4.5c4.83-0.29,9.72-2.32,20.3,2.4c0.63,0.47,2.67,2.48,3.51,2.06l0.21-0.1
		c0.74-1.15,0.96-2.83,0.81-4.19l-0.2-1.47c-0.05-0.11,0-0.26-0.05-0.37c-0.31-1.42-0.72-2.52-1.3-3.68
		c-0.26-0.53-0.57-1.16-0.99-1.74c-3.65-5.26-11.37-3.41-17.25-3.9c7.99-3.17,16.61-7.17,25.34-11.49
		c7.15-3.54,14.41-7.39,21.46-11.14c3.42-1.82,6.89-3.8,10.47-5.57l1.68-0.83c0.84-0.42,1.74-0.99,2.47-1.35
		c0.53-0.26,0.95-0.47,1.37-0.41c0.47-0.1,0.94,0.32,1.47,0.32l1.68-0.83c1-0.1,2.09,1.32,2.93,0.9c0.74-0.36,0.79-1.31,0.8-2.36
		C715.52,64.01,715.63,63.95,715.57,63.85z"/>
	<path d="M280.27,301.37c-0.11-7.22-1.39-13.69-3.84-19.55c-1.07-2.49-4.7-8.48-9.27-8.41c-12.97,0.2-21.88,15.23-27.93,24.31
		c-0.77-11.49-3-22.36-9.76-31.1c0.04,2.36,2.74,5.71,2.74,5.71c0,0.15-0.15,0.15-0.15,0.15c0,0.29,0.6,0.43,0.6,0.73
		c-1.63-0.42-3.47-5.11-3.94-6.87c-0.15,0.15-0.29,0.45-0.28,0.74c-0.89-0.58-3-3.2-3.29-3.19c-0.15,0-0.29,0-0.44,0.15
		c0.15-0.15,0.15-0.15,0.14-0.3c0-0.15,0-0.15-0.15-0.15c0,0.15-0.44,0.3-0.44,0.45c-1.04-0.43-0.75-0.87-1.05-1.02
		c0.44,0.14,0.6,0.58,1.04,0.57c0.15,0,0.29-0.15,0.29-0.3c0-0.29-0.15,0-0.45-0.44c0.14,0,0.25,0,0.32,0.01
		c-0.22-0.24-0.37-0.45-0.62-0.45l-0.15,0.15c-1.04-0.72-2.37-0.41-3.11-0.98c-0.15,0-0.15,0-0.15,0.15l0.15,0.14
		c-1.03,0.02-2.07-0.12-2.95-0.1c-23.88,0.37-30.43,24.94-38.79,47.03c0.79-5.91,2.79-29.53,2.64-39.11
		c-0.12-7.52-1.27-15.46-7.75-15.36c-3.54,0.05-10.84,4.29-10.98,4.74c-0.73,0.6-0.86,1.34-0.86,1.63
		c0.53,34.78,3.25,67.91,3.76,101.07c0.07,4.42,0.17,11.05,1.5,11.03c1.47-0.02,3.08-1.08,3.51-1.53c0.15,0.15,0.3,0.14,0.44,0.14
		c0.29,0,0.29-0.45,0.58-0.6c0.44,0.14,0.74,0.28,1.18,0.28c1.03-0.02,0.72-1.34,1.6-1.35c0.59-0.01,3.69,0.24,4.13,0.23
		c0.15-0.15,1.32-0.32,2.05-0.77c0.74-0.01,0.74,0.28,1.34,0.57c0-0.15-0.15-0.44-0.16-0.59c0.26-2.07,4.28,0.23,4.2-4.63
		c-0.03-1.92-0.34-2.8-0.37-4.71c2.11-25.54,8.13-46.56,16.67-66.3c3.13-7.42,7.13-15.59,12.04-22.59
		c2.14,5.13,2.82,10.87,2.91,16.91c0.2,12.82-4.12,58.3-4.03,64.19c0,0.15,0.16,1.03,0.17,1.62c-0.29,0,0-0.29-0.3-0.29
		c-0.29,0.3,0.02,1.33-0.57,1.19c0,0.15,0.74,0.43,0.75,1.02c0,0.15-0.44,0.45-0.43,0.74c0.45,0.44,1.19,0.42,1.63,0.42
		c0.29,0,0.29-0.45,0.44-0.45c0.3,0.29,0.74,0.28,1.04,0.28c1.62-0.02,8.39-1.16,9.42-1.18c0.15,0.44,0.45,0.73,1.04,0.72
		c1.77-0.03,1.03-0.16,2.34-1.36c0.45,0.73,0.02,1.33,0.9,1.31c0.14-0.44,0.43-0.74,1.02-0.9c-0.15-0.14-0.15-0.44-0.16-0.59
		c0-0.29,0.14-0.3,0.43-0.6c0,0.15,0.3,0.14,0.3,0.29c0.14-0.74,0.43-0.89,0.86-1.49c0.29,0,0.6,0.58,0.76,1.17
		c0.44-0.01,0.44-0.45,1.02-0.9c0.15,0.29,0.15,0.44,0.3,0.44c0-0.15,0.29-0.3,0.58-0.45c-0.29,0-0.15-0.44-0.16-0.59
		c0.15,0,0.15,0.29,0.3,0.44c0.28-1.04,1.01-1.19,1.16-1.49c0,0-0.15,0-0.15-0.29c0.66-5.17,5.64-26.47,7.87-34.47l0-0.15
		c0-0.01,0-0.02,0-0.03l0.39-1.01c0.02,0,0.04,0.01,0.04,0.01c0.17-0.51,0.38-1.07,0.61-1.68l5.21-11.76
		c4.09-8.22,9.34-16.87,13.44-19c1.73,3.21,1.33,7.83,1.64,11.69l0,0l0.06,3.3l0,0.03c-0.13,0.78-0.14,1.66-0.12,2.49l-0.32,6.72
		l-2.29,16.44l-1.19,10.36c-0.92,5.61-1.64,13.81-1.59,17.28c0,0.15,0.29,0,0.44,0.14c-0.01-0.74-0.31-1.17,0.27-1.77
		c-0.08,4.42-0.49,6.64-0.44,10.03c0.04,2.51,0.37,4.86,2.46,6.89c0-0.15,0.15-0.15,0.14-0.3c-0.01-0.74,0.74,0.28,1.19,0.87
		c-0.31-0.88-0.79-3.53,0.09-3.54c-0.01-0.44-0.16-0.88-0.17-1.47c0.16,0.88,0.78,2.49,1.66,2.78c0.15,0,0.14-0.15,0.14-0.15
		c0-0.15-0.3-0.29-0.3-0.59l0.15-0.15c0,0.29,0,0.29,0.6,0.58c-0.01-0.88-0.76-1.76-0.78-2.49c0.31,0.73,0.76,1.17,0.91,1.9
		c-0.01-0.44-0.02-1.18,0.12-1.92c0,0.15,0,0.29,0.15,0.29l0.29-0.3c0.15,0,0.16,0.59,0.76,1.17c0.15,0-0.01-0.44,0.14-0.44
		c0.01,0.74,0.45,0.73,0.61,1.17c0-0.29-0.31-0.73-0.32-1.32c0.9,0.87,1.04,0.43,0.58-0.6c0.14-0.15,0.44-0.01,0.44-0.15
		c0,0,0.48,2.35,1.08,3.37c-0.01-0.44-0.6-0.88-0.17-1.32c0,0,0,0.29,0.15,0.29c-0.01-0.59-0.16-1.03-0.17-1.32
		c0-0.29,0.14-0.44,0.43-0.6c0.46,1.32,0.46,1.03,0.44,0.14c0-0.15,0.14-0.3,0.14-0.44c0.45,0.73,0.46,1.17,0.91,1.61
		c-0.01-0.88-0.32-1.62-0.33-2.06c0.44,0.14,0.6,0.43,0.6,0.58c0,0.29-0.14,0.44-0.29,0.59c0.74-0.01,1.05,1.31,1.05,1.46
		c0.15-0.15,0.14-0.59,0.13-1.03l0.6,0.43c0-0.15,0-0.29-0.3-0.44c0,0,0.15,0,0.15-0.15c0-0.29-0.31-1.03-0.31-1.17
		c0,0,0.14-0.15,0.29-0.15c0.45,0.44,0.76,1.46,0.78,3.08c0.11-2.21,0.07-5.01,0.63-6.94c-0.15,0-0.29,0.45-0.29,0.45
		c0-0.15-0.15-0.14-0.15-0.29c-0.01-0.44,0.43-0.74,0.43-0.74c-0.3-0.14-0.3-0.14-0.3-0.59l0.29-0.59c-0.15,0-0.16-0.59-0.46-1.17
		c0.44-0.01,0.54-3.4,0.53-4.14c0.29,0,0.29-0.3,0.44-0.45c0,0-0.13,0.89,0.46,0.88C275.34,335.2,280.51,316.99,280.27,301.37z
		 M222.03,262.46c-0.44,0.01-0.74,0.01-0.74-0.14c0.74-0.01,1.18,0.13,1.49,0.86C222.48,262.75,222.18,262.75,222.03,262.46z
		 M224.57,264.63c0.15,0.14,0.44,0.14,0.45,0.29l0,0.15C224.58,265.07,224.57,264.78,224.57,264.63z M225.18,265.65l-0.15-0.15
		c0,0,0.15,0,0.15-0.15c0,0.15,0.3,0.14,0.3,0.14C225.32,265.65,225.32,265.65,225.18,265.65z M225.76,265.35
		c0.15,0,0.59,0.14,0.6,0.58C225.92,265.94,225.76,265.5,225.76,265.35z"/>
	<path d="M467.44,258.99c0.13-0.89,1.27-3.71,0.37-4.43c-0.53-5.45-8.61-3.85-12.1-0.99c-1.78-0.56-5.15,0.82-5.56,3.03
		c-4.21,14.07-6.83,35.19-8.02,44.06c-12.09,0.72-23.74,10.6-29.15,26.21c-8.29,11.09-16.27,20.33-17.04,18.72
		c-1.52-3.07,3.65-21.58,0-29.04c-1.98-3.95-11.13-4.99-14.8-3.46c-7.03,2.91-12.46,14.05-14.77,17.62
		c0.96-4.73,2.88-14.34,3.55-18.48c0.54-2.96-3.48-5.84-6.24-3.29c-3.22,1.23-7.22,0.11-8.19,4.55c-0.62,2.95-1.29,6.7-1.9,10.74
		c-6.18,9.08-15.61,21.82-18.83,21.87c-1.18,0.02-1.66-2.63-1.73-6.9c-0.13-8.55,3.15-25.41,3.85-27.92
		c1.26-4.59-6.11-4.03-7.43-4.01l-0.15,0l-0.15,0c-1.62,0.17-2.93,0.93-4.1,1.98c-3.2,3-15.22,26.18-20.88,32.46
		c-0.15,0.15-0.29,0.15-0.59,0.16c-3.54,0.05,4.01-26.74,4.58-28.38c0.43-0.89,1.13-3.11,1.1-5.03c-0.03-1.77-4.75-2.43-5.37-4.05
		c-2.95,0.05-6.18,0.68-8.94,3.38c-4.65,4.49-8.26,19-8.09,29.9c0.05,2.95,0.38,5.74,1.15,7.65c1.38,3.37,6.46,8.01,9.85,7.96
		c7.96-0.12,14.31-8.92,20.19-19.77l0.01,0.74c0.19,12.23,4.84,17.76,16.18,17.15c6.24-0.43,12.58-6.62,17.62-13.36
		c-0.38,4.1-0.6,7.95-0.55,11.04c0.78,2.64,2.82,1.43,5.94,2.71c3.14,3.05,5.93,1.97,7.34-2.18l-0.01-0.44
		c5-10.4,8.4-19.15,16.52-28.56c2.96,0.84-3.73,26,0.77,30.95c2.7,2.91,4.77,3.32,8.16,3.27c6.06-0.01,13.6-6.33,20-13.66
		c-0.17,2.04-0.25,4.13-0.21,6.28c0.09,5.6,2.86,13.67,8.76,13.58c8.11-0.12,16.03-11.89,18.31-17.23
		c-0.77,7.68-2.13,24.36,0.93,31.68l-0.02-1.18c0.59-0.01,0.59,0.29,0.9,0.72c-0.01-0.74-0.17-1.77-0.18-2.21l0.6,0.43
		c-0.01-0.44,0.14-0.59,0.13-0.89l1.21,2.19c-0.01-0.88-0.17-1.32-0.18-2.06c0.46,0.88,1.2,1.6,1.2,1.16c0-0.29-0.16-0.88-0.17-1.18
		c0.74,0.28,2.37,1,2.68,1.58c-0.01-0.44,1.16-1.49,1.74-1.8l0.29-0.59c0,0.29,0.45,0.73,0.46,1.03c0-0.29,0.58-0.6,0.58-0.6
		c0.15,0.14,0.3,0.14,0.44,0.14c0.29,0,0.59,0.14,0.73-0.31c0.15,0.44,0.15,0.44,0.45,0.73c0-0.29,0.29-0.3,0.14-0.74
		c0.75,0.58,0.31,0.73,1.04,0.72c-0.16-0.73-0.17-1.18-0.18-1.91c0.45,0.73,0.33,2.06,1.21,1.9c0-0.29-0.16-0.73-0.17-1.18
		c0.45,0.73,0.91,1.46,1.35,1.6c0,0-0.01-0.44,0.29-0.45c0.44-0.01,0.89,0.43,1.33,0.42c-0.31-0.73-0.32-1.62-0.33-2.21
		c-0.03-1.92,0.02-8.55,0.42-11.36C457.31,329.02,461.74,291.06,467.44,258.99z M420.38,353.17c-0.44,0.3-1.04-0.43-0.92-2.2
		c2.77-11.84,9.03-26.67,20.84-34.96C436.9,324.76,431.05,347.11,420.38,353.17z"/>
	<path d="M511.57,310.2l-3.39-0.1l3.23-0.93l0-0.15c-7.36,0.85-9.13,0.88-15.71,3.93c-3.37,1.53-6.29,2.9-9.68,3.54
		c-0.75-0.73-2.37-0.55-2.06,0.47c-0.14,0.44,0.45,0.58,0.61,1.02c0.01,0.44-0.58,0.75-0.42,1.19l0.02,1.18
		c-0.14,10.17-3.24,19.66-9,28.3c-1.4-4.84-0.3-10.02,0.37-14.16c2.45-13.01,8.62-24.6,17.54-28.87c1.03-0.02,1.78,0.41,3.24,0.1
		c2.61-2.55-6.25-3.74-8.02-3.71c-13.58-0.97-22.14,17.15-24.47,29.12c-0.94,5.76-1.27,13.43,1.63,19.43
		c1.22,2.78,4.79,4.64,6.71,4.76c1.48,0.12,3.1,0.1,3.98-0.21c8.49-4.26,7.27-6.3,9.13-10.02c1.45-1.35,1.68-5.63,1.82-6.22
		c1.66-6.95,1-11.66-0.14-18.87l0.44-0.15c0,0,0.3,0.14,0.16,0.59c2.21-0.03,5.15-0.37,7.49-2.03c0.44-0.01,0.44-0.15,0.29-0.15
		c0.59-0.01,0.44-0.3,0.73-0.75c0.44-0.3,1.9-0.77,2.92-1.81c-0.13,1.03,1.9-0.91,1.9-1.06c1.18-0.02,1.59-1.94,1.32-0.61
		c2.2-0.77,5.27-2.44,8.37-2.34l0.14-0.3l-0.89-0.43l1.76-0.62L511.57,310.2z M506.26,310.28c0.44-0.01,0.59,0.29,1.03-0.16
		c0.74,0.14,0.15,0.44,0.01,0.44c-0.42,0.15-0.96,0.16-1.27,0.04C506.11,310.62,506.26,310.6,506.26,310.28z M502.6,312.11
		c0,0,0.44-0.45,1.02-0.46C503.79,312.38,502.75,311.96,502.6,312.11z M503.35,312.98c-0.15-0.29,0.44-0.45,0.44-0.45
		C503.94,312.82,503.94,312.82,503.35,312.98z M504.23,312.52c-0.15-0.44,0.29-0.59,0.29-0.59
		C504.67,312.37,504.67,312.37,504.23,312.52z M504.96,312.37l-0.15-0.44c1.32-0.17,3.23-0.79,4.42-0.36
		C507.9,311.58,506.43,311.9,504.96,312.37z"/>
	<path d="M114.11,281.49c0.51-0.01,1.18-0.87,1.6-0.87c-1.8-1.42-5.2-1.53-7.92-1.49c0.13-2.38,0.69-4.93,0.63-8.75
		c-0.02-1.02-0.03-1.95-0.21-2.71c0.16-0.34,0.16-0.6,0.16-0.77c-0.03-1.7-3.85-1.98-5.29-1.96c-1.53,0.02-3.22,0.47-3.79,2.27
		c-0.89,2.98-1.38,9.61-1.94,11.83c-1.7,0.11-6.79,0.27-6.78,0.87c0.03,1.95,3.44,2.58,5.73,2.54l0.59-0.01
		c-1.1,11.14-1.56,20.23-2.23,31.7c0.01,0.59-0.07,1.27-0.06,1.87c0.03,1.95,0.47,8.57,0.98,8.56c0.08,0-0.02-1.53,0.23-1.53
		c0.34-0.01,0.28,1.35,0.79,1.52c-0.01-0.59-0.02-1.02,0.23-1.36c0,0,0.29,2.46,0.63,2.45c0,0.08,0.05-1.95,0.23-1.79
		c0.17,0.17,0.38,2.63,0.8,2.62c-0.27-0.68-0.19-1.19-0.2-1.95c0.17,0.17,0.79,1.86,1.05,1.77c0-0.17,0.08-0.34,0.08-0.51
		c0.09,0.17,0.34,0.33,0.34,0.25l-0.18-0.59c0.51-0.01,0.26,0.51,0.86,0.84c-0.09-0.51-0.18-0.76-0.19-1.36
		c-0.01-0.34,0.16-0.43,0.25-0.51c0.02,1.02,0.79,1.94,1.22,2.02c-0.01-0.42,0.07-1.02,0.06-1.61c0.35,0.76,0.45,1.52,0.53,1.43
		c0-0.25,0.16-0.51,0.24-0.85c1.89-15.31,3.41-26.88,4.86-43.03c1.02-0.19,5.76-0.51,7.04-0.53
		C114.37,281.57,114.11,281.49,114.11,281.49z"/>
	<path d="M150.72,299.52c-0.36-1.52-1.69,0.62-2.27,1.65c-3.32,5.06-10.13,14.67-12.25,14.71c-0.68,0.01-0.96-1.51-0.99-3.97
		c-0.08-4.92,1.81-14.63,2.22-16.08c0.72-2.64-3.52-2.32-4.28-2.31l-0.08,0l-0.08,0c-0.93,0.1-1.69,0.54-2.36,1.14
		c-1.84,1.73-8.77,15.08-12.02,18.69c-0.08,0.09-0.17,0.09-0.34,0.09c-2.04,0.03,2.31-15.4,2.64-16.34c0.25-0.51,0.65-1.79,0.63-2.9
		c-0.02-1.02-2.74-1.4-3.09-2.33c-1.7,0.03-3.56,0.39-5.15,1.95c-2.68,2.59-4.76,10.94-4.66,17.22c0.03,1.7,0.22,3.31,0.66,4.4
		c0.79,1.94,3.72,4.61,5.67,4.58c4.58-0.07,8.24-5.13,11.63-11.38l0.01,0.42c0.11,7.04,2.79,10.23,9.32,9.87
		c6.28-0.44,12.74-10.98,15.04-15.68c0.41-1.02,0.48-1.71,0.3-2.72C151.15,300.02,150.81,299.86,150.72,299.52z"/>
	<path d="M128.25,178.39c4.17-6.26,9.88-15.91,12.07-24.44c0.67-3.02,0.98-5.86,0.95-8.52c-0.04-2.83-0.43-5.49-0.99-7.78
		c-1.72-9.37-8.88-14.23-16.55-17.84c-3.92-1.72-6.95-2.92-12.27-2.84l-1.95,0.03c-8.32,0.65-8.83,1.89-16.78,3.95
		c-0.18,0-0.35,0.18-0.53,0.18c-2.47,0.74-5.65,1.67-7.42,1.7l-0.35,0.01c-2.48,0.03-5.86-1.16-8.88-1.12
		c-0.89,0.01-1.77,0.02-2.65,0.39l0.01,0.53c0.01,0.89,0.37,1.06,0.56,2.3c0.03,2.3-2.58,5.71-3.61,8.2
		c-3.44,7.49-8.64,16.24-12.44,22.85c-7.44,12.86-12.11,21.43-16.94,30.36l-0.86,1.78c-5.36,9.64-10.01,19.28-14.84,28.91
		c-2.41,4.82-5.33,11.41-7.74,17.12c-1.53,4.98-4.45,11.22-4.72,17.25c0.05,3.54,1.51,6.36,3.31,8.64c1.08,1.23,4.82,2.77,6.25,3.46
		c0.72,0.52,1.61,0.86,2.67,0.85l0.53-0.01c0.71-0.19,2.11-1.45,2.98-2.17c2.46-1.81,3.14-3.94,4.51-6.8l0.52-0.89
		c0.51-1.78,1.01-3.91,1.87-5.7c3.23-9.61,8.94-19.61,13.07-28.71l0-0.18c0.51-1.25,1.72-4.1,2.95-4.47l0.18,0
		c0.89-0.01,3.03,1.02,4.45,1.18c3.2,0.66,5.33,0.81,7.45,0.78c1.59-0.02,3.01-0.04,4.96-0.25c10.44-0.85,33.33-11.62,44.88-21.71
		C118.67,190.39,123.55,184.65,128.25,178.39z M97.78,178.81c-5.96,4.69-11.93,8.49-18.26,11.95c-6.51,3.46-11.08,5.82-20.11,6.66
		c4.66-9.1,11.24-20,17.32-28.59c6.43-9.13,7.27-12.5,15.77-25.56c2.63-2.34,8.44-4.9,11.79-6.19c3.35-1.29,7.76-2.59,11.3-3.17
		c1.41-0.2,4.06-0.94,6.37-0.97c1.24-0.02,2.31,0.15,3.02,0.67c0.9,0.7,1.28,2.82,1.3,4.41c-0.12,4.43-2,8.89-4.08,12.28
		C117.19,160.29,105.48,172.5,97.78,178.81z"/>
	<path d="M167.82,221.25c0.86-1.78,1.71-4.28,2.75-6.42c0.69-1.07,1.39-1.79,1.56-2.68c0.87-1.43,1.03-2.49,1.19-3.56
		c0.85-2.32,1.89-4.28,2.57-6.59c0.86-2.14,1.18-4.45,2.03-6.76c-0.04-2.66,0.64-4.79,1.14-7.1c-0.19-0.71-0.02-1.59-0.56-1.76
		c0.51-1.78,0.83-3.73,0.8-6.04c-0.04-3.01-0.79-6.19-2.77-8.47c-1.08-0.87-2.86-1.91-4.46-2.42c-2.32-0.85-4.98-0.99-8.16-0.95
		l-2.66,0.04c-3.01,0.22-5.49,0.25-7.25,0.81c-2.47,0.57-4.94,1.66-6.53,2.04c-2.65,0.39-10.22,4.39-14.24,7.99
		c-2.27,2.69-4.73,4.14-6.11,6.29c-0.52,0.89-1.04,1.96-1.91,2.68l-2.61,3.4c-0.52,1.07-1.21,2.32-2.61,3.4
		c-2.59,5-5.36,9.64-6.7,15.33c-1.54,3.92-2.19,8.18-2.13,12.26c0.02,1.77,0.22,3.36,0.42,4.96c0.39,2.83,1.5,5.83,2.95,8.46
		c2.56,5.63,4.37,8.44,9.17,9.97c2.14,1.03,5.16,1.52,7.64,1.49c0.71-0.01,1.59-0.02,2.66,0.14c1.06-0.37,1.94-0.38,3-0.57
		l1.24-0.37c4.23-1.3,9-2.96,11.45-4.59c3.86-2.89,7.53-6.31,10.32-9.71c1.57-1.62,3.14-3.41,4.36-5.38L167.82,221.25z
		 M163.82,188.17c0.05,3.9-0.77,8.52-2.49,12.08c-3.24,9.08-8.27,16.77-14.9,24.84c-2.78,3.94-8.04,7.91-13.32,10.46
		c-1.09-1.58-1.64-3.34-1.67-5.12c-0.04-2.66,0.81-5.33,1.67-7.64l0.17-0.18c0.66-3.38,2.92-6.42,3.59-9.26
		c3.3-4.48,4.84-9.1,8.68-12.88c0.52-0.89,1.22-1.26,1.92-1.98c0.35-0.54,0.87-1.43,1.39-1.97c1.4-1.44,3.51-2.53,4.55-3.78
		l4.38-3.6c1.4-1.44,3.15-2.7,5.26-3.97l0.18,0c0.53,0.17,0.71,0.34,0.72,0.7c0,0.35-0.17,0.71-0.16,1.07L163.82,188.17z"/>
	<path d="M196.6,213.59c1.22-1.79,2.25-3.75,3.11-6.07c4.34-6.62,5.35-10.17,10.23-16.09c3.01-0.04,6.55-0.27,9.21-0.48
		c7.08-0.45,13.57-4.97,15.79-11.38c0.87-0.9,1.56-2.5,1.54-3.92l0-0.35c-0.71,0.01-2.11,1.09-3.7,1.47
		c-1.94,0.38-4.07,0.59-6.02,0.61c-2.48,0.03-4.61-0.11-6.39-0.62c3.3-4.83,3.47-5.54,6.59-10.55c1.39-2.15,2.25-4.11,3.81-6.08
		c0.87-0.9,1.75-1.62,2.27-2.51c0.69-1.25,1.03-2.49,1.01-3.73c-0.03-2.3-1.3-4.41-2.91-5.63c-1.07-0.69-2.67-1.03-4.28-2.07
		c-1.25-0.69-2.51-2.09-3.76-2.61c-1.42-0.51-3.2-0.66-5.15-0.64c-3.37,0.05-6.72,0.8-7.4,2.94l0.01,1.06
		c0,0.18,0.01,0.53-0.16,0.89c-9.86,17.68-26.93,38.82-32.65,60.52c-1.17,4.8-2.69,10.85-2.6,16.87c0.02,1.77,0.05,3.54,0.43,5.13
		c0.56,2.12,0.77,4.42,1.68,6.36c0.2,1.41,1.1,2.47,2,3.87c2.68,1.91,4.15,5.08,8.57,5.02c1.06-0.01,2.48-0.21,4.06-0.77
		c1.59-0.55,3.17-1.46,4.94-1.49c4.57-2.37,10.9-6.18,14.4-9.59c1.4-1.44,3.32-3.24,4.37-4.67c1.05-1.08,2.09-2.51,2.08-3.22
		c0.68-1.96,1.02-3.2,1.88-4.99c0.52-0.72,0.68-1.78,1.03-2.67c0.86-1.78,1.55-3.21,2.06-4.99c-1.76,0.91-2.45,2.16-3.85,3.42
		c-4.9,4.67-14.39,9.94-22.86,12.72c-1.41,0.37-2.65,0.57-3.71,0.58c-0.53,0.01-1.06,0.01-1.42-0.16
		c1.15-6.57,2.34-10.13,5.45-15.67L196.6,213.59z"/>
	<path d="M283.86,219.65l-0.01-0.35c0.52-0.54,1.4-1.61,1.74-2.33c0.17-0.18,0.17-0.36,0.17-0.53l-0.01-0.71
		c0.17-0.36,1.05-1.08,1.39-1.79c0,0,0.17-0.18,0.17-0.36c0.34-1.07,0.85-2.85,0.82-4.44c-4.88,5.74-11.18,11.32-18.74,15.68
		c-3.69,2.18-9.13,6.15-16.18,8.73c-1.24,0.37-2.3,0.56-3.36,0.58c-3.37,0.05-5.35-2.23-5.38-4.53c-0.05-3.37,0.26-6.56,0.93-9.58
		c0.51-1.78,1.37-3.74,2.23-5.52c0.86-1.78,1.02-3.03,3.12-5c0.19,0.71,0.9,1.23,1.62,1.93c1.79,1.04,3.58,2.96,6.43,3.63
		c1.06-0.01,2.13-0.03,3.19,0.13c0.89,0.16,2.13,0.32,3.02,0.31c4.25-0.06,6.19-0.62,10.23-3.69c2.6-3.93,7.18-6.12,9.23-11.47
		l0.17-0.18c1.73-2.68,3.81-6.08,4.47-9.63c0.34-0.71,0.33-1.6,0.32-2.31l-0.02-1.42c0.51-1.42,0.32-2.31,0.84-3.56
		c-0.39-2.83-8.11-9.99-11.32-11.18c-1.42-0.51-5.16-1.7-6.23-2.39c-2.31-0.5-8-2.19-10.14-2.69l-0.53,0.01
		c-0.35,0-0.89,0.01-1.24,0.19c-1.06,0.37-2.11,0.92-2.82,1.28c-3.34,1.82-5.8,3.62-8.42,5.96c-3.5,3.06-6.83,6.12-10.32,9.89
		c-3.84,4.48-7.48,10.2-10.41,15.91c-3.11,6.07-5.65,14.25-5.54,22.23c0.04,3.19,0.44,6.37,1.54,9.19c0.93,2.82,2.56,5.63,4.89,7.73
		c1.08,0.87,2.5,1.38,3.04,2.26c1.43,1.04,2.33,2.27,3.76,2.78c1.43,0.69,2.85,1.02,4.1,1.54c0.18,0,0.18,0.17,0.36,0.17
		c0.89,0.34,1.78,0.68,2.84,0.67l2.13-0.03c3.01-0.04,7.79-0.46,9.9-1.38c0.71-0.19,1.59-0.55,2.47-1.1
		c3.17-1.28,4.57-2.54,7.74-4.36c1.58-0.73,4.04-2.89,5.44-3.97c2.98-2.52,5.08-4.5,7.52-7.01c0.16-1.07,0.69-1.43,1.39-2.32
		c0.34-0.71,0.69-1.6,0.85-2.67l2.43-3.4C283.87,220.35,283.86,220,283.86,219.65z M257.02,201.23c1.91-2.68,4.36-5.02,6.45-7.53
		c3.32-3.59,6.47-5.94,9.45-8.64c0.37,1.06,0.56,2.12,0.58,3.36c0.03,2.48-0.64,5.32-2.02,8c-1.03,2.5-2.24,4.64-3.63,6.61
		l-0.35,0.54c-1.05,1.25-1.57,1.44-3.51,2.17c-0.88,0.37-2.65,0.74-4.42,0.77c-1.06,0.01-1.95-0.15-2.66-0.49
		c-0.53-0.17-1.61-0.86-1.62-1.57l0-0.18C255.29,203.74,256.51,202.13,257.02,201.23z"/>
	<path d="M502.46,125.9c-0.36-0.35-0.72-0.52-1.25-0.69c-1.43-0.69-3.57-1.72-5.17-2.05c-0.53,0.01-1.07-0.16-1.6-0.15
		c-2.66,0.04-4.23,1.3-5.81,2.74c-0.51,1.78-2.26,2.87-3.12,4.65c-0.52,0.72-0.51,1.42-0.86,2.14c-0.69,1.43-1.73,2.86-2.6,4.29
		c-1.73,3.04-3.46,5.9-4.66,9.1c-0.34,1.24-1.03,2.49-1.01,3.91c0,0.35,0.01,0.89,0.2,1.41c1.42,0.16,2.83-0.04,4.26,0.3
		c0.53,0.17,1.07,0.52,1.6,0.51l0.35-0.01c0.53-0.01,0.88-0.37,1.41-0.55c1.06-0.37,2.3-0.21,3.54-0.58
		c1.22-1.61,3.16-2.35,4.73-3.61c4.22-2.18,8.05-7.38,12.44-9.92c0.88-0.72,2.29-0.92,2.81-1.81c0.52-0.89,0.86-1.96,0.84-3.2
		c-0.01-1.06-0.39-2.3-0.76-3.36c-1.07-0.52-1.79-1.57-2.69-2.27C504.41,126.23,503.52,126.06,502.46,125.9z"/>
	<path d="M541.6,214.49c-2.1,1.62-4.74,3.08-7.21,4c-0.35,0.18-0.71,0.19-1.06,0.19c-0.71,0.01-1.24-0.34-1.43-0.87
		c0.32-2.66,3.77-9.09,6.39-12.31c0.69-1.07,2.28-1.98,2.79-3.41c0.17-0.53,0.34-1.24,0.33-1.78c-0.05-3.72-4.51-5.96-8.59-6.26
		c-0.54-0.35-0.89-0.52-1.42-0.51l-0.71,0.01c-1.25-0.51-3.39-1.73-5.34-1.7l-0.35,0c-1.41,0.37-2.98,2.17-2.96,3.76l0,0.18
		c-7.51,8.25-17.82,18.5-24.64,24.97c-2.45,2.16-4.54,4.85-7.54,5.95c7.59-15.17,19.64-27.91,29.97-36.92
		c1.58-1.26,3.33-2.7,5.44-4.15c1.58-0.91,5.46-2.38,7.41-2.41l0.53-0.01c0.89,0.16,1.62,1.57,2.34,2.27
		c1.25,0.69,3.21,1.2,4.98,1.17c1.42-0.02,2.83-0.22,3.89-0.94c1.93-1.09,2.62-2.69,2.59-4.82l-0.02-1.24
		c-0.26-5.67-2.76-7.58-7.74-9.11c-2.31-0.68-4.81-1.71-7.3-2.2l-5.68-0.81c-2.31-0.5-4.8-1.35-7.29-1.85c-2.49-0.5-4.62-1-7.1-0.96
		c-1.06,0.55-1.57,1.44-1.91,2.51c-10.54,7.24-19.98,17.72-27.39,29.24c-7.13,6.72-14.64,13.36-22.43,19.47
		c-3.5,3.06-7.54,5.77-11.76,8.14c1.38-2.68,2.41-5.35,4.51-7.33c2.25-3.93,4.68-7.86,7.28-11.97c1.91-2.86,3.64-6.07,5.55-8.94
		c0.7-0.9,1.57-1.79,2.26-2.87c0.17-0.36,0.17-0.89,0.51-1.25c0.51-1.25,1.56-2.5,2.6-3.93l5.57-7.34c0.69-1.25,2.09-2.51,2.78-3.76
		c0.34-0.71,0.33-1.6,0.32-2.31c-0.03-1.95-0.76-3.89-1.49-5.12c-1.43-1.04-3.03-1.38-4.82-2.41c-1.96-1.04-4.3-3.13-6.6-3.45
		l-0.71,0.01c-2.13,0.03-3.36,0.76-4.58,1.66c-0.18,0-0.17,0.18-0.35,0.18l-0.35,0.36c-5.89,9.65-12.85,19.14-18.54,30.56
		c-2.76,5.53-5.35,10.53-7.74,16.59c-0.1,0.27-0.21,0.55-0.32,0.83c-0.17-0.69-0.4-1.37-0.41-2.06l-0.01-0.71
		c-2.44,3.05-5.94,5.75-9.46,8.1c-2.45,1.98-4.21,2.72-7.21,4.18c-2.46,1.63-5.28,2.91-7.91,4.36c-3.35,1.29-8.64,2.95-11.65,3
		c-1.42-0.16-4.62-1-4.64-2.06c0-0.18-0.18-0.35-0.18-0.53c-0.01-0.71,0.33-1.6,0.5-2.13c1.17-5.33,2.17-9.78,5.45-16.02
		c0.17-0.53,0.52-0.89,0.69-1.25c2.42-4.46,3.98-6.97,5.9-9.3c3.48-4.3,7.52-7.01,10.5-9.36c0.88-0.54,3-0.93,3.88-1.12
		c0.06,4.61-3.22,10.85-4.95,13.89c0.18,0.35,0.72,0.52,1.25,0.51c0.53-0.01,1.24-0.19,1.95-0.2c0.53-0.01,1.24,0.16,1.77,0.15
		c0.89-0.01,1.59-0.2,2.3-0.39c5.47-1.49,10.02-5.63,11.54-11.5c0.34-1.24,1.2-2.67,1.37-3.56l0-0.35c-0.03-2.3-2-3.52-3.08-4.92
		c0.86-1.61,0.84-3.02,0.83-4.09c-0.92-2.82-2.9-4.74-4.88-6.67l-0.54-0.52c-3.04-1.73-4.84-4.19-7.17-5.57
		c-1.25-0.51-3.73-1.01-5.86-0.98c-1.06,0.01-1.95,0.2-2.47,0.57c-0.52,0.54-1.41,0.91-1.93,1.44c-3.87,2.18-6.14,4.16-9.3,6.68
		c-8.03,6.64-15.33,14.21-20.44,23.78c0.02-0.15,0.03-0.3,0.03-0.46l-0.01-0.53c-5.75,7.34-14.16,13.84-21.71,19.08
		c-0.88,0.54-1.93,1.62-2.99,1.64c-0.35,0-0.53-0.17-0.89-0.34c0.33-1.42,1.02-2.85,1.89-4.1c4.5-8.04,9.89-15.38,14.75-22.88
		l2.6-3.93c1.03-2.14,1.7-4.98,1.67-7.64c-0.03-2.48-0.77-4.77-2.57-6.17c-1.61-1.4-3.39-1.37-5.7-2.22
		c-0.89-0.34-1.96-1.04-2.67-1.03c-1.59,0.02-4.05,1.47-6.68,3.64c-1.23,0.9-2.46,1.63-3.33,2.53
		c-14.36,12.25-27.47,25.54-40.76,38.31c-1.92,1.8-4.19,4.31-6.3,5.58c1.39-2.15,6.06-10.01,7.28-11.62
		c1.22-1.61,2.61-3.23,4.01-4.84c2.44-3.05,4.7-6.27,7.49-9.14c2.62-2.52,5.42-5.39,8.75-7.56c1.75-1.26,3.68-2.71,4.19-4.84
		c-0.01-0.53,0.17-0.89,0.16-1.24c-0.06-4.07-3.27-5.45-5.41-6.84c-0.9-0.87-1.8-1.92-3.04-1.91c-0.35,0.01-0.88,0.19-1.24,0.37
		c-1.61-1.04-3.56-1.19-5.16-1.88c-1.78-0.86-3.23-2.79-5.36-3.12c-1.76,0.73-3.71,1.11-4.57,2.9l0.01,0.71
		c0.02,1.59-1.03,2.67-2.07,4.28c-8.15,12.52-16.67,24.33-23.21,38.42l-0.52,1.07c-2.24,4.82-4.65,9.99-5.1,15.66
		c0.02,1.77,0.05,3.72,0.43,5.13c0.39,2.65,1.83,3.87,2.57,6.7c1.09,1.58,3.79,4.73,5.92,5.23c0.36,0.17,1.07,0.16,1.77,0.15
		c4.95-0.6,7.39-3.65,10.89-6.71c3.68-3.24,6.81-7,10.13-10.59c0.52-0.89,1.4-1.26,2.1-1.98c0.52-0.54,0.87-1.25,1.22-1.79
		c1.57-1.97,3.49-3.77,5.24-5.74c4.54-4.67,8.91-9.34,12.92-14c0.69-1.07,1.57-2.15,2.45-2.51c-0.5,2.49-3.94,9.8-4.79,12.47
		c-1.01,3.56-2.19,8.18-2.13,12.61c0.03,2.48,0.43,5.13,1.52,7.07c0.37,0.88,1.08,1.58,1.63,2.46c1.64,3.17,4.34,6.5,8.59,6.44
		c0.35,0,0.71-0.19,1.24-0.19c7.78-1.17,13.18-8.16,17.54-12.65c1.92-1.98,4.2-3.6,5.23-6.45c1.86-2.71,4.07-5.71,6.01-8.89
		c-0.06,0.81-0.09,1.62-0.08,2.43l0.01,0.89c0.28,7.44,3.37,12.89,7.68,16.9c2.16,2.1,4.84,3.83,7.34,5.21
		c1.07,0.52,1.96,0.5,2.85,0.85l0.72,0.52c2.15,1.56,2.86,1.91,6.58,2.04c1.24-0.02,2.31,0.15,3.37,0.13l1.06-0.01
		c0.89-0.01,1.77-0.2,2.65-0.39c2.12-0.21,3.71-0.58,4.94-1.31l1.76-0.73c4.23-1.83,8.07-5.6,11.22-9.01
		c2.44-2.69,4.01-4.84,5.74-7.7c0.25-0.41,0.48-0.84,0.72-1.26c-0.52,2.23-0.85,4.55-0.82,6.93l0.01,1.06
		c0.22,3.36,1.67,5.29,3.29,7.22c0,0.18,0.18,0.17,0.18,0.35c1.44,1.57,1.99,2.81,4.3,3.31c1.25,0.69,1.98,2.28,3.22,2.26l0.35-0.01
		c1.24-0.02,2.47-0.74,3.35-1.46c3.52-2,6.49-4.87,9.12-6.68c0.17-0.18,0.17-0.36,0.17-0.53c0-0.18-0.01-0.53,0.17-0.71
		c3.33-2.7,6.11-6.29,9.63-8.64c0.5-2.13,2.44-3.05,3.31-4.48c0.35-0.54,0.34-1.07,0.69-1.6c1.22-1.61,2.62-2.69,3.66-4.13
		c0.41-0.55,0.8-1.11,1.2-1.66c-1.1,2.94-1.85,6.17-1.8,9.82l0.01,0.53c0.22,3.36,1.68,6.18,2.95,8.29c1.82,3.16,4.52,6.49,8.79,7.5
		l1.42-0.02c1.6,0.51,2.86,2.09,5.17,2.05l0.35,0c3.89-0.59,5.07-4.68,7.7-6.66c6.11-6.64,12.01-15.58,17.95-22.04
		c-0.82,4.62-0.93,9.94-0.87,14.01c0.42,4.78,1.85,6,4.71,7.73c0.71,0.17,1.79,1.04,3.38,1.02l0.35-0.01
		c0.53-0.01,1.06-0.19,1.95-0.2c1.24-0.02,2.82-0.75,4.05-1.65c1.58-0.91,2.81-1.63,4.04-2.71c2.46-1.81,5.08-4.15,7-6.12
		c1.22-1.61,1.9-3.92,3.11-5.71c0.52-0.89,1.04-1.96,1.2-2.67c-0.01-0.71-0.55-1.41-0.57-2.47c0.15-1.6,0.85-2.49,1.36-4.09
		C543.34,212.34,542.65,213.59,541.6,214.49z"/>
	<path d="M624.21,165.68c-0.71-0.17-1.25-0.87-1.96-1.04c-0.71,0.01-1.77-0.15-2.66-0.14c-0.89,0.01-1.77,0.2-2.3,0.21
		c-1.23,0.55-1.93,1.62-2.98,1.99c-2.63,1.81-3.32,3.06-6.11,6.64c-8.53,10.93-15.52,17.76-23.41,24.24l-0.36-0.53
		c1.89-4.1,4.5-8.04,7.79-13.22l0.69-1.07c1.04-1.43,2.44-2.87,3.13-4.3c0.51-1.42,0.85-2.85,0.83-3.91c-0.02-1.77-0.75-3-2.01-4.05
		c-0.9-0.87-1.62-1.75-2.16-2.1c-0.18,0-0.18-0.17-0.36-0.17c-0.9-0.7-1.97-1.39-2.85-1.38l-0.35,0c-1.08-1.23-2.68-1.91-3.94-2.78
		c-0.71-0.34-1.25-0.87-1.96-1.04c-0.89-0.52-1.78-0.68-2.49-0.67c-1.95,0.03-3.52,1.47-4.75,2.72c-2.23,5.35-5.54,9.47-8.66,14.3
		c-6.25,9.48-12.32,18.6-16.6,29.64c-2.23,5.52-4.62,11.58-5.42,17.79c-0.16,1.24-0.32,2.31-0.31,3.37
		c0.09,6.2,3.68,10.05,8.49,11.75c1.77,0.15,2.66,0.49,3.55,0.48c0.35-0.01,0.89-0.01,1.41-0.2c2.3-0.03,4.58-1.84,5.62-3.8
		c2.93-5.89,3.76-10.33,8.46-16.06c2.61-3.23,7.86-8.26,12.59-11.87l10.87-8.48c0.75,3,3.14,9.17,5.47,11.44
		c0.72,0.7,3.04,2.08,4.11,2.42l0.53-0.01c1.42-0.02,2.47-0.57,3.89-0.94c1.77-0.38,3.35-0.93,5.29-1.67
		c3.14-3.59,9.1-8.28,9.36-15.01c0.68-1.96,1.9-3.39,2.05-5.7c-0.88,0.72-1.39,1.61-2.45,2.34c-2.27,2.51-5.07,5.03-8.96,5.62
		c2.59-4.82,5.36-9.29,8.49-13.76c0.87-1.08,1.56-2.33,2.25-3.57c1.74-1.97,3.3-4.48,4.15-7.32c0.34-1.07,0.5-2.31,0.48-3.55
		c-0.03-1.95-0.59-3.89-1.85-5.29C627.94,166.34,626.16,166.18,624.21,165.68z"/>
	<path d="M176.58,119.76c1.2-0.4,2.18-0.95,2.96-1.66c0.78-0.71,1.36-1.55,1.73-2.54c0.38-0.99,0.56-2.07,0.56-3.25
		c0-1.09-0.19-2.11-0.56-3.06c-0.37-0.94-0.94-1.76-1.72-2.45c-0.78-0.69-1.76-1.23-2.96-1.63c-1.2-0.39-2.63-0.59-4.3-0.58
		l-8.36,0.02l0.06,23.69l5.5-0.01l-0.02-7.92l2.86-0.01C173.97,120.36,175.39,120.16,176.58,119.76z M169.46,116.23l-0.02-7.51
		l2.86-0.01c0.69,0,1.29,0.08,1.8,0.26c0.5,0.17,0.92,0.42,1.25,0.74c0.33,0.32,0.58,0.7,0.74,1.14c0.16,0.44,0.25,0.94,0.25,1.48
		c0,1.23-0.31,2.18-0.94,2.86c-0.63,0.68-1.66,1.03-3.09,1.03L169.46,116.23z"/>
	<path d="M184.35,128.25c0.46,0,0.84-0.12,1.15-0.37c0.31-0.24,0.52-0.52,0.63-0.82l1.39-4.13l9.01-0.02l1.41,4.13
		c0.12,0.35,0.33,0.63,0.64,0.85c0.31,0.22,0.7,0.33,1.18,0.33l4.26-0.01l-9.23-23.67l-5.63,0.01l-9.11,23.71L184.35,128.25z
		 M190.95,112.73c0.16-0.41,0.33-0.9,0.52-1.46c0.18-0.56,0.36-1.18,0.53-1.84c0.19,0.65,0.37,1.25,0.57,1.81
		c0.19,0.56,0.36,1.04,0.5,1.45l2.19,6.48l-6.47,0.02L190.95,112.73z"/>
	<path d="M221.93,115.57c0.41-0.58,0.71-1.21,0.91-1.9c0.2-0.68,0.31-1.41,0.3-2.18c0-1.01-0.18-1.94-0.53-2.8
		c-0.35-0.86-0.91-1.6-1.67-2.22c-0.77-0.63-1.75-1.11-2.96-1.46c-1.21-0.35-2.67-0.52-4.38-0.52l-7.71,0.02l0.06,23.69l5.5-0.01
		l-0.02-8.76l1.4,0c0.42,0,0.75,0.06,0.98,0.19c0.23,0.13,0.44,0.35,0.61,0.65l3.95,6.87c0.4,0.69,1.06,1.04,1.99,1.04l4.98-0.01
		l-5.06-8.23c-0.24-0.39-0.52-0.72-0.84-0.99c-0.32-0.27-0.67-0.5-1.03-0.68c0.77-0.29,1.45-0.67,2.04-1.13
		C221.02,116.67,221.52,116.15,221.93,115.57z M217.55,113.37c-0.15,0.45-0.39,0.84-0.73,1.18c-0.34,0.34-0.77,0.6-1.29,0.79
		c-0.53,0.19-1.16,0.29-1.91,0.29l-2.21,0.01l-0.02-7.02l2.21-0.01c1.42,0,2.47,0.29,3.15,0.87c0.68,0.58,1.02,1.4,1.02,2.44
		C217.78,112.43,217.7,112.92,217.55,113.37z"/>
	<path d="M243.54,126.92c0.12,0.35,0.33,0.63,0.64,0.85c0.31,0.22,0.7,0.33,1.18,0.33l4.26-0.01l-9.23-23.67l-5.63,0.01l-9.11,23.71
		l4.29-0.01c0.46,0,0.84-0.12,1.15-0.37c0.31-0.24,0.52-0.52,0.63-0.82l1.39-4.13l9.01-0.02L243.54,126.92z M234.38,119.08
		l2.16-6.46c0.16-0.41,0.33-0.9,0.52-1.46c0.18-0.56,0.36-1.18,0.53-1.84c0.19,0.65,0.37,1.25,0.57,1.81
		c0.19,0.56,0.36,1.04,0.5,1.45l2.19,6.48L234.38,119.08z"/>
	<path d="M278.5,124.04c0.58-0.71,1.06-1.47,1.46-2.3c0.39-0.82,0.7-1.71,0.9-2.64c0.21-0.94,0.31-1.92,0.31-2.94
		c0-1.7-0.3-3.29-0.9-4.76c-0.59-1.47-1.43-2.75-2.51-3.83c-1.08-1.08-2.37-1.93-3.88-2.55c-1.51-0.62-3.19-0.93-5.03-0.92
		c-1.84,0-3.52,0.32-5.04,0.94c-1.52,0.62-2.81,1.48-3.89,2.56c-1.08,1.09-1.91,2.37-2.5,3.84c-0.59,1.48-0.88,3.07-0.87,4.78
		c0,1.71,0.3,3.31,0.9,4.78c0.59,1.47,1.43,2.75,2.51,3.84c1.08,1.09,2.38,1.94,3.9,2.55c1.52,0.61,3.2,0.92,5.04,0.91
		c0.52,0,1.03-0.03,1.52-0.08c0.49-0.06,0.98-0.13,1.45-0.23l2.95,3.29c0.41,0.48,0.89,0.79,1.42,0.95
		c0.53,0.16,1.12,0.23,1.77,0.23l4.52-0.01l-6.02-6.54C277.27,125.37,277.92,124.75,278.5,124.04z M275.1,119.36
		c-0.3,0.94-0.74,1.73-1.3,2.39c-0.57,0.65-1.26,1.15-2.09,1.49c-0.82,0.34-1.76,0.52-2.81,0.52c-1.06,0-2.01-0.17-2.84-0.51
		c-0.83-0.34-1.53-0.83-2.1-1.48c-0.57-0.65-1.01-1.44-1.32-2.38c-0.31-0.94-0.46-2-0.46-3.18c0-1.17,0.15-2.23,0.45-3.16
		c0.3-0.94,0.74-1.73,1.3-2.39c0.57-0.65,1.27-1.15,2.09-1.5c0.83-0.35,1.77-0.52,2.84-0.53c1.05,0,1.99,0.17,2.81,0.51
		c0.82,0.34,1.52,0.84,2.09,1.49c0.57,0.65,1.01,1.44,1.31,2.38c0.31,0.94,0.46,1.99,0.46,3.16
		C275.55,117.36,275.4,118.42,275.1,119.36z"/>
	<path d="M297.12,122.22c-0.4,0.46-0.89,0.81-1.47,1.05c-0.58,0.25-1.24,0.37-1.97,0.37c-0.74,0-1.4-0.12-1.98-0.36
		c-0.58-0.24-1.07-0.59-1.47-1.05c-0.4-0.46-0.71-1.02-0.92-1.67c-0.21-0.66-0.32-1.4-0.32-2.24l-0.03-14.02l-5.5,0.01l0.03,14.03
		c0,1.45,0.24,2.79,0.71,4c0.47,1.21,1.14,2.26,2.02,3.13c0.88,0.88,1.95,1.56,3.21,2.04c1.26,0.48,2.68,0.73,4.26,0.72
		c1.57,0,2.99-0.25,4.24-0.74c1.26-0.49,2.32-1.18,3.2-2.06c0.88-0.88,1.55-1.93,2.02-3.14c0.47-1.22,0.7-2.55,0.7-4l-0.03-14.03
		l-5.5,0.01l0.03,14.03c0,0.83-0.1,1.58-0.31,2.24C297.83,121.21,297.52,121.77,297.12,122.22z"/>
	<polygon points="322.64,104.23 307.39,104.26 307.45,127.96 322.7,127.92 322.69,123.69 312.97,123.71 312.95,118.07 320.4,118.05 
		320.39,113.99 312.94,114.01 312.93,108.48 322.65,108.45 	"/>
	<path d="M344.69,119.35c1.2-0.4,2.19-0.95,2.96-1.66c0.78-0.71,1.36-1.55,1.73-2.54c0.38-0.99,0.56-2.07,0.56-3.25
		c0-1.09-0.19-2.11-0.56-3.06c-0.37-0.94-0.94-1.76-1.72-2.45c-0.78-0.69-1.76-1.23-2.96-1.63c-1.2-0.39-2.63-0.59-4.3-0.58
		l-8.36,0.02l0.06,23.69l5.5-0.01l-0.02-7.92l2.86-0.01C342.07,119.95,343.49,119.75,344.69,119.35z M337.56,115.82l-0.02-7.51
		l2.86-0.01c0.69,0,1.29,0.08,1.8,0.26c0.5,0.17,0.92,0.42,1.25,0.74c0.33,0.32,0.58,0.7,0.74,1.14c0.16,0.44,0.25,0.94,0.25,1.48
		c0,1.23-0.31,2.18-0.94,2.86c-0.63,0.68-1.66,1.03-3.09,1.03L337.56,115.82z"/>
	<path d="M366.13,122.06c-0.4,0.46-0.89,0.81-1.47,1.05c-0.58,0.25-1.24,0.37-1.97,0.37c-0.74,0-1.4-0.12-1.98-0.36
		c-0.58-0.24-1.07-0.59-1.47-1.05c-0.4-0.46-0.71-1.02-0.92-1.67c-0.21-0.66-0.32-1.4-0.32-2.24l-0.03-14.02l-5.5,0.01l0.03,14.03
		c0,1.45,0.24,2.79,0.71,4c0.47,1.21,1.14,2.26,2.02,3.13c0.88,0.88,1.95,1.56,3.21,2.04c1.26,0.48,2.68,0.73,4.26,0.72
		c1.57,0,2.99-0.25,4.24-0.74c1.26-0.49,2.32-1.18,3.2-2.06c0.88-0.88,1.55-1.93,2.02-3.14c0.47-1.22,0.7-2.55,0.7-4l-0.03-14.03
		l-5.5,0.01l0.03,14.03c0,0.83-0.1,1.58-0.31,2.24C366.84,121.04,366.53,121.6,366.13,122.06z"/>
	<polygon points="391.65,104.06 376.4,104.1 376.46,127.79 391.71,127.75 391.7,123.52 381.97,123.55 381.96,117.9 389.41,117.89 
		389.4,113.82 381.95,113.84 381.94,108.31 391.66,108.29 	"/>
	<path d="M412.9,107.37c-1.08-1.05-2.37-1.87-3.88-2.46c-1.51-0.59-3.19-0.89-5.04-0.88l-9.2,0.02l0.06,23.69l9.2-0.02
		c1.84,0,3.52-0.3,5.03-0.9c1.51-0.59,2.8-1.42,3.87-2.48c1.07-1.06,1.9-2.31,2.49-3.76c0.59-1.45,0.88-3.03,0.87-4.74
		c0-1.7-0.3-3.28-0.9-4.72C414.81,109.67,413.97,108.42,412.9,107.37z M410.23,119.04c-0.3,0.94-0.74,1.74-1.3,2.4
		c-0.57,0.66-1.26,1.16-2.09,1.52c-0.82,0.35-1.76,0.53-2.81,0.54l-3.67,0.01l-0.04-15.24l3.67-0.01c1.05,0,1.99,0.17,2.81,0.52
		c0.82,0.35,1.52,0.85,2.09,1.51c0.57,0.65,1.01,1.45,1.32,2.4c0.31,0.94,0.46,2,0.46,3.17
		C410.68,117.03,410.53,118.09,410.23,119.04z"/>
	<path d="M421.51,127.31c0.31-0.24,0.52-0.52,0.63-0.82l1.39-4.13l9.01-0.02l1.41,4.13c0.12,0.35,0.33,0.63,0.64,0.85
		c0.31,0.22,0.7,0.33,1.18,0.33l4.26-0.01l-9.23-23.67l-5.63,0.01l-9.11,23.71l4.29-0.01C420.82,127.68,421.2,127.56,421.51,127.31z
		 M426.96,112.15c0.16-0.41,0.33-0.9,0.52-1.46c0.18-0.56,0.36-1.18,0.53-1.84c0.19,0.65,0.37,1.25,0.57,1.81
		c0.19,0.56,0.36,1.04,0.5,1.45l2.19,6.48l-6.47,0.02L426.96,112.15z"/>
	<path d="M448.51,123.52c-0.74,0-1.38-0.1-1.92-0.3c-0.54-0.2-1.02-0.43-1.44-0.68c-0.42-0.25-0.79-0.47-1.12-0.68
		c-0.33-0.2-0.66-0.31-0.98-0.31c-0.25,0-0.48,0.06-0.7,0.18c-0.22,0.12-0.38,0.28-0.5,0.47l-1.62,2.57
		c0.47,0.47,1.02,0.89,1.65,1.26c0.63,0.38,1.3,0.7,2.02,0.98c0.72,0.27,1.46,0.49,2.22,0.64c0.76,0.15,1.52,0.22,2.25,0.22
		c1.34,0,2.54-0.21,3.6-0.62c1.06-0.41,1.94-0.97,2.66-1.68c0.72-0.71,1.27-1.55,1.64-2.5c0.38-0.95,0.56-1.98,0.56-3.07
		c0-0.99-0.16-1.83-0.46-2.53c-0.31-0.7-0.71-1.29-1.2-1.78c-0.49-0.49-1.06-0.89-1.69-1.2c-0.63-0.31-1.28-0.58-1.94-0.82
		c-0.66-0.23-1.31-0.44-1.94-0.63c-0.63-0.19-1.2-0.4-1.69-0.62c-0.49-0.23-0.89-0.5-1.2-0.81c-0.3-0.31-0.46-0.71-0.46-1.19
		c0-0.75,0.25-1.34,0.75-1.78c0.5-0.44,1.27-0.66,2.3-0.66c0.6,0,1.13,0.08,1.59,0.23c0.47,0.16,0.88,0.33,1.25,0.53
		c0.36,0.19,0.69,0.37,0.98,0.53c0.29,0.16,0.56,0.23,0.81,0.23c0.28,0,0.51-0.07,0.69-0.2c0.18-0.13,0.35-0.33,0.51-0.59l1.36-2.56
		c-0.42-0.39-0.9-0.74-1.44-1.05c-0.54-0.31-1.12-0.57-1.73-0.79c-0.62-0.22-1.27-0.39-1.96-0.5c-0.69-0.11-1.4-0.17-2.12-0.17
		c-1.3,0-2.46,0.2-3.46,0.6c-1.01,0.4-1.86,0.93-2.55,1.59c-0.69,0.66-1.22,1.42-1.57,2.26c-0.36,0.85-0.53,1.71-0.53,2.6
		c0,1.11,0.16,2.03,0.46,2.79c0.31,0.75,0.7,1.38,1.2,1.88c0.49,0.5,1.06,0.91,1.69,1.22c0.63,0.31,1.27,0.57,1.94,0.78
		c0.66,0.21,1.31,0.4,1.94,0.57c0.63,0.17,1.19,0.37,1.68,0.6c0.49,0.23,0.89,0.51,1.2,0.86c0.3,0.35,0.46,0.8,0.46,1.35
		c0,0.95-0.27,1.65-0.82,2.09C450.29,123.29,449.51,123.51,448.51,123.52z"/>
	<path d="M44.98,120.08l-14.87,4.36l0.81,2.39l19.7-5.78l-6.48-19.12l-2.46,0.72l5.27,15.53c-8.29-3.18-15.1-9.04-19.35-16.71
		c-4.65-8.4-5.67-17.97-2.87-26.93c5.73-18.33,25.86-28.47,45.06-22.81c0.19,0.05,0.37,0.11,0.55,0.17l3.25-1.93
		c-10.1-3.13-23.16-2.76-32.38,1.82c-9.22,4.58-15.95,12.39-18.96,21.98c-3,9.6-1.91,19.84,3.07,28.84
		C29.69,110.49,36.58,116.59,44.98,120.08z"/>
	<path d="M340.31,46.34c0.87-0.9,1.31-2.14,1.31-3.71c0-0.72-0.11-1.37-0.33-1.96c-0.22-0.59-0.55-1.1-1-1.52
		c-0.45-0.42-1.01-0.74-1.69-0.97c-0.68-0.23-1.48-0.34-2.41-0.34h-3.79v9.85h3.79C338.07,47.7,339.44,47.25,340.31,46.34z"/>
	<path d="M361.56,42.39c-0.19-0.47-0.38-1.01-0.59-1.64c-0.21-0.62-0.4-1.3-0.59-2.03c-0.19,0.74-0.38,1.43-0.59,2.06
		c-0.21,0.63-0.4,1.18-0.59,1.65l-3.11,8.82h8.6L361.56,42.39z"/>
	<path d="M420.42,42.39c-0.19-0.47-0.38-1.01-0.59-1.64c-0.21-0.62-0.4-1.3-0.59-2.03c-0.19,0.74-0.38,1.43-0.59,2.06
		c-0.21,0.63-0.4,1.18-0.59,1.65l-3.11,8.82h8.6L420.42,42.39z"/>
	<path d="M215.51,42.39c-0.19-0.47-0.38-1.01-0.59-1.64c-0.21-0.62-0.4-1.3-0.59-2.03c-0.19,0.74-0.38,1.43-0.59,2.06
		c-0.21,0.63-0.4,1.18-0.59,1.65l-3.11,8.82h8.6L215.51,42.39z"/>
	<path d="M262.87,54.92c0.75,0.84,1.67,1.48,2.74,1.92c1.08,0.45,2.29,0.67,3.65,0.67c1.36,0,2.57-0.22,3.64-0.67
		c1.07-0.45,1.98-1.09,2.73-1.92c0.75-0.84,1.33-1.86,1.73-3.06c0.4-1.2,0.6-2.57,0.6-4.1c0-1.52-0.2-2.88-0.6-4.08
		c-0.4-1.2-0.97-2.23-1.73-3.07c-0.75-0.84-1.66-1.49-2.73-1.93c-1.07-0.45-2.28-0.67-3.64-0.67c-1.36,0-2.57,0.22-3.65,0.67
		c-1.08,0.45-1.99,1.09-2.74,1.93c-0.75,0.84-1.33,1.87-1.73,3.07c-0.4,1.2-0.6,2.56-0.6,4.08c0,1.53,0.2,2.9,0.6,4.1
		C261.54,53.06,262.11,54.08,262.87,54.92z"/>
	<path d="M480.98,54.92c0.75,0.84,1.67,1.48,2.74,1.92c1.08,0.45,2.29,0.67,3.65,0.67c1.36,0,2.57-0.22,3.64-0.67
		c1.07-0.45,1.98-1.09,2.73-1.92c0.75-0.84,1.33-1.86,1.73-3.06c0.4-1.2,0.6-2.57,0.6-4.1c0-1.52-0.2-2.88-0.6-4.08
		c-0.4-1.2-0.97-2.23-1.73-3.07c-0.75-0.84-1.66-1.49-2.73-1.93c-1.07-0.45-2.28-0.67-3.64-0.67c-1.36,0-2.57,0.22-3.65,0.67
		c-1.08,0.45-1.99,1.09-2.74,1.93c-0.75,0.84-1.33,1.87-1.73,3.07c-0.4,1.2-0.6,2.56-0.6,4.08c0,1.53,0.2,2.9,0.6,4.1
		C479.66,53.06,480.23,54.08,480.98,54.92z"/>
	<path d="M118.17,86.04c13.55,2.98,28.97,1.95,43.51,1.07c92.35-5.57,186.26-2.44,279.63-1.07c40.22,0.59,81.67,0.76,118.67-6.52
		c7.06-1.39,14.04-3.09,19.24-5.8c17.31-9,7.98-23.61,6.43-36.14c-0.54-4.38-0.04-8.92-3.47-13.01
		c-7.65-9.12-30.63-12.15-50.42-13.49c-42.29-2.88-85.04-3.77-127.46-2.64c-72.38,1.93-144.52,9.7-216.77,5.25
		c-15.69-0.97-31.38-2.51-47.12-2.21c-15.73,0.3-31.96,2.7-42.32,8.4c-14.28,7.85-14.15,19.66-12.95,30.32
		C86.7,63.93,92.42,80.37,118.17,86.04z M518,52.15c-0.38-0.45-0.87-0.83-1.49-1.14c-0.61-0.31-1.31-0.57-2.09-0.79
		c-0.78-0.22-1.59-0.46-2.41-0.73c-0.82-0.27-1.63-0.59-2.41-0.96c-0.78-0.37-1.48-0.86-2.09-1.48c-0.61-0.61-1.11-1.37-1.49-2.27
		c-0.38-0.9-0.57-2.03-0.57-3.37c0-1.08,0.21-2.12,0.64-3.13c0.43-1.01,1.05-1.91,1.87-2.69c0.82-0.78,1.84-1.42,3.04-1.89
		c1.2-0.48,2.58-0.72,4.14-0.72c1.74,0,3.35,0.27,4.84,0.81c1.48,0.54,2.74,1.29,3.76,2.24l-1.48,2.81
		c-0.19,0.31-0.38,0.53-0.57,0.67c-0.19,0.14-0.44,0.21-0.75,0.21c-0.29,0-0.61-0.1-0.95-0.31c-0.34-0.21-0.73-0.43-1.19-0.67
		c-0.45-0.24-0.97-0.46-1.56-0.67c-0.59-0.21-1.27-0.31-2.05-0.31c-1.38,0-2.42,0.31-3.11,0.93c-0.69,0.62-1.04,1.43-1.04,2.42
		c0,0.64,0.19,1.17,0.57,1.59c0.38,0.42,0.88,0.78,1.5,1.09c0.62,0.31,1.32,0.58,2.1,0.82c0.78,0.24,1.59,0.5,2.41,0.79
		c0.82,0.29,1.63,0.62,2.41,1.01c0.78,0.39,1.49,0.87,2.1,1.46c0.62,0.59,1.12,1.3,1.5,2.14c0.38,0.84,0.57,1.87,0.57,3.08
		c0,1.32-0.23,2.55-0.69,3.7c-0.46,1.15-1.12,2.15-1.98,3.01c-0.86,0.86-1.93,1.53-3.2,2.02c-1.27,0.49-2.71,0.74-4.32,0.74
		c-0.92,0-1.83-0.09-2.74-0.28c-0.91-0.19-1.79-0.45-2.63-0.78c-0.84-0.33-1.64-0.73-2.38-1.2c-0.74-0.47-1.4-0.98-1.95-1.56
		l1.76-2.83c0.15-0.21,0.34-0.39,0.58-0.53c0.24-0.14,0.49-0.21,0.76-0.21c0.36,0,0.74,0.13,1.14,0.4c0.4,0.27,0.86,0.56,1.38,0.88
		c0.52,0.32,1.12,0.61,1.8,0.88c0.68,0.27,1.51,0.4,2.46,0.4c1.4,0,2.48-0.32,3.24-0.96c0.76-0.64,1.15-1.59,1.15-2.85
		C518.57,53.19,518.38,52.6,518,52.15z M473.6,41.89c0.71-1.8,1.72-3.36,3.02-4.68c1.3-1.32,2.87-2.35,4.69-3.1
		c1.82-0.75,3.84-1.13,6.06-1.13c2.22,0,4.24,0.38,6.06,1.13c1.82,0.75,3.38,1.79,4.68,3.11c1.3,1.32,2.3,2.89,3.01,4.69
		c0.71,1.8,1.07,3.75,1.07,5.85c0,2.11-0.36,4.08-1.07,5.88c-0.71,1.81-1.72,3.37-3.01,4.69c-1.3,1.32-2.86,2.35-4.68,3.1
		c-1.82,0.75-3.84,1.13-6.06,1.13c-2.22,0-4.24-0.38-6.06-1.13c-1.82-0.75-3.38-1.79-4.69-3.1c-1.3-1.32-2.31-2.88-3.02-4.69
		c-0.71-1.81-1.07-3.77-1.07-5.88C472.54,45.65,472.89,43.69,473.6,41.89z M436.28,33.3h4.55c0.25,0,0.48,0.01,0.68,0.02
		c0.2,0.01,0.38,0.05,0.53,0.11c0.15,0.06,0.29,0.15,0.42,0.28c0.13,0.13,0.25,0.3,0.37,0.53l8.1,15.44
		c0.25,0.47,0.49,0.94,0.71,1.44c0.22,0.49,0.43,1,0.63,1.52c0.2-0.53,0.41-1.05,0.63-1.56c0.22-0.51,0.46-0.99,0.71-1.46
		l8.04-15.38c0.12-0.23,0.25-0.4,0.38-0.53c0.13-0.13,0.28-0.22,0.43-0.28c0.15-0.06,0.33-0.1,0.52-0.11
		c0.19-0.01,0.42-0.02,0.69-0.02h4.55v28.94h-5.29V44.47c0-0.37,0.01-0.77,0.03-1.2c0.02-0.43,0.06-0.86,0.11-1.3l-8.28,15.7
		c-0.45,0.86-1.15,1.3-2.09,1.3h-0.84c-0.47,0-0.88-0.11-1.24-0.33c-0.36-0.22-0.65-0.54-0.86-0.97l-8.32-15.76
		c0.04,0.47,0.07,0.91,0.1,1.35c0.03,0.43,0.04,0.83,0.04,1.21v17.77h-5.29V33.3z M416.19,33.3h6.12l11.29,28.94h-4.65
		c-0.52,0-0.94-0.12-1.27-0.37c-0.33-0.25-0.57-0.56-0.73-0.95l-1.95-5.52h-11.53l-1.95,5.52c-0.13,0.33-0.37,0.64-0.7,0.91
		c-0.33,0.27-0.75,0.41-1.26,0.41h-4.69L416.19,33.3z M382.99,29.46c0.19-0.64,0.47-1.22,0.84-1.72c0.37-0.5,0.82-0.9,1.36-1.2
		c0.54-0.3,1.16-0.45,1.86-0.45c0.7,0,1.32,0.1,1.84,0.31c0.52,0.21,0.98,0.43,1.38,0.68c0.4,0.25,0.77,0.47,1.11,0.68
		c0.34,0.21,0.68,0.31,1.03,0.31c0.29,0,0.55-0.06,0.76-0.17c0.21-0.11,0.39-0.26,0.52-0.44c0.13-0.18,0.23-0.38,0.3-0.59
		c0.07-0.21,0.1-0.42,0.1-0.62h3.33c0,0.69-0.09,1.36-0.28,1.99c-0.19,0.64-0.46,1.2-0.83,1.7c-0.37,0.49-0.82,0.89-1.36,1.19
		c-0.54,0.3-1.16,0.45-1.86,0.45c-0.7,0-1.31-0.1-1.83-0.31s-0.97-0.43-1.38-0.68c-0.41-0.25-0.78-0.47-1.12-0.68
		c-0.34-0.21-0.69-0.31-1.05-0.31c-0.29,0-0.54,0.06-0.75,0.18c-0.21,0.12-0.37,0.27-0.5,0.46c-0.13,0.19-0.22,0.39-0.29,0.6
		c-0.07,0.21-0.1,0.42-0.1,0.62h-3.37C382.71,30.77,382.8,30.1,382.99,29.46z M377.42,33.3h3.15c0.25,0,0.47,0.01,0.65,0.03
		s0.34,0.07,0.49,0.14c0.15,0.07,0.29,0.17,0.42,0.29c0.13,0.12,0.28,0.28,0.44,0.48l14.52,18.43c-0.05-0.51-0.09-0.99-0.12-1.47
		c-0.03-0.47-0.04-0.92-0.04-1.35V33.3h5.29v28.94h-3.09c-0.47,0-0.86-0.08-1.18-0.23c-0.32-0.15-0.63-0.42-0.94-0.79l-14.42-18.35
		c0.04,0.47,0.07,0.92,0.09,1.38c0.02,0.45,0.03,0.87,0.03,1.26v16.73h-5.29V33.3z M363.46,33.3l11.29,28.94h-4.65
		c-0.52,0-0.94-0.12-1.27-0.37c-0.33-0.25-0.57-0.56-0.73-0.95l-1.95-5.52h-11.53l-1.95,5.52c-0.13,0.33-0.37,0.64-0.7,0.91
		c-0.33,0.27-0.75,0.41-1.26,0.41h-4.69l11.31-28.94H363.46z M326.42,33.3h9.77c1.98,0,3.69,0.23,5.14,0.7
		c1.44,0.47,2.63,1.11,3.56,1.94c0.93,0.83,1.62,1.82,2.06,2.96c0.45,1.14,0.67,2.39,0.67,3.73c0,1.42-0.23,2.73-0.7,3.91
		c-0.47,1.18-1.17,2.2-2.11,3.05c-0.94,0.85-2.13,1.51-3.57,1.98c-1.44,0.47-3.12,0.71-5.05,0.71h-3.79v9.95h-5.98V33.3z
		 M288.47,33.3h4.55c0.25,0,0.48,0.01,0.68,0.02c0.2,0.01,0.38,0.05,0.53,0.11c0.15,0.06,0.29,0.15,0.42,0.28
		c0.13,0.13,0.25,0.3,0.37,0.53l8.1,15.44c0.25,0.47,0.49,0.94,0.71,1.44c0.22,0.49,0.43,1,0.63,1.52c0.2-0.53,0.41-1.05,0.63-1.56
		c0.22-0.51,0.46-0.99,0.71-1.46l8.04-15.38c0.12-0.23,0.25-0.4,0.38-0.53c0.13-0.13,0.28-0.22,0.43-0.28
		c0.15-0.06,0.33-0.1,0.52-0.11c0.19-0.01,0.42-0.02,0.69-0.02h4.55v28.94h-5.29V44.47c0-0.37,0.01-0.77,0.03-1.2
		c0.02-0.43,0.06-0.86,0.11-1.3l-8.28,15.7c-0.45,0.86-1.15,1.3-2.09,1.3h-0.84c-0.47,0-0.88-0.11-1.24-0.33
		c-0.36-0.22-0.65-0.54-0.86-0.97l-8.32-15.76c0.04,0.47,0.07,0.91,0.1,1.35c0.03,0.43,0.04,0.83,0.04,1.21v17.77h-5.29V33.3z
		 M255.49,41.89c0.71-1.8,1.72-3.36,3.02-4.68c1.3-1.32,2.87-2.35,4.69-3.1c1.82-0.75,3.84-1.13,6.06-1.13
		c2.22,0,4.24,0.38,6.06,1.13c1.82,0.75,3.38,1.79,4.68,3.11c1.3,1.32,2.3,2.89,3.01,4.69c0.71,1.8,1.07,3.75,1.07,5.85
		c0,2.11-0.36,4.08-1.07,5.88c-0.71,1.81-1.72,3.37-3.01,4.69c-1.3,1.32-2.86,2.35-4.68,3.1c-1.82,0.75-3.84,1.13-6.06,1.13
		c-2.22,0-4.24-0.38-6.06-1.13c-1.82-0.75-3.38-1.79-4.69-3.1c-1.3-1.32-2.31-2.88-3.02-4.69c-0.71-1.81-1.07-3.77-1.07-5.88
		C254.42,45.65,254.78,43.69,255.49,41.89z M229.28,43.66c0.31-1.3,0.77-2.49,1.37-3.58c0.6-1.09,1.32-2.07,2.16-2.95
		c0.84-0.88,1.8-1.63,2.86-2.24c1.06-0.62,2.22-1.09,3.48-1.42c1.26-0.33,2.6-0.49,4.02-0.49c1.06,0,2.07,0.09,3.02,0.28
		c0.95,0.19,1.84,0.45,2.66,0.78c0.82,0.33,1.59,0.74,2.28,1.21c0.7,0.47,1.33,0.99,1.88,1.55l-2.01,2.75
		c-0.12,0.17-0.27,0.33-0.46,0.46c-0.19,0.13-0.44,0.2-0.76,0.2c-0.32,0-0.64-0.11-0.97-0.34c-0.33-0.23-0.72-0.48-1.2-0.76
		c-0.47-0.28-1.06-0.53-1.78-0.76c-0.71-0.23-1.61-0.34-2.7-0.34c-1.21,0-2.32,0.22-3.33,0.66c-1.01,0.44-1.88,1.07-2.6,1.9
		c-0.72,0.83-1.29,1.85-1.69,3.06c-0.4,1.21-0.6,2.59-0.6,4.13c0,1.56,0.22,2.94,0.65,4.16c0.43,1.22,1.02,2.24,1.78,3.08
		c0.75,0.84,1.63,1.47,2.63,1.9c1,0.43,2.08,0.65,3.22,0.65c0.68,0,1.29-0.03,1.84-0.1c0.55-0.07,1.06-0.18,1.54-0.34
		c0.47-0.16,0.92-0.37,1.34-0.62c0.42-0.25,0.84-0.57,1.27-0.96c0.15-0.12,0.3-0.22,0.46-0.3c0.16-0.08,0.33-0.12,0.52-0.12
		c0.33,0,0.61,0.12,0.84,0.36l2.37,2.53c-1.17,1.49-2.62,2.62-4.36,3.39c-1.74,0.77-3.8,1.16-6.19,1.16c-2.17,0-4.12-0.37-5.84-1.11
		c-1.73-0.74-3.2-1.77-4.41-3.08c-1.21-1.32-2.14-2.88-2.79-4.69c-0.65-1.81-0.98-3.78-0.98-5.92
		C228.81,46.32,228.97,44.96,229.28,43.66z M211.28,33.3h6.12l11.29,28.94h-4.65c-0.52,0-0.94-0.12-1.27-0.37
		c-0.33-0.25-0.57-0.56-0.73-0.95l-1.95-5.52h-11.53l-1.95,5.52c-0.13,0.33-0.37,0.64-0.7,0.91c-0.33,0.27-0.75,0.41-1.26,0.41
		h-4.69L211.28,33.3z M172.35,33.3h18.43v4.69h-12.41v7.44h9.65v4.53h-9.65v7.6h12.41v4.69h-18.43V33.3z M145.82,33.3h22.92v4.83
		h-8.46v24.11h-6V38.13h-8.46V33.3z"/>
</g>
</svg>
