<?xml version="1.0" encoding="utf-8"?>
<!-- Generator: Adobe Illustrator 26.3.1, SVG Export Plug-In . SVG Version: 6.00 Build 0)  -->
<svg version="1.1" id="Capa_1" xmlns="http://www.w3.org/2000/svg" xmlns:xlink="http://www.w3.org/1999/xlink" x="0px" y="0px"
	 viewBox="0 0 223.3 223.3" style="enable-background:new 0 0 223.3 223.3;" xml:space="preserve">
<style type="text/css">
	.st0{fill:#FFFFFF;}
</style>
<g>
	<g>
		<g>
			<path class="st0" d="M36.9,36.4h-5V2.5h11.4c2.6,0,4.9,0.5,6.9,1.6c2,1,3.6,2.5,4.7,4.3c1.1,1.8,1.7,3.9,1.7,6.3
				c0,2.4-0.6,4.5-1.8,6.3c-1.2,1.9-2.8,3.3-4.8,4.3c-2,1-4.2,1.5-6.6,1.5h-6.6V36.4z M42.4,22.2c2.7,0,4.9-0.7,6.6-2
				c1.7-1.3,2.5-3.2,2.5-5.7c0-2.4-0.8-4.2-2.5-5.4c-1.6-1.2-3.9-1.9-6.7-1.9h-5.5v14.9H42.4z"/>
		</g>
		<g>
			<path class="st0" d="M65.9,36.4h-5V2.5h10.9c2.6,0,4.9,0.5,6.9,1.4c2,0.9,3.5,2.2,4.6,3.9c1.1,1.7,1.6,3.6,1.6,5.7
				c0,2.2-0.6,4.3-1.8,6.2c-1.2,1.9-2.8,3.3-4.7,4.4l8.1,12.3h-6l-7.3-11.2h-7.4V36.4z M71.8,20.8c2.4,0,4.3-0.6,5.7-1.9
				c1.4-1.3,2.2-3,2.2-5.1c0-2.2-0.7-4-2.1-5.1c-1.4-1.2-3.4-1.8-6-1.8h-5.7v13.8H71.8z"/>
		</g>
		<g>
			<path class="st0" d="M96.5,34.9c-2.4-1.5-4.4-3.5-5.7-6.2c-1.4-2.7-2.1-5.7-2.1-9.2c0-3.4,0.7-6.5,2.1-9.2
				c1.4-2.7,3.3-4.8,5.8-6.3c2.5-1.5,5.2-2.2,8.3-2.2c3.1,0,5.9,0.7,8.4,2.2c2.5,1.5,4.4,3.6,5.8,6.3c1.4,2.7,2.1,5.8,2.1,9.2
				c0,3.4-0.7,6.5-2.1,9.1c-1.4,2.7-3.3,4.8-5.8,6.2c-2.5,1.5-5.2,2.2-8.4,2.2C101.8,37.1,99,36.4,96.5,34.9z M95.3,26.2
				c1,1.9,2.3,3.4,4,4.5c1.7,1.1,3.6,1.6,5.7,1.6c2.1,0,4-0.5,5.7-1.6c1.7-1,3-2.5,4-4.5c1-1.9,1.5-4.1,1.5-6.7
				c0-2.5-0.5-4.8-1.5-6.7c-1-2-2.3-3.5-4-4.5c-1.7-1.1-3.5-1.6-5.6-1.6c-2.1,0-3.9,0.5-5.6,1.6c-1.7,1.1-3,2.6-4,4.5
				c-1,2-1.5,4.2-1.5,6.7C93.8,22,94.3,24.2,95.3,26.2z"/>
		</g>
		<g>
			<path class="st0" d="M36.9,78.3h-5V44.4h11.4c2.6,0,4.9,0.5,6.9,1.6c2,1,3.6,2.5,4.7,4.3c1.1,1.8,1.7,3.9,1.7,6.3
				c0,2.4-0.6,4.5-1.8,6.3c-1.2,1.9-2.8,3.3-4.8,4.3c-2,1-4.2,1.5-6.6,1.5h-6.6V78.3z M42.4,64.1c2.7,0,4.9-0.7,6.6-2
				c1.7-1.3,2.5-3.2,2.5-5.7c0-2.4-0.8-4.2-2.5-5.4c-1.6-1.2-3.9-1.9-6.7-1.9h-5.5v14.9H42.4z"/>
		</g>
		<g>
			<path class="st0" d="M88.2,44.4v19.3c0,3.4-0.6,6.2-1.8,8.6c-1.2,2.3-2.9,4.1-5,5.3c-2.1,1.2-4.6,1.8-7.3,1.8
				c-2.8,0-5.2-0.6-7.3-1.8c-2.1-1.2-3.8-2.9-5-5.3C60.6,70,60,67.1,60,63.8V44.4h5v19.3c0,3.6,0.8,6.4,2.5,8.2
				c1.7,1.8,3.9,2.8,6.5,2.8c2.8,0,5-0.9,6.6-2.7c1.6-1.8,2.5-4.6,2.5-8.2V44.4H88.2z"/>
		</g>
		<g>
			<path class="st0" d="M94.3,44.4h22.2V49H99.2v10.4h15v4.2h-15v10.1h17.3v4.6H94.3V44.4z"/>
		</g>
		<g>
			<path class="st0" d="M125.9,77c-2.5-1.4-4.5-3.4-6-6l3.8-2.9c1.4,2,3,3.5,4.9,4.5c1.9,1,3.9,1.5,6,1.5c2,0,3.7-0.4,5-1.2
				c1.3-0.8,1.9-1.8,1.9-3c0-0.9-0.3-1.7-1-2.3c-0.7-0.6-1.5-1.2-2.5-1.6c-1-0.4-2.4-1-4.2-1.6c-2.5-0.8-4.6-1.6-6.2-2.4
				c-1.6-0.8-3-1.9-4.1-3.3c-1.2-1.4-1.7-3.2-1.7-5.4c0-1.9,0.5-3.6,1.6-5.1c1-1.5,2.5-2.6,4.3-3.4c1.8-0.8,3.8-1.2,6-1.2
				c3,0,5.7,0.7,7.9,2.2c2.2,1.5,3.9,3.6,5,6.2l-4.2,2.3c-0.8-1.8-2-3.3-3.5-4.3s-3.3-1.5-5.4-1.5c-1.9,0-3.5,0.5-4.8,1.4
				c-1.2,0.9-1.9,2-1.9,3.4c0,1.1,0.4,2,1.1,2.8c0.8,0.8,1.7,1.4,2.8,1.9c1.1,0.5,2.7,1.1,4.7,1.7c2.4,0.8,4.4,1.5,5.9,2.2
				c1.5,0.7,2.8,1.7,3.8,2.9c1.1,1.2,1.6,2.8,1.6,4.7c0,1.9-0.6,3.6-1.7,5.1c-1.2,1.4-2.7,2.5-4.6,3.3c-1.9,0.8-4,1.1-6.1,1.1
				C131.2,79,128.4,78.4,125.9,77z"/>
		</g>
		<g>
			<path class="st0" d="M41.1,90.7l-11,0v-4.4h27.1v4.4l-11.1,0v29.5h-5V90.7z"/>
		</g>
		<g>
			<path class="st0" d="M67.1,86.3h7.4l12.2,33.9h-5.3l-3.2-9H63.4l-3.2,9h-5.3L67.1,86.3z M76.7,106.9l-5.7-16h-0.5l-5.6,16H76.7z"
				/>
		</g>
	</g>
	<g>
		<g>
			<path class="st0" d="M38.9,214.5c-1.1-0.8-1.9-1.9-2.4-3.3h-0.1v4h-1.7v-24.8h1.7v10.8h0.2c0.7-1.3,1.5-2.4,2.6-3.3
				c1.1-0.8,2.5-1.3,4.1-1.3c1.5,0,2.8,0.4,3.9,1.2c1.2,0.8,2.1,1.9,2.7,3.3c0.7,1.4,1,3,1,4.8c0,2-0.3,3.7-1,5.2
				c-0.7,1.5-1.6,2.6-2.8,3.4c-1.2,0.8-2.5,1.2-4,1.2C41.3,215.8,39.9,215.3,38.9,214.5z M37.2,210.1c0.5,1.2,1.3,2.1,2.3,2.9
				c1,0.7,2.2,1.1,3.6,1.1c1.1,0,2.1-0.3,3-1c0.9-0.6,1.6-1.6,2.1-2.8c0.5-1.2,0.8-2.6,0.8-4.3c0-2.4-0.5-4.3-1.6-5.6
				c-1.1-1.4-2.5-2-4.3-2c-1.4,0-2.6,0.4-3.6,1.1c-1,0.7-1.8,1.7-2.3,2.8c-0.5,1.2-0.8,2.5-0.8,3.9
				C36.4,207.6,36.7,208.9,37.2,210.1z"/>
		</g>
		<g>
			<path class="st0" d="M53.7,197.2l6.1,16.5H60l6.1-16.5H68l-8.2,21.3c-0.4,1-0.8,1.8-1.3,2.3c-0.5,0.5-1.1,0.7-1.8,0.7h-3.2v-1.7
				h3c0.4,0,0.8-0.2,1.1-0.5c0.3-0.3,0.6-0.8,0.8-1.4l1-2.7h-1l-6.6-18H53.7z"/>
		</g>
		<g>
			<path class="st0" d="M83.5,193.7l-8.1,0v-3.2h19.8v3.2l-8.1,0v21.6h-3.7V193.7z"/>
		</g>
		<g>
			<path class="st0" d="M97.9,214.7c-1.4-0.7-2.5-1.8-3.4-3.3s-1.3-3.2-1.3-5.2c0-1.8,0.4-3.5,1.1-4.9c0.7-1.5,1.8-2.6,3.1-3.4
				c1.3-0.8,2.8-1.2,4.5-1.2c1.6,0,3.1,0.4,4.3,1.2c1.2,0.8,2.2,1.8,2.8,3.2c0.7,1.3,1,2.7,1,4.3l0,2.4H96.9
				c0.3,1.6,0.9,2.7,1.9,3.6c1,0.8,2.2,1.3,3.6,1.3c1,0,1.9-0.2,2.9-0.7c0.9-0.4,1.8-1.1,2.5-1.9l2,2.1c-0.9,1.2-2,2.1-3.3,2.7
				c-1.3,0.6-2.7,0.9-4.1,0.9C100.8,215.8,99.3,215.4,97.9,214.7z M106.6,204.9c0-1-0.3-1.9-0.7-2.7c-0.5-0.8-1-1.3-1.8-1.7
				s-1.5-0.6-2.3-0.6c-1.2,0-2.3,0.4-3.2,1.3c-0.9,0.9-1.5,2.1-1.7,3.7H106.6z"/>
		</g>
		<g>
			<path class="st0" d="M116.8,214.5c-1.3-0.8-2.4-1.9-3.1-3.3c-0.8-1.4-1.1-3.1-1.1-4.9c0-1.8,0.4-3.5,1.2-4.9
				c0.8-1.5,1.8-2.6,3.2-3.4c1.3-0.8,2.8-1.2,4.4-1.2c1.8,0,3.4,0.5,4.7,1.5c1.3,1,2.2,2.4,2.7,4.1l-3,1.3c-0.5-1.3-1.1-2.2-1.8-2.8
				c-0.7-0.6-1.6-0.9-2.7-0.9c-0.9,0-1.7,0.2-2.5,0.7c-0.8,0.5-1.4,1.2-1.9,2.2c-0.5,1-0.7,2.1-0.7,3.5c0,1.2,0.2,2.3,0.7,3.2
				c0.5,0.9,1.1,1.7,1.9,2.2c0.8,0.5,1.8,0.8,2.8,0.8c1.1,0,2.1-0.3,3-0.9c0.9-0.6,1.6-1.4,2.2-2.4l2.5,1.8
				c-1.8,3.1-4.4,4.6-7.9,4.6C119.6,215.7,118.1,215.3,116.8,214.5z"/>
		</g>
		<g>
			<path class="st0" d="M135.3,214.5c-1.3-0.8-2.3-1.9-3.1-3.4c-0.7-1.5-1.1-3.1-1.1-4.9c0-1.8,0.4-3.5,1.1-4.9s1.8-2.6,3.1-3.4
				c1.3-0.8,2.9-1.2,4.6-1.2c1.7,0,3.2,0.4,4.5,1.2c1.3,0.8,2.3,2,3,3.4c0.7,1.4,1.1,3.1,1.1,4.9c0,1.8-0.4,3.4-1.1,4.8
				c-0.7,1.5-1.8,2.6-3.1,3.4c-1.3,0.8-2.8,1.3-4.5,1.3S136.6,215.3,135.3,214.5z M136,210.7c0.9,1.2,2.2,1.8,3.8,1.8
				c1.6,0,2.9-0.6,3.8-1.8c0.9-1.2,1.4-2.7,1.4-4.5c0-1.8-0.5-3.3-1.3-4.5c-0.9-1.2-2.2-1.8-3.8-1.8c-1.6,0-2.9,0.6-3.9,1.8
				c-0.9,1.2-1.4,2.7-1.4,4.5C134.6,208,135.1,209.5,136,210.7z"/>
		</g>
	</g>
	<g>
		<g>
			<path class="st0" d="M220.5,22.9c-0.6,0-1.1-0.5-1.1-1.1V5.4c0-0.8-0.7-1.5-1.5-1.5h-16.4c-0.6,0-1.1-0.5-1.1-1.1
				s0.5-1.1,1.1-1.1h16.4c2,0,3.7,1.6,3.7,3.7v16.4C221.6,22.4,221.1,22.9,220.5,22.9z"/>
		</g>
		<g>
			<path class="st0" d="M2.8,22.9c-0.6,0-1.1-0.5-1.1-1.1V5.4c0-2,1.6-3.7,3.7-3.7h16.4c0.6,0,1.1,0.5,1.1,1.1s-0.5,1.1-1.1,1.1H5.4
				c-0.8,0-1.5,0.7-1.5,1.5v16.4C3.9,22.4,3.4,22.9,2.8,22.9z"/>
		</g>
		<g>
			<path class="st0" d="M217.9,221.6h-16.4c-0.6,0-1.1-0.5-1.1-1.1s0.5-1.1,1.1-1.1h16.4c0.8,0,1.5-0.7,1.5-1.5v-16.4
				c0-0.6,0.5-1.1,1.1-1.1s1.1,0.5,1.1,1.1V218C221.6,220,220,221.6,217.9,221.6z"/>
		</g>
		<g>
			<path class="st0" d="M21.7,221.6H5.4c-2,0-3.7-1.6-3.7-3.7v-16.4c0-0.6,0.5-1.1,1.1-1.1s1.1,0.5,1.1,1.1V218
				c0,0.8,0.7,1.5,1.5,1.5h16.4c0.6,0,1.1,0.5,1.1,1.1S22.3,221.6,21.7,221.6z"/>
		</g>
	</g>
	<g>
		<g>
			<polygon class="st0" points="76.4,139.6 70.8,155.6 82.5,155.6 76.8,139.6 			"/>
		</g>
		<g>
			<path class="st0" d="M141,140.9c-1.7-1.1-3.5-1.6-5.6-1.6s-3.9,0.5-5.6,1.6c-1.7,1.1-3,2.6-4,4.5c-1,2-1.5,4.2-1.5,6.7
				c0,2.5,0.5,4.7,1.5,6.6c1,1.9,2.3,3.4,4,4.5c1.7,1.1,3.6,1.6,5.7,1.6c2.1,0,4-0.5,5.7-1.6c1.7-1,3-2.5,4-4.5
				c1-1.9,1.5-4.1,1.5-6.7c0-2.5-0.5-4.8-1.5-6.7C144,143.4,142.7,141.9,141,140.9z"/>
		</g>
		<g>
			<path class="st0" d="M173.6,141.3c-1.4-1.2-3.4-1.8-6-1.8h-5.7v13.8h6c2.4,0,4.3-0.6,5.7-1.9c1.4-1.3,2.2-3,2.2-5.1
				C175.7,144.1,175,142.4,173.6,141.3z"/>
		</g>
		<g>
			<path class="st0" d="M186.7,129.6H28.5c-1.4,0-2.6,1.1-2.6,2.6V172c0,1.4,1.1,2.6,2.6,2.6h158.1c1.4,0,2.6-1.1,2.6-2.6v-39.8
				C189.2,130.7,188.1,129.6,186.7,129.6z M43.5,169l-12.1-33.9h5.5l10.3,29.4h0.5l9.9-29.4H63L50.9,169H43.5z M87.2,169l-3.2-9
				H69.2l-3.2,9h-5.3L73,135.1h7.4L92.5,169H87.2z M118.5,169h-21v-33.9h5.2v29.5h15.8V169z M149.5,161.3c-1.4,2.7-3.3,4.8-5.8,6.2
				c-2.5,1.5-5.2,2.2-8.4,2.2c-3.1,0-5.9-0.7-8.3-2.2c-2.4-1.5-4.4-3.5-5.7-6.2c-1.4-2.7-2.1-5.7-2.1-9.2c0-3.4,0.7-6.5,2.1-9.2
				c1.4-2.7,3.3-4.8,5.8-6.3c2.5-1.5,5.2-2.2,8.3-2.2c3.1,0,5.9,0.7,8.4,2.2c2.5,1.5,4.4,3.6,5.8,6.3c1.4,2.7,2.1,5.8,2.1,9.2
				C151.6,155.5,150.9,158.6,149.5,161.3z M176.6,169l-7.3-11.2h-7.4V169h-5v-33.9h10.9c2.6,0,4.9,0.5,6.9,1.4
				c2,0.9,3.5,2.2,4.6,3.9c1.1,1.7,1.6,3.6,1.6,5.7c0,2.2-0.6,4.3-1.8,6.2c-1.2,1.9-2.8,3.3-4.7,4.4l8.1,12.3H176.6z"/>
		</g>
	</g>
	<g>
		<g>
			<path class="st0" d="M108.9,118.4c-1.7-1.1-3-2.7-3.9-4.6c-0.9-2-1.4-4.3-1.4-6.8c0-2.6,0.5-4.9,1.5-6.8c1-2,2.3-3.5,3.9-4.5
				c1.7-1.1,3.5-1.6,5.6-1.6c2.2,0,4.1,0.6,5.5,1.8c1.5,1.2,2.5,2.7,3.2,4.5h0.2V85.5h2.3v33.9h-2.3v-5.4h-0.2
				c-0.7,1.8-1.8,3.3-3.3,4.4c-1.5,1.2-3.3,1.7-5.5,1.7C112.4,120.1,110.5,119.5,108.9,118.4z M108.4,114.8c1.5,2,3.6,3,6.2,3
				c1.8,0,3.4-0.5,4.7-1.5c1.3-1,2.3-2.3,3-3.9c0.7-1.6,1-3.5,1-5.4c0-1.9-0.3-3.7-1-5.3c-0.7-1.6-1.6-2.9-3-3.9
				c-1.3-1-2.9-1.5-4.7-1.5c-1.7,0-3.1,0.4-4.5,1.2c-1.3,0.8-2.3,2-3,3.6c-0.7,1.6-1.1,3.5-1.1,5.7
				C106.1,110.2,106.9,112.8,108.4,114.8z"/>
		</g>
		<g>
			<path class="st0" d="M137.1,118.6c-1.7-1-3.1-2.5-4.1-4.4c-1-2-1.6-4.3-1.6-7.1c0-2.5,0.5-4.7,1.5-6.7c1-2,2.3-3.6,4.1-4.7
				c1.7-1.1,3.7-1.7,5.8-1.7c2.1,0,4,0.5,5.5,1.6c1.6,1,2.7,2.5,3.6,4.3c0.8,1.8,1.2,3.8,1.2,6.1v1.8h-19.2c0.1,2.2,0.6,4,1.4,5.5
				c0.8,1.5,1.9,2.6,3.2,3.4c1.3,0.7,2.7,1.1,4.2,1.1c1.7,0,3.2-0.4,4.7-1.3c1.5-0.9,2.7-2.1,3.5-3.8l2,1.1c-1.1,2-2.5,3.6-4.4,4.7
				c-1.9,1.1-3.8,1.6-5.9,1.6C140.6,120.1,138.8,119.6,137.1,118.6z M150.6,105.5c-0.1-2.8-0.8-5.1-2.3-6.7
				c-1.4-1.6-3.3-2.5-5.6-2.5c-1.4,0-2.8,0.3-4,1c-1.3,0.7-2.3,1.7-3.1,3.1c-0.8,1.4-1.3,3.1-1.5,5H150.6z"/>
		</g>
	</g>
</g>
</svg>
