<?xml version="1.0" encoding="utf-8"?>
<!-- Generator: Adobe Illustrator 25.4.1, SVG Export Plug-In . SVG Version: 6.00 Build 0)  -->
<svg version="1.1" id="Layer_1" xmlns="http://www.w3.org/2000/svg" xmlns:xlink="http://www.w3.org/1999/xlink" x="0px" y="0px"
	 viewBox="0 0 48 48" style="enable-background:new 0 0 48 48;" xml:space="preserve">
<style type="text/css">
	.st0{fill-rule:evenodd;clip-rule:evenodd;fill:#BC1948;}
	.st1{fill-rule:evenodd;clip-rule:evenodd;fill:#E8467C;}
	.st2{fill-rule:evenodd;clip-rule:evenodd;fill:#8C193F;}
</style>
<g>
	<g>
		<path class="st0" d="M10.5,23.5V43c0,1.4,1.2,2.6,2.7,2.5c0.5,0,0.9-0.2,1.3-0.4l31.6-19.9c0.6-0.4,1-1,1-1.7L10.5,23.5z"/>
		<path class="st1" d="M10.5,23.5V4c0-1.4,1.2-2.6,2.7-2.5c0.5,0,0.9,0.2,1.3,0.4l31.6,19.9c0.6,0.4,1,1,1,1.7L10.5,23.5z"/>
		<path class="st2" d="M4.4,11.1L21,22.3c0.7,0.5,0.8,1.4,0.4,2c-0.1,0.1-0.2,0.3-0.4,0.4L4.4,35.9c-0.6,0.4-1.5,0.2-1.9-0.4
			c-0.2-0.2-0.2-0.5-0.2-0.8V12.3c0-0.8,0.6-1.4,1.3-1.4C3.9,10.9,4.2,11,4.4,11.1"/>
	</g>
</g>
</svg>
