<?xml version="1.0" encoding="utf-8"?>
<!-- Generator: Adobe Illustrator 27.3.1, SVG Export Plug-In . SVG Version: 6.00 Build 0)  -->
<svg version="1.1" id="Layer_1" xmlns="http://www.w3.org/2000/svg" xmlns:xlink="http://www.w3.org/1999/xlink" x="0px" y="0px"
	 viewBox="0 0 24 24" style="enable-background:new 0 0 24 24;" xml:space="preserve">
<style type="text/css">
	.st0{fill:#FFFFFF;}
</style>
<g>
	<g>
		<path class="st0" d="M6,9.7c0,0.4,0,0.8,0.1,1.2h2.7c0.9,0,1.9,0.2,2.7,0.5c0.1,0.1,0.3,0.1,0.4,0.2c0.1-0.1,0.3-0.1,0.4-0.2
			c0.9-0.4,1.8-0.5,2.7-0.5h2.7C18,10.5,18,10.1,18,9.7c0-3.3-2.7-6-6-6S6,6.4,6,9.7z"/>
	</g>
	<g>
		<path class="st0" d="M1.4,9.4c0.9,0.9,2.1,1.4,3.4,1.4h0.1C4.8,10.4,4.8,10,4.8,9.6c0-1,0.2-1.9,0.6-2.8C5.8,6,6.3,5.3,6.9,4.6
			C7.6,4,8.4,3.4,9.2,3.1c0.6-0.2,1.1-0.4,1.7-0.5C9.9,1,8.1,0,6,0C2.7,0,0,2.7,0,6l0,0l0,0C0,7.3,0.5,8.5,1.4,9.4z"/>
	</g>
	<g>
		<path class="st0" d="M17.1,4.6c0.7,0.7,1.2,1.4,1.5,2.3c0.4,0.9,0.6,1.8,0.6,2.8c0,0.4,0,0.8-0.1,1.2h0.1c1.3,0,2.5-0.5,3.4-1.4
			C23.5,8.5,24,7.3,24,6l0,0c0-3.3-2.7-6-6-6c-2.1,0-3.9,1-4.9,2.6c0.6,0.1,1.2,0.2,1.7,0.5C15.6,3.4,16.4,4,17.1,4.6z"/>
	</g>
	<g>
		<path class="st0" d="M19.2,12h-4c-0.7,0-1.3,0.1-2,0.3c0.2,0.2,0.5,0.4,0.7,0.6c0.7,0.7,1.2,1.4,1.6,2.3c0.4,0.9,0.5,1.8,0.5,2.7
			c0,0.9-0.2,1.9-0.5,2.7c-0.4,0.9-0.9,1.7-1.6,2.3c-0.2,0.2-0.4,0.4-0.7,0.6c0.6,0.2,1.3,0.3,2,0.3H18c1.6,0,3.1-0.6,4.2-1.8
			c1.1-1.1,1.8-2.7,1.8-4.2V9.5C22.9,11,21.1,12,19.2,12z"/>
	</g>
	<g>
		<path class="st0" d="M13.1,13.8C12,12.7,10.4,12,8.9,12h-4c-2,0-3.8-1-4.8-2.5V18l0,0c0,1.6,0.6,3.1,1.8,4.2C2.9,23.4,4.4,24,6,24
			h2.8c1.6,0,3.1-0.6,4.2-1.8c1.1-1.1,1.8-2.7,1.8-4.2C14.8,16.4,14.2,14.9,13.1,13.8z"/>
	</g>
</g>
</svg>
