<?xml version="1.0" encoding="utf-8"?>
<!-- Generator: Adobe Illustrator 27.3.1, SVG Export Plug-In . SVG Version: 6.00 Build 0)  -->
<svg version="1.1" id="Layer_1" xmlns="http://www.w3.org/2000/svg" xmlns:xlink="http://www.w3.org/1999/xlink" x="0px" y="0px"
	 viewBox="0 0 24 24" style="enable-background:new 0 0 24 24;" xml:space="preserve">
<style type="text/css">
	.st0{fill:url(#circle3073_00000098191478468473286330000017074214022116666278_);}
	.st1{fill:url(#circle3105_00000075121731195933222960000010132800643348994196_);}
	.st2{fill:url(#circle3085_00000034077434068799432620000015717068471832100497_);}
	.st3{fill:url(#path3081_00000042737288634220717890000015557052253711394485_);}
	.st4{fill:url(#path3059_00000120556824934504112640000013308095448209590698_);}
</style>
<g id="layer1" transform="translate(36.202426,-48.284417)">
	<g id="g3149" transform="matrix(0.66666667,0,0,0.66666667,28.557493,58.675291)">
		
			<linearGradient id="circle3073_00000163033160633518538050000014772339889130061217_" gradientUnits="userSpaceOnUse" x1="-497.1136" y1="413.6449" x2="-497.1136" y2="408.8822" gradientTransform="matrix(2.5197 0 0 -2.5197 1164.4297 1026.6685)">
			<stop  offset="0" style="stop-color:#3798FA"/>
			<stop  offset="1" style="stop-color:#094CA9"/>
		</linearGradient>
		<path id="circle3073" style="fill:url(#circle3073_00000163033160633518538050000014772339889130061217_);" d="M-79.1-6.6
			c0,5-4,9-9,9c0,0,0,0,0,0c-5,0-9-4-9-9v0c0-5,4-9,9-9S-79.1-11.6-79.1-6.6L-79.1-6.6z"/>
		
			<linearGradient id="circle3105_00000127044061887919623460000000666997570245533347_" gradientUnits="userSpaceOnUse" x1="-787.6257" y1="413.6449" x2="-787.6257" y2="408.8822" gradientTransform="matrix(2.5197 0 0 -2.5197 1914.4292 1026.6685)">
			<stop  offset="0" style="stop-color:#3798FA"/>
			<stop  offset="1" style="stop-color:#094CA9"/>
		</linearGradient>
		<path id="circle3105" style="fill:url(#circle3105_00000127044061887919623460000000666997570245533347_);" d="M-61.1-6.6
			c0,5-4,9-9,9c0,0,0,0,0,0c-5,0-9-4-9-9s4-9,9-9S-61.1-11.6-61.1-6.6L-61.1-6.6z"/>
		
			<linearGradient id="circle3085_00000036233978467476034990000011656571336154812585_" gradientUnits="userSpaceOnUse" x1="-555.7376" y1="410.0729" x2="-555.7376" y2="407.331" gradientTransform="matrix(-2.5197 0 0 -2.5197 -1479.4236 1026.6685)">
			<stop  offset="0" style="stop-color:#50C1FC"/>
			<stop  offset="1" style="stop-color:#2D9AED"/>
		</linearGradient>
		<path id="circle3085" style="fill:url(#circle3085_00000036233978467476034990000011656571336154812585_);" d="M-88.1-1.1
			c0,5,4,9,9,9s9-4,9-9s-4-9-9-9S-88.1-6-88.1-1.1z"/>
		
			<linearGradient id="path3081_00000168112909411402135550000012124603584937505961_" gradientUnits="userSpaceOnUse" x1="-491.8496" y1="399.4694" x2="-490.6172" y2="403.5733" gradientTransform="matrix(2.5197 0 0 -2.5197 1164.4297 1026.6685)">
			<stop  offset="0" style="stop-color:#208CE8"/>
			<stop  offset="1" style="stop-color:#50C1FC"/>
		</linearGradient>
		<path id="path3081" style="fill:url(#path3081_00000168112909411402135550000012124603584937505961_);" d="M-61.1-6.6v18
			c0,2.4-0.9,4.7-2.6,6.4c-1.7,1.7-4,2.6-6.4,2.6h-4.2c-2.4,0-4.7-0.9-6.4-2.6c-1.7-1.7-2.6-4-2.6-6.4s0.9-4.7,2.6-6.4
			c1.7-1.7,4-2.6,6.4-2.6h4.2C-65.2,2.4-61.1-1.6-61.1-6.6L-61.1-6.6z"/>
		
			<linearGradient id="path3059_00000130648610030794729890000010177535929222049171_" gradientUnits="userSpaceOnUse" x1="-429.3793" y1="-248.6103" x2="-420.3819" y2="-232.2491" gradientTransform="matrix(0.6667 0 0 -0.6667 192.2628 -147.6784)">
			<stop  offset="0" style="stop-color:#0A4EAA"/>
			<stop  offset="1" style="stop-color:#308CEE"/>
		</linearGradient>
		<path id="path3059" style="fill:url(#path3059_00000130648610030794729890000010177535929222049171_);" d="M-97.1-6.6v18
			c0,2.4,0.9,4.7,2.6,6.4c1.7,1.7,4,2.6,6.4,2.6h4.2c2.4,0,4.7-0.9,6.4-2.6c1.7-1.7,2.6-4,2.6-6.4s-0.9-4.7-2.6-6.4
			c-1.7-1.7-4-2.6-6.4-2.6h-4.2C-93.1,2.4-97.1-1.6-97.1-6.6z"/>
	</g>
</g>
</svg>
