<?xml version="1.0" encoding="utf-8"?>
<!-- Generator: Adobe Illustrator 25.4.1, SVG Export Plug-In . SVG Version: 6.00 Build 0)  -->
<svg version="1.1" id="Layer_1" xmlns="http://www.w3.org/2000/svg" xmlns:xlink="http://www.w3.org/1999/xlink" x="0px" y="0px"
	 viewBox="0 0 708.66 226.77" style="enable-background:new 0 0 708.66 226.77;" xml:space="preserve">
<style type="text/css">
	.st0{fill:#00DCAA;}
	.st1{fill:none;}
</style>
<g>
	<path class="st0" d="M340.44,81.92c-17.21,0-31.22,14-31.22,31.22c0,17.21,14,31.22,31.22,31.22c17.21,0,31.22-14,31.22-31.22
		C371.66,95.93,357.66,81.92,340.44,81.92z M340.44,132c-10.4,0-18.86-8.46-18.86-18.85c0-10.4,8.46-18.86,18.86-18.86
		c10.4,0,18.86,8.46,18.86,18.86C359.3,123.54,350.84,132,340.44,132z"/>
	<path class="st0" d="M252.98,65.15c-2.42,2.27-3.7,5.61-3.7,9.65v10.06h-6.97v10.59h6.97v47.38h12.77V95.45h12.74V84.86h-12.74
		V74.8c0-1.74,0.71-2.55,2.22-2.55h13.35V61.77h-14.88C258.7,61.77,255.33,62.94,252.98,65.15z"/>
	<path class="st0" d="M296.46,130.87c-0.23-0.31-0.34-0.91-0.34-1.93V61.88h-12.88v67.71c0,4.36,0.9,7.7,2.67,9.91
		c1.77,2.21,4.41,3.33,7.85,3.33h12.37v-11.57h-8.34C296.88,131.27,296.61,131.06,296.46,130.87z"/>
	<polygon class="st0" points="453.98,83.56 441.01,132.14 440.79,132.14 426.52,83.92 426.41,83.56 413.35,83.56 399.74,132.14 
		399.63,132.14 386.01,83.56 372.43,83.56 389.83,142.47 389.94,142.83 407.68,142.83 419.82,101.14 431.32,142.83 449.18,142.83 
		466.36,83.56 	"/>
	<path class="st0" d="M349.09,112.17l-13.05-7.53c-0.34-0.19-0.77-0.2-1.11-0.01c-0.01,0-0.01,0.01-0.01,0.01
		c-0.35,0.2-0.56,0.57-0.56,0.97v15.07c0,0.4,0.21,0.77,0.56,0.97c0.17,0.1,0.37,0.15,0.56,0.15c0.19,0,0.39-0.05,0.56-0.15
		l13.05-7.53c0.34-0.2,0.56-0.57,0.56-0.97C349.65,112.74,349.44,112.37,349.09,112.17z"/>
</g>
<rect y="-0.33" class="st1" width="708.66" height="226.77"/>
</svg>
