<?xml version="1.0" encoding="utf-8"?>
<!-- Generator: Adobe Illustrator 25.4.1, SVG Export Plug-In . SVG Version: 6.00 Build 0)  -->
<svg version="1.1" id="Layer_1" xmlns="http://www.w3.org/2000/svg" xmlns:xlink="http://www.w3.org/1999/xlink" x="0px" y="0px"
	 viewBox="0 0 708.66 226.77" style="enable-background:new 0 0 708.66 226.77;" xml:space="preserve">
<style type="text/css">
	.st0{fill:#FFFFFF;}
	.st1{fill:none;}
</style>
<g>
	<path class="st0" d="M228.24,82.2c-7.9,0-15.22,3.15-20.63,8.88c-5.46,5.78-8.47,13.71-8.47,22.31c0,8.9,2.81,16.57,8.13,22.17
		c5.47,5.76,13.14,8.81,22.19,8.81c4.75,0,9.48-1.03,13.69-2.99c4.38-2.04,8.08-4.97,11-8.7l0.27-0.34l-7.32-7.43l-0.36,0.42
		c-3.98,4.64-9.83,7.31-16.06,7.31c-10.73,0-16.65-4.57-18.07-13.97h42.52l0.01-0.49c0.11-4.13,0.11-5.63,0.11-7.71
		c0-7.57-2.53-14.59-7.12-19.74C243.16,85.14,236.28,82.2,228.24,82.2z M212.48,108.55c1.31-9.4,6.54-13.97,15.98-13.97
		c8.09,0,13.72,5.59,14.15,13.97H212.48z"/>
	<path class="st0" d="M386.78,82.2c-17.03,0-30.89,13.94-30.89,31.08c0,17.14,13.86,31.08,30.89,31.08
		c17.03,0,30.89-13.94,30.89-31.08C417.68,96.14,403.82,82.2,386.78,82.2z M386.78,132.05c-10.29,0-18.66-8.42-18.66-18.77
		c0-10.35,8.37-18.77,18.66-18.77c10.29,0,18.66,8.42,18.66,18.77C405.44,123.63,397.07,132.05,386.78,132.05z"/>
	<path class="st0" d="M164.97,82.09c-8.93,0-15.49,4.31-19.5,12.8h-0.43l-0.29-11.17H134.4v80.17h12.42v-31.99h0.4
		c1.55,3.56,3.68,6.43,6.35,8.53c3.32,2.62,7.37,3.94,12.05,3.94c7.13,0,13.66-3.07,18.38-8.65c4.8-5.68,7.45-13.68,7.45-22.54
		c0-8.8-2.65-16.74-7.45-22.37C179.19,85.18,172.44,82.09,164.97,82.09z M162.81,132.52c-4.77,0-8.78-1.96-11.61-5.67
		c-2.62-3.44-4.06-8.22-4.06-13.46c0-5.32,1.51-10.18,4.26-13.68c2.91-3.71,6.97-5.67,11.74-5.67c4.47,0,8.31,1.87,11.09,5.4
		c2.79,3.54,4.26,8.4,4.26,14.06C178.48,124.87,172.19,132.52,162.81,132.52z"/>
	<path class="st0" d="M276.89,94.45h-0.36l-0.76-10.63h-10.66v59.02h12.74v-34.12c0-7.78,3.11-11.1,10.39-11.1h8.15v-13.9h-4.16
		C284.07,83.71,279.04,87.23,276.89,94.45z"/>
	<path class="st0" d="M324.78,91.98c6.96,0,12.33,3.72,14.73,10.2l0.17,0.47l9.89-3.72l-0.19-0.47c-2.09-5.26-5.24-9.36-9.36-12.17
		c-4.18-2.85-9.24-4.3-15.03-4.3c-5.3,0-10.56,1.75-14.44,4.81c-4.28,3.38-6.64,8.16-6.64,13.47c0,5.05,1.81,9.22,5.38,12.41
		c3.02,2.7,7.31,4.76,13.1,6.29l0.02,0.01c0.42,0.1,0.85,0.19,1.27,0.28c3.55,0.79,6.9,1.53,9.29,2.72
		c2.53,1.26,3.71,2.91,3.71,5.19c0,4.6-5.43,6.66-10.82,6.66c-7.14,0-13.75-3.81-17.25-9.94l-0.24-0.42l-9.13,5.01l0.2,0.43
		c2.17,4.69,5.74,8.58,10.32,11.26c4.6,2.69,10.17,4.11,16.11,4.11c6.36,0,12.19-1.58,16.42-4.44c4.67-3.16,7.14-7.65,7.14-12.98
		c0.05-5.06-2.02-9.01-6.34-12.07c-4-2.84-9.4-4.46-13.64-5.55c-6.55-1.85-13.97-3.95-13.97-9.71
		C315.47,95.81,318.96,91.98,324.78,91.98z"/>
	<path class="st0" d="M457.58,82.2c-4.41,0-8.58,1.32-12.06,3.81c-3.11,2.23-5.63,5.33-7.29,8.99h-0.53V83.82h-11.77v59.02h12.74
		v-32.92c0-2.52,1.06-6.63,3.43-10.15c1.96-2.91,5.51-6.38,11.27-6.38c3.98,0,6.81,1.16,8.64,3.53c1.76,2.29,2.62,5.73,2.62,10.5
		v35.42h12.74v-37.05c0-7.36-1.68-13.15-4.99-17.23C468.95,84.34,463.97,82.2,457.58,82.2z"/>
	<path class="st0" d="M537.2,131.17V104.6c0-6.56-2.07-12.13-5.99-16.1c-4.07-4.12-9.96-6.3-17.03-6.3
		c-12.68,0-21.46,5.81-26.86,17.75l-0.2,0.45l11.03,5.19l0.21-0.45c3.06-6.57,8.98-10.99,14.75-10.99c6.48,0,11.36,4.36,11.36,10.13
		v4.16h-13.41c-15,0-24.32,7.26-24.32,18.93c0,5.08,1.88,9.38,5.43,12.43c3.33,2.87,8.01,4.44,13.18,4.44
		c4.74,0,9.22-1.38,12.98-3.98c3.4-2.36,6.15-5.67,7.96-9.58h0.43l-0.09,3.19c0,5.86,2.85,8.96,8.26,8.96h8.26v-10.11h-4.92
		C537.38,132.73,537.2,131.88,537.2,131.17z M518.35,128.79c-3.07,2.46-6.82,4.05-9.55,4.05c-2.53,0-4.83-0.59-6.47-1.66
		c-1.72-1.12-2.63-2.7-2.63-4.57c0-2.48,1.49-4.4,4.43-5.71c2.67-1.19,6.44-1.82,10.91-1.82h9.36
		C523.92,122.6,521.79,126.03,518.35,128.79z"/>
	<path class="st0" d="M566,131.32c-0.91,0-1.18-0.2-1.33-0.4c-0.23-0.31-0.33-0.9-0.33-1.92V62.24H551.6v67.41
		c0,4.34,0.89,7.66,2.64,9.87c1.75,2.2,4.36,3.32,7.77,3.32h12.24v-11.52H566z"/>
</g>
<rect x="0" y="-0.33" class="st1" width="708.66" height="226.77"/>
</svg>
