<?xml version="1.0" encoding="UTF-8"?>
<svg xmlns="http://www.w3.org/2000/svg" version="1.1" viewBox="0 0 1000 122">
  <defs>
    <style>
      .cls-1 {
        fill: #fff;
      }
    </style>
  </defs>
  <!-- Generator: Adobe Illustrator 28.6.0, SVG Export Plug-In . SVG Version: 1.2.0 Build 709)  -->
  <g>
    <g id="Layer_1">
      <g>
        <path class="cls-1" d="M48,4.7L6.2,45.8c-3.9,3.9-6.2,9.2-6.2,14.7v61.4h68.9c0,0,0-.3,0-.3,0-27.2,22.2-49.4,49.4-49.4h.3v-20.4L70.6,4.7c-6.2-6.1-16.4-6.1-22.6,0ZM110.6,64.8c-25.4,3.5-45.6,23.6-49.1,49.1H8s0-53.3,0-53.3c0-3.4,1.4-6.7,3.8-9L53.6,10.4c3.1-3.1,8.2-3.1,11.4,0l45.6,44.8v9.6Z"/>
        <path class="cls-1" d="M88,121.6h8c0-12.3,10-22.4,22.4-22.4v-8c-16.7,0-30.4,13.6-30.4,30.4Z"/>
        <path class="cls-1" d="M210,68.8c-11.1-3.7-19.9-6.3-19.9-13.7s4.6-9.6,12.8-9.6,16.2,4.2,20.4,13l13-6.6c-4.8-11.7-16.8-21-33.4-21s-28.7,10.3-28.7,24.2,16.7,22.9,29.2,26.9c9.9,3.2,18.4,6.5,18.4,12.2s-5.6,9.3-15.6,9.3-19-4-24.9-14.4l-11.9,7.9c7,14.8,21.9,20.7,36.1,20.9,16.4.2,31.5-8.2,31.5-23.2s-16.2-22.2-27-25.8Z"/>
        <path class="cls-1" d="M352.8,30.8c-14.4,0-24.1,8.5-28.3,20.2h-1.1c-3.1-12-11.3-20.2-25-20.2s-23.9,8-27.3,18.2h-1.1v-15.9h-15.4v82.6h16.8v-43.1c0-11.7,6.5-27.6,20.5-27.6s17.1,6.3,17.1,21v49.7h16.8v-44.5c0-11.1,6.9-26.3,21.6-26.3s16.1,9,16.1,21v49.7h16.8v-52c0-20.4-9.9-32.9-27.6-32.9Z"/>
        <path class="cls-1" d="M464.2,99.5v-37.5c0-19.8-12.7-31.2-31.8-31.2s-30,9.6-35.4,25.9l13.9,5.9c4.9-12,10.8-17.3,21.5-17.3s16.1,6.5,16.1,18.5v5.1h-19.5c-17.9,0-34.1,9-34.1,25.8s11.4,23,25.9,23,25-8.3,30-19.3h1.4l-.2,5.2c0,7.9,3.7,12,11.1,12h9.6v-13.3h-6.3c-1.4,0-2.2-1.1-2.2-2.9ZM424,103.3c-6.5,0-13.1-3.4-13.1-9.9s10.5-12.2,23.8-12.2h13.7c-1.2,10.8-12.7,22.1-24.4,22.1Z"/>
        <path class="cls-1" d="M502.4,48.3h-1.1v-15.1h-15v82.6h16.8v-47.9c0-10.7,4-16.5,15.6-16.5h11v-18.4h-5.3c-9.6,0-18.7,3.2-22.1,15.3Z"/>
        <path class="cls-1" d="M561.3,14.6h-15.6l-1.1,18.5h-12.8v13.4h12.8l.2,51.1c0,12.2,4.8,18.1,14.1,18.1h23v-15h-17.1c-2.5,0-3.2-.9-3.2-4v-50.2h20.4v-13.4h-20.5V14.6Z"/>
        <path class="cls-1" d="M644.1,30.7c-14.4,0-22.9,8-27.8,18.2h-1.1V2.2h-15.8v113.5h16.8v-42.6c0-12.2,6.8-28.1,22.1-28.1s16.5,5.7,16.5,21.5v49.3h16.8v-52.2c0-19.3-8.8-32.9-27.6-32.9Z"/>
        <path class="cls-1" d="M727,30.8c-23.8,0-40.3,18.1-40.3,43.6s16.1,43.6,39.7,43.6,40-19.2,40-43.7-15.6-43.4-39.4-43.4ZM726.5,103.4c-15.4,0-23.8-13.1-23.8-29s8.5-29,24.1-29,23.5,13.1,23.5,29-8.6,29-23.8,29Z"/>
        <path class="cls-1" d="M880.3,30.8c-14.4,0-24.1,8.5-28.3,20.2h-1.1c-3.1-12-11.3-20.2-25-20.2s-23.9,8-27.3,18.2h-1.1v-15.9h-15.4v82.6h16.8v-43.1c0-11.7,6.5-27.6,20.5-27.6s17.1,6.3,17.1,21v49.7h16.8v-44.5c0-11.1,6.9-26.3,21.6-26.3s16.1,9,16.1,21v49.7h16.8v-52c0-20.4-9.9-32.9-27.6-32.9Z"/>
        <path class="cls-1" d="M1000,70.4c0-21-13.7-39.5-37.1-39.5s-40,18.5-40,43.7,20.5,43.6,41.5,43.6,25.6-5.6,34.1-16.5l-9.3-9.7c-7,7.9-16.1,11.7-24.7,11.7s-22.7-7.4-25.2-22.2h60.4c.2-5.9.2-8,.2-11ZM939.5,68.3c2.2-15.8,12.4-23,22.5-23s21.5,8.3,21.8,23h-44.3Z"/>
      </g>
    </g>
  </g>
</svg>