<?xml version="1.0" encoding="utf-8"?>
<!-- Generator: Adobe Illustrator 25.4.1, SVG Export Plug-In . SVG Version: 6.00 Build 0)  -->
<svg version="1.1" id="Layer_1" xmlns="http://www.w3.org/2000/svg" xmlns:xlink="http://www.w3.org/1999/xlink" x="0px" y="0px"
	 viewBox="0 0 708.66 226.77" style="enable-background:new 0 0 708.66 226.77;" xml:space="preserve">
<style type="text/css">
	.st0{fill:#FFFFFF;}
	.st1{fill:none;}
</style>
<g>
	<path class="st0" d="M166.17,70.39h-11.99l-0.76,13.09h-9.08v10.49h9.05l0.11,35.6c0,8.8,3.51,13.26,10.43,13.26h14.2v-11.58
		h-10.05c-1.36,0-1.79-0.32-1.79-2.33V93.97h11.84V83.48h-11.95V70.39z"/>
	<path class="st0" d="M212.38,81.84c-7.99,0-15.4,3.17-20.88,8.93c-5.53,5.82-8.57,13.79-8.57,22.44c0,8.95,2.84,16.66,8.22,22.29
		c5.54,5.8,13.3,8.86,22.45,8.86c4.81,0,9.59-1.04,13.85-3.01c4.43-2.05,8.18-4.99,11.14-8.75l0.27-0.34l-7.41-7.47l-0.37,0.42
		c-4.03,4.67-9.95,7.35-16.25,7.35c-10.86,0-16.85-4.6-18.29-14.05h43.03l0.01-0.49c0.11-4.15,0.11-5.66,0.11-7.76
		c0-7.62-2.56-14.67-7.21-19.85C227.48,84.8,220.52,81.84,212.38,81.84z M196.43,108.34c1.32-9.45,6.62-14.05,16.17-14.05
		c8.19,0,13.89,5.62,14.32,14.05H196.43z"/>
	<path class="st0" d="M306.09,81.84c-7.99,0-15.4,3.17-20.88,8.93c-5.53,5.82-8.57,13.79-8.57,22.44c0,8.95,2.84,16.66,8.22,22.29
		c5.54,5.8,13.3,8.86,22.45,8.86c4.81,0,9.59-1.04,13.85-3.01c4.43-2.05,8.18-4.99,11.14-8.75l0.27-0.34l-7.41-7.47l-0.37,0.42
		c-4.03,4.67-9.95,7.35-16.25,7.35c-10.86,0-16.85-4.6-18.29-14.05h43.03l0.01-0.49c0.11-4.15,0.11-5.66,0.11-7.76
		c0-7.62-2.56-14.67-7.21-19.85C321.18,84.8,314.23,81.84,306.09,81.84z M290.14,108.34c1.32-9.45,6.62-14.05,16.17-14.05
		c8.19,0,13.89,5.62,14.32,14.05H290.14z"/>
	<path class="st0" d="M262.44,130.85c-0.23-0.31-0.34-0.91-0.34-1.93V61.77h-12.89v67.8c0,4.37,0.9,7.71,2.67,9.92
		c1.77,2.21,4.42,3.34,7.86,3.34h12.39v-11.58h-8.36C262.86,131.25,262.59,131.05,262.44,130.85z"/>
	<path class="st0" d="M559.16,88.24c-3.46-4.19-8.6-6.4-14.85-6.4c-4.89,0-9.11,1.4-12.54,4.15c-2.93,2.35-5.37,5.76-7.26,10.14
		h-0.53c-2.5-9.22-8.9-14.29-18.05-14.29c-8.85,0-15.64,4.57-19.15,12.87h-0.45l-0.87-11.23h-11v59.35h12.89v-33.11
		c0-2.83,0.83-7.13,3.15-10.69c1.83-2.81,5.3-6.15,11.4-6.15c7.34,0,11.06,4.82,11.06,14.33v35.62h12.89v-33.11
		c0-3.78,1.24-7.85,3.32-10.88c1.86-2.72,5.34-5.96,11.34-5.96c3.53,0,6.23,1.13,8.04,3.35c1.93,2.38,2.91,6.07,2.91,10.98v35.62
		h12.89v-37.26C564.33,98.33,562.54,92.33,559.16,88.24z"/>
	<path class="st0" d="M370.01,94.62h0.15c0.06,0,0.14,0,0.23,0c2.07,0.06,11.94,0.84,16.02,10.29l10.6-4.69
		c0,0-4.94-18.38-27.45-18.38c-7.89,0-15.11,3.18-20.36,8.96c-5.26,5.8-8.15,13.83-8.15,22.62c0,17.92,12.08,30.93,28.73,30.93
		c5.73,0,10.91-1.26,15.41-3.73c4.7-2.59,8.52-6.44,11.38-11.47l0.23-0.4l-8.9-5.89l-0.28,0.43c-3.79,5.81-9.85,9.15-16.62,9.15
		c-4.72,0-8.99-1.9-12.02-5.36c-3.05-3.48-4.73-8.41-4.73-13.88c0-5.7,1.7-10.51,4.93-13.9C362.04,96.29,365.89,94.62,370.01,94.62z
		"/>
	<path class="st0" d="M434.45,94.22c7.19,0,13.46,4.04,16.64,9.97h13.32c-3.85-12.91-15.82-22.35-29.96-22.35
		c-14.14,0-26.12,9.44-29.96,22.35h13.32C421,98.26,427.26,94.22,434.45,94.22z"/>
	<path class="st0" d="M453.13,110.3c0.14,0.91,0.21,1.85,0.21,2.8c0,10.41-8.47,18.88-18.88,18.88c-10.41,0-18.88-8.47-18.88-18.88
		c0-0.95,0.07-1.88,0.21-2.8h-12.46c-0.08,0.92-0.13,1.85-0.13,2.8c0,17.24,14.02,31.26,31.26,31.26
		c17.24,0,31.26-14.02,31.26-31.26c0-0.94-0.04-1.88-0.13-2.8H453.13z"/>
</g>
<rect x="0" y="-0.33" class="st1" width="708.66" height="226.77"/>
</svg>
