<?xml version="1.0" encoding="utf-8"?>
<!-- Generator: Adobe Illustrator 27.3.1, SVG Export Plug-In . SVG Version: 6.00 Build 0)  -->
<svg version="1.1" id="Layer_1" xmlns="http://www.w3.org/2000/svg" xmlns:xlink="http://www.w3.org/1999/xlink" x="0px" y="0px"
	 viewBox="0 0 163.5 129.4" style="enable-background:new 0 0 163.5 129.4;" xml:space="preserve">
<style type="text/css">
	.st0{fill:#86C3CE;}
	.st1{fill:#000024;}
	.st2{fill:#212E44;}
	.st3{fill:#E2D3C6;}
	.st4{fill:#6CA8B5;}
	.st5{fill:#F3E3D8;}
	.st6{fill:#2F2870;}
	.st7{fill:#584990;}
	.st8{fill:#FFFFFF;}
	.st9{fill:#A49CC2;}
	.st10{fill:#A087BE;}
	.st11{fill:#F59296;}
	.st12{fill:#786EA6;}
	.st13{fill:#6B5E9C;}
	.st14{fill:#8B81B2;}
	.st15{fill:#6D609E;}
</style>
<g>
	<g>
		<g>
			<path class="st0" d="M66.2,129.4c-0.1,0-0.2-0.1-0.2-0.2v-13.4c0-0.1,0-0.1,0-0.1l10.2-13.4c0-0.1,0.1-0.1,0.2-0.1h24.4
				c0.1,0,0.1,0,0.2,0.1l10.5,13.4c0,0,0,0.1,0,0.1v11.9c0,0.1-0.1,0.2-0.2,0.2s-0.2-0.1-0.2-0.2v-11.8l-10.3-13.2H76.5l-10.1,13.2
				v13.3C66.4,129.3,66.3,129.4,66.2,129.4z"/>
		</g>
		<g>
			<path class="st0" d="M111.2,116H86.4c-0.1,0-0.2-0.1-0.2-0.2s0.1-0.2,0.2-0.2h24.8c0.1,0,0.2,0.1,0.2,0.2S111.4,116,111.2,116z"
				/>
		</g>
		<g>
			<path class="st0" d="M86.4,116c-0.1,0-0.1,0-0.2-0.1l-10-13.4c-0.1-0.1-0.1-0.2,0-0.3c0.1-0.1,0.2-0.1,0.3,0l10,13.4
				c0.1,0.1,0.1,0.2,0,0.3C86.5,116,86.5,116,86.4,116z"/>
		</g>
		<g>
			<path class="st0" d="M86.4,128.4c-0.1,0-0.2-0.1-0.2-0.2v-12.4c0-0.1,0.1-0.2,0.2-0.2s0.2,0.1,0.2,0.2v12.4
				C86.6,128.3,86.5,128.4,86.4,128.4z"/>
		</g>
	</g>
	<g>
		<path class="st1" d="M85.9,89.9c-4,2.9-7.2,3.9-10.2,3.9c-4.9,0-8.9-2.3-13.8-9.8c-5-7.6,7.5-23.2,12.1-28.1l4.6-1.2l9.3,4.4
			l-6.2,9.7l-6.8,13.6c0.1-0.1,1-0.9,2.3-2.2C80.2,80.9,84.5,83.2,85.9,89.9z"/>
	</g>
	<g>
		<path class="st2" d="M93.2,56.7c-0.5,2.4-1.7,4.7-4,7.6c-0.9-1.4-3-3.7-5.1-5.2c-2.4-1.6-6-1.9-8-1.9c0.2-0.2,0.3-0.3,0.3-0.3
			s-0.8-1.1-2.4-1c1.5-1.5,2.5-3,2.5-4.1c3.3-2.4,7.5-3.9,12.6-4.7C91.9,50.3,94,52.9,93.2,56.7z"/>
	</g>
	<g>
		<path class="st3" d="M77.1,50.3c0,0-2.7,6.4-7.5,6.9c-4.8,0.5-6.7-4.5-7.8-7.7c-1.1-3.2-2.9-9.4-3.2-10.9c-0.2-1.5,0.2-2.3,1-2.6
			c0.8-0.4,1.2,0.2,1.2,0.2s-0.1-0.7,0.8-0.8c0.8-0.2,0.9,0.4,0.9,0.4c0-0.7,1.2-1.3,1.9-0.3c0.7,1,1.3,3.7,1.9,5.7
			c0.6,2,2.3,8,2.3,8l0.9-2.4c1.3,0,3.7,0.5,4.9,1.2c1.3,0.8,1.7,1.3,1.7,1.3l1,0.9L77.1,50.3z"/>
	</g>
	<g>
		<path class="st4" d="M77,50.2l-1-0.9c0,0-0.4-0.5-1.7-1.3c-1.2-0.7-3.6-1.3-4.9-1.2l2.1-5.5l3.2,0.6L77,50.2z"/>
	</g>
	<g>
		<path class="st5" d="M80.5,29.7c-1.1,1.3-4.5,6-4.8,6c-0.2,0-1.4-1.6-1.8-2.3c0.3-0.9,0.6-1.5,0.6-1.6c0-0.3-2-4.4-2-4.4
			s-1.8,0.5-3.1-1.4c-1.4-1.9-1.2-4.9-1.1-5.9c0,0,1.4-2,4-1.7c2.6,0.3,4.2,5,4.6,5.7C77.4,24.8,80.5,29.7,80.5,29.7z"/>
	</g>
	<g>
		<path class="st6" d="M68.3,20.5c-0.8-0.3-0.3-1.6,0.2-2.4c0.5-0.8,1.4-1.3,2.7-1.6c1.3-0.3,2.5-0.2,3.4-0.1
			c0.6,0.1,1.6,0.3,1.6,0.3s-0.5-0.6-0.6-1.4c-0.2-1.2,0.6-1.5,1.1-1.8c0.5-0.2,0.8-0.6,0.7-1.2c-0.1-0.6,0.5-1.4,1.4-1.4
			c0.9,0.1,0.8-0.6,1.7-0.6c0.6,0.1,1.4,0.8,0.9,1.8c-0.4,0.8-0.9,0.8-0.8,1.4c0.1,0.6,0.8,1.3,0.5,2.3c-0.5,1.7-1.9,1.5-2.1,2
			c-0.2,0.4,0.3,1.4-0.1,2.5c-0.4,1.2-1.1,2.1-1.1,2.1s0.4,1.3-1.1,2c-1.5,0.6-2.2,0.5-2.5,0c-0.3-0.5,0.3-1.4,0.2-1.8
			c-0.1-0.4-0.7-0.2-1.1-0.8c-0.3-0.4-0.1-1-0.5-1.2c-0.3,0-1.5,0.2-2.7,0.2C68.8,20.8,68.3,20.5,68.3,20.5z"/>
	</g>
	<g>
		<g>
			<g>
				<g>
					<g>
						<path class="st0" d="M76.1,23.5c-0.8-0.1-1.1-0.8-0.9-2c0.2-1.2,0.7-1.7,1.6-1.6c0.8,0.1,1.1,0.8,0.9,2
							C77.5,23.1,76.9,23.6,76.1,23.5z"/>
					</g>
				</g>
			</g>
		</g>
	</g>
	<g>
		<path class="st0" d="M86.9,44c0.3,0.9,2.2,3.1,2.2,3.1s-4.5,1.2-7.3,2.3c-2.8,1.1-5.4,2.4-5.4,2.4s-0.2-1-0.8-2.8
			c-0.6-1.8-1.5-5.2-1.5-5.2s-1.6-0.7-2.5-1.5c-0.9-0.8-0.1-2.8,0.4-3.9c0.3-0.7,1.3-3.1,1.9-4.8c0.5,0.7,1.6,2.3,1.8,2.3
			c0.3,0,3.7-4.7,4.8-6l0,0c0.1,0,1.2-0.5,3.4-1.7c2.3-1.3,4.9-2.1,4.9-2.1l1.3,6.8l-5.5,3.2C84.7,36.5,86.6,43,86.9,44z"/>
	</g>
	<g>
		<g>
			<g>
				<path class="st2" d="M80.9,42.9L79,44.8c-0.3,0.3-0.8,0.3-1.1,0l-4.6-4.6c-0.3-0.3-0.3-0.8,0-1.1l1.9-1.9c0.3-0.3,0.8-0.3,1.1,0
					l4.6,4.6C81.3,42.1,81.3,42.6,80.9,42.9z"/>
			</g>
		</g>
	</g>
	<g>
		<path class="st5" d="M88.9,25.9c0,0-1.2,1.5-0.8,3.4c0.4,1.9,0.6,2.3,0.6,2.3s-3.3,1.9-4.8,3c-1.5,1.1-3.6,2.4-3.6,2.4
			s-1-0.4-1.9,0.2c-0.9,0.6-1.2,0.9-1.2,0.9l1.4,1.4c0,0-1.2,1-1.7,2.2c-0.5,1.2-1.1,2.7-0.4,3.2c0.7,0.4,1.1-0.1,1.1-0.1
			s-0.5,1,0.3,1.5c0.9,0.4,1.3-0.3,1.3-0.3s-0.3,0.9,0.6,1c1,0.1,1.3-0.7,2.5-2.1c1.2-1.3,4.5-3.5,5.5-4.2c1-0.7,7.8-3.9,11.5-6.3
			c3.8-2.5,4.4-5.1,2.9-8c-1.5-2.8-4.9-2.7-7.1-2.4C92.5,24.4,88.9,25.9,88.9,25.9z"/>
	</g>
	<g>
		<path class="st2" d="M89.2,64.3c-1.3,1.6-2.8,3.4-4.7,5.6c-4.2,4.7-14.9,17.3-21.7,25.4c-1.6-5.6-6.4-6.9-9.9-7
			c3.2-3.9,6.2-7.7,8.5-10.6c5.4-7,8.1-10.7,10.4-14.2c1.8-2.8,3.7-5.4,4.4-6.3c2,0,5.6,0.3,8,1.9C86.2,60.5,88.3,62.9,89.2,64.3z"
			/>
	</g>
	<g>
		<path class="st7" d="M62.7,95.2c-1.9,2.3-3.6,4.3-4.6,5.6c-4.8,5.8-15.6,17.7-15.6,17.7s-6.2,0.9-9.2-1.1c-3-1.9-0.5-7.6-0.5-7.6
			s1.8-0.8,7.5-6.9c3.3-3.6,8.1-9.2,12.6-14.7C56.3,88.3,61.1,89.6,62.7,95.2z"/>
	</g>
	<g>
		<path class="st7" d="M111.1,65.6c0,0-8.1,8.6-16.7,17c-3.3,3.2-6,5.6-8.5,7.3c-1.4-6.7-5.7-9-8.6-9.6c2.2-2,5.5-5.1,8.5-7.8
			c5-4.5,17.2-15.6,17.2-15.6C107.3,58.7,110,62.1,111.1,65.6z"/>
	</g>
	<g>
		<path class="st8" d="M49.1,92.7c-0.4,0.5-0.8,0.9-1.1,1.3c4.6,0.4,8.7,3.1,10.1,6.7c0,0,0,0,0,0c0.3-0.4,0.6-0.8,1-1.3
			C57.4,96,53.6,93.4,49.1,92.7z"/>
	</g>
	<g>
		<path class="st8" d="M83.1,74.9c-0.4,0.4-0.8,0.8-1.3,1.2c3.2,0.8,8.8,3.5,9.8,9.1c0.4-0.4,0.8-0.8,1.2-1.2
			C91.5,78.8,86.6,75.9,83.1,74.9z"/>
	</g>
	<g>
		<path class="st6" d="M69.4,26c0.6-0.2,1.4-0.8,1.4-0.8c0-0.1-1.5-0.1-1.9,0C69,25.4,69.2,25.7,69.4,26z"/>
	</g>
	<g>
		<g>
			<g>
				<g>
					<g>
						<path class="st9" d="M72.7,25.6c-0.5,0-0.8-0.4-0.7-1.1c0-0.7,0.3-1.1,0.8-1.1c0.5,0,0.8,0.4,0.7,1.1
							C73.4,25.2,73.2,25.6,72.7,25.6z"/>
					</g>
				</g>
			</g>
		</g>
	</g>
	<g>
		<path class="st6" d="M40.9,122.4c-1.7-1.2-5.8-1.5-7.8-2.4c-2.1-1-4.5-3.5-6.8-5.2c-2.2-1.6-7.4-5.8-9-7.2
			c0.7-0.6,1.6-1.2,2.6-1.2c2.1,0,5.8,1.9,7.7,2.4c1.9,0.5,3.1,0.6,4.4,0.3c1.3-0.3,1.9-0.8,2.1-0.4c0.2,0.4,0.4,1.3-0.3,2.9
			c-0.6,1.6-0.3,3.1,0.5,4c0.8,0.9,2,1.9,3.2,1.6c1.2-0.3,3-1,4.1-0.7c1.1,0.2,2.3,0.4,2.3,0.7C44.1,117.5,42.3,120.3,40.9,122.4z"
			/>
	</g>
	<g>
		<path class="st10" d="M40.9,122.4c-0.2,0.3-0.3,0.5-0.5,0.8c-1.4,2.1-2.7,3.4-3,3.5c-0.3,0.1-7.9-6.1-10.9-8.5
			c-3.1-2.4-4.7-3.9-6.7-5.3c-2.3-1.6-3.9-3.6-3.9-3.6s0.6-0.9,1.5-1.7c1.6,1.4,6.7,5.6,9,7.2c2.4,1.7,4.7,4.2,6.8,5.2
			C35.1,120.9,39.2,121.2,40.9,122.4z"/>
	</g>
	<g>
		<path class="st6" d="M102.3,54.6c1.7,1.2,5.8,1.6,7.7,2.5c2.1,1,4.4,3.6,6.8,5.3c2.2,1.6,7.3,5.9,8.9,7.3
			c-0.7,0.6-1.6,1.2-2.6,1.2c-2.1,0-5.8-2-7.7-2.5c-1.9-0.5-3.1-0.7-4.4-0.4c-1.3,0.3-1.9,0.8-2.1,0.4c-0.2-0.4-0.4-1.3,0.3-2.9
			c0.7-1.6,0.4-3-0.4-4c-0.8-0.9-2-2-3.2-1.7c-1.2,0.3-3,0.9-4.1,0.7c-1.1-0.2-2.2-0.5-2.3-0.8C99.1,59.5,100.9,56.7,102.3,54.6z"/>
	</g>
	<g>
		<path class="st10" d="M102.3,54.6c0.2-0.3,0.3-0.5,0.5-0.7c1.4-2.1,2.7-3.4,3.1-3.5c0.3-0.1,7.8,6.2,10.8,8.6c3,2.5,4.7,4,6.6,5.4
			c2.2,1.6,3.9,3.6,3.9,3.6s-0.6,0.9-1.5,1.6c-1.6-1.4-6.7-5.7-8.9-7.3c-2.3-1.7-4.7-4.3-6.8-5.3C108,56.2,103.9,55.8,102.3,54.6z"
			/>
	</g>
	<g>
		<g>
			<path class="st1" d="M75.6,37.3c-0.5,0-1.8-2.2-2.1-2.7c0-0.1,0-0.1,0.1-0.2c0.1,0,0.1,0,0.2,0.1c0.4,0.8,1.6,2.6,1.9,2.6
				c0.4,0,2.1-2.1,2.7-2.8c1.2-1.5,2.9-4.4,3.1-4.9c0-0.1,0.1-0.1,0.1-0.1c0.1,0,0.1,0.1,0.1,0.1c-0.2,0.6-1.9,3.5-3.2,5
				C76.7,36.5,75.9,37.3,75.6,37.3z"/>
		</g>
		<g>
			<path class="st1" d="M89.3,64.1c0,0-0.1,0-0.1-0.1c0,0-0.8-2.3-4.6-4.8c-3.8-2.5-8.1-2.3-8.2-2.3c0,0,0,0,0,0c0,0-0.1,0-0.1-0.1
				c0,0,0-0.1,0-0.1c0,0,2.2-3.4,4.3-5.5c0,0,0.1,0,0.2,0c0,0,0,0.1,0,0.2c-1.8,1.8-3.6,4.5-4.1,5.3c0,0,0,0,0,0
				c1,0,4.7,0.2,8.1,2.3c3.9,2.5,4.7,4.8,4.7,4.9C89.4,64,89.4,64.1,89.3,64.1C89.3,64.1,89.3,64.1,89.3,64.1z"/>
		</g>
		<g>
			<path class="st1" d="M77.2,55.4c0,0-0.4-1.2-0.6-2c0-0.1,0-0.1,0.1-0.1c0.1,0,0.1,0,0.1,0.1c0.2,0.7,0.6,2,0.6,2L77.2,55.4z"/>
		</g>
		<g>
			<path class="st1" d="M76.5,20c-0.1,0-0.1,0-0.1-0.1c-0.1-1.9-2.2-3.3-3.7-3.5c-0.1,0-0.1-0.1-0.1-0.1c0-0.1,0-0.1,0.1-0.1
				c1.5,0.2,3.8,1.7,3.9,3.7C76.6,19.9,76.5,20,76.5,20C76.5,20,76.5,20,76.5,20z"/>
		</g>
		<g>
			<path class="st1" d="M70.1,88C70,88,70,88,70.1,88c-0.1-0.1-0.1-0.1-0.1-0.2c0,0,1.9-2.6,4.9-5.4c0,0,0.1,0,0.2,0
				c0,0,0,0.1,0,0.2C72.1,85.4,70.2,87.9,70.1,88C70.1,88,70.1,88,70.1,88z"/>
		</g>
		<g>
			<path class="st1" d="M29.9,114.7C29.9,114.7,29.9,114.7,29.9,114.7c-0.1,0-0.1-0.1-0.1-0.2c0.3-0.6,1.6-3.6,1.5-5.3
				c0-0.1,0-0.1,0.1-0.1c0.1,0,0.1,0,0.1,0.1c0.2,1.8-1.1,4.8-1.5,5.4C30,114.7,30,114.7,29.9,114.7z"/>
		</g>
		<g>
			<path class="st1" d="M28.4,113.2C28.4,113.2,28.4,113.2,28.4,113.2c-0.1,0-0.1-0.1-0.1-0.2l0-0.1c0.3-0.8,1-2.3,1.1-3.7
				c0-0.1,0.1-0.1,0.1-0.1c0,0,0,0,0,0c0.1,0,0.1,0.1,0.1,0.1c-0.1,1.4-0.7,3-1.1,3.8l0,0.1C28.5,113.2,28.5,113.2,28.4,113.2z"/>
		</g>
		<g>
			<path class="st1" d="M26.7,111.8C26.7,111.8,26.7,111.8,26.7,111.8c-0.1,0-0.1-0.1-0.1-0.2l0.1-0.1c0.2-0.4,0.7-1.6,0.9-2.8
				c0-0.1,0.1-0.1,0.1-0.1c0.1,0,0.1,0.1,0.1,0.1c-0.1,1.2-0.7,2.4-0.9,2.8l-0.1,0.1C26.8,111.8,26.8,111.8,26.7,111.8z"/>
		</g>
		<g>
			<path class="st1" d="M25.2,110.6C25.2,110.6,25.2,110.6,25.2,110.6c-0.1,0-0.1-0.1-0.1-0.2c0.1-0.4,0.6-1.6,0.7-2.2
				c0-0.1,0.1-0.1,0.1-0.1c0.1,0,0.1,0.1,0.1,0.1c-0.1,0.6-0.4,1.6-0.7,2.2C25.3,110.6,25.3,110.6,25.2,110.6z"/>
		</g>
		<g>
			<path class="st1" d="M111.6,68c-0.1,0-0.1,0-0.1-0.1c-0.1-1.8,1.2-4.8,1.6-5.4c0-0.1,0.1-0.1,0.2,0c0.1,0,0.1,0.1,0,0.2
				c-0.3,0.6-1.7,3.6-1.5,5.3C111.7,68,111.7,68,111.6,68C111.6,68,111.6,68,111.6,68z"/>
		</g>
		<g>
			<path class="st1" d="M113.5,68.1C113.5,68.1,113.5,68.1,113.5,68.1c-0.1,0-0.1-0.1-0.1-0.1c0.1-1.4,0.8-3,1.1-3.8l0-0.1
				c0-0.1,0.1-0.1,0.2-0.1c0.1,0,0.1,0.1,0.1,0.2l0,0.1c-0.4,0.8-1,2.3-1.1,3.7C113.6,68,113.6,68.1,113.5,68.1z"/>
		</g>
		<g>
			<path class="st1" d="M115.4,68.5C115.4,68.5,115.4,68.5,115.4,68.5c-0.1,0-0.1-0.1-0.1-0.1c0.2-1.2,0.7-2.4,0.9-2.8l0.1-0.1
				c0-0.1,0.1-0.1,0.2-0.1c0.1,0,0.1,0.1,0.1,0.2l-0.1,0.1c-0.2,0.4-0.7,1.6-0.9,2.7C115.5,68.5,115.4,68.5,115.4,68.5z"/>
		</g>
		<g>
			<path class="st1" d="M117.1,69.1C117.1,69.1,117.1,69.1,117.1,69.1c-0.1,0-0.1-0.1-0.1-0.1c0.1-0.6,0.5-1.8,0.7-2.2
				c0-0.1,0.1-0.1,0.1-0.1c0.1,0,0.1,0.1,0.1,0.1c-0.2,0.4-0.6,1.6-0.7,2.2C117.2,69,117.2,69.1,117.1,69.1z"/>
		</g>
	</g>
	<g>
		<path class="st4" d="M132.7,129.3c-2.1,0-3.2-0.6-4.3-1.2c-1-0.6-2-1.1-4-1.1s-3,0.5-4,1.1c-1,0.6-2.1,1.2-4.3,1.2
			c-2.1,0-3.2-0.6-4.3-1.2c-1-0.6-2-1.1-4-1.1c-2,0-3,0.5-4,1.1c-1,0.6-2.1,1.2-4.3,1.2s-3.2-0.6-4.3-1.2c-1-0.6-2-1.1-4-1.1
			s-3,0.5-4,1.1c-1,0.6-2.1,1.2-4.3,1.2s-3.2-0.6-4.3-1.2c-1-0.6-2-1.1-4-1.1c-2,0-3,0.5-4,1.1c-1,0.6-2.1,1.2-4.3,1.2
			c-2.1,0-3.2-0.6-4.3-1.2c-1-0.6-2-1.1-4-1.1s-3,0.5-4,1.1c-1,0.6-2.1,1.2-4.3,1.2c-2.1,0-3.2-0.6-4.3-1.2c-1-0.6-2-1.1-4-1.1
			s-3,0.5-4,1.1c-1,0.6-2.1,1.2-4.3,1.2c-2.1,0-3.2-0.6-4.3-1.2c-1-0.6-2-1.1-4-1.1s-3,0.5-4,1.1c-1,0.6-2.1,1.2-4.3,1.2
			s-3.2-0.6-4.3-1.2c-1-0.6-2-1.1-4-1.1c-0.1,0-0.2-0.1-0.2-0.2s0.1-0.2,0.2-0.2c2.1,0,3.2,0.6,4.3,1.2c1,0.6,2,1.1,4,1.1
			s3-0.5,4-1.1c1-0.6,2.1-1.2,4.3-1.2s3.2,0.6,4.3,1.2c1,0.6,2,1.1,4,1.1s3-0.5,4-1.1c1-0.6,2.1-1.2,4.3-1.2s3.2,0.6,4.3,1.2
			c1,0.6,2,1.1,4,1.1s3-0.5,4-1.1c1-0.6,2.1-1.2,4.3-1.2c2.1,0,3.2,0.6,4.3,1.2c1,0.6,2,1.1,4,1.1c2,0,3-0.5,4-1.1
			c1-0.6,2.1-1.2,4.3-1.2c2.1,0,3.2,0.6,4.3,1.2c1,0.6,2,1.1,4,1.1c2,0,3-0.5,4-1.1c1-0.6,2.1-1.2,4.3-1.2s3.2,0.6,4.3,1.2
			c1,0.6,2,1.1,4,1.1c2,0,3-0.5,4-1.1c1-0.6,2.1-1.2,4.3-1.2c2.1,0,3.2,0.6,4.3,1.2c1,0.6,2,1.1,4,1.1c2,0,3-0.5,4-1.1
			c1-0.6,2.1-1.2,4.3-1.2s3.2,0.6,4.3,1.2c1,0.6,2,1.1,4,1.1s3-0.5,4-1.1c1-0.6,2.1-1.2,4.3-1.2c0.1,0,0.2,0.1,0.2,0.2
			s-0.1,0.2-0.2,0.2c-2,0-3,0.5-4,1.1C135.9,128.7,134.8,129.3,132.7,129.3z"/>
	</g>
	<g>
		<path class="st0" d="M43.9,124c-0.1,0-0.2,0-0.2-0.1c-0.1-0.1,0-0.2,0-0.3c0,0,4.3-4.9,9.5-6.6c3.1-1,5.1-0.3,5.9,0.6
			c0.6,0.7,0.7,1.7,0.3,2.6c-0.9,1.8-3.5,2-6.3,2.3c-1,0.1-2,0.2-3,0.4C46.6,123.4,43.9,124,43.9,124C43.9,124,43.9,124,43.9,124z
			 M56,116.9c-0.8,0-1.7,0.1-2.7,0.5c-4,1.3-7.5,4.7-8.8,6c1-0.2,3-0.6,5.4-1.1c1-0.2,2-0.3,3-0.4c2.7-0.2,5.2-0.5,5.9-2
			c0.4-0.7,0.3-1.5-0.2-2.1C58.3,117.4,57.4,116.9,56,116.9z"/>
	</g>
	<g>
		<path class="st0" d="M3.6,115.5c-1.2,0-2.3-0.3-3-1c-0.7-0.7-0.8-1.7-0.4-2.6c0.6-1.1,2.3-2.3,5.6-2.1c5.4,0.4,10.8,4,10.8,4.1
			c0.1,0.1,0.1,0.2,0.1,0.3c0,0.1-0.1,0.2-0.2,0.2c0,0-2.7,0.1-6.2,0.4c-1,0.1-2,0.2-3,0.4C6,115.3,4.7,115.5,3.6,115.5z M5,110.3
			c-2.5,0-3.9,0.9-4.3,1.8c-0.3,0.7-0.2,1.4,0.3,2c1.1,1.3,3.6,0.9,6.2,0.5c1-0.2,2-0.3,3-0.4c2.5-0.2,4.5-0.3,5.5-0.3
			c-1.5-0.9-5.8-3.3-10-3.6C5.5,110.3,5.2,110.3,5,110.3z"/>
	</g>
	<g>
		<path class="st8" d="M25.2,104.7c0,0-1-7.1-4.4-12.6c-3.1-4.9-7-4.5-7.6-1.8c-0.7,2.9,2.5,5.9,5.7,8.7
			C22,101.7,25.2,104.7,25.2,104.7z"/>
		<path class="st0" d="M25.2,105c-0.1,0-0.1,0-0.2-0.1c0,0-3.2-3.1-6.3-5.7c-3.4-3-6.5-5.9-5.8-8.9c0.3-1.1,1.1-1.9,2.2-2.1
			c1.5-0.3,3.8,0.6,5.8,3.9c3.4,5.4,4.4,12.6,4.4,12.7c0,0.1,0,0.2-0.1,0.2C25.3,104.9,25.2,105,25.2,105z M15.6,88.6
			c-0.2,0-0.3,0-0.4,0c-0.9,0.2-1.6,0.8-1.8,1.8c-0.6,2.8,2.3,5.6,5.6,8.5c2.3,2,4.8,4.3,5.8,5.3c-0.3-1.9-1.5-7.4-4.3-11.8
			C18.9,89.5,17,88.6,15.6,88.6z"/>
	</g>
	<g>
		<g>
			<path class="st11" d="M91.1,127C91.1,127,91.1,127,91.1,127c-0.1,0-0.2-0.1-0.2-0.2l1.2-9.8c0-0.1,0.1-0.2,0.2-0.2
				c0.1,0,0.2,0.1,0.2,0.2l-1.2,9.8C91.3,126.9,91.2,127,91.1,127z"/>
		</g>
		<g>
			<path class="st11" d="M98.5,129c-0.1,0-0.2-0.1-0.2-0.2l-1-12.1c0-0.1,0.1-0.2,0.2-0.2c0.1,0,0.2,0.1,0.2,0.2l1,12.1
				C98.7,128.9,98.7,129,98.5,129C98.6,129,98.6,129,98.5,129z"/>
		</g>
		<g>
			<path class="st11" d="M94,117.3c-0.6,0-1.2,0-1.8-0.1c-0.2,0-4.4-0.7-5.2-4c-0.5-2.4,0.3-3.7,1-5c0.3-0.5,0.7-1.1,0.9-1.8
				c0.3-0.9,0.1-1.7-0.2-2.5c-0.3-0.9-0.7-2-0.1-3.4c0.3-0.8,0.9-1.3,1.5-1.8c0.5-0.5,1.1-0.9,1.5-1.6c0.3-0.5,0.5-1.2,0.7-1.8
				c0.4-1.4,0.9-2.8,2.7-3.1c0.9-0.1,1.6,0.1,2.2,0.7c1.4,1.3,1.8,3.9,1.7,5.8c-0.1,1.1,0.5,2,1.2,3c0.7,0.9,1.4,2,1.6,3.4
				c0.2,1.5-0.1,2.4-0.4,3.1c-0.2,0.7-0.4,1.2-0.1,2c0.6,1.7,0.6,2.9,0,4c-0.6,1.2-1.9,2-3.8,2.7C96.3,117.2,95.1,117.3,94,117.3z
				 M95.7,92.5c-0.1,0-0.3,0-0.4,0c-1.5,0.3-1.9,1.4-2.4,2.8c-0.2,0.6-0.4,1.3-0.8,1.9c-0.4,0.7-1,1.2-1.6,1.7
				c-0.6,0.5-1.1,1-1.4,1.7c-0.5,1.3-0.2,2.3,0.1,3.2c0.3,0.8,0.6,1.7,0.2,2.8c-0.2,0.7-0.6,1.3-0.9,1.8c-0.8,1.3-1.5,2.5-1,4.7
				c0.7,3.1,4.8,3.7,4.8,3.8h0c1.5,0.3,3.3,0.2,5.2-0.3c1.9-0.6,3.1-1.4,3.6-2.5c0.5-1,0.5-2.1,0-3.7c-0.3-0.9-0.1-1.5,0.1-2.2
				c0.2-0.7,0.5-1.6,0.4-3c-0.1-1.3-0.8-2.3-1.5-3.2c-0.7-1-1.4-1.9-1.3-3.2c0.2-2.2-0.4-4.5-1.6-5.5C96.7,92.7,96.2,92.5,95.7,92.5
				z"/>
		</g>
		<g>
			<path class="st11" d="M93.2,115C93.2,115,93.2,115,93.2,115c-1.1-0.4-2.3-1.1-2.7-2.3c-0.3-0.8-0.2-1.6,0.3-2.4
				c0.1-0.1,0.2-0.1,0.3-0.1c0.1,0.1,0.1,0.2,0.1,0.3c-0.5,0.7-0.6,1.5-0.3,2.1c0.4,1.1,1.5,1.8,2.4,2.1c0.1,0,0.1,0.1,0.1,0.2
				C93.4,115,93.3,115,93.2,115z"/>
		</g>
		<g>
			<path class="st11" d="M96.8,113.2c-0.1,0-0.1,0-0.1-0.1c-0.1-0.1,0-0.2,0-0.3c1.1-0.9,1.7-2.1,1.7-3.5c0-1.4-0.6-2.6-1.8-3.6
				c-0.1-0.1-0.1-0.2,0-0.3c0.1-0.1,0.2-0.1,0.3,0c1.2,1,1.9,2.4,1.9,3.9c0,1.5-0.7,2.8-1.9,3.7C96.8,113.2,96.8,113.2,96.8,113.2z"
				/>
		</g>
		<g>
			<path class="st11" d="M93.1,106.1C93.1,106.1,93.1,106.1,93.1,106.1c-0.8-0.3-1.4-1.3-1.5-2.5c-0.1-1.3,0.5-2.5,1.5-3.1
				c0.1-0.1,0.2,0,0.3,0.1s0,0.2-0.1,0.3c-0.9,0.6-1.4,1.6-1.3,2.8c0.1,1,0.6,1.9,1.2,2.1c0.1,0,0.1,0.1,0.1,0.2
				C93.2,106.1,93.2,106.1,93.1,106.1z"/>
		</g>
		<g>
			<path class="st11" d="M96.4,100.4c0,0-0.1,0-0.1,0c-0.1-0.1-0.1-0.2,0-0.3c0.5-0.6,0.7-2,0.4-3.2c-0.2-0.7-0.6-1.2-1-1.3
				c-0.1,0-0.2-0.1-0.1-0.2c0-0.1,0.1-0.2,0.2-0.1c0.6,0.2,1,0.7,1.2,1.6c0.3,1.1,0.2,2.8-0.4,3.5C96.5,100.3,96.4,100.4,96.4,100.4
				z"/>
		</g>
	</g>
	<g>
		<g>
			<path class="st11" d="M114.8,117c-0.8,0-1.5-0.2-2.1-0.4c-0.3-0.1-0.5-0.2-0.7-0.2c-0.3,0-0.6,0.1-1.1,0.2
				c-1.1,0.3-2.6,0.7-4.1-0.4c-0.7-0.5-1.1-1.1-1.2-2c-0.2-1.2,0.1-2.6,0.9-3.7c0.7-1,0.4-1.8,0.1-2.8c-0.3-0.9-0.6-1.9-0.3-3.2
				c0.4-1.5,1.2-2.1,1.8-2.5c0.5-0.4,0.9-0.7,1-1.5c0.1-0.8,0-1.4-0.2-1.9c-0.2-0.7-0.3-1.4,0.1-2.7c0.5-1.7,1.8-3,3.5-3.4l0,0l0,0
				c0.9-0.2,1.8,0.1,2.6,0.8c1.1,1,1.8,2.7,1.6,4c0,0.2-0.1,0.5-0.1,0.7c-0.3,1.9-0.6,4.1,0.6,5.1c1.7,1.4,2.5,2.5,2.2,4.6
				c-0.2,0.9-0.6,1.4-0.9,1.9c-0.4,0.5-0.7,0.9-0.6,1.5c0,0.3,0.2,0.7,0.3,1c0.4,1,0.9,2.3-0.6,3.8C116.6,116.7,115.7,117,114.8,117
				z M111.9,116c0.1,0,0.1,0,0.2,0c0.2,0,0.4,0.1,0.7,0.2c1.1,0.4,2.9,0.9,4.4-0.6c1.3-1.4,0.9-2.4,0.5-3.4
				c-0.2-0.4-0.3-0.7-0.4-1.1c-0.1-0.8,0.2-1.3,0.6-1.8c0.3-0.4,0.7-1,0.9-1.7c0.3-1.7-0.2-2.7-2-4.3c-1.3-1.1-1-3.4-0.7-5.4
				c0-0.3,0.1-0.5,0.1-0.7c0.2-1.2-0.5-2.8-1.5-3.7c-0.5-0.4-1.2-0.9-2.2-0.7l0,0c-1.5,0.3-2.8,1.5-3.2,3.1
				c-0.4,1.2-0.2,1.8-0.1,2.5c0.1,0.5,0.3,1.1,0.2,2c-0.1,1-0.6,1.4-1.1,1.8c-0.6,0.4-1.2,0.9-1.6,2.3c-0.3,1.1,0,2.1,0.3,3
				c0.4,1.1,0.7,2-0.1,3.2c-0.7,1-1,2.4-0.8,3.5c0.1,0.8,0.5,1.4,1.1,1.8c1.4,1,2.7,0.6,3.8,0.4C111.3,116.1,111.6,116,111.9,116z
				 M112.4,92.5L112.4,92.5L112.4,92.5z"/>
		</g>
		<g>
			<path class="st11" d="M107.7,127C107.7,127,107.7,127,107.7,127c-0.1,0-0.2-0.1-0.2-0.2l1.9-10.1c0-0.1,0.1-0.2,0.2-0.1
				c0.1,0,0.2,0.1,0.1,0.2l-1.9,10.1C107.9,126.9,107.8,127,107.7,127z"/>
		</g>
		<g>
			<path class="st11" d="M116.1,129.3c-0.1,0-0.2-0.1-0.2-0.2l-1.7-12.3c0-0.1,0.1-0.2,0.2-0.2c0.1,0,0.2,0.1,0.2,0.2l1.7,12.3
				C116.3,129.1,116.2,129.2,116.1,129.3C116.1,129.3,116.1,129.3,116.1,129.3z"/>
		</g>
		<g>
			<path class="st11" d="M114.6,104.8c0,0-0.1,0-0.1,0c-0.1-0.1-1.9-1.8-1.1-4c0.7-2.1,0.4-4.2-0.7-4.8c-0.1,0-0.1-0.2-0.1-0.2
				c0-0.1,0.2-0.1,0.2-0.1c1.3,0.7,1.7,2.9,0.9,5.2c-0.7,1.9,1,3.6,1,3.6c0.1,0.1,0.1,0.2,0,0.3
				C114.7,104.8,114.6,104.8,114.6,104.8z"/>
		</g>
		<g>
			<path class="st11" d="M108.8,109.1C108.8,109.1,108.8,109.1,108.8,109.1c-0.2-0.1-0.2-0.2-0.2-0.3c0.2-0.6,0.1-1.1-0.2-1.6
				c-0.3-0.7-0.6-1.4-0.3-2.5c0.2-0.9,0.7-1.5,1.2-2c0.5-0.6,0.9-1,0.8-1.8c0-0.1,0.1-0.2,0.2-0.2c0.1,0,0.2,0.1,0.2,0.2
				c0.1,0.9-0.4,1.5-0.9,2.1c-0.4,0.5-0.9,1-1.1,1.8c-0.2,0.9,0,1.6,0.3,2.2c0.2,0.6,0.5,1.2,0.2,1.9
				C109,109,108.9,109.1,108.8,109.1z"/>
		</g>
		<g>
			<path class="st11" d="M112.4,111.4C112.4,111.4,112.3,111.4,112.4,111.4c-0.2-0.1-0.2-0.2-0.2-0.3c1-1.6,0.4-3.5-0.1-4.3
				c-0.1-0.1,0-0.2,0.1-0.3c0.1-0.1,0.2,0,0.3,0.1c0.4,0.7,1.3,2.8,0.2,4.7C112.5,111.4,112.5,111.4,112.4,111.4z"/>
		</g>
		<g>
			<path class="st11" d="M116,113.4c-0.1,0-0.1,0-0.1-0.1c-0.9-1.2-1-3.8-0.1-5.3c0.1-0.1,0.2-0.1,0.3-0.1c0.1,0.1,0.1,0.2,0.1,0.3
				c-0.8,1.4-0.8,3.8,0.1,4.9c0.1,0.1,0,0.2,0,0.3C116.1,113.4,116,113.4,116,113.4z"/>
		</g>
		<g>
			<path class="st11" d="M111.4,114.7c-0.3,0-0.7-0.1-1.1-0.3c-0.8-0.4-1.7-1.2-1.6-2.1c0-0.1,0.1-0.2,0.2-0.2
				c0.1,0,0.2,0.1,0.2,0.2c-0.1,0.8,0.7,1.4,1.4,1.8c0.6,0.3,1.3,0.4,1.8-0.1c0.1-0.1,0.2-0.1,0.3,0s0.1,0.2,0,0.3
				C112.3,114.6,111.9,114.7,111.4,114.7z"/>
		</g>
	</g>
	<g>
		<path class="st0" d="M101.2,88.9c-0.1,0-0.2-0.1-0.2-0.2c-0.2-1.1,0-2.1,0.7-2.9c0.6-0.7,1.4-1,2.3-1c1.7,0.1,3.7-0.3,3.9-2.6
			c0.1-1.4,0.6-2.4,1.4-3.1c0.7-0.5,1.5-0.7,2.6-0.6c0.9,0.1,1.7-0.1,2.2-0.5c0.5-0.5,0.7-1.2,0.7-2.1c0-0.1,0.1-0.2,0.2-0.2
			c0.2,0,0.2,0.1,0.2,0.2c0.1,1-0.2,1.9-0.8,2.4c-0.6,0.6-1.5,0.8-2.5,0.6c-0.9-0.1-1.7,0.1-2.2,0.5c-0.7,0.5-1.1,1.5-1.2,2.8
			c-0.3,2.8-2.8,3.1-4.4,3c-0.7,0-1.4,0.3-1.9,0.8c-0.6,0.7-0.8,1.6-0.6,2.5C101.5,88.8,101.4,88.9,101.2,88.9
			C101.2,88.9,101.2,88.9,101.2,88.9z"/>
	</g>
	<g>
		<g>
			<g>
				<path class="st10" d="M117.7,41.3c-0.1,0-0.2-0.1-0.2-0.2c-0.2-1.1,0.2-2.1,0.9-2.9c0.6-0.6,1.5-1,2.3-0.8
					c1.6,0.2,3.7,0,4.1-2.3c0.2-1.4,0.8-2.4,1.6-3c0.7-0.5,1.6-0.6,2.6-0.4c0.9,0.2,1.7,0.1,2.2-0.4c0.5-0.4,0.8-1.1,0.8-2
					c0-0.1,0.1-0.2,0.2-0.2c0,0,0,0,0,0c0.1,0,0.2,0.1,0.2,0.2c0,1-0.4,1.8-1,2.4c-0.6,0.5-1.5,0.7-2.6,0.5
					c-0.9-0.2-1.7-0.1-2.3,0.4c-0.7,0.5-1.2,1.4-1.4,2.7c-0.5,2.8-3.1,2.9-4.6,2.7c-0.7-0.1-1.4,0.2-2,0.7c-0.6,0.6-0.9,1.5-0.8,2.5
					C118,41.2,117.9,41.3,117.7,41.3C117.7,41.3,117.7,41.3,117.7,41.3z"/>
			</g>
		</g>
	</g>
	<g>
		<path class="st12" d="M32.4,88.9C32.4,88.9,32.4,88.9,32.4,88.9c-0.1,0-0.2-0.1-0.2-0.2c0-1.1,0.5-2.1,1.3-2.7
			c0.7-0.5,1.6-0.7,2.4-0.5c1.6,0.5,3.6,0.6,4.4-1.6c0.5-1.3,1.1-2.2,2-2.7c0.8-0.4,1.7-0.4,2.7,0c0.9,0.3,1.6,0.3,2.2,0
			c0.6-0.3,1-1,1.1-1.8c0-0.1,0.1-0.2,0.3-0.2c0.1,0,0.2,0.1,0.2,0.3c-0.2,1-0.7,1.8-1.4,2.2c-0.7,0.4-1.6,0.4-2.6,0
			c-0.9-0.3-1.6-0.3-2.3,0c-0.8,0.4-1.4,1.2-1.8,2.4c-0.9,2.7-3.5,2.4-5,1.9c-0.7-0.2-1.4-0.1-2,0.4c-0.7,0.5-1.1,1.4-1.2,2.3
			C32.7,88.8,32.6,88.9,32.4,88.9z"/>
	</g>
	<g>
		<g>
			<g>
				<path class="st11" d="M53.1,47.4c-1.9,0-4.3-0.7-5.9-2.5c-0.6-0.7-1.1-1.6-1.4-2.4c-1.2,0-2.5-0.2-3.6-0.6
					c-2.5-1-4.4-4.3-5.1-6.9c0-0.1,0-0.2,0.1-0.2c0.1,0,0.2,0,0.2,0.1c0.7,2.5,2.6,5.7,4.9,6.6c1,0.4,2.2,0.7,3.4,0.6
					c-0.2-0.7-0.2-1.4-0.1-2.1c0.2-1,0.6-1.8,1.3-2.2c0.8-0.5,2-0.4,2.7,0.3c0.6,0.6,0.7,1.6,0.1,2.5c-0.7,1.1-2,1.7-3.5,1.8
					c0.3,0.8,0.7,1.5,1.3,2.2c2.3,2.6,6,2.8,7.9,2c0.1,0,0.2,0,0.2,0.1c0,0.1,0,0.2-0.1,0.2C54.9,47.3,54.1,47.4,53.1,47.4z
					 M48.1,37.9c-0.3,0-0.7,0.1-0.9,0.3c-0.6,0.3-1,1.1-1.1,2c-0.1,0.6-0.1,1.3,0.1,2c1.4-0.1,2.6-0.6,3.3-1.7
					c0.5-0.8,0.4-1.5-0.1-2C49,38.1,48.5,37.9,48.1,37.9z"/>
			</g>
		</g>
	</g>
	<g>
		<path class="st0" d="M156.7,76.9c-0.4,0-0.7-0.1-1-0.4c-0.4-0.4-0.6-1-0.7-1.4c-0.5,0.4-1.5,1.1-2.6,1c-0.7-0.1-1.3-0.5-1.8-1.2
			c-0.5-0.6-0.6-1.3-0.5-2c0.3-1.2,1.4-2,1.8-2.4c-0.3-0.4-0.7-1.1-0.6-2.1c0.1-0.7,0.4-1.4,1.1-1.9c1-0.8,1.9-0.8,2.5-0.7
			c0.8,0.2,1.5,0.9,1.8,1.5c0.2-0.4,0.7-1,1.4-1.3c0.7-0.3,1.4-0.2,2.2,0.2c0.7,0.3,1.2,0.8,1.4,1.5c0.3,1-0.2,2-0.5,2.5
			c0.8,0.2,2.6,0.9,2.3,3.1c-0.1,1-0.6,1.7-1.5,2c-1,0.4-2.2,0.1-3-0.5c-0.2,0.6-0.9,1.8-2.1,1.9C156.8,76.9,156.8,76.9,156.7,76.9z
			 M155.2,74.5C155.2,74.5,155.3,74.5,155.2,74.5c0.2,0,0.2,0.1,0.2,0.2c0,0,0.1,1,0.6,1.5c0.2,0.2,0.5,0.3,0.8,0.2
			c1.3-0.1,1.8-1.9,1.8-1.9c0-0.1,0.1-0.1,0.2-0.2c0.1,0,0.2,0,0.2,0.1c0.6,0.6,1.8,0.9,2.8,0.6c0.7-0.2,1.1-0.8,1.2-1.6
			c0.3-2.3-2.2-2.7-2.3-2.7c-0.1,0-0.1-0.1-0.2-0.1c0-0.1,0-0.2,0-0.2c0,0,0.9-1.3,0.6-2.4c-0.1-0.5-0.5-0.9-1.1-1.2
			c-0.7-0.3-1.3-0.4-1.8-0.1c-0.9,0.4-1.4,1.5-1.4,1.5c0,0.1-0.1,0.2-0.2,0.2l0,0c-0.1,0-0.2-0.1-0.2-0.2c-0.2-0.5-0.8-1.4-1.7-1.7
			c-0.7-0.2-1.4,0-2.1,0.6c-0.6,0.5-0.9,1-0.9,1.6c-0.1,1,0.7,1.9,0.7,1.9c0,0.1,0.1,0.1,0.1,0.2c0,0.1-0.1,0.1-0.1,0.2
			c0,0-1.5,0.9-1.8,2.2c-0.1,0.6,0,1.1,0.4,1.6c0.4,0.6,0.9,0.9,1.5,1c1.3,0.1,2.6-1.2,2.6-1.2C155.1,74.6,155.2,74.5,155.2,74.5z"
			/>
	</g>
	<g>
		<g>
			<g>
				<path class="st0" d="M27.4,55.2c-0.2,0-0.3,0-0.5,0c-1.3-0.2-2.5-1.4-3-2.4c-0.6,0.5-2,1.5-3.5,0.8c-0.5-0.2-0.8-0.6-1-1.1
					c-0.2-0.7,0-1.5,0.1-2c-0.8,0.1-2.4,0.3-3.5-0.5c-0.7-0.5-1.1-1.3-1.2-2.4c-0.1-1,0.2-1.8,0.8-2.4c1-1.1,2.8-1.3,3.5-1.4
					c-0.1-0.5-0.1-1.7,0.6-2.7c0.5-0.7,1.3-1.2,2.3-1.4c1.3-0.2,2.3,0.1,3.1,0.8c0.8,0.8,1,1.9,1,2.8c0.5-0.3,1.4-0.7,2.4-0.6
					c0.9,0.1,1.6,0.6,2.2,1.5c0.6,0.8,0.7,1.6,0.5,2.4c-0.3,1.2-1.5,2.1-2.1,2.4c0.7,0.6,2.3,2.6,0.6,4.8
					C28.9,55,28.1,55.2,27.4,55.2z M24,52.1C24,52.1,24,52.1,24,52.1c0.1,0,0.2,0.1,0.2,0.2c0.3,1,1.4,2.2,2.7,2.4
					c0.9,0.2,1.7-0.2,2.4-1c1.8-2.3-0.7-4.3-0.8-4.4c-0.1,0-0.1-0.1-0.1-0.2c0-0.1,0.1-0.1,0.1-0.2c0,0,1.8-0.9,2.2-2.3
					c0.2-0.7,0-1.3-0.5-2c-0.5-0.8-1.2-1.2-1.9-1.3c-1.3-0.2-2.5,0.8-2.5,0.8c-0.1,0.1-0.2,0.1-0.3,0c-0.1,0-0.1-0.1-0.1-0.2
					c0.1-0.7,0-2.1-0.8-3C24,40.3,23.1,40,22,40.2c-0.9,0.2-1.6,0.5-2,1.2c-0.8,1.1-0.5,2.6-0.5,2.6c0,0.1,0,0.1,0,0.2
					c0,0.1-0.1,0.1-0.2,0.1c0,0-2.3,0-3.4,1.3c-0.5,0.5-0.7,1.2-0.6,2.1c0.1,0.9,0.4,1.6,1,2c1.3,1,3.6,0.4,3.6,0.4
					c0.1,0,0.2,0,0.2,0.1c0.1,0.1,0.1,0.2,0,0.2c0,0-0.6,1.1-0.3,2c0.1,0.4,0.4,0.6,0.7,0.8c1.5,0.8,3.2-0.9,3.2-0.9
					C23.9,52.2,23.9,52.1,24,52.1z"/>
			</g>
		</g>
	</g>
	<g>
		<path class="st0" d="M97.9,49.3c0,0-0.1,0-0.1,0c-0.1-0.1-0.1-0.2,0-0.3l2.7-3.6c-0.5-0.7-2.4-3.6-0.7-5.7
			c1.9-2.3,6.9-2.6,7.1-2.6c0.1,0,0.2,0.1,0.2,0.2c0,0.2,1,4-0.7,6.7c-1.5,2.5-4.8,1.9-5.6,1.8l-2.8,3.6C98,49.3,98,49.3,97.9,49.3z
			 M100.9,45.2c0.5,0.1,3.8,0.7,5.2-1.5c1.4-2.2,0.8-5.4,0.7-6.2c-0.9,0.1-5,0.5-6.6,2.4C98.6,41.9,100.6,44.7,100.9,45.2z"/>
	</g>
	<g>
		<g>
			<g>
				<path class="st10" d="M116,55.2c-0.1,0-0.2,0-0.2-0.1c-0.1-0.1,0-0.3,0.1-0.3l3.3-1.8c0.2-0.6,1.5-4.1,4.1-5.6
					c2.7-1.6,5.2-1.1,6,0.3c0.3,0.6,0.4,1.3,0.1,2c-0.4,1.2-1.5,2.3-3.1,3c-2.8,1.2-6.3,0.8-6.9,0.7l-3.4,1.8
					C116.1,55.1,116.1,55.2,116,55.2z M120.2,52.9c1.2,0.1,3.9,0.2,6-0.8c2-0.9,2.7-2.1,2.9-2.7c0.2-0.6,0.2-1.2-0.1-1.7
					c-0.6-1-2.8-1.6-5.4-0.1c-2,1.2-3.2,3.7-3.7,4.9c0.8-0.4,2.3-1.3,3.9-2.3c2.3-1.4,3.4-2.2,3.4-2.2c0.1-0.1,0.2,0,0.3,0.1
					c0.1,0.1,0,0.2-0.1,0.3c0,0-1.1,0.8-3.4,2.2C122.5,51.6,121,52.5,120.2,52.9z"/>
			</g>
		</g>
	</g>
	<g>
		<g>
			<g>
				<path class="st13" d="M142.9,54.5c-2,0-3.5-0.6-3.6-0.6c-0.1,0-0.2-0.2-0.1-0.3c0.1-0.1,1.3-3.6,4.5-5.3
					c2.7-1.4,8.2-0.9,8.7-0.5c0.1,0.1,0.1,0.3,0.1,0.5c-0.2,1-2.2,4-5.9,5.5C145.3,54.4,144,54.5,142.9,54.5z M139.8,53.6
					c0.8,0.3,3.6,1.1,6.7-0.2c3.8-1.5,5.8-4.8,5.7-5.3c-0.4-0.2-5.6-0.7-8.1,0.6C141.4,50.1,140.1,52.8,139.8,53.6z"/>
			</g>
			<g>
				<path class="st13" d="M135.9,55c-0.1,0-0.2-0.1-0.2-0.2c0-0.1,0-0.2,0.2-0.3c1.4-0.3,2.3-0.6,3.6-1c0.6-0.2,2.1-1,3.8-1.8
					c2.3-1.1,4.8-2.3,5.9-2.7c0.1,0,0.2,0,0.3,0.1s0,0.2-0.1,0.3c-1,0.3-3.6,1.6-5.8,2.6c-1.7,0.8-3.2,1.6-3.8,1.8
					C138.2,54.4,137.3,54.6,135.9,55C135.9,55,135.9,55,135.9,55z"/>
			</g>
		</g>
	</g>
	<g>
		<g>
			<path class="st0" d="M139.1,116.5c-1,0-2.1-0.5-2.6-1.2c-0.7-0.9-1.5-1.5-3.2-1.3c-1.9,0.2-3.5-2.1-4-3.3
				c-0.5-1.4,0.3-3.2,0.3-3.3c0-0.1,0.1-0.1,0.2-0.1c0.1,0,3.5-0.8,4.5,1.4c0.8,1.8,2,2.3,3.7,2.6c1.2,0.2,2.8,2,3.1,3.4
				c0.2,0.7,0,1.2-0.4,1.4C140.1,116.3,139.6,116.5,139.1,116.5z M133.8,113.5c1.3,0,2.2,0.5,3,1.5c0.7,0.9,2.4,1.4,3.5,0.6
				c0.3-0.2,0.3-0.6,0.2-1c-0.3-1.2-1.7-2.9-2.7-3.1c-1.6-0.2-3.2-0.7-4.1-2.8c-0.7-1.6-3.2-1.3-3.8-1.1c-0.1,0.4-0.6,1.8-0.2,2.8
				c0.5,1.3,2,3.2,3.5,3C133.4,113.5,133.6,113.5,133.8,113.5z"/>
		</g>
		<g>
			<path class="st0" d="M139.4,114.8c-0.1,0-0.1,0-0.2-0.1c-0.9-1-2.5-1.6-4.4-2.3l-0.6-0.2c-1.7-0.6-3-2.4-3.9-3.6
				c-0.3-0.4-0.6-0.8-0.7-1c-0.6-0.6-1.2-1.1-1.7-1.5l-0.4-0.3c-0.1-0.1-0.1-0.2,0-0.3c0.1-0.1,0.2-0.1,0.3,0l0.4,0.3
				c0.6,0.4,1.1,0.9,1.8,1.5c0.2,0.2,0.5,0.6,0.8,1c0.8,1.1,2.1,2.9,3.6,3.4l0.6,0.2c1.9,0.7,3.6,1.3,4.6,2.4c0.1,0.1,0.1,0.2,0,0.3
				C139.5,114.7,139.4,114.8,139.4,114.8z"/>
		</g>
	</g>
	<g>
		<g>
			<g>
				<path class="st0" d="M40.2,24.5c-3.7,0-6.8,0-7.1,0c-0.1,0-0.2-0.1-0.2-0.2c0-0.2-0.1-4.7,2.7-6.3c2.2-1.3,4.5,0,5.3,0.6
					c0.3-1,1.2-3.8,4.3-4.7c4-1.2,6.7,1,7.4,2.3c0.5,0.9,0.6,2,0.7,2.6c0.7-0.4,2.3-1.2,3.6-0.2c0.8,0.6,1.2,1.8,0.9,3.1
					c-0.4,1.5-1.6,2.5-3.3,2.7C52.4,24.5,45.6,24.5,40.2,24.5z M33.4,24c2.1,0,17.9,0.1,21-0.3c1.5-0.2,2.6-1.1,2.9-2.4
					c0.3-1,0-2.1-0.7-2.6c-1.4-1.1-3.4,0.5-3.4,0.5c-0.1,0.1-0.2,0.1-0.2,0c-0.1,0-0.1-0.1-0.1-0.2c0,0,0-1.6-0.7-2.8
					c-0.7-1.3-3.3-3.1-6.8-2.1c-3.5,1.1-4,4.7-4,4.7c0,0.1-0.1,0.2-0.1,0.2c-0.1,0-0.2,0-0.2,0c0,0-2.6-2.2-5.1-0.7
					C33.6,19.6,33.4,23.1,33.4,24z"/>
			</g>
		</g>
	</g>
	<g>
		<g>
			<g>
				<path class="st10" d="M102.3,15.7c-3,0-5.4-2.4-5.4-5.4S99.3,5,102.3,5c3,0,5.4,2.4,5.4,5.4S105.2,15.7,102.3,15.7z M102.3,5.4
					c-2.7,0-4.9,2.2-4.9,4.9s2.2,4.9,4.9,4.9c2.7,0,4.9-2.2,4.9-4.9S105,5.4,102.3,5.4z"/>
			</g>
			<g>
				<path class="st10" d="M100.4,4.2c-0.1,0-0.2-0.1-0.2-0.2l-1.3-3.7c0-0.1,0-0.3,0.1-0.3c0.1,0,0.2,0,0.3,0.1l1.3,3.7
					C100.7,4,100.6,4.1,100.4,4.2C100.4,4.2,100.4,4.2,100.4,4.2z"/>
			</g>
			<g>
				<path class="st10" d="M95.7,7.8C95.7,7.8,95.7,7.8,95.7,7.8l-3.6-1.6C92,6.1,92,6,92,5.9c0.1-0.1,0.2-0.2,0.3-0.1l3.5,1.6
					c0.1,0.1,0.2,0.2,0.1,0.3C95.9,7.7,95.8,7.8,95.7,7.8z"/>
			</g>
			<g>
				<path class="st10" d="M91.6,14.7c-0.1,0-0.2-0.1-0.2-0.1c-0.1-0.1,0-0.3,0.1-0.3l3.9-1.8c0.1-0.1,0.3,0,0.3,0.1
					c0.1,0.1,0,0.3-0.1,0.3L91.6,14.7C91.7,14.7,91.6,14.7,91.6,14.7z"/>
			</g>
			<g>
				<path class="st10" d="M99.6,19.9C99.6,19.9,99.6,19.9,99.6,19.9c-0.2,0-0.3-0.2-0.2-0.3l0.8-3c0-0.1,0.2-0.2,0.3-0.2
					c0.1,0,0.2,0.2,0.2,0.3l-0.8,3C99.8,19.8,99.7,19.9,99.6,19.9z"/>
			</g>
			<g>
				<path class="st10" d="M108.8,19.2c-0.1,0-0.1,0-0.2-0.1l-2.4-3.4c-0.1-0.1,0-0.2,0.1-0.3c0.1-0.1,0.2,0,0.3,0.1l2.4,3.4
					c0.1,0.1,0,0.2-0.1,0.3C108.9,19.2,108.8,19.2,108.8,19.2z"/>
			</g>
			<g>
				<path class="st10" d="M113.1,11.8C113.1,11.8,113.1,11.8,113.1,11.8l-4-0.6c-0.1,0-0.2-0.1-0.2-0.3c0-0.1,0.1-0.2,0.3-0.2l4,0.6
					c0.1,0,0.2,0.1,0.2,0.3C113.4,11.8,113.3,11.8,113.1,11.8z"/>
			</g>
			<g>
				<path class="st10" d="M108.9,6.8c-0.1,0-0.2,0-0.2-0.1c-0.1-0.1,0-0.3,0.1-0.3l4.1-2c0.1-0.1,0.2,0,0.3,0.1
					c0.1,0.1,0,0.3-0.1,0.3L108.9,6.8C108.9,6.8,108.9,6.8,108.9,6.8z"/>
			</g>
			<g>
				<path class="st10" d="M105.3,4.3C105.3,4.3,105.2,4.3,105.3,4.3c-0.2-0.1-0.3-0.2-0.2-0.3l1.4-3.7c0-0.1,0.2-0.2,0.3-0.1
					c0.1,0,0.2,0.2,0.1,0.3l-1.4,3.7C105.5,4.2,105.4,4.3,105.3,4.3z"/>
			</g>
		</g>
	</g>
	<g>
		<g>
			<g>
				<path class="st0" d="M126.4,23.7c-1.9,0-3.4,0-4.1-0.1l0,0c-2.3-0.3-3.1-1.6-3.3-2.4c-0.4-1.2,0-2.5,0.9-3.3
					c0.8-0.7,1.7-0.8,2.3-0.7c0.6,0.1,1.2,0.3,1.6,0.5c-0.1-1.1-0.1-3.6,1.9-5.2c1.2-1,2.8-1.3,4.2-0.9c1.3,0.4,2.4,1.4,3,2.6
					c0.5-1,2.1-3,4.9-2.6c1.3,0.2,2.3,0.8,2.9,1.9c0.6,1.1,0.7,2.4,0.6,3.2c0.9-0.4,3.2-1.1,5,0.6c2.3,2.1,1.5,5.5,1.4,5.6
					c0,0.1-0.1,0.2-0.2,0.2C146.8,23.1,133.7,23.7,126.4,23.7z M122.4,23.1c3.5,0.4,22.9-0.4,25-0.5c0.1-0.7,0.5-3.3-1.3-5
					c-2.1-1.9-4.8-0.4-4.9-0.3c-0.1,0-0.2,0-0.3,0c-0.1-0.1-0.1-0.2-0.1-0.3c0.1-0.3,0.2-1.9-0.5-3.3c-0.5-0.9-1.4-1.5-2.5-1.7
					c-3.3-0.5-4.6,2.7-4.7,2.8c0,0.1-0.1,0.2-0.2,0.1c-0.1,0-0.2-0.1-0.2-0.2c-0.4-1.4-1.5-2.5-2.8-2.9c-1.3-0.4-2.7-0.1-3.8,0.8
					c-2.4,2-1.7,5.3-1.7,5.4c0,0.1,0,0.2-0.1,0.3c-0.1,0-0.2,0-0.3-0.1c-0.2-0.3-0.9-0.7-1.7-0.8c-0.5-0.1-1.3,0-2,0.6
					c-0.7,0.6-1,1.8-0.7,2.8C119.8,22.2,120.8,22.9,122.4,23.1L122.4,23.1z"/>
			</g>
		</g>
	</g>
	<g>
		<g>
			<g>
				<path class="st14" d="M126.8,99.3c-0.4,0-0.9-0.1-1.3-0.3c-1.1-0.5-1.7-1.5-1.8-2.8c-0.1-1.8,1.1-3.1,2-4.1
					c0.7-0.7,1.2-1.3,1.3-1.9c0.1-1-1.8-1.6-3.2-2c-1-0.3-2.3-1.2-2.8-2.4c-0.3-0.8-0.2-1.6,0.3-2.3v0c0.5-0.8,1.2-1.3,2-1.3
					c1.8-0.2,3.6,1.5,4.6,2.5c0.5,0.5,1,0.8,1.4,0.7c1.1-0.2,2-2,2.8-3.6l0.1-0.2c0.8-1.5,2-2.6,3.4-3c1.1-0.3,2.3-0.1,3.4,0.5
					c0.8,0.5,1.2,1.2,1.3,2.1c0.1,1.7-1.3,3.6-2.2,4.4c-0.3,0.2-0.6,0.4-0.9,0.7c-1,0.7-2.4,1.6-2.5,2.5c0,0.3,0.1,0.6,0.3,1
					c0.7,0.8,1.6,0.9,2.5,1c1.2,0.2,2.4,0.3,2.9,1.8c0.3,1,0.2,1.9-0.5,2.5c-0.8,0.8-2.1,1-3.2,0.7c-0.8-0.3-1.7-1-2.5-1.7
					c-0.8-0.7-1.7-1.4-2.3-1.4c-0.4,0-0.6,0.8-0.9,1.7c-0.4,1.3-1,3.1-2.5,4.3C128.1,99.1,127.4,99.3,126.8,99.3z M121.7,83.7
					L121.7,83.7c-0.4,0.6-0.5,1.2-0.2,1.9c0.4,1.1,1.6,1.9,2.5,2.2c1.8,0.5,3.6,1.1,3.5,2.5c-0.1,0.7-0.7,1.4-1.4,2.2
					c-1,1-2,2.2-1.9,3.8c0.1,1.6,1,2.2,1.6,2.4c0.9,0.4,1.8,0.3,2.5-0.2c1.4-1.1,1.9-2.7,2.3-4c0.3-1.1,0.6-2,1.3-2.1
					c0.8-0.1,1.7,0.7,2.6,1.5c0.8,0.7,1.6,1.4,2.3,1.6c1,0.3,2.1,0.1,2.8-0.5c0.5-0.5,0.6-1.2,0.3-2.1c-0.4-1.2-1.4-1.4-2.5-1.5
					c-1-0.1-2-0.3-2.8-1.2c-0.4-0.4-0.5-0.9-0.5-1.3c0.2-1.1,1.6-2.1,2.7-2.9c0.3-0.2,0.7-0.5,0.9-0.6c0.8-0.6,2.1-2.4,2-4
					c0-0.7-0.4-1.3-1.1-1.7c-1-0.6-2-0.8-3-0.5c-1.3,0.3-2.4,1.4-3.1,2.8l-0.1,0.2c-0.9,1.7-1.8,3.6-3.2,3.8
					c-0.6,0.1-1.2-0.2-1.8-0.8c-1.5-1.6-3.1-2.5-4.2-2.4C122.7,82.7,122.1,83.1,121.7,83.7z"/>
			</g>
		</g>
	</g>
	<g>
		<path class="st0" d="M140.4,69.2c-1.4,0-2.7-0.2-3.6-0.3c-3-0.4-7.7-3-7.9-3.1c-0.1,0-0.1-0.1-0.1-0.2c0-0.1,0.1-0.2,0.2-0.2
			c0.1,0,5.5-1.5,9.8-3.1c2.9-1.1,6.3-0.7,7.6,0.9c0.7,0.8,0.8,1.9,0.2,3.1C145.4,68.7,142.7,69.2,140.4,69.2z M129.6,65.7
			c1.3,0.7,4.8,2.4,7.2,2.8c2.5,0.3,7.6,1.1,9.4-2.4c0.5-1,0.5-1.8-0.2-2.5c-1.3-1.4-4.5-1.8-7.1-0.8
			C135.4,64,131.1,65.3,129.6,65.7z"/>
	</g>
	<g>
		<path class="st0" d="M128.2,79.4c-0.2,0-0.3,0-0.5-0.1c-2.1-0.5-3.1-5.1-3.2-5.9c0-0.1,0-0.2,0.1-0.2c0.1,0,0.2,0,0.2,0
			c0.1,0.1,2.5,1.6,3.9,2.9c0.8,0.8,1.1,1.8,0.8,2.6C129.2,79.2,128.8,79.4,128.2,79.4z M125,73.9c0.3,1.4,1.3,4.6,2.7,5
			c0.6,0.1,1.1,0,1.3-0.4c0.2-0.5,0.1-1.3-0.7-2C127.4,75.6,125.8,74.5,125,73.9z"/>
	</g>
	<g>
		<g>
			<g>
				<path class="st10" d="M33.5,72.6c-2.5,0-4.9-0.1-6.1-0.2c-2.1-0.2-3.1-1.8-3.3-2.1l-1.2-0.5c-0.1,0-0.1-0.1-0.1-0.2
					s0.1-0.2,0.1-0.2l1.2-0.5c0.1-0.5,0.8-2.2,2.8-2.4c1.9-0.2,4.5-0.3,5.3-0.3c0-0.9,0.1-4.8,0.3-6.9c0.2-2.5,1-2.7,1.9-2.6
					c0.4,0,0.8,0.3,1,0.9c0.1-0.3,0.2-0.6,0.5-0.9c0.2-0.3,0.5-0.4,0.9-0.4c0.5,0,0.8,0.2,1.1,0.5c0.3,0.3,0.4,0.8,0.5,1.2
					c0.2-0.3,0.5-0.5,0.8-0.6c0.3,0,0.5,0.1,0.7,0.2c0.5,0.5,0.5,1.5,0.5,2.9c0,0.3,0,0.7,0,1.1c0,1.9-0.1,3.7-0.1,4.4
					c0.8,0,3.5,0,4.4,0c1,0,2.8-0.8,2.8-0.8c0.1,0,0.2,0,0.2,0c0.1,0,0.1,0.1,0.1,0.2c0,0.1,0,2.5-1.2,4.6c-1.2,2.1-3.6,2.4-6.8,2.6
					C38.2,72.6,35.8,72.6,33.5,72.6z M23.6,69.5l0.8,0.4c0,0,0.1,0.1,0.1,0.1c0,0,1,1.7,3,2c2.2,0.3,9,0.2,12.2,0
					c3.1-0.2,5.4-0.5,6.5-2.4c0.9-1.5,1.1-3.3,1.1-4c-0.6,0.2-1.8,0.7-2.6,0.7c-1,0-4.6,0-4.6,0c-0.1,0-0.1,0-0.2-0.1
					c0,0-0.1-0.1-0.1-0.2c0,0,0.2-2.3,0.2-4.6c0-0.4,0-0.7,0-1.1c0-1.2,0-2.2-0.3-2.5c-0.1-0.1-0.2-0.1-0.4-0.1
					c-0.5,0-0.7,0.9-0.8,1.5c0,0.2,0,0.3,0,0.3c0,0.1-0.1,0.2-0.2,0.2c-0.1,0-0.2-0.1-0.2-0.2c0,0,0-0.2,0-0.3c0-0.6,0-1.7-0.5-2.2
					c-0.2-0.2-0.4-0.3-0.8-0.3c-0.2,0-0.4,0.1-0.6,0.2c-0.4,0.5-0.5,1.5-0.6,2.1c0,0.1,0,0.3,0,0.4c0,0.1-0.1,0.2-0.2,0.2
					c-0.1,0-0.2-0.1-0.2-0.2c0,0,0-0.2,0-0.4c0-1.2-0.3-2-0.8-2c-0.6,0-1.2-0.1-1.4,2.2c-0.2,2.4-0.3,7-0.3,7.1
					c0,0.1-0.1,0.2-0.2,0.2c0,0-3.3,0.1-5.5,0.3c-2,0.2-2.5,2.1-2.5,2.1c0,0.1-0.1,0.1-0.1,0.2L23.6,69.5z"/>
			</g>
			<g>
				<path class="st10" d="M32.4,69C32.4,69,32.4,69,32.4,69c-0.1,0-0.2-0.1-0.2-0.2c0,0,0-1.3,0.1-2.4c0-0.1,0.1-0.2,0.2-0.2
					c0.1,0,0.2,0.1,0.2,0.2c-0.1,1.1-0.1,2.4-0.1,2.4C32.6,68.9,32.5,69,32.4,69z"/>
			</g>
			<g>
				<path class="st10" d="M39.9,68.9C39.9,68.9,39.9,68.9,39.9,68.9c-0.1,0-0.2-0.1-0.2-0.2c0,0,0.1-1.5,0.2-2.6
					c0-0.1,0.1-0.2,0.2-0.2c0,0,0,0,0,0c0.1,0,0.2,0.1,0.2,0.2c0,1.1-0.2,2.6-0.2,2.6C40.1,68.8,40,68.9,39.9,68.9z"/>
			</g>
			<g>
				<path class="st10" d="M26.6,70.5c-0.8,0-1.5-0.7-1.5-1.5s0.7-1.5,1.5-1.5s1.5,0.7,1.5,1.5S27.4,70.5,26.6,70.5z M26.6,68.1
					c-0.5,0-1,0.4-1,1s0.4,1,1,1s1-0.4,1-1S27.1,68.1,26.6,68.1z"/>
			</g>
		</g>
	</g>
	<g>
		<g>
			<path class="st15" d="M88.7,31.7C88.7,31.7,88.7,31.7,88.7,31.7c-0.1-0.1-0.1-0.2-0.1-0.2c2.2-1.3,7.5-4.4,9.8-5
				c0.1,0,0.1,0,0.1,0.1c0,0.1,0,0.1-0.1,0.1C96.3,27.3,90.9,30.4,88.7,31.7C88.8,31.7,88.8,31.7,88.7,31.7z"/>
		</g>
		<g>
			<path class="st15" d="M77.7,44.7C77.7,44.7,77.7,44.7,77.7,44.7c-0.1,0-0.1-0.1-0.1-0.2c0.5-1.4,0.8-1.9,1.4-2.6
				c0,0,0.1-0.1,0.2,0c0,0,0.1,0.1,0,0.2c-0.6,0.7-0.8,1.1-1.4,2.6C77.8,44.7,77.7,44.7,77.7,44.7z"/>
		</g>
		<g>
			<path class="st15" d="M79.3,45.9C79.3,45.9,79.3,45.9,79.3,45.9c-0.1,0-0.1-0.1-0.1-0.1c0.3-1,0.8-1.9,1.3-2.3c0,0,0.1-0.1,0.2,0
				c0,0,0.1,0.1,0,0.2c-0.4,0.5-0.9,1.3-1.2,2.3C79.4,45.9,79.3,45.9,79.3,45.9z"/>
		</g>
		<g>
			<path class="st15" d="M78.6,39.5C78.6,39.5,78.6,39.5,78.6,39.5c-0.1-0.1-0.1-0.2-0.1-0.2c0.4-0.5,1-0.8,1-0.8c0.1,0,0.1,0,0.2,0
				c0,0.1,0,0.1,0,0.2C79.7,38.7,79.2,39,78.6,39.5C78.7,39.5,78.7,39.5,78.6,39.5z"/>
		</g>
		<g>
			<path class="st15" d="M69.9,54.5c-0.1,0-0.1,0-0.1-0.1c-0.1-0.7-0.8-3.2-1.3-5.2c0-0.1,0-0.1,0.1-0.1c0.1,0,0.1,0,0.1,0.1
				c0.2,0.7,1.2,4.3,1.3,5.2C70,54.4,70,54.5,69.9,54.5C69.9,54.5,69.9,54.5,69.9,54.5z"/>
		</g>
		<g>
			<path class="st15" d="M65.4,41.2C65.4,41.2,65.4,41.2,65.4,41.2c-1.6-0.1-2.1-1.2-2.2-1.6c-0.7,0.3-2,0.6-2.4-0.2
				c-0.1-0.2-0.1-0.4-0.1-0.6c0.1-0.4,0.6-0.9,1.5-1.3c0.4-0.2,0.8-0.2,1.2-0.3c0.3,0,0.7-0.1,1-0.2c0.1,0,0.1,0,0.1,0.1
				s0,0.1-0.1,0.1c-0.4,0.1-0.7,0.1-1.1,0.2c-0.4,0-0.8,0.1-1.1,0.2c-0.8,0.4-1.3,0.8-1.4,1.2c0,0.1,0,0.3,0,0.4
				c0.4,0.7,1.7,0.4,2.3,0c0,0,0.1,0,0.1,0c0,0,0.1,0,0.1,0.1c0,0.1,0.4,1.5,2.1,1.6c0.1,0,0.1,0.1,0.1,0.1
				C65.5,41.1,65.5,41.2,65.4,41.2z"/>
		</g>
		<g>
			<path class="st15" d="M62.7,37.5c-0.1,0-0.1,0-0.1-0.1c0,0-0.2-1.1-0.2-1.7c0-0.1,0.1-0.1,0.1-0.1l0,0c0.1,0,0.1,0.1,0.1,0.1
				c0,0.6,0.2,1.6,0.2,1.7C62.8,37.4,62.7,37.5,62.7,37.5C62.7,37.5,62.7,37.5,62.7,37.5z"/>
		</g>
		<g>
			<path class="st15" d="M61.2,38.3C61.2,38.3,61.2,38.3,61.2,38.3c-0.1,0-0.1-0.1-0.1-0.1c0-0.4-0.2-1.4-0.4-2c0-0.1,0-0.1,0.1-0.1
				c0.1,0,0.1,0,0.1,0.1c0.2,0.6,0.4,1.7,0.4,2.1C61.3,38.3,61.2,38.3,61.2,38.3z"/>
		</g>
		<g>
			<path class="st15" d="M60.4,40c-0.2,0-0.4-0.1-0.7-0.2c-0.5-0.3-0.4-1.4-0.4-1.9c-0.2,0-0.4,0.1-0.6,0c-0.1,0-0.1-0.1,0-0.2
				c0-0.1,0.1-0.1,0.2,0c0.1,0,0.4,0,0.6,0c0,0,0.1,0,0.1,0c0,0,0,0.1,0,0.1c0,0.4,0,1.5,0.3,1.8c0.6,0.4,1,0,1.1-0.1
				c0,0,0.1-0.1,0.2,0c0,0,0.1,0.1,0,0.2C61,39.9,60.7,40,60.4,40z"/>
		</g>
		<g>
			<path class="st15" d="M71.7,23.1c-0.2,0-0.4-0.1-0.5-0.2c-0.1-0.2-0.2-0.5-0.1-0.8c0-0.1,0.1-0.1,0.1-0.1c0.1,0,0.1,0.1,0.1,0.1
				c0,0.2,0,0.5,0.1,0.6c0.1,0.1,0.2,0.1,0.3,0.1c0.5,0,0.8-0.5,1-0.8c0-0.1,0.1-0.1,0.2-0.1c0.1,0,0.1,0.1,0.1,0.2
				C72.7,22.6,72.3,23.1,71.7,23.1z"/>
		</g>
		<g>
			<path class="st15" d="M68.8,23.1c0,0-0.1,0-0.1,0c-0.2,0-0.3-0.1-0.4-0.3c-0.2-0.3-0.1-0.7-0.1-0.8c0-0.1,0.1-0.1,0.1-0.1
				c0.1,0,0.1,0.1,0.1,0.1c0,0.2,0,0.5,0.1,0.6c0.1,0.1,0.1,0.1,0.3,0.2c0.4,0.1,0.8-0.5,0.8-0.8c0-0.1,0.1-0.1,0.1-0.1
				c0.1,0,0.1,0.1,0.1,0.1C69.7,22.4,69.3,23.1,68.8,23.1z"/>
		</g>
		<g>
			<path class="st15" d="M70.1,24.5c-0.3,0-0.5-0.2-0.6-0.3c-0.1-0.2,0.1-0.5,0.3-0.7c0.1-0.1,0.2-0.2,0.3-0.3
				c0.2-0.4,0.2-0.8,0.2-1.1c0-0.1,0-0.1,0.1-0.1c0.1,0,0.1,0,0.1,0.1c0,0.3,0.1,0.8-0.2,1.2c-0.1,0.1-0.2,0.3-0.3,0.4
				c-0.2,0.2-0.3,0.3-0.2,0.4c0.1,0.2,0.3,0.2,0.6,0.1c0.1,0,0.1,0,0.1,0.1c0,0.1,0,0.1-0.1,0.1C70.3,24.4,70.2,24.5,70.1,24.5z"/>
		</g>
	</g>
</g>
</svg>
