<?xml version="1.0" encoding="utf-8"?>
<!-- Generator: Adobe Illustrator 27.3.1, SVG Export Plug-In . SVG Version: 6.00 Build 0)  -->
<svg version="1.1" id="Layer_1" xmlns="http://www.w3.org/2000/svg" xmlns:xlink="http://www.w3.org/1999/xlink" x="0px" y="0px"
	 viewBox="0 0 566.9 566.9" style="enable-background:new 0 0 566.9 566.9;" xml:space="preserve">
<style type="text/css">
	.st0{fill:#A4C639;}
</style>
<g>
	<path class="st0" d="M427.3,187.2H139.7c-6.4,0-11.6,5.2-11.6,11.6v241.2c0,6.4,5.2,11.6,11.6,11.6h51.3v81.3
		c0,18.9,15.3,34.1,34.1,34.1l0,0c18.9,0,34.1-15.3,34.1-34.1v-81.3H307v81.3c0,18.9,15.3,34.1,34.1,34.1l0,0
		c18.9,0,34.1-15.3,34.1-34.1v-81.3h52c6.4,0,11.6-5.2,11.6-11.6V198.8C438.8,192.4,433.7,187.2,427.3,187.2z"/>
	<path class="st0" d="M79.4,187.1L79.4,187.1c-18.9,0-34.1,15.3-34.1,34.1v138.7c0,18.9,15.3,34.1,34.1,34.1l0,0
		c18.9,0,34.1-15.3,34.1-34.1V221.3C113.5,202.4,98.3,187.1,79.4,187.1z"/>
	<path class="st0" d="M487.5,187.1L487.5,187.1c-18.9,0-34.1,15.3-34.1,34.1v138.7c0,18.9,15.3,34.1,34.1,34.1l0,0
		c18.9,0,34.1-15.3,34.1-34.1V221.3C521.7,202.4,506.4,187.1,487.5,187.1z"/>
	<path class="st0" d="M142,170.3h282.3c7.4,0,12.9-6.8,11.3-14c-9.3-44.5-37.7-82-76.1-103.7l24.1-43.5c1.6-2.9,0.6-6.7-2.4-8.3
		c-3-1.6-6.7-0.6-8.3,2.4L348.6,47c-19.9-9.2-42.1-14.4-65.5-14.4c-23.4,0-45.6,5.2-65.5,14.4L193.3,3.1c-1.6-2.9-5.3-4-8.3-2.4
		c-2.9,1.6-4,5.3-2.4,8.3l24.1,43.5c-38.4,21.7-66.8,59.2-76.1,103.7C129.1,163.5,134.6,170.3,142,170.3z M367.3,105.4
		c0,7.2-5.9,13.1-13.1,13.1c-7.2,0-13.1-5.9-13.1-13.1c0-7.2,5.9-13.1,13.1-13.1C361.5,92.2,367.3,98.1,367.3,105.4z M212,92.2
		c7.2,0,13.1,5.9,13.1,13.1c0,7.2-5.9,13.1-13.1,13.1c-7.2,0-13.1-5.9-13.1-13.1C198.9,98.1,204.8,92.2,212,92.2z"/>
</g>
</svg>
