<?xml version="1.0" encoding="utf-8"?>
<!-- Generator: Adobe Illustrator 27.3.1, SVG Export Plug-In . SVG Version: 6.00 Build 0)  -->
<svg version="1.1" id="Layer_1" xmlns="http://www.w3.org/2000/svg" xmlns:xlink="http://www.w3.org/1999/xlink" x="0px" y="0px"
	 viewBox="0 0 566.9 566.9" style="enable-background:new 0 0 566.9 566.9;" xml:space="preserve">
<path d="M499.5,193.3c-3.3,2.6-61.3,35.3-61.3,108c0,84.1,73.9,113.9,76.1,114.6c-0.3,1.8-11.7,40.8-39,80.5
	c-24.3,34.9-49.6,69.8-88.2,69.8s-48.5-22.4-93-22.4c-43.4,0-58.8,23.1-94.1,23.1s-59.9-32.3-88.2-72
	c-32.8-46.6-59.3-119-59.3-187.7c0-110.2,71.7-168.7,142.2-168.7c37.5,0,68.7,24.6,92.2,24.6c22.4,0,57.3-26.1,100-26.1
	C403.2,137,461.3,138.5,499.5,193.3L499.5,193.3z M366.8,90.4c17.6-20.9,30.1-50,30.1-79c0-4-0.3-8.1-1.1-11.4
	c-28.7,1.1-62.8,19.1-83.4,43c-16.2,18.4-31.2,47.4-31.2,76.8c0,4.4,0.7,8.8,1.1,10.3c1.8,0.3,4.8,0.7,7.7,0.7
	C315.8,130.8,348.1,113.6,366.8,90.4L366.8,90.4z"/>
</svg>
