<?xml version="1.0" encoding="utf-8"?>
<!-- Generator: Adobe Illustrator 27.3.1, SVG Export Plug-In . SVG Version: 6.00 Build 0)  -->
<svg version="1.1" id="图层_1" xmlns="http://www.w3.org/2000/svg" xmlns:xlink="http://www.w3.org/1999/xlink" x="0px" y="0px"
	 viewBox="0 0 850.39 850.39" style="enable-background:new 0 0 850.39 850.39;" xml:space="preserve">
<style type="text/css">
	.st0{fill:#3D7DB7;}
	.st1{fill:#005DAC;}
	.st2{fill:#999B9E;}
	.st3{fill:#00346C;}
	.st4{fill:#5C5D60;}
</style>
<polygon id="XMLID_103_" class="st0" points="61.5,213.01 425.11,0 425.11,218.62 248.72,322.17 "/>
<polygon id="XMLID_102_" class="st1" points="425.44,631.81 602.1,528.45 602.1,528.45 788.9,419 788.9,637.79 425.77,850.39 "/>
<polygon id="XMLID_101_" class="st1" points="425.12,218.62 425.12,0 788.44,212.6 601.74,321.96 "/>
<polygon id="XMLID_100_" class="st0" points="62.07,638.23 248.71,528.68 425.53,631.79 425.82,850.39 "/>
<polygon id="XMLID_99_" class="st1" points="61.5,213.01 248.72,322.17 248.72,528.68 62.07,638.23 "/>
<polygon id="XMLID_98_" class="st2" points="425.12,425.34 425.12,218.62 601.74,321.96 601.74,528.66 601.71,528.68 "/>
<polygon id="XMLID_97_" class="st3" points="601.72,528.68 601.74,528.66 601.74,528.69 "/>
<polygon id="XMLID_96_" class="st4" points="248.71,322.17 425.12,218.62 425.12,425.34 248.71,528.68 "/>
</svg>
