<?xml version="1.0" encoding="utf-8"?>
<!-- Generator: Adobe Illustrator 27.3.1, SVG Export Plug-In . SVG Version: 6.00 Build 0)  -->
<svg version="1.1" id="Layer_1" xmlns="http://www.w3.org/2000/svg" xmlns:xlink="http://www.w3.org/1999/xlink" x="0px" y="0px"
	 viewBox="0 0 24 24" style="enable-background:new 0 0 24 24;" xml:space="preserve">
<style type="text/css">
	.st0{fill:url(#SVGID_1_);}
	.st1{fill:url(#SVGID_00000005255024753384810400000002424510600244602261_);}
	.st2{fill:url(#SVGID_00000168817531038755310150000003335641556110215300_);}
	.st3{fill:url(#SVGID_00000039104902701061230120000016354869012378545845_);}
	.st4{fill:url(#SVGID_00000090996204984276403450000001860851153170298529_);}
</style>
<g>
	<g>
		<linearGradient id="SVGID_1_" gradientUnits="userSpaceOnUse" x1="18.55" y1="0" x2="18.55" y2="7.267">
			<stop  offset="0" style="stop-color:#3798FA"/>
			<stop  offset="1" style="stop-color:#094CA9"/>
		</linearGradient>
		<path class="st0" d="M17,0.1c-0.1,0-0.2,0-0.3,0c-0.2,0-0.3,0.1-0.5,0.1c0,0,0,0-0.1,0c-0.7,0.2-1.4,0.6-1.9,1
			c0,0-0.1,0.1-0.1,0.1C14,1.5,14,1.5,13.9,1.6c-0.3,0.3-0.6,0.6-0.8,1c0.6,0.1,1.2,0.2,1.7,0.5c0.8,0.3,1.6,0.9,2.3,1.5
			c0.7,0.7,1.2,1.4,1.5,2.3c0.4,0.9,0.6,1.8,0.6,2.8c0,0.4,0,0.8-0.1,1.2h0.1c1.3,0,2.5-0.5,3.4-1.4C23.5,8.5,24,7.3,24,6
			c0-3.3-2.7-6-6-6c-0.2,0-0.5,0-0.7,0C17.2,0.1,17.1,0.1,17,0.1z"/>
	</g>
	
		<linearGradient id="SVGID_00000081627441155706935640000016550653903522415030_" gradientUnits="userSpaceOnUse" x1="5.45" y1="0" x2="5.45" y2="7.2003">
		<stop  offset="0" style="stop-color:#3798FA"/>
		<stop  offset="1" style="stop-color:#094CA9"/>
	</linearGradient>
	<path style="fill:url(#SVGID_00000081627441155706935640000016550653903522415030_);" d="M4.8,10.8h0.1C4.8,10.4,4.8,10,4.8,9.6
		c0-1,0.2-1.9,0.6-2.8C5.8,6,6.3,5.3,6.9,4.6C7.6,4,8.4,3.4,9.2,3.1c0.6-0.2,1.1-0.4,1.7-0.5c-0.2-0.4-0.5-0.7-0.8-1
		C10,1.5,10,1.5,9.9,1.4c0,0-0.1-0.1-0.1-0.1c-0.6-0.5-1.2-0.8-1.9-1c0,0,0,0-0.1,0c-0.2,0-0.3-0.1-0.5-0.1c-0.1,0-0.2,0-0.3,0
		c-0.1,0-0.2,0-0.3-0.1C6.5,0,6.2,0,6,0C2.7,0,0,2.7,0,6c0,1.3,0.5,2.5,1.4,3.4C2.3,10.3,3.5,10.8,4.8,10.8z"/>
	
		<linearGradient id="SVGID_00000021828998758051804580000007347188561667722163_" gradientUnits="userSpaceOnUse" x1="12" y1="5.2395" x2="12" y2="8.2717">
		<stop  offset="0" style="stop-color:#50C1FC"/>
		<stop  offset="1" style="stop-color:#2D9AED"/>
	</linearGradient>
	<path style="fill:url(#SVGID_00000021828998758051804580000007347188561667722163_);" d="M12,3.7c-3.3,0-6,2.7-6,6
		c0,0.4,0,0.8,0.1,1.2h2.7c0.9,0,1.9,0.2,2.7,0.5c0.1,0.1,0.3,0.1,0.4,0.2c0.1-0.1,0.3-0.1,0.4-0.2c0.9-0.4,1.8-0.5,2.7-0.5h2.7
		c0.2-0.2,0.2-0.5,0.3-0.7c0-0.2,0-0.3,0-0.5C18,6.4,15.3,3.7,12,3.7z"/>
	
		<linearGradient id="SVGID_00000137836407865611189630000003087395886082792092_" gradientUnits="userSpaceOnUse" x1="2.7861" y1="22.8495" x2="6.7014" y2="15.7298">
		<stop  offset="0" style="stop-color:#0A4EAA"/>
		<stop  offset="1" style="stop-color:#308CEE"/>
	</linearGradient>
	<path style="fill:url(#SVGID_00000137836407865611189630000003087395886082792092_);" d="M14.7,18.9c0-0.3,0.1-0.6,0.1-0.9
		c0-1.6-0.6-3.1-1.7-4.2c-0.7-0.7-1.5-1.2-2.4-1.5c-0.2-0.1-0.5-0.2-0.7-0.2c0,0-0.1,0-0.1,0C9.5,12,9.2,12,8.8,12H6H4.9
		C2.9,12,1,11,0,9.5V18c0,1.6,0.6,3.1,1.7,4.3C2.9,23.4,4.4,24,6,24h2.8c1.6,0,3.1-0.6,4.2-1.8C13.9,21.3,14.5,20.1,14.7,18.9z"/>
	<g id="g3149" transform="matrix(0.66666667,0,0,0.66666667,28.557493,58.675291)">
		
			<linearGradient id="SVGID_00000094604267005444970000000012594515360166844839_" gradientUnits="userSpaceOnUse" x1="-18.8231" y1="-51.919" x2="-17.1165" y2="-57.602">
			<stop  offset="0" style="stop-color:#208CE8"/>
			<stop  offset="1" style="stop-color:#50C1FC"/>
		</linearGradient>
		<path style="fill:url(#SVGID_00000094604267005444970000000012594515360166844839_);" d="M-14-70h-6c-1.1,0-1.9,0.1-3,0.4
			c0.3,0.3,0.8,0.6,1.1,0.9c1,1,1.8,2.1,2.4,3.4c0.6,1.3,0.8,2.7,0.8,4.1c0,1.3-0.3,2.8-0.8,4c-0.6,1.4-1.4,2.6-2.4,3.5
			c-0.3,0.3-0.6,0.6-1.1,0.9c0.9,0.3,1.9,0.4,3,0.4h4.2c2.4,0,4.6-0.9,6.3-2.7c1.4-1.4,2.4-3.4,2.6-5.4c0,0,0-0.1,0-0.1
			c0-0.3,0-0.5,0-0.8v-12.4C-8.5-71.5-11.2-70-14-70z"/>
	</g>
</g>
</svg>
