<?xml version="1.0" encoding="utf-8"?>
<!-- Generator: Adobe Illustrator 27.3.1, SVG Export Plug-In . SVG Version: 6.00 Build 0)  -->
<svg version="1.1" id="Layer_1" xmlns="http://www.w3.org/2000/svg" xmlns:xlink="http://www.w3.org/1999/xlink" x="0px" y="0px"
	 viewBox="0 0 24 24" style="enable-background:new 0 0 24 24;" xml:space="preserve">
<style type="text/css">
	.st0{fill:#0F6CBD;}
</style>
<path class="st0" d="M18,0c-2.2,0-4.2,1.2-5.2,3c-0.3,0-0.5,0-0.8,0c-0.3,0-0.5,0-0.8,0c-1-1.8-3-3-5.2-3C2.7,0,0,2.7,0,6v9.4h0
	C0.2,20.1,2.9,24,7.9,24c1.6,0,3-0.5,4.1-1.4c1.2,0.9,2.6,1.4,4.1,1.4c0.6,0,1.3-0.1,1.8-0.2c4.8-1.1,5.9-5.8,6-8.4h0V6
	C24,2.7,21.3,0,18,0z M12,4.5c2.9,0,5.3,2.4,5.3,5.3c0,1.1-0.3,2.1-0.9,3c-0.1,0-0.1,0-0.2,0c-1.6,0-3,0.5-4.1,1.3
	c-1.1-0.8-2.6-1.3-4.1-1.3c-0.1,0-0.1,0-0.2,0c-0.6-0.9-0.9-1.9-0.9-3C6.8,6.9,9.1,4.5,12,4.5z M1.5,6c0-2.5,2-4.5,4.5-4.5
	c1.5,0,2.9,0.8,3.7,1.9C7.1,4.4,5.3,6.8,5.3,9.8c0,0.9,0.2,1.8,0.5,2.6c-1.9-0.7-3.3-2.4-4.3-4.2V6z M7.9,22.5c-2.1,0-3.6-0.8-4.6-2
	c-1.1-1.3-1.7-3.1-1.8-5.2l0-0.2v-4.3c1.4,1.8,3.5,3.4,6.4,3.4c2.9,0,4.9,2,4.9,4.1S10.8,22.5,7.9,22.5z M22.5,15.2l0,0.2
	c0,1.2-0.3,2.7-1.1,4.1c-0.7,1.3-1.9,2.4-3.8,2.9l0,0l0,0c-0.5,0.1-0.9,0.2-1.5,0.2c-1.1,0-2.2-0.3-3-0.9c0.7-0.9,1.1-2,1.1-3.2
	c0-1.2-0.4-2.3-1.2-3.2c0.8-0.6,1.8-0.9,3-0.9c2.9,0,4.9-1.6,6.4-3.4V15.2z M22.5,8.2c-1,1.7-2.4,3.4-4.3,4.2
	c0.3-0.8,0.5-1.7,0.5-2.6c0-2.9-1.8-5.4-4.4-6.3c0.8-1.2,2.2-1.9,3.7-1.9c2.5,0,4.5,2,4.5,4.5V8.2z"/>
</svg>
