<?xml version="1.0" encoding="utf-8"?>
<!-- Generator: Adobe Illustrator 27.3.1, SVG Export Plug-In . SVG Version: 6.00 Build 0)  -->
<svg version="1.1" id="Layer_1" xmlns="http://www.w3.org/2000/svg" xmlns:xlink="http://www.w3.org/1999/xlink" x="0px" y="0px"
	 viewBox="0 0 500 1000" style="enable-background:new 0 0 500 1000;" xml:space="preserve">
<style type="text/css">
	.st0{opacity:0.3;fill:#DCE3EF;enable-background:new    ;}
	.st1{fill:url(#SVGID_1_);}
</style>
<g>
	<circle class="st0" cx="117.2" cy="738.8" r="4.3"/>
	<circle class="st0" cx="422.6" cy="453.3" r="4.3"/>
	<circle class="st0" cx="215.3" cy="87.3" r="5.3"/>
	<circle class="st0" cx="381.4" cy="900.2" r="4.3"/>
	<circle class="st0" cx="361.5" cy="158.9" r="14"/>
	<circle class="st0" cx="356.9" cy="817.9" r="6.9"/>
	<circle class="st0" cx="176.4" cy="848" r="8.4"/>
	<circle class="st0" cx="275" cy="231.5" r="4.3"/>
	<circle class="st0" cx="428" cy="745.8" r="4.3"/>
	<circle class="st0" cx="388.6" cy="262" r="5.4"/>
	<circle class="st0" cx="220.6" cy="137.1" r="8.7"/>
	<circle class="st0" cx="309.8" cy="964.6" r="10.1"/>
	<circle class="st0" cx="91.8" cy="350.8" r="4.4"/>
	<circle class="st0" cx="305.3" cy="754.2" r="8.4"/>
	<circle class="st0" cx="100.9" cy="215.3" r="11.6"/>
	<circle class="st0" cx="121.8" cy="37.5" r="12.8"/>
	<circle class="st0" cx="54.5" cy="119.1" r="5.3"/>
	<circle class="st0" cx="240.6" cy="775.2" r="5.4"/>
	<path class="st0" d="M218.7,697.3c30.8-12.8,42.6-41.1,78.2-44.9c20.6-2.2,41.5,16.4,63.1,15.5c57-2.4,100.9-55.1,85.1-111.9
		c-9-32.4-35.3-37-50.8-61.7c-22.5-35.9-9.7-45.7-12.1-87.2c-3.4-57.5-38.8-107.7-97.7-119.9c-56.3-11.6-115,19.2-137.4,72.2
		c-19.2,45.4,19.2,116.9-29,145.3C1,573.8,97.3,747.6,218.7,697.3z"/>
	<path class="st0" d="M143.9,659.8c38.7,48.7,82.7-12.4,131.5-27.9s105,13.9,122.1-34.4c17-48.3-37.3-197.4-127.5-193.8
		C174.5,407.4,88.3,589.9,143.9,659.8z"/>
</g>
<linearGradient id="SVGID_1_" gradientUnits="userSpaceOnUse" x1="250" y1="936.4932" x2="250" y2="747.5001" gradientTransform="matrix(1 0 0 1 0 -342)">
	<stop  offset="0" style="stop-color:#28096A"/>
	<stop  offset="1" style="stop-color:#3C009F"/>
</linearGradient>
<path class="st1" d="M250,405.5c-3.5,0-6.8,0.6-10.1,1.7l-118.4,42.7c-4.1,1.6-6.6,5.2-6.6,9.5s2.7,8.2,6.6,9.5l24.5,8.7
	c-7,10.9-10.9,23.7-10.9,37.3v11.8c0,12-4.5,24.3-9.3,34.2c-2.7,5.4-5.8,10.9-9.5,15.9c-1.4,1.7-1.7,4.3-1,6.4s2.5,3.7,4.7,4.3
	l27,6.8c1.7,0.4,3.7,0.2,5.2-0.8c1.6-1,2.7-2.5,2.9-4.5c3.7-18,1.7-34.2-1-45.8c-1.4-6-3.1-12-5.6-17.7v-10.3
	c0-12.8,4.3-24.8,11.8-34.3c5.4-6.6,12.4-11.8,20.8-15.1l66.2-26c3.5-1.4,7.4,0.4,8.7,3.9c1.4,3.5-0.4,7.4-3.9,8.7l-66,25.6
	c-5.2,2.1-9.9,5.2-13.6,9.1l67.3,24.3c3.3,1.2,6.6,1.7,10.1,1.7s6.8-0.6,10.1-1.7L378.5,469c4.1-1.4,6.6-5.2,6.6-9.5
	s-2.7-8.2-6.6-9.5l-118.4-42.7C256.8,406.1,253.5,405.5,250,405.5z M169.1,564c0,14.9,36.3,30.3,80.9,30.3s80.9-15.5,80.9-30.3
	l-6.4-61.3l-60,21.5c-4.7,1.7-9.7,2.5-14.6,2.5s-9.9-0.8-14.6-2.5l-60-21.5L169.1,564z"/>
</svg>
