<?xml version="1.0" encoding="utf-8"?>
<!-- Generator: Adobe Illustrator 27.3.1, SVG Export Plug-In . SVG Version: 6.00 Build 0)  -->
<svg version="1.1" id="Layer_1" xmlns="http://www.w3.org/2000/svg" xmlns:xlink="http://www.w3.org/1999/xlink" x="0px" y="0px"
	 viewBox="0 0 500 500" style="enable-background:new 0 0 500 500;" xml:space="preserve">
<style type="text/css">
	.st0{opacity:0.3;fill:#DCE3EF;}
	.st1{fill:url(#SVGID_1_);}
</style>
<g>
	<path class="st0" d="M305.2,385.8c16.6-54.3,91.2-30.4,126.7-65.9c42.6-42.6,32.9-116.4-18.9-146.7c-23.3-13.6-51-5.1-72.9-17.3
		c-25.7-14.3-25.8-34.3-39.4-56.2c-33.2-53.3-90.5-82.6-153-63.2c-59.7,18.6-96.7,76-89.3,138C62.4,209,88.5,229,95.8,260
		c6.9,29.4-12,50.5-14,78.9C72.3,472.2,264.3,519.7,305.2,385.8z"/>
	<circle class="st0" cx="366.6" cy="416.2" r="39.8"/>
	<path class="st0" d="M147.9,382.3c44.9,26.4,127.9,4.8,167.5-50.9s39.6-127.2-7.4-179.1s-155.8-60.8-192.8-27.6
		c-37,33.2-1.7,77.9,4.5,127.2C125.8,301.2,102.9,355.9,147.9,382.3z"/>
	<circle class="st0" cx="435" cy="96.3" r="4.8"/>
	<circle class="st0" cx="460.3" cy="101.9" r="1.6"/>
	<circle class="st0" cx="64.4" cy="49.2" r="5.5"/>
	<circle class="st0" cx="369.9" cy="40.4" r="14.1"/>
	<circle class="st0" cx="406.4" cy="467.4" r="5.5"/>
	<circle class="st0" cx="48.9" cy="315.3" r="3.5"/>
	<circle class="st0" cx="432.6" cy="363.6" r="8.5"/>
	<circle class="st0" cx="41.7" cy="117.4" r="3.6"/>
	<circle class="st0" cx="135.7" cy="469.9" r="4.3"/>
	<circle class="st0" cx="444.4" cy="48.1" r="4.3"/>
	<circle class="st0" cx="429.4" cy="149.7" r="9"/>
	<circle class="st0" cx="458.7" cy="412.6" r="5.1"/>
	<circle class="st0" cx="43.1" cy="429.4" r="7.3"/>
	<circle class="st0" cx="308.5" cy="464.5" r="8.5"/>
	<circle class="st0" cx="54" cy="259.2" r="12.9"/>
	<circle class="st0" cx="476.7" cy="184.1" r="4.3"/>
	<circle class="st0" cx="334.4" cy="103.4" r="5.5"/>
</g>
<linearGradient id="SVGID_1_" gradientUnits="userSpaceOnUse" x1="250" y1="497.6059" x2="250" y2="686.6145" gradientTransform="matrix(1 0 0 -1 0 842.1102)">
	<stop  offset="0" style="stop-color:#28096A"/>
	<stop  offset="1" style="stop-color:#3C009F"/>
</linearGradient>
<path class="st1" d="M199.2,191.6L188.1,223h124L301,191.6c-1.9-5.4-7-9.1-12.8-9.1H212C206.1,182.7,201.1,186.4,199.2,191.6z
	 M158.8,225.2l14.9-42.5c5.6-16.3,21-27.2,38.2-27.2h76.5c17.3,0,32.6,10.9,38.2,27.2l14.7,42.3c9.7,4.1,16.7,13.8,16.7,25v60.7
	v20.2c0,7.4-6,13.6-13.6,13.6h-13.6c-7.4,0-13.6-6-13.6-13.6v-20.2H182.7v20.2c0,7.4-6,13.6-13.6,13.6h-13.6
	c-7.4,0-13.6-6-13.6-13.6v-20.2v-60.5C142.1,238.9,149.1,229.2,158.8,225.2z M196.1,263.6c0-7.4-6-13.6-13.6-13.6s-13.6,6-13.6,13.6
	c0,7.4,6,13.6,13.6,13.6S196.1,271.2,196.1,263.6z M317.5,277.2c7.4,0,13.6-6,13.6-13.6c0-7.4-6-13.6-13.6-13.6
	c-7.4,0-13.6,6-13.6,13.6C304.1,271.2,310.2,277.2,317.5,277.2z"/>
</svg>
