<?xml version="1.0" encoding="utf-8"?>
<!-- Generator: Adobe Illustrator 27.3.1, SVG Export Plug-In . SVG Version: 6.00 Build 0)  -->
<svg version="1.1" id="Layer_1" xmlns="http://www.w3.org/2000/svg" xmlns:xlink="http://www.w3.org/1999/xlink" x="0px" y="0px"
	 viewBox="0 0 1000 500" style="enable-background:new 0 0 1000 500;" xml:space="preserve">
<style type="text/css">
	.st0{opacity:0.3;fill:#DCE3EF;}
	.st1{fill:url(#SVGID_1_);}
</style>
<g>
	<path class="st0" d="M554.9,385.9c16.6-54.3,91.2-30.4,126.7-65.9c42.6-42.6,32.9-116.4-18.9-146.7c-23.3-13.6-51-5.1-72.9-17.3
		c-25.7-14.3-25.8-34.3-39.4-56.2c-33.2-53.3-90.5-82.6-153-63.2c-59.7,18.6-96.7,76-89.3,138c4.1,34.4,30.2,54.4,37.5,85.4
		c6.9,29.4-12,50.5-14,78.9C322,472.3,514,519.8,554.9,385.9z"/>
	<circle class="st0" cx="616.3" cy="416.3" r="39.8"/>
	<path class="st0" d="M397.6,382.4c44.9,26.4,127.9,4.8,167.5-50.9s39.6-127.2-7.4-179.1s-155.8-60.8-192.8-27.6
		c-37,33.2-1.7,77.9,4.5,127.2C375.5,301.3,352.6,356,397.6,382.4z"/>
	<circle class="st0" cx="963" cy="432.7" r="13.2"/>
	<circle class="st0" cx="879.6" cy="462.4" r="5.7"/>
	<circle class="st0" cx="183.1" cy="149.5" r="44.3"/>
	<circle class="st0" cx="874" cy="248.8" r="11.6"/>
	<circle class="st0" cx="259.8" cy="405.7" r="4.7"/>
	<circle class="st0" cx="22.4" cy="350.5" r="4.7"/>
	<circle class="st0" cx="243.2" cy="233.6" r="4.3"/>
	<circle class="st0" cx="853.1" cy="72.3" r="8.5"/>
	<circle class="st0" cx="270.8" cy="150.4" r="6.9"/>
	<circle class="st0" cx="73.5" cy="57.4" r="5.4"/>
	<circle class="st0" cx="725.5" cy="83.4" r="4.3"/>
	<circle class="st0" cx="780.8" cy="421.8" r="9"/>
	<circle class="st0" cx="976.1" cy="260.3" r="5.1"/>
	<circle class="st0" cx="163.2" cy="362.5" r="10.4"/>
	<circle class="st0" cx="32.8" cy="253.3" r="14.5"/>
	<circle class="st0" cx="292.1" cy="268.7" r="8.5"/>
	<circle class="st0" cx="740.4" cy="184.2" r="4.3"/>
	<circle class="st0" cx="825.2" cy="200.2" r="5.5"/>
	<circle class="st0" cx="108" cy="260.8" r="4.7"/>
</g>
<linearGradient id="SVGID_1_" gradientUnits="userSpaceOnUse" x1="500" y1="497.6059" x2="500" y2="686.6145" gradientTransform="matrix(1 0 0 -1 0 842.1102)">
	<stop  offset="0" style="stop-color:#28096A"/>
	<stop  offset="1" style="stop-color:#3C009F"/>
</linearGradient>
<path class="st1" d="M449.2,191.6L438.1,223h124L551,191.6c-1.9-5.4-7-9.1-12.8-9.1H462C456.1,182.7,451.1,186.4,449.2,191.6z
	 M408.8,225.2l14.9-42.5c5.6-16.3,21-27.2,38.2-27.2h76.5c17.3,0,32.6,10.9,38.2,27.2l14.7,42.3c9.7,4.1,16.7,13.8,16.7,25v60.7
	v20.2c0,7.4-6,13.6-13.6,13.6h-13.6c-7.4,0-13.6-6-13.6-13.6v-20.2H432.7v20.2c0,7.4-6,13.6-13.6,13.6h-13.6
	c-7.4,0-13.6-6-13.6-13.6v-20.2v-60.5C392.1,238.9,399.1,229.2,408.8,225.2z M446.1,263.6c0-7.4-6-13.6-13.6-13.6
	c-7.6,0-13.6,6-13.6,13.6c0,7.4,6,13.6,13.6,13.6C440,277.2,446.1,271.2,446.1,263.6z M567.5,277.2c7.4,0,13.6-6,13.6-13.6
	c0-7.4-6-13.6-13.6-13.6c-7.4,0-13.6,6-13.6,13.6C554.1,271.2,560.2,277.2,567.5,277.2z"/>
</svg>
