<?xml version="1.0" encoding="utf-8"?>
<!-- Generator: Adobe Illustrator 27.3.1, SVG Export Plug-In . SVG Version: 6.00 Build 0)  -->
<svg version="1.1" id="Layer_1" xmlns="http://www.w3.org/2000/svg" xmlns:xlink="http://www.w3.org/1999/xlink" x="0px" y="0px"
	 viewBox="0 0 500 500" style="enable-background:new 0 0 500 500;" xml:space="preserve">
<style type="text/css">
	.st0{opacity:0.3;fill:#DCE3EF;enable-background:new    ;}
	.st1{fill:url(#SVGID_1_);}
</style>
<ellipse transform="matrix(0.887 -0.4617 0.4617 0.887 -191.0256 148.0105)" class="st0" cx="206.9" cy="464.3" rx="19.9" ry="19.9"/>
<path class="st0" d="M426.4,261.9c-44.8-35.6-4.6-111.4-25.5-160.9c-26.1-61.8-94.3-97.6-160-84.1c-70,14.4-107.4,72.5-113.7,139.5
	c-4.7,50,1,55.1-36.8,90.6c-23.3,21.9-46.4,25.2-59.8,58.7c-24.9,62,15.3,130.1,81.1,139c35.6,4.8,59.2-20.8,91.9-20.2
	c38,0.6,49.5,29.6,79.8,44.8C416.7,536.4,550.9,360.7,426.4,261.9z"/>
<path class="st0" d="M328.3,414c64-22.7,71.6-95.1,62.4-162.5S360.1,83.4,266,83.4S117.6,207.1,126,297.7
	C134.4,388.2,264.3,436.8,328.3,414z"/>
<circle class="st0" cx="62.3" cy="57.2" r="4.3"/>
<circle class="st0" cx="33.1" cy="257.5" r="5.3"/>
<circle class="st0" cx="64.7" cy="107.9" r="6.7"/>
<circle class="st0" cx="129.9" cy="30.7" r="8.5"/>
<circle class="st0" cx="400" cy="17.7" r="8.5"/>
<circle class="st0" cx="47.3" cy="452.2" r="4.3"/>
<circle class="st0" cx="484.9" cy="197.3" r="4.3"/>
<circle class="st0" cx="467.9" cy="30.7" r="4.3"/>
<circle class="st0" cx="439" cy="162.3" r="5.1"/>
<circle class="st0" cx="64.6" cy="211.1" r="10.2"/>
<circle class="st0" cx="467.9" cy="447.9" r="5.5"/>
<circle class="st0" cx="476.4" cy="236.1" r="8.5"/>
<circle class="st0" cx="20.5" cy="161.5" r="12.9"/>
<circle class="st0" cx="152.4" cy="459.8" r="5.5"/>
<linearGradient id="SVGID_1_" gradientUnits="userSpaceOnUse" x1="244.3307" y1="154.6044" x2="244.3307" y2="348.9343" gradientTransform="matrix(1 0 0 -1 0 499.8898)">
	<stop  offset="0" style="stop-color:#28096A"/>
	<stop  offset="1" style="stop-color:#3C009F"/>
</linearGradient>
<path class="st1" d="M286.9,187.5v0.2c-1.9-0.2-4.1-0.2-6-0.2h-48.5c-6.2,0-12.4,0.8-18,2.3c0-0.8,0-1.6,0-2.3
	c0-20.2,16.3-36.5,36.5-36.5S286.9,167.3,286.9,187.5z M280.7,199.5c1.4,0,2.7,0,3.9,0.2c1.6,0.2,3.1,0.2,4.9,0.6
	c6.6-7.8,16.7-12.8,27.7-12.8h12.2l-7.2,28.5c6,5.6,10.9,12.4,14.2,20h5c6.8,0,12.2,5.4,12.2,12.2v36.5c0,6.8-5.4,12.2-12.2,12.2
	h-12.2c-3.5,4.7-7.6,8.7-12.2,12.2v24.3c0,6.8-5.4,12.2-12.2,12.2h-12.2c-6.8,0-12.2-5.4-12.2-12.2v-12.2h-48.5v12.2
	c0,6.8-5.4,12.2-12.2,12.2h-12.2c-6.8,0-12.2-5.4-12.2-12.2v-24.6c-13.2-9.9-22.3-25.2-24.1-42.5h-10.3c-14.4,0-25.8-11.4-25.8-25.8
	c0-14.4,11.6-25.8,25.8-25.8h1.6c5,0,9.1,4.1,9.1,9.1s-4.1,9.1-9.1,9.1h-1.6c-4.3,0-7.6,3.5-7.6,7.6c0,4.1,3.5,7.6,7.6,7.6h11.8
	c4.7-22.7,21.9-40.8,44.1-46.6c4.9-1.4,10.1-1.9,15.3-1.9C232,199.5,280.7,199.5,280.7,199.5z M305.2,251.1c0-5-4.1-9.1-9.1-9.1
	c-5,0-9.1,4.1-9.1,9.1s4.1,9.1,9.1,9.1C301.1,260.2,305.2,256.2,305.2,251.1z"/>
</svg>
