<?xml version="1.0" encoding="utf-8"?>
<!-- Generator: Adobe Illustrator 27.3.1, SVG Export Plug-In . SVG Version: 6.00 Build 0)  -->
<svg version="1.1" id="Layer_1" xmlns="http://www.w3.org/2000/svg" xmlns:xlink="http://www.w3.org/1999/xlink" x="0px" y="0px"
	 viewBox="0 0 500 500" style="enable-background:new 0 0 500 500;" xml:space="preserve">
<style type="text/css">
	.st0{opacity:0.3;fill:#DCE3EF;enable-background:new    ;}
	.st1{fill:url(#SVGID_1_);}
</style>
<path class="st0" d="M170.4,390.5c66.3-10,81.7,88.3,155,88.3c90.9,0,97.4-78,94.6-145.5c-2.7-64.5,42-75.4,61.5-132.3
	c22.5-65.5-13.8-139.4-79.2-161.7c-74.1-25.4-100.3,26.3-155.4,57c-55.1,30.8-116.6-5-174.4,31.5C-55,208.2,20.7,413,170.4,390.5z"
	/>
<path class="st0" d="M392.9,187.8c-36.1-105.5-281.8-61.8-316,9.6C42.8,268.9,110.1,356,184,368C257.9,380.1,429,293.4,392.9,187.8z
	"/>
<circle class="st0" cx="287.1" cy="24.2" r="5.9"/>
<circle class="st0" cx="440.4" cy="445.8" r="7.4"/>
<circle class="st0" cx="199.2" cy="472.8" r="9.4"/>
<circle class="st0" cx="22.6" cy="461.2" r="4.8"/>
<circle class="st0" cx="123.9" cy="429.3" r="13.3"/>
<circle class="st0" cx="223.4" cy="78.8" r="6.1"/>
<circle class="st0" cx="114.4" cy="33.6" r="9.4"/>
<circle class="st0" cx="58.4" cy="72.7" r="14.3"/>
<circle class="st0" cx="488.1" cy="58.4" r="4.8"/>
<linearGradient id="SVGID_1_" gradientUnits="userSpaceOnUse" x1="250" y1="141.9976" x2="250" y2="357.9199" gradientTransform="matrix(1 0 0 -1 0 499.8898)">
	<stop  offset="0" style="stop-color:#28096A"/>
	<stop  offset="1" style="stop-color:#3C009F"/>
</linearGradient>
<path class="st1" d="M330.9,141.9c-6.8,0-53.9,13.6-53.9,74.1v47.2c0,14.9,12,27,27,27h13.6v53.9c0,7.4,6,13.6,13.6,13.6
	c7.4,0,13.6-6,13.6-13.6v-53.8v-47.2v-87.7C344.3,147.9,338.3,141.9,330.9,141.9z M182.5,148.7c0-3.5-2.5-6.4-6-6.8
	c-3.5-0.4-6.6,1.9-7.4,5.2l-12.8,57.4c-0.6,2.7-1,5.4-1,8.2c0,19.4,14.7,35.3,33.8,37.1v94.7c0,7.4,6,13.6,13.6,13.6
	s13.6-6,13.6-13.6v-94.7c19-1.7,33.8-17.7,33.8-37.1c0-2.7-0.4-5.4-1-8.2l-12.8-57.4c-0.8-3.3-3.9-5.6-7.4-5.2s-6,3.3-6,6.8v56.7
	c0,2.3-1.9,4.1-4.1,4.1c-2.1,0-3.9-1.6-4.1-3.9l-5.2-57.4c-0.4-3.5-3.3-6.2-6.8-6.2c-3.5,0-6.4,2.7-6.8,6.2l-5.2,57.4
	c-0.2,2.1-1.9,3.9-4.1,3.9c-2.3,0-4.1-1.9-4.1-4.1V148.7L182.5,148.7z M202.8,212.8L202.8,212.8h-0.2l0.2-0.4V212.8z"/>
</svg>
