<?xml version="1.0" encoding="utf-8"?>
<!-- Generator: Adobe Illustrator 27.3.1, SVG Export Plug-In . SVG Version: 6.00 Build 0)  -->
<svg version="1.1" id="Layer_1" xmlns="http://www.w3.org/2000/svg" xmlns:xlink="http://www.w3.org/1999/xlink" x="0px" y="0px"
	 viewBox="0 0 500 500" style="enable-background:new 0 0 500 500;" xml:space="preserve">
<style type="text/css">
	.st0{opacity:0.3;fill:#DCE3EF;enable-background:new    ;}
	.st1{fill:url(#SVGID_1_);}
</style>
<path class="st0" d="M416.6,85.1C377,41.5,310,31.5,259.4,61.5c-29.4,17.4-34.7,43-54.4,66c-33.7,39.6-41.3,23.6-87.8,33.3
	c-51.4,10.7-90.4,54.4-78.8,109.1c17,80.3,88.9,48.7,130.8,91.9c39.7,40.8,30.1,96.4,103.5,107c51.5,7.4,102.8-22.4,120.9-71.6
	c12.2-33.1-5.1-56.1-1.5-87c3.9-33,14.7-37.9,32.3-65.5C456.8,194.4,458.7,131.3,416.6,85.1z"/>
<path class="st0" d="M185.5,337c67.5,23.3,167.1-12.1,206.1-72.4c65.6-101.3-36.8-245-160.7-137.1C198.4,155.7,50.2,290.3,185.5,337
	z"/>
<circle class="st0" cx="54.2" cy="438.1" r="4.2"/>
<circle class="st0" cx="371.8" cy="35.8" r="5.1"/>
<circle class="st0" cx="215" cy="69" r="4.2"/>
<circle class="st0" cx="196.2" cy="460.3" r="13.7"/>
<circle class="st0" cx="423.6" cy="51.4" r="2.7"/>
<circle class="st0" cx="442.5" cy="71" r="8.3"/>
<circle class="st0" cx="82.4" cy="49" r="4.2"/>
<circle class="st0" cx="90.3" cy="471.8" r="4.2"/>
<circle class="st0" cx="435.1" cy="312.2" r="11.7"/>
<circle class="st0" cx="109.9" cy="412" r="5"/>
<circle class="st0" cx="408.4" cy="461.8" r="9.9"/>
<circle class="st0" cx="422.3" cy="377.5" r="4.4"/>
<circle class="st0" cx="85.4" cy="352.8" r="4.1"/>
<circle class="st0" cx="57.9" cy="369.8" r="12.5"/>
<ellipse transform="matrix(0.887 -0.4617 0.4617 0.887 -18.0575 76.9003)" class="st0" cx="148.1" cy="75.3" rx="42.6" ry="42.6"/>
<circle class="st0" cx="243.8" cy="31.7" r="8.8"/>
<circle class="st0" cx="59.9" cy="148.3" r="5.1"/>
<circle class="st0" cx="61.6" cy="107.6" r="8.8"/>
<circle class="st0" cx="29.9" cy="40.2" r="8.8"/>
<circle class="st0" cx="468.3" cy="197.8" r="8.8"/>
<circle class="st0" cx="433.6" cy="407.4" r="2.7"/>
<circle class="st0" cx="452.5" cy="427" r="8.3"/>
<linearGradient id="SVGID_1_" gradientUnits="userSpaceOnUse" x1="250" y1="141.8988" x2="250" y2="357.8809" gradientTransform="matrix(1 0 0 -1 0 499.8898)">
	<stop  offset="0" style="stop-color:#28096A"/>
	<stop  offset="1" style="stop-color:#3C009F"/>
</linearGradient>
<path class="st1" d="M371.5,249.7c0,7.6-6.4,13.6-13.6,13.6h-13.6l0.4,67.5c0,1.2,0,2.3-0.2,3.5v6.8c0,9.3-7.6,16.9-16.9,16.9h-6.8
	c-0.4,0-1,0-1.4,0c-0.6,0-1.2,0-1.7,0H304h-10.1c-9.3,0-16.9-7.6-16.9-16.9V331v-27c0-7.4-6-13.6-13.6-13.6h-26.8
	c-7.4,0-13.6,6-13.6,13.6v27v10.1c0,9.3-7.6,16.9-16.9,16.9h-10.1h-13.4c-0.6,0-1.4,0-1.9,0c-0.6,0-1,0-1.6,0h-6.8
	c-9.3,0-16.9-7.6-16.9-16.9V294c0-0.4,0-0.8,0-1.2v-29.5H142c-7.6,0-13.6-5.8-13.6-13.6c0-3.9,1.4-7.2,4.3-10.1l108.1-94.3
	c2.9-2.9,6.4-3.3,9.3-3.3c2.9,0,6.4,0.8,8.9,2.9l107.7,94.7C370.4,242.7,371.9,246,371.5,249.7z"/>
</svg>
