<?xml version="1.0" encoding="utf-8"?>
<!-- Generator: Adobe Illustrator 27.3.1, SVG Export Plug-In . SVG Version: 6.00 Build 0)  -->
<svg version="1.1" id="Layer_1" xmlns="http://www.w3.org/2000/svg" xmlns:xlink="http://www.w3.org/1999/xlink" x="0px" y="0px"
	 viewBox="0 0 1000 500" style="enable-background:new 0 0 1000 500;" xml:space="preserve">
<style type="text/css">
	.st0{opacity:0.3;fill:#DCE3EF;}
	.st1{fill:url(#SVGID_1_);}
	.st2{fill:url(#SVGID_00000137828466970991826320000012523661672764330642_);}
	.st3{fill:url(#SVGID_00000144336301345016715800000007638937597983695488_);}
	.st4{fill:url(#SVGID_00000148628626806530072830000013694721018842934404_);}
	.st5{fill:url(#SVGID_00000132783859560472373370000005953388993114716822_);}
	.st6{fill:url(#SVGID_00000152982756690326725640000017108594535295503514_);}
	.st7{fill:url(#SVGID_00000124146392485081832780000012496842241575602096_);}
</style>
<g>
	<path class="st0" d="M713,163.4c0-70.8-67-123.9-130.7-112.8c-38.8,6.7-47.5,20.7-86.8,5.9c-27.8-10.4-39.4-22.2-71.7-29.2
		c-63-13.6-127.8,27-142.6,90c-19.1,81,52,96.7,71.8,157.6c16.8,51.8-16.3,100.5,19.1,153c35.7,52.9,106.2,73.8,164.8,49
		c72.2-30.5,71.6-86.5,79.7-152.6C625.9,250.4,713,242.9,713,163.4z"/>
	<path class="st0" d="M508.7,444.8c62.6,0,80.7-115.3,103.2-161c22.5-45.7,60.9-76.3,41.8-123.5S579,75,523,80.3
		c-56,5.3-149.8,60.6-159.1,139.9C354.7,299.5,429.1,444.8,508.7,444.8z"/>
	<ellipse transform="matrix(0.887 -0.4617 0.4617 0.887 -79.647 359.5961)" class="st0" cx="695" cy="342.5" rx="30.8" ry="30.8"/>
	<circle class="st0" cx="865.3" cy="387.3" r="13.5"/>
	<circle class="st0" cx="324.6" cy="467" r="4.8"/>
	<circle class="st0" cx="320.8" cy="402.9" r="3.2"/>
	<circle class="st0" cx="308.8" cy="311.7" r="15.5"/>
	<circle class="st0" cx="658.9" cy="438.7" r="6"/>
	<circle class="st0" cx="518" cy="32.9" r="9.3"/>
	<circle class="st0" cx="260" cy="414.7" r="7.3"/>
	<circle class="st0" cx="553.7" cy="18.5" r="4.8"/>
	<circle class="st0" cx="273.7" cy="36.8" r="5.6"/>
	<circle class="st0" cx="203" cy="232.8" r="9.3"/>
	<circle class="st0" cx="103.6" cy="199.6" r="5.7"/>
	<circle class="st0" cx="157.5" cy="99.2" r="4.9"/>
	<circle class="st0" cx="29.2" cy="145.3" r="7.7"/>
	<circle class="st0" cx="167.2" cy="335.6" r="6.2"/>
	<circle class="st0" cx="128.8" cy="287.2" r="15.6"/>
	<circle class="st0" cx="26.1" cy="319.6" r="5.1"/>
	<circle class="st0" cx="55.1" cy="439.5" r="11.7"/>
	<circle class="st0" cx="731.6" cy="438.7" r="11.2"/>
	<circle class="st0" cx="692.1" cy="37.7" r="4.8"/>
	<circle class="st0" cx="911.8" cy="86.5" r="4.8"/>
	<circle class="st0" cx="774.6" cy="250.4" r="4.8"/>
	<circle class="st0" cx="831.5" cy="256.7" r="5.9"/>
	<circle class="st0" cx="750.1" cy="138.1" r="9.6"/>
	<circle class="st0" cx="847.6" cy="213.6" r="10"/>
	<circle class="st0" cx="952.7" cy="194.3" r="10"/>
	<circle class="st0" cx="968.8" cy="296" r="9.4"/>
	<circle class="st0" cx="963.7" cy="441.4" r="6.3"/>
</g>
<g>
	<g>
		
			<linearGradient id="SVGID_1_" gradientUnits="userSpaceOnUse" x1="285.0539" y1="543.9323" x2="285.0539" y2="649.0371" gradientTransform="matrix(1 0 0 -1 0 842.1102)">
			<stop  offset="0" style="stop-color:#28096A"/>
			<stop  offset="1" style="stop-color:#3C009F"/>
		</linearGradient>
		<path class="st1" d="M329.9,193.1H214.2v46h8.7v-37.1h106.9c9,0,17.1,7.4,17.1,15.5v72h-42.3l0,0c-27.7,0-50.2-22.6-50.2-50.2
			h-8.7c0,32.5,26.5,58.9,58.9,58.9l0,0h51.1v-80.7C355.9,204.5,343.7,193.1,329.9,193.1z"/>
		
			<linearGradient id="SVGID_00000129196204920499461700000003961473437959870604_" gradientUnits="userSpaceOnUse" x1="291.1436" y1="575.4749" x2="291.1436" y2="602.9238" gradientTransform="matrix(1 0 0 -1 0 842.1102)">
			<stop  offset="0" style="stop-color:#28096A"/>
			<stop  offset="1" style="stop-color:#3C009F"/>
		</linearGradient>
		<path style="fill:url(#SVGID_00000129196204920499461700000003961473437959870604_);" d="M304.8,257.9c-10.4,0-18.6-8.4-18.6-18.6
			h-8.7c0,15.2,12.3,27.5,27.5,27.5v-8.9H304.8z"/>
		
			<linearGradient id="SVGID_00000172432677462337876040000014962756422491805831_" gradientUnits="userSpaceOnUse" x1="259.4919" y1="512.3557" x2="259.4919" y2="602.8752" gradientTransform="matrix(1 0 0 -1 0 842.1102)">
			<stop  offset="0" style="stop-color:#28096A"/>
			<stop  offset="1" style="stop-color:#3C009F"/>
		</linearGradient>
		<path style="fill:url(#SVGID_00000172432677462337876040000014962756422491805831_);" d="M223,239.2h-8.7
			c0,49.9,40.6,90.5,90.5,90.5V321C259.6,321,223,284.3,223,239.2z"/>
	</g>
	<g>
		<g>
			<g>
				
					<linearGradient id="SVGID_00000056398269305078830620000004249748135393184139_" gradientUnits="userSpaceOnUse" x1="592.0983" y1="580.1701" x2="592.0983" y2="669.0356" gradientTransform="matrix(1 0 0 -1 0 842.1102)">
					<stop  offset="0" style="stop-color:#28096A"/>
					<stop  offset="1" style="stop-color:#3C009F"/>
				</linearGradient>
				<path style="fill:url(#SVGID_00000056398269305078830620000004249748135393184139_);" d="M398.4,191.9h9.8l0.2,9.8h0.5
					c3.5-6.6,9.9-11.1,17.6-11.1c14.4,0,22.7,12.3,22.7,27.4c0,14.7-8.6,27.5-22.9,27.5c-9,0-13.7-5-16.2-10.1h-0.5v26.6h-11.1
					L398.4,191.9z M423.5,234.7c8.4,0,14-6.8,14-16.4c0-9-4.7-17.4-13.5-17.4c-8.7,0-14,7.8-14,17S414.7,234.7,423.5,234.7z
					 M481.6,190.8c14.4,0,23.5,11,23.5,25.9v6.2h-38.8c0.9,7.4,7.8,12.5,16.4,12.5c6.5,0,11.1-3.3,14.6-6.8l6.6,6.6
					c-5.7,7.1-13.7,10.4-22,10.4c-13.7,0-26.6-9.8-26.6-27.1C455.4,203,467,190.8,481.6,190.8z M494.1,214.1
					c-0.2-7.4-4.5-13.1-13.1-13.1c-7.4,0-13.8,5.3-14.7,13.1H494.1z M513.9,192.2h10.2v9.5h0.3c2.6-6.8,6.3-9.5,13.7-9.5h3.5v11.1
					h-7.2c-6.5,0-9.2,3.8-9.2,10.8v30.1h-11.1L513.9,192.2z M550.6,227.4c4.2,5.3,9.5,9.2,16.4,9.2c4.8,0,8.7-1.8,8.7-5.9
					c0-4.2-5-6.2-10.8-8c-8-2.6-17.7-6.2-17.7-16.1c0-8.6,8.6-15.8,19.4-15.8c11.1,0,17.7,6.5,20.8,13.2l-8.1,4.2
					c-2.6-5.7-8-8.1-12.5-8.3c-4.7,0-8.1,2.4-8.1,6c0,4.4,4.2,5.9,10.2,7.7c8.1,2.6,18.3,5.7,18.3,15.9s-9.9,16.1-20.3,16.1
					c-9.5,0-18-5-23-12.5L550.6,227.4z M619.9,190.8c15.6,0,27.1,12.5,27.1,27.5s-12.5,27.5-27.4,27.5c-15,0-27.4-12.5-27.4-27.7
					C592.2,203.3,604.9,190.8,619.9,190.8z M619.6,235.6c9.3,0,16.7-7.7,16.7-17.3c0-9.5-7.2-17.3-16.5-17.3
					c-9.5,0-16.7,7.5-16.7,17.1C602.9,227.8,610.1,235.6,619.6,235.6z M654.3,192.3h10.2v9.8h0.2c3.5-6.2,8.4-11.3,17.3-11.3
					c11.4,0,17.6,8.6,17.6,20.6v32.9h-11.1v-31.1c0-7.1-2.6-12.5-9.6-12.5c-8.7,0-13.2,8.6-13.2,16.7v26.9h-11.1L654.3,192.3z
					 M731.2,214.1h10.2v-3.3c0-5.4-3.2-9.5-9.5-9.5c-6,0-11.4,4.2-14.3,10.1l-9.5-4.7c4.4-10.1,13.2-15.8,23.8-15.8
					c12,0,20.6,7.1,20.6,19.7v22.7c0,1.2,0.2,1.7,1.5,1.7h3.9v9.2h-7.1c-4.5,0-7.5-2.7-7.5-8.3v-2.6h-0.5
					c-3.5,7.5-10.7,11.9-18.5,11.9c-8.4,0-16.2-5-16.2-15.2C708,220.4,718,214.1,731.2,214.1z M726.5,236.5c7.1,0,14-5.9,14.9-14.4
					h-9.6c-7.4,0-12.5,2.6-12.5,8C719.3,234,722.3,236.5,726.5,236.5z M765.8,173.1h11.1v60.3c0,1.4,0.2,2,1.8,2h7.1v9.2h-10.8
					c-7.1,0-9.2-4.7-9.2-11.1V173.1z"/>
			</g>
		</g>
		<g>
			<g>
				<g>
					
						<linearGradient id="SVGID_00000114761215326611721720000001435963989872155276_" gradientUnits="userSpaceOnUse" x1="422.4119" y1="492.3034" x2="422.4119" y2="567.1031" gradientTransform="matrix(1 0 0 -1 0 842.1102)">
						<stop  offset="0" style="stop-color:#28096A"/>
						<stop  offset="1" style="stop-color:#3C009F"/>
					</linearGradient>
					<path style="fill:url(#SVGID_00000114761215326611721720000001435963989872155276_);" d="M398.3,276.5h5v11.7h0.5
						c2.7-6.9,8.7-13.2,19.2-13.2c13.8,0,23.6,11.7,23.6,28.3c0,17.1-10.4,28-23.9,28c-10.2,0-16.4-6.3-18.8-13.5h-0.5v31.9h-5
						v-73.1H398.3z M422.3,326.3c10.8,0,18.5-8.3,18.5-23c0-14.1-7.1-23.5-18.2-23.5c-12.3,0-19.1,11-19.1,23.5
						C403.7,315.5,410,326.3,422.3,326.3z"/>
					
						<linearGradient id="SVGID_00000092420384316737711330000003377171230221622709_" gradientUnits="userSpaceOnUse" x1="478.3475" y1="510.9539" x2="478.3475" y2="567.0399" gradientTransform="matrix(1 0 0 -1 0 842.1102)">
						<stop  offset="0" style="stop-color:#28096A"/>
						<stop  offset="1" style="stop-color:#3C009F"/>
					</linearGradient>
					<path style="fill:url(#SVGID_00000092420384316737711330000003377171230221622709_);" d="M454.4,316.2c0-9.9,9.5-15.8,23-15.8
						h13.5v-6.9c0-7.8-4.8-13.2-13.5-13.2c-7.1,0-14.7,4.4-18.2,13.2l-4.8-2.3c4.1-10.1,13.1-16.1,23.2-16.1
						c12.3,0,18.8,8.3,18.8,18.5v29.8c0,1.1,0.6,1.7,1.2,1.7h4.8v5h-5.3c-4.4,0-5.9-2.7-5.9-7.5l0.2-5.3h-0.8
						c-3.3,8.1-10.2,14-19.4,14C461.9,331.1,454.4,326,454.4,316.2z M471.8,326c9.3,0,17.9-8.6,19.1-21.2h-13.4
						c-9.6,0-17.6,3.9-17.6,11.4C459.9,323.1,465.3,326,471.8,326z"/>
					
						<linearGradient id="SVGID_00000082356301716769100370000013047422767213390010_" gradientUnits="userSpaceOnUse" x1="529.2458" y1="493.7001" x2="529.2458" y2="565.5744" gradientTransform="matrix(1 0 0 -1 0 842.1102)">
						<stop  offset="0" style="stop-color:#28096A"/>
						<stop  offset="1" style="stop-color:#3C009F"/>
					</linearGradient>
					<path style="fill:url(#SVGID_00000082356301716769100370000013047422767213390010_);" d="M510.9,276.7l17.9,48.9h0.8l18.2-48.9
						h5.6l-24.2,63c-2.3,5.9-4.8,8.9-9.3,8.9h-9.6v-5h8.9c2.7,0,4.4-2.3,5.6-5.4l3.2-8h-3l-19.5-53.4h5.7V276.7z"/>
				</g>
			</g>
		</g>
	</g>
</g>
</svg>
