<?xml version="1.0" encoding="utf-8"?>
<!-- Generator: Adobe Illustrator 27.3.1, SVG Export Plug-In . SVG Version: 6.00 Build 0)  -->
<svg version="1.1" id="Layer_1" xmlns="http://www.w3.org/2000/svg" xmlns:xlink="http://www.w3.org/1999/xlink" x="0px" y="0px"
	 viewBox="0 0 1000 500" style="enable-background:new 0 0 1000 500;" xml:space="preserve">
<style type="text/css">
	.st0{opacity:0.3;fill:#DCE3EF;}
	.st1{fill:url(#SVGID_1_);}
</style>
<path class="st0" d="M682.8,266.7c-42.2-43.5,23.7-135.3-8.4-190.3c-34-58.2-121.6-57.6-166.9-14.1c-20.4,19.6-21.6,42.6-53,52.9
	c-25.8,8.5-43.7-7.9-71.6-2.1c-60.1,12.4-104.6,95.9-104.6,157.1c0,57.1,38.1,107.6,92.3,124.5c33.7,10.5,65.5-7.5,97.1-0.2
	c30,6.9,32.5,24.6,55.7,41.8C635.7,518.9,786.8,373.9,682.8,266.7z"/>
<circle class="st0" cx="429.6" cy="47.8" r="27.7"/>
<path class="st0" d="M650.1,250.7c-6.4-45.5,19.4-121.4-26.8-143.8c-73-35.3-169.8,53-198.9,92c-38.6,52-34.6,112.5,13.8,157.9
	c48.5,45.4,172.9,64.8,218.5,29.4C702.4,350.9,656.5,296.2,650.1,250.7z"/>
<circle class="st0" cx="757.4" cy="241" r="46"/>
<circle class="st0" cx="256" cy="339.3" r="4.6"/>
<circle class="st0" cx="902.2" cy="185.8" r="5.4"/>
<circle class="st0" cx="758.3" cy="389" r="5.9"/>
<circle class="st0" cx="154.3" cy="243.7" r="4.9"/>
<circle class="st0" cx="179.3" cy="282.6" r="9.6"/>
<circle class="st0" cx="165.8" cy="398.3" r="9.5"/>
<ellipse transform="matrix(0.2417 -0.9704 0.9704 0.2417 502.0218 767.4089)" class="st0" cx="742" cy="62.5" rx="10.7" ry="10.7"/>
<circle class="st0" cx="958.3" cy="105.3" r="4.6"/>
<circle class="st0" cx="927.5" cy="392.7" r="7.2"/>
<circle class="st0" cx="22.3" cy="241.1" r="9.2"/>
<circle class="st0" cx="277.5" cy="409.6" r="13.6"/>
<circle class="st0" cx="205.6" cy="181.5" r="13"/>
<circle class="st0" cx="135.5" cy="365.7" r="5.6"/>
<circle class="st0" cx="853.6" cy="229.9" r="10.8"/>
<circle class="st0" cx="877.2" cy="463.3" r="4.5"/>
<circle class="st0" cx="869.2" cy="357.2" r="18.1"/>
<circle class="st0" cx="970" cy="287.1" r="10.6"/>
<circle class="st0" cx="267.8" cy="138.4" r="5.7"/>
<circle class="st0" cx="269.4" cy="94.2" r="9.7"/>
<circle class="st0" cx="100.4" cy="125.5" r="5.9"/>
<linearGradient id="SVGID_1_" gradientUnits="userSpaceOnUse" x1="500" y1="497.8311" x2="500" y2="686.7633" gradientTransform="matrix(1 0 0 -1 0 842.1102)">
	<stop  offset="0" style="stop-color:#28096A"/>
	<stop  offset="1" style="stop-color:#3C009F"/>
</linearGradient>
<path class="st1" d="M381.9,155.4c9.3,0,16.9,7.6,16.9,16.9v16.9v33.8v16.9c0,7.2,2.9,14,8,19l21.5,21.5c3.5,3.5,8.9,4.1,13,1.4
	c5.4-3.7,6.2-11.3,1.6-15.9l-6.4-6.4l-13.6-13.6c-5.2-5.2-5.2-13.8,0-19c5.2-5.2,13.8-5.2,19,0l13.6,13.6l6.4,6.4l0,0l10.7,10.7
	c8.9,8.9,13.8,21,13.8,33.4V324c0,11.3-9.1,20.2-20.2,20.2h-27.9c-7.2,0-14-2.9-19-8l-42.3-41.9c-7.6-7.6-11.8-17.9-11.8-28.7v-42.9
	v-27v-23.5C365,163,372.6,155.4,381.9,155.4z M618.1,155.4c9.3,0,16.9,7.6,16.9,16.9V196v27v42.9c0,10.7-4.3,21-11.8,28.7L581,336.6
	c-5,5-12,8-19,8h-28.3c-11.3,0-20.2-9.1-20.2-20.2v-33.6c0-12.6,5-24.5,13.8-33.4l10.7-10.7l0,0l6.4-6.4l13.6-13.6
	c5.2-5.2,13.8-5.2,19,0c5.2,5.2,5.2,13.8,0,19l-13.6,13.6l-6.4,6.4c-4.7,4.7-3.9,12.2,1.6,15.9c4.1,2.7,9.5,2.1,13-1.4l21.5-21.5
	c5-5,8-12,8-19v-16.9v-33.8v-16.9C601.2,163,608.8,155.4,618.1,155.4L618.1,155.4z"/>
</svg>
