<?xml version="1.0" encoding="utf-8"?>
<!-- Generator: Adobe Illustrator 27.3.1, SVG Export Plug-In . SVG Version: 6.00 Build 0)  -->
<svg version="1.1" id="Layer_1" xmlns="http://www.w3.org/2000/svg" xmlns:xlink="http://www.w3.org/1999/xlink" x="0px" y="0px"
	 viewBox="0 0 1000 500" style="enable-background:new 0 0 1000 500;" xml:space="preserve">
<style type="text/css">
	.st0{opacity:0.3;fill:#DCE3EF;}
	.st1{fill:url(#SVGID_1_);}
</style>
<g>
	<path class="st0" d="M735.9,171.9c0-64.3-46.6-121.4-109.5-134.4c-67.3-13.8-112.9,37.2-177.2,29.8c-64.8-7.5-118-31.8-163.9,36.3
		c-39,57.8-19.4,126.3,31.6,167.5c26.1,21,54,19.7,70.9,52.9c11,21.5,0.8,53.5,10.8,77.2c25.1,59.6,99.3,79.1,150.5,39.6
		c46.1-35.5,29.6-93.4,71.5-129.9C673.5,264.8,735.9,262.4,735.9,171.9z"/>
	<path class="st0" d="M661.2,143.6c-30.8-79.2-151.9-75.5-211.5-51.4c-59.7,24.1-100.2,75.9-88.2,139.1s84.8,131.9,161.9,118.3
		C600.4,335.9,692,222.8,661.2,143.6z"/>
	<circle class="st0" cx="305.9" cy="387.6" r="3.3"/>
	<circle class="st0" cx="615.5" cy="442" r="4.9"/>
	<circle class="st0" cx="308.7" cy="335.6" r="17.8"/>
	<circle class="st0" cx="34.7" cy="414.5" r="9"/>
	<circle class="st0" cx="228.8" cy="260.3" r="6.1"/>
	<circle class="st0" cx="190.7" cy="361.6" r="5.8"/>
	<circle class="st0" cx="269.8" cy="443.2" r="4.6"/>
	<circle class="st0" cx="717.6" cy="462.6" r="5.4"/>
	<circle class="st0" cx="53" cy="308.5" r="5.9"/>
	<circle class="st0" cx="145.1" cy="398.3" r="9"/>
	<circle class="st0" cx="103.4" cy="137.4" r="12.9"/>
	<circle class="st0" cx="134.9" cy="241" r="9"/>
	<circle class="st0" cx="202.2" cy="211.3" r="11.8"/>
	<circle class="st0" cx="39" cy="124.5" r="5.6"/>
	<circle class="st0" cx="196.7" cy="101" r="7.1"/>
	<circle class="st0" cx="680.1" cy="396.1" r="42.4"/>
	<circle class="st0" cx="911.2" cy="312.1" r="12.9"/>
	<circle class="st0" cx="813.3" cy="195.7" r="16.2"/>
	<circle class="st0" cx="860" cy="112.3" r="11.1"/>
	<circle class="st0" cx="771.6" cy="104.9" r="6.1"/>
	<circle class="st0" cx="949.4" cy="140.6" r="5.7"/>
	<circle class="st0" cx="978.6" cy="281.1" r="7.3"/>
	<circle class="st0" cx="797.3" cy="311.9" r="6.3"/>
	<circle class="st0" cx="894.3" cy="409.9" r="4.6"/>
	<circle class="st0" cx="967.2" cy="372.5" r="5.8"/>
	<circle class="st0" cx="908.6" cy="179" r="6.7"/>
	<circle class="st0" cx="780.5" cy="421.8" r="10.7"/>
</g>
<linearGradient id="SVGID_1_" gradientUnits="userSpaceOnUse" x1="500" y1="497.6177" x2="500" y2="686.6027" gradientTransform="matrix(1 0 0 -1 0 842.1102)">
	<stop  offset="0" style="stop-color:#28096A"/>
	<stop  offset="1" style="stop-color:#3C009F"/>
</linearGradient>
<path class="st1" d="M506.6,182.5c-33,0-61.1,21.7-70.6,51.6c14.2-7.2,30.1-11.3,47.2-11.3h37.1c3.7,0,6.8,3.1,6.8,6.8
	s-3.1,6.8-6.8,6.8h-6.8h-30.3l0,0c-7,0-13.8,0.8-20.4,2.3c-10.9,2.5-21,7-30.1,13l0,0c-24.5,16.3-40.6,44.2-40.6,75.9v6.8
	c0,5.6,4.5,10.1,10.1,10.1c5.6,0,10.1-4.5,10.1-10.1v-6.8c0-20.6,8.7-39,22.7-52c8.3,31.8,37.3,55.3,71.8,55.3h0.4
	c55.7-0.4,100.7-55.1,100.7-122.8c0-18-3.1-35.1-8.9-50.5c-1.2-2.9-5.4-2.7-6.8,0c-8,14.7-23.7,24.8-41.5,24.8H506.6z"/>
</svg>
