<?xml version="1.0" encoding="utf-8"?>
<!-- Generator: Adobe Illustrator 27.3.1, SVG Export Plug-In . SVG Version: 6.00 Build 0)  -->
<svg version="1.1" id="Layer_1" xmlns="http://www.w3.org/2000/svg" xmlns:xlink="http://www.w3.org/1999/xlink" x="0px" y="0px"
	 viewBox="0 0 500 500" style="enable-background:new 0 0 500 500;" xml:space="preserve">
<style type="text/css">
	.st0{opacity:0.3;fill:#DCE3EF;enable-background:new    ;}
	.st1{fill:url(#SVGID_1_);}
</style>
<path class="st0" d="M372,152c-3.4,57.9,85,76.2,102.7,132.7c17.8,56.8-7.5,120.1-59.5,149c-71.1,39.6-108.1-2.6-164.5-36.4
	c-51.3-30.7-69.6,2.6-124.7-0.7c-56.6-3.3-103.2-49.1-106.2-106.1c-4.1-78.7,50.2-95.5,107.6-118.6c62.4-25,55.2-102.9,124.8-119.8
	C314,37.3,375.7,87.9,372,152z"/>
<ellipse transform="matrix(0.9704 -0.2417 0.2417 0.9704 -21.8836 29.1096)" class="st0" cx="107.7" cy="103.8" rx="41" ry="41"/>
<path class="st0" d="M267,94.3c54.4,9.7,141.2,157.1,111,225.5c-30.2,68.4-113.1,49.6-176.1,39.5c-63-10.1-140.2-32.4-142.4-84.7
	s64.6-44,102.8-76.9C200.5,164.8,212.7,84.6,267,94.3z"/>
<circle class="st0" cx="107.7" cy="430.8" r="3.2"/>
<circle class="st0" cx="42.3" cy="45.9" r="5.7"/>
<circle class="st0" cx="186.3" cy="37.2" r="12.4"/>
<circle class="st0" cx="79.2" cy="455.6" r="10.5"/>
<circle class="st0" cx="403.8" cy="62.3" r="5.7"/>
<circle class="st0" cx="445.9" cy="163.7" r="8.8"/>
<circle class="st0" cx="228.2" cy="437.2" r="13.3"/>
<circle class="st0" cx="453.1" cy="466.4" r="8.8"/>
<circle class="st0" cx="471.1" cy="426.4" r="4.5"/>
<linearGradient id="SVGID_1_" gradientUnits="userSpaceOnUse" x1="250" y1="142.0928" x2="250" y2="358.0152" gradientTransform="matrix(1 0 0 -1 0 499.8898)">
	<stop  offset="0" style="stop-color:#28096A"/>
	<stop  offset="1" style="stop-color:#3C009F"/>
</linearGradient>
<path class="st1" d="M331.9,222.9c14.4,0,39.6,12.2,39.6,27c0,15.1-25,27-39.6,27h-49.3L240.3,351c-2.3,4.3-6.8,6.8-11.6,6.8h-23.9
	c-4.5,0-7.8-4.3-6.4-8.5l20.6-72.4h-43.3l-18.2,24.3c-1.4,1.7-3.3,2.7-5.4,2.7h-17.7c-3.3,0-5.8-2.7-5.8-5.8c0-0.6,0-1.2,0.2-1.6
	l13.2-46.4l-13.2-46.4c-0.2-0.6-0.2-1.2-0.2-1.6c0-3.3,2.7-5.8,5.8-5.8H152c2.1,0,4.1,1,5.4,2.7l18.2,24.3h43.5l-20.8-72.6
	c-1.4-4.3,1.9-8.5,6.4-8.5h23.7c4.9,0,9.3,2.5,11.6,6.8l42.3,74.1h49.5V222.9z"/>
</svg>
