<?xml version="1.0" encoding="utf-8"?>
<!-- Generator: Adobe Illustrator 27.3.1, SVG Export Plug-In . SVG Version: 6.00 Build 0)  -->
<svg version="1.1" id="Layer_1" xmlns="http://www.w3.org/2000/svg" xmlns:xlink="http://www.w3.org/1999/xlink" x="0px" y="0px"
	 viewBox="0 0 139.1 94.5" style="enable-background:new 0 0 139.1 94.5;" xml:space="preserve">
<style type="text/css">
	.st0{fill:#86C3CE;}
	.st1{fill:#1AA0DF;}
	.st2{fill:#212E44;}
	.st3{fill:#333F53;}
	.st4{fill:#F3E3D8;}
	.st5{fill:#6D609E;}
	.st6{fill:#FFFFFF;}
	.st7{fill:#313436;}
	.st8{fill:#877EAF;}
	.st9{fill:#000024;}
	.st10{fill:#2F2870;}
	.st11{fill:#FF55CB;}
	.st12{fill:#98C2CB;}
	.st13{fill:#E7957F;}
	.st14{fill:#A087BE;}
	.st15{fill:#AF9ACA;}
	.st16{fill:#9776B1;}
	.st17{fill:#403795;}
	.st18{fill:#F16468;}
	.st19{fill:#F59296;}
	.st20{fill:#5C4E93;}
	.st21{fill:#8B81B2;}
</style>
<g>
	<g>
		<path class="st0" d="M112.8,94H24.6c-0.1,0-0.2-0.1-0.2-0.2s0.1-0.2,0.2-0.2h88.2c0.1,0,0.2,0.1,0.2,0.2S112.9,94,112.8,94z"/>
	</g>
	<g>
		<g>
			<path class="st1" d="M56.6,28c1.8,0.1,7.5,1.3,11.4,4.3c3.9,3.1,9.1,8.8,10.7,14.9c1.5,6.1,0.4,14.3-1.8,16.5
				c-1.7,0-51.9,0-55.2,0c-2.5-0.5-5.4-1.8-4.7-8.5c0.7-6.7,5.8-14.5,10.8-18.4c5-3.9,15.3-8.1,21-8.5C54.4,28,56.6,28,56.6,28z"/>
		</g>
		<g>
			<g>
				<path class="st2" d="M17,56.8C17,56.8,17,56.8,17,56.8c-0.1,0-0.1-0.1-0.1-0.1c0-0.1,2.2-5.7,7.4-5.7c0.1,0,0.2,0,0.4,0
					c0.1,0,0.1,0,0.1,0.1c0,0,0,0.1-0.1,0.1c0,0,0,0,0,0c-0.1,0-0.2,0-0.3,0C19.3,51.2,17.1,56.7,17,56.8
					C17.1,56.8,17.1,56.8,17,56.8z"/>
			</g>
			<g>
				<path class="st2" d="M52.1,31.8c-3.6,0-5.4-1.6-5.5-2.9c0-0.1,0-0.1,0.1-0.1c0.1,0,0.1,0,0.1,0.1c0.1,1.3,2.1,3,6.2,2.7
					c4.3-0.3,5.8-2.2,6.1-2.9c0,0,0.1-0.1,0.1-0.1c0,0,0.1,0.1,0.1,0.1c-0.3,1.1-2.2,2.7-6.2,3C52.6,31.8,52.3,31.8,52.1,31.8z"/>
			</g>
			<g>
				<path class="st2" d="M38.3,48.4C38.2,48.4,38.2,48.4,38.3,48.4c-0.2-1.2-2.1-9.6-3.9-12.4c0,0,0-0.1,0-0.1c0,0,0.1,0,0.1,0
					C36.3,38.8,38.3,47.3,38.3,48.4C38.4,48.4,38.3,48.4,38.3,48.4C38.3,48.4,38.3,48.4,38.3,48.4z"/>
			</g>
			<g>
				<path class="st2" d="M75.9,52C75.9,52,75.9,52,75.9,52c-2.2-0.5-9-1.3-15.1-0.7c-0.1,0-0.1,0-0.1-0.1c0-0.1,0-0.1,0.1-0.1
					c6.1-0.5,13,0.2,15.2,0.7C76,51.8,76,51.9,75.9,52C76,52,75.9,52,75.9,52z"/>
			</g>
			<g>
				<path class="st2" d="M62.7,51.1C62.7,51.1,62.7,51.1,62.7,51.1c-0.1,0-0.1,0-0.1-0.1c0.2-2,1.1-12.1,2.9-16.2c0,0,0.1-0.1,0.1,0
					c0,0,0.1,0.1,0,0.1C63.9,39,63,49.1,62.7,51.1C62.8,51.1,62.7,51.1,62.7,51.1z"/>
			</g>
		</g>
		<g>
			<g>
				<path class="st3" d="M52.9,7.4c0.3,0,1.1-0.6,2-0.8c0.9-0.2,2.1,0,2.3,0.8c0.2,0.9,0.1,1.5,0.5,1.7c0.4,0.1,1.2-0.2,2-0.1
					c0.8,0.1,1.4,0.5,1.6,1.4c0.2,0.9-0.2,1.8-0.5,2.1c-0.3,0.3-0.8,0.7-0.8,1c0,0.3,0.7,0.9,0.7,1.8c-0.1,0.9-0.7,2.1-2,2.2
					c-1.3,0.1-9.5,4.3-9.5,4.3s-0.1,2-2.4,2c-2.3,0.1-2.7-0.8-2.6-1.3c0.1-0.4,0.9-1,0.6-1.7c-0.3-0.6-1.4-1.4-2-3.3
					c-0.6-1.9,1.2-3.7,2-4.3c0.9-0.6,0.8-2.4,0.8-3.6c0-1.2,1-3.1,3.5-3.5C51.5,5.9,52.1,7.3,52.9,7.4z"/>
			</g>
			<g>
				<path class="st4" d="M49.6,16.8c0,0,0-1.4-0.1-2.4c-0.1-0.9-1.8-0.9-2.5-0.4c-0.7,0.5-1.3,1.7-0.8,2.8c0.4,1.1,1.5,1.3,1.5,1.3
					s0.4,1.7,0.6,3.1c0.1,1.4,0.1,4.9,0.1,6.1c0,1.2-0.4,1.8-0.4,1.8s2,1.7,5.2,1.4c3.2-0.3,4.8-1.9,4.8-1.9s-0.6-1.2-0.7-2.8
					c-0.1-1.6-0.2-3.9-0.2-3.9s1.1-0.6,1.4-2.6c0.4-2.1,0.6-4.6-0.1-6.2c-0.7-1.6-2-2.3-3.2-2.6c-1.1-0.3-1.8-0.2-1.8-0.2
					s-1.6,0.8-2.2,2.5c-0.6,1.7-0.7,3.1-0.6,4L49.6,16.8z"/>
			</g>
			<g>
				<path class="st5" d="M48.6,17C48.6,17,48.5,17,48.6,17c-0.1-0.1-0.6-1.3-1.2-1.9c0,0,0-0.1,0-0.1c0,0,0.1,0,0.1,0
					c0.6,0.7,1.1,1.9,1.1,1.9C48.7,16.9,48.7,17,48.6,17C48.6,17,48.6,17,48.6,17z"/>
			</g>
			<g>
				<path class="st5" d="M47.8,18.3C47.8,18.3,47.8,18.3,47.8,18.3c-0.1,0-0.2,0-0.2-0.1c0-0.1,0-0.1,0.1-0.1c0,0,0,0,0.1,0
					c0.7,0,1-0.3,1.2-0.5c0,0,0.1,0,0.1,0c0,0,0,0.1,0,0.1C49,18,48.6,18.3,47.8,18.3z"/>
			</g>
			<g>
				<path class="st5" d="M57.8,17.2c-0.3,0-0.8-0.1-1.1-0.2c0,0-0.1-0.1-0.1-0.1c0,0,0.1-0.1,0.1-0.1c0.6,0.2,1.1,0.3,1.2,0.2
					c0.1-0.2-0.7-1.2-1-1.7c-0.1-0.1-0.2-0.2-0.2-0.3c0,0,0-0.1,0-0.1c0,0,0.1,0,0.1,0c0.1,0.1,0.1,0.2,0.2,0.3c0.7,1,1.1,1.6,1,1.8
					C58.1,17.2,58,17.2,57.8,17.2z"/>
			</g>
			<g>
				<path class="st6" d="M53.9,17.8c0.2-0.4,2.3,0.2,2.8,0.4c0.5,0.2,0.8,0.6,0.4,1c-0.4,0.4-1.3,0.7-2.2,0.4
					C54.1,19.3,53.7,18.2,53.9,17.8z"/>
				<path class="st5" d="M55.6,19.8c-0.2,0-0.5,0-0.8-0.1c-0.5-0.2-0.9-0.6-1-1c-0.1-0.4-0.1-0.7,0-0.9v0c0.3-0.5,2.8,0.3,2.9,0.4
					c0.3,0.1,0.6,0.3,0.6,0.6c0,0.1,0,0.4-0.2,0.6C56.8,19.5,56.3,19.8,55.6,19.8z M54,17.8L54,17.8c-0.1,0.2-0.1,0.4,0,0.7
					c0.1,0.4,0.4,0.8,0.9,0.9c0.9,0.3,1.7,0,2.1-0.4c0.1-0.1,0.2-0.3,0.2-0.4c0-0.2-0.2-0.4-0.5-0.4C55.7,17.9,54.2,17.6,54,17.8z"
					/>
			</g>
			<g>
				<path class="st2" d="M52.7,13c-0.1,0-0.1,0-0.2-0.1c0-0.1,0-0.2,0.1-0.2c0.6-0.2,1.7-0.4,2.6-0.1c0.1,0,0.1,0.1,0.1,0.2
					c0,0.1-0.1,0.2-0.2,0.1C54,12.5,52.9,12.9,52.7,13C52.7,13,52.7,13,52.7,13z"/>
			</g>
			<g>
				<path class="st2" d="M58.6,13.5c-0.1,0-0.1,0-0.1-0.1c-0.2-0.3-0.9-0.5-1.3-0.4c-0.1,0-0.2,0-0.2-0.1c0-0.1,0-0.2,0.1-0.2
					c0.6-0.2,1.3,0.1,1.7,0.5c0.1,0.1,0.1,0.2,0,0.3C58.7,13.5,58.7,13.5,58.6,13.5z"/>
			</g>
			<g>
				<path class="st5" d="M53.6,23.2c-0.2,0-0.4,0-0.5,0c-1.4-0.1-2.9-0.7-3.3-1c0,0,0-0.1,0-0.1s0.1,0,0.1,0c0.4,0.3,1.9,0.9,3.2,1
					c1.5,0.1,2.9-0.3,3.9-1.2c0,0,0.1,0,0.1,0c0,0,0,0.1,0,0.1C56.2,22.8,54.9,23.2,53.6,23.2z"/>
			</g>
			<g>
				<g>
					<g>
						<g>
							<path class="st7" d="M54.3,15.2c-0.2,0-0.2-0.1-0.2-0.4c0-0.2,0.1-0.3,0.3-0.3c0.2,0,0.2,0.1,0.2,0.4
								C54.5,15.1,54.4,15.3,54.3,15.2z"/>
						</g>
					</g>
				</g>
			</g>
			<g>
				<g>
					<g>
						<g>
							<path class="st7" d="M58.1,15.4c-0.2,0-0.2-0.1-0.2-0.4c0-0.2,0.1-0.3,0.3-0.3c0.2,0,0.2,0.1,0.2,0.4
								C58.4,15.3,58.3,15.5,58.1,15.4z"/>
						</g>
					</g>
				</g>
			</g>
			<g>
				<g>
					<g>
						<g>
							<g>
								<g>
									<path class="st8" d="M52.4,17.9c-0.5,0-0.7-0.4-0.6-1.1c0.1-0.7,0.3-1,0.8-1c0.5,0,0.7,0.4,0.6,1.1
										C53.1,17.6,52.9,17.9,52.4,17.9z"/>
								</g>
							</g>
						</g>
					</g>
				</g>
			</g>
			<g>
				<path class="st9" d="M47.9,12.2C47.9,12.2,47.8,12.2,47.9,12.2c-0.1-0.1-0.1-0.1-0.1-0.1c0.2-0.3,0.2-0.7,0.2-1.1
					c0-0.7-0.1-1.5,0.7-2.1c1.3-0.9,3.1-0.1,3.4,0.4c0,0,0,0.1,0,0.1c0,0-0.1,0-0.1,0c-0.3-0.4-2-1.2-3.2-0.3
					c-0.7,0.5-0.6,1.2-0.6,1.9C48.2,11.4,48.2,11.9,47.9,12.2C47.9,12.2,47.9,12.2,47.9,12.2z"/>
			</g>
			<g>
				<path class="st9" d="M57.5,9.9c-0.4,0-1.1-0.1-1.2-1c-0.1-0.4-0.3-0.7-0.7-0.9C55.3,8,54.8,8,54.5,8.2c0,0-0.1,0-0.1,0
					c0,0,0-0.1,0-0.1c0.3-0.3,0.9-0.3,1.3-0.1c0.4,0.2,0.7,0.5,0.8,1c0.1,0.8,0.7,0.8,1.2,0.8l0,0c0,0,0,0,0,0c0,0,0.1,0,0.1,0.1
					c0,0.1,0,0.1-0.1,0.1l0,0C57.7,9.9,57.6,9.9,57.5,9.9z"/>
			</g>
			<g>
				<path class="st9" d="M59.3,13.9C59.3,13.9,59.3,13.9,59.3,13.9c-0.3-0.7,0.1-1.4,0.3-1.8c0-0.1,0.1-0.1,0.1-0.2
					c0.2-0.4,0.4-1-0.1-1.3c0,0-0.1-0.1,0-0.1s0.1-0.1,0.1,0c0.5,0.3,0.5,0.9,0.1,1.6c0,0.1-0.1,0.1-0.1,0.2c-0.3,0.4-0.6,1-0.4,1.6
					C59.5,13.8,59.4,13.9,59.3,13.9C59.4,13.9,59.4,13.9,59.3,13.9z"/>
			</g>
			<g>
				<path class="st9" d="M46.2,21C46.1,21,46.1,21,46.2,21c-0.1,0-0.1-0.1-0.1-0.1c0.2-0.7-0.5-1.5-1-2.1c-0.4-0.4-1.1-1.4-1-2.4
					c0-0.5,0.3-0.8,0.7-1.1c0,0,0.1,0,0.1,0c0,0,0,0.1,0,0.1c-0.3,0.2-0.5,0.6-0.6,1c-0.1,0.8,0.5,1.8,0.9,2.2
					C45.8,19.3,46.5,20.2,46.2,21C46.2,21,46.2,21,46.2,21z"/>
			</g>
		</g>
		<g>
			<path class="st6" d="M60.6,63.5H44.7c-0.5,0-0.8-0.4-0.8-0.8V41.9c0-0.5,0.4-0.8,0.8-0.8h15.9c0.5,0,0.8,0.4,0.8,0.8v20.8
				C61.5,63.1,61.1,63.5,60.6,63.5z"/>
			<path class="st2" d="M60.6,63.8H44.7c-0.7,0-1.2-0.5-1.2-1.2V41.9c0-0.7,0.5-1.2,1.2-1.2h15.9c0.7,0,1.2,0.5,1.2,1.2v20.8
				C61.8,63.3,61.3,63.8,60.6,63.8z M44.7,41.4c-0.2,0-0.5,0.2-0.5,0.5v20.8c0,0.2,0.2,0.5,0.5,0.5h15.9c0.2,0,0.5-0.2,0.5-0.5V41.9
				c0-0.2-0.2-0.5-0.5-0.5H44.7z"/>
		</g>
		<g>
			<path class="st4" d="M24.7,51.1c1.3-0.5,7.9-0.7,7.9-0.7s2.8-2.3,5.6-2.8c2.8-0.6,5.4,0,6.6,0.7c1.2,0.8,1.2,2.3,0.9,2.8
				c-0.3,0.5-1,1.2-1,1.2s0.9,0.7,0.7,1.7c-0.2,1-1.3,1.8-1.3,1.8s1.5,0.5,1.2,1.8C45,58.9,44,59,43.6,59c-0.4,0-1.7-0.7-1.7-0.7
				s-0.7,2.1-1.7,3.5c-1.1,1.5-1.5,2-2.6,2.1C36.5,64,24.2,64.4,21.7,64c-2.5-0.4-3.9-2.3-3.9-2.3s0.4-3.3,2.1-6
				C21.6,52.9,24.7,51.1,24.7,51.1z"/>
		</g>
		<g>
			<g>
				<path class="st10" d="M54.6,58.4c0,0.6-0.2,1-0.5,1.4c-0.3,0.4-0.8,0.6-1.4,0.6c-0.5,0-1-0.2-1.3-0.6c-0.3-0.4-0.5-0.9-0.5-1.4
					c0-0.5,0.2-1,0.5-1.4c0.3-0.4,0.8-0.6,1.3-0.6c0.6,0,1,0.2,1.4,0.6C54.4,57.4,54.6,57.9,54.6,58.4z M51,54.9V44.5h3.4v10.3H51z"
					/>
			</g>
		</g>
		<g>
			<path class="st5" d="M44.7,52.4C44.6,52.4,44.6,52.3,44.7,52.4C43.5,51,41,49,38,50.1c0,0-0.1,0-0.1-0.1c0,0,0-0.1,0.1-0.1
				c3.1-1.2,5.7,0.9,6.8,2.2C44.8,52.2,44.8,52.3,44.7,52.4C44.7,52.3,44.7,52.4,44.7,52.4z"/>
		</g>
		<g>
			<path class="st5" d="M44.1,55.8C44.1,55.8,44,55.8,44.1,55.8c-0.2-0.1-0.3-0.2-0.4-0.3c-1.2-1.1-3-2.7-4.6-2.1
				c-1.8,0.7-2.7,1.2-2.7,1.3c0,0-0.1,0-0.1,0c0,0,0-0.1,0-0.1c0,0,1-0.6,2.8-1.3c1.7-0.6,3.6,1,4.8,2.1c0.1,0.1,0.2,0.2,0.3,0.3
				C44.2,55.7,44.2,55.8,44.1,55.8C44.1,55.8,44.1,55.8,44.1,55.8z"/>
		</g>
		<g>
			<path class="st5" d="M45.3,51.1C45.3,51.1,45.3,51.1,45.3,51.1c-0.9-0.4-2.5-2.2-2.1-3.2c0,0,0.1-0.1,0.1-0.1
				c0,0,0.1,0.1,0.1,0.1c-0.3,0.9,1.2,2.7,2,3C45.4,50.9,45.4,51,45.3,51.1C45.4,51.1,45.3,51.1,45.3,51.1z"/>
		</g>
		<g>
			<path class="st5" d="M44.8,54.8C44.7,54.8,44.7,54.7,44.8,54.8c-1.6-1.2-2.1-2.3-1.4-3.5c0,0,0.1-0.1,0.1,0c0,0,0.1,0.1,0,0.1
				c-0.6,1.1-0.2,2.2,1.3,3.3C44.9,54.6,44.9,54.7,44.8,54.8C44.8,54.7,44.8,54.8,44.8,54.8z"/>
		</g>
		<g>
			<path class="st5" d="M44.7,58.2C44.7,58.2,44.7,58.2,44.7,58.2c-0.7-0.5-2-2-1.5-3c0,0,0.1-0.1,0.1,0c0,0,0.1,0.1,0,0.1
				c-0.4,0.9,0.8,2.4,1.4,2.8C44.8,58.1,44.8,58.2,44.7,58.2C44.8,58.2,44.7,58.2,44.7,58.2z"/>
		</g>
		<g>
			<path class="st5" d="M28.8,54.1C28.8,54.1,28.8,54.1,28.8,54.1c-0.1,0-0.1-0.1-0.1-0.1c0,0,1.3-1.9,3.8-3.6c0,0,0.1,0,0.1,0
				c0,0,0,0.1,0,0.1C30.1,52.1,28.9,54,28.8,54.1C28.9,54.1,28.8,54.1,28.8,54.1z"/>
		</g>
	</g>
	<g>
		<g>
			<path class="st6" d="M116.6,68v15.9c0,0.5-0.4,0.8-0.8,0.8H95c-0.5,0-0.8-0.4-0.8-0.8V68c0-0.5,0.4-0.8,0.8-0.8h20.8
				C116.2,67.2,116.6,67.6,116.6,68z"/>
			<path class="st2" d="M115.8,85.1H95c-0.7,0-1.2-0.5-1.2-1.2V68c0-0.7,0.5-1.2,1.2-1.2h20.8c0.7,0,1.2,0.5,1.2,1.2v15.9
				C117,84.6,116.4,85.1,115.8,85.1z M95,67.6c-0.2,0-0.5,0.2-0.5,0.5v15.9c0,0.2,0.2,0.5,0.5,0.5h20.8c0.2,0,0.5-0.2,0.5-0.5V68
				c0-0.2-0.2-0.5-0.5-0.5H95z"/>
		</g>
		<g>
			<rect x="98.8" y="71.3" class="st10" width="14.2" height="0.4"/>
		</g>
		<g>
			<rect x="98.8" y="75.3" class="st10" width="14.2" height="0.4"/>
		</g>
		<g>
			<rect x="98.8" y="79.4" class="st10" width="14.2" height="0.4"/>
		</g>
	</g>
	<g>
		<g>
			<path class="st11" d="M103.5,10.1c0,0-3.2-1.1-4.7,0.6s-1.4,2.9-1.9,3.6c-0.5,0.7-2.5,1.7-3.1,2.8c-0.6,1.1-0.7,2.5-1.2,3.5
				c-0.5,1-1.9,1.7-2.9,2.4c-1,0.7-1.6,2.1-1.7,3.2c-0.1,1.1-0.1,1.8-1.1,2.5c-1,0.6-1.4,2.6-0.7,3.9C86.9,33.9,119,33,119,33
				s1.3-2.2,0.9-4.5c-0.4-2.3-1.6-3.1-2.4-3.6c-0.8-0.5-0.1-1.7-1-2.6c-0.9-0.8-1.4-0.9-1.1-1.7c0.3-0.9,0.7-2.5-0.4-3.9
				c-1.1-1.3-2.9-1.2-3.5-2.1c-0.5-0.9-0.5-2.4-2.5-3.9C106.1,8.7,103.5,10.1,103.5,10.1z"/>
		</g>
		<g>
			<path class="st12" d="M121.9,36.6C121.9,36.6,121.9,36.6,121.9,36.6c-0.1-0.1-0.1-0.1-0.1-0.2c0.6-0.5,0.9-1.2,0.7-1.9
				c-0.1-0.5-0.4-0.9-0.8-1.1c-0.8-0.3-1.4-0.9-1.5-1.6c-0.1-0.4,0-0.8,0.2-1c0.4-0.5,1.7-2,1.1-3.9c-0.6-1.7-2.9-2.7-4.1-3.1
				l-0.1,0c-1.2-0.5-2.4-1.5-1.9-2.8c0.4-1.3,0.6-2.5,0.4-3.5c-0.2-1.1-1.6-2.1-2.8-2.3c-1.1-0.2-2.1-1-2.9-2.5c0,0,0-0.1,0-0.1
				c0,0,0.1,0,0.1,0c0.8,1.4,1.7,2.2,2.8,2.4c1.2,0.2,2.8,1.3,3,2.5c0.2,1,0,2.3-0.4,3.6c-0.4,1.2,0.7,2.1,1.8,2.5l0.1,0
				c1.3,0.5,3.6,1.4,4.2,3.3c0.6,2-0.7,3.6-1.1,4.1c-0.3,0.3-0.2,0.6-0.2,0.9c0.1,0.6,0.7,1.2,1.4,1.4c0.5,0.2,0.8,0.6,0.9,1.2
				C122.9,35.3,122.6,36.1,121.9,36.6C122,36.6,122,36.6,121.9,36.6z"/>
		</g>
		<g>
			<path class="st12" d="M84.5,34.4C84.5,34.4,84.5,34.4,84.5,34.4c-1.3-0.4-2.1-2-2-3.5c0.1-1.5,1.6-2,2.7-2.4l0.2-0.1
				c1.1-0.4,1-1.8,0.8-2.5c-0.3-0.9-0.3-2.2,0.9-3.4c0.7-0.7,1.6-0.8,2.4-0.9c0.4,0,0.9-0.1,1.3-0.2c1.2-0.4,1.5-1,1.5-2.3
				c0.1-1.5,0.9-2.4,1.5-3c0.4-0.4,0.9-0.5,1.4-0.7c0.6-0.2,1.2-0.4,1.7-0.9c0,0,0.1,0,0.1,0c0,0,0,0.1,0,0.1
				c-0.5,0.5-1.1,0.7-1.7,0.9c-0.5,0.2-1,0.3-1.4,0.7C93,17,92.6,17.8,92.5,19c-0.1,1.3-0.4,2-1.7,2.5c-0.5,0.1-0.9,0.2-1.4,0.2
				c-0.8,0.1-1.6,0.2-2.3,0.9c-1.1,1.1-1.1,2.4-0.8,3.2c0.3,1.1,0.2,2.4-0.9,2.8l-0.2,0.1c-1,0.4-2.4,0.9-2.6,2.3
				c-0.1,1.4,0.7,2.9,1.8,3.3C84.6,34.2,84.6,34.3,84.5,34.4C84.6,34.3,84.5,34.4,84.5,34.4z"/>
		</g>
		<g>
			<path class="st13" d="M107,27.6c4.3,0.5,10.3,1.4,12.6,4.4c2.2,2.9,4.3,7.2,5,13.6c0.7,6.3,1.8,11.5-0.8,15
				c-3,4-8.7,2.8-11.4,2.9s-21.1,0.3-24.3,0c-3.2-0.2-8.7-0.9-9.2-7.4c-0.5-5.8,0.5-9.5,2.3-15c1.8-5.5,4.1-8.7,7.2-10.4
				s12-3.2,12-3.2L107,27.6z"/>
		</g>
		<g>
			<path class="st9" d="M94.6,49.8C94.6,49.8,94.6,49.8,94.6,49.8c-2-0.2-8.7-0.1-10.9,0c0,0-0.1,0-0.1-0.1c0-0.1,0-0.1,0.1-0.1
				c2.2-0.1,8.9-0.2,10.9,0C94.7,49.7,94.7,49.7,94.6,49.8C94.7,49.8,94.7,49.8,94.6,49.8z"/>
		</g>
		<g>
			<path class="st9" d="M93,49.7C93,49.7,93,49.7,93,49.7C93,49.7,92.9,49.7,93,49.7c-0.1-0.2,0.2-8.8,0.2-11.8c0-0.1,0-0.1,0.1-0.1
				s0.1,0,0.1,0.1C93.5,40.9,93.1,49.5,93,49.7C93.1,49.7,93.1,49.7,93,49.7z"/>
		</g>
		<g>
			<path class="st9" d="M113.5,51C113.5,51,113.5,51,113.5,51C113.5,51,113.4,51,113.5,51c-0.1-0.2,0.2-9.6,0.8-13.2
				c0,0,0.1-0.1,0.1-0.1c0.1,0,0.1,0.1,0.1,0.1C113.9,41.4,113.6,50.8,113.5,51C113.6,51,113.6,51,113.5,51z"/>
		</g>
		<g>
			<path class="st9" d="M120.3,51.1C120.3,51.1,120.3,51.1,120.3,51.1c-2.3,0-8.9-0.1-9.9-0.1c-0.1,0-0.1,0-0.1-0.1s0-0.1,0.1-0.1
				c1,0,7.6,0.1,9.9,0.1C120.4,50.9,120.4,51,120.3,51.1C120.4,51.1,120.4,51.1,120.3,51.1z"/>
		</g>
		<g>
			<g>
				<path class="st4" d="M102.8,12c0,0-0.5,1.6-1.9,3.1c-1.4,1.5-3,2.8-3,2.8s-0.5,2.2-0.3,3.7c0.2,1.5,2.5,2.7,3,2.8l-0.5,4.2
					l4,8.8l3.7-9.3l-0.8-0.4l1-5.4c0,0,0.3,0.7,1.7,0c1.4-0.7,1.8-2,1.1-2.7c-0.7-0.7-2.6,0.8-2.6,0.8s-0.5-1.7-1-2.3
					c-0.5-0.7-1.7-1.7-2.4-2.8C104.2,14.1,102.8,12,102.8,12z"/>
			</g>
			<g>
				<path class="st5" d="M101.4,19.2C101.4,19.2,101.4,19.2,101.4,19.2c-0.4,0-1.4-0.1-1.5-0.3c0,0,0-0.1,0-0.1
					c0-0.1,0.1-0.2,0.3-0.4c0.3-0.2,0.7-0.6,0.8-1.1c0.3-0.8-0.1-2.1-0.1-2.3c0,0,0-0.1,0.1-0.1c0.1,0,0.1,0,0.1,0.1
					c0.1,0.3,0.5,1.6,0.1,2.4c-0.2,0.5-0.6,0.9-0.9,1.1c-0.1,0.1-0.2,0.2-0.2,0.2c0.2,0.1,0.8,0.2,1.3,0.2
					C101.5,19,101.5,19.1,101.4,19.2C101.5,19.2,101.5,19.2,101.4,19.2z"/>
			</g>
			<g>
				<path class="st2" d="M105.9,17.8C105.9,17.8,105.9,17.8,105.9,17.8c-0.1-0.4-0.5-1.1-1.4-1.2c-0.8-0.1-1.1,0.6-1.3,1.1l0,0
					c0,0-0.1,0.1-0.1,0c0,0-0.1-0.1,0-0.1l0,0c0.2-0.5,0.6-1.3,1.5-1.2c0.9,0.1,1.4,0.8,1.5,1.2C106,17.8,106,17.8,105.9,17.8
					C106,17.8,106,17.8,105.9,17.8z"/>
			</g>
			<g>
				<path class="st2" d="M98.8,17.4C98.8,17.4,98.8,17.4,98.8,17.4c-0.1,0-0.1-0.1-0.1-0.1c0,0,0.3-0.9,1-0.9c0.7,0,1.1,0.4,1.2,0.8
					c0,0,0,0.1-0.1,0.1c0,0-0.1,0-0.1-0.1c-0.2-0.5-0.5-0.7-1-0.7C99.2,16.5,98.9,17.3,98.8,17.4C98.9,17.3,98.9,17.4,98.8,17.4z"/>
			</g>
			<g>
				<path class="st12" d="M104.7,15.1C104.7,15.1,104.6,15.1,104.7,15.1c-0.4-0.1-1.3-0.1-1.5,0c-0.1,0-0.2,0-0.2-0.1
					c0-0.1,0-0.2,0.1-0.2c0.3-0.1,1.2-0.1,1.7,0c0.1,0,0.1,0.1,0.1,0.2C104.8,15.1,104.7,15.1,104.7,15.1z"/>
			</g>
			<g>
				<path class="st5" d="M101.1,20.5c-0.1,0-0.2-0.1-0.2-0.2c0-0.1,0-0.2,0.2-0.3c0.7-0.2,2.2-0.5,2.2-0.5l0.1,0.5
					C103.4,20.1,101.9,20.4,101.1,20.5C101.2,20.5,101.1,20.5,101.1,20.5z"/>
			</g>
			<g>
				<path class="st5" d="M101.8,24.5c-0.4,0-0.8,0-1.2-0.1c0,0-0.1-0.1-0.1-0.1c0,0,0.1-0.1,0.1-0.1c1.3,0.3,2.8,0,3.4-0.3
					c0,0,0.1,0,0.1,0s0,0.1,0,0.1C103.6,24.3,102.7,24.5,101.8,24.5z"/>
			</g>
			<g>
				<path class="st5" d="M108.9,21.1C108.9,21.1,108.9,21.1,108.9,21.1c-0.1-0.1-0.1-0.1-0.1-0.2c0,0,0.8-0.6,1.3-0.8
					c0,0,0.1,0,0.1,0.1c0,0,0,0.1-0.1,0.1C109.7,20.5,109,21.1,108.9,21.1C109,21.1,108.9,21.1,108.9,21.1z"/>
			</g>
			<g>
				<g>
					<g>
						<g>
							<g>
								<g>
									<path class="st8" d="M105.2,21.1c-0.5-0.1-0.8-0.5-0.7-1.3c0.1-0.8,0.4-1.2,1-1.1c0.5,0.1,0.8,0.5,0.7,1.3
										C106.1,20.8,105.8,21.2,105.2,21.1z"/>
								</g>
							</g>
						</g>
					</g>
				</g>
			</g>
			<g>
				<g>
					<g>
						<g>
							<g>
								<g>
									<path class="st8" d="M98.5,20.8c-0.5-0.1-0.8-0.5-0.7-1.3s0.4-1.2,1-1.1c0.5,0.1,0.8,0.5,0.7,1.3
										C99.4,20.5,99,20.9,98.5,20.8z"/>
								</g>
							</g>
						</g>
					</g>
				</g>
			</g>
		</g>
		<g>
			<path class="st14" d="M108.3,63.6h-8.6c-0.8,0-1.5-0.7-1.5-1.5v-15c0-0.2,0.2-0.3,0.3-0.3h10.8c0.2,0,0.3,0.2,0.3,0.3v15
				C109.8,62.9,109.1,63.6,108.3,63.6z"/>
		</g>
		<g>
			<path class="st4" d="M95.9,49.7l2.4,0v2c0,0,0.9,0.1,2.7,0.1c1.8,0,2.7,0,3.7,0c1.1,0,2,0.5,2,1.8c0,1.3-1.7,1.6-1.7,1.6
				s2.3-0.4,2.6,0.7c0.2,1.1-0.2,2.3-2,2.7c0,0,1.1-0.1,1.2,0.9c0.1,1-0.4,2-2,2.6c-1.6,0.6-5.2,1.2-7.8,1.3c-1.1,0-3.1,0-3.1,0
				s-1.1-2.5-1-6.3c0.1-3.8,1.8-7.5,1.8-7.5L95.9,49.7z"/>
		</g>
		<g>
			<path class="st14" d="M109.7,60v-2c1.6,0,2.9-1.3,2.9-2.9c0-1.6-1.3-2.9-2.9-2.9v-2c2.7,0,4.9,2.2,4.9,4.9
				C114.6,57.8,112.4,60,109.7,60z"/>
		</g>
		<g>
			<path class="st9" d="M104.3,39.2c-0.5,0-1-0.7-1.4-1.6c-0.6-1-3.9-8.3-3.9-9.1c0-0.1,0-0.1,0.1-0.1c0,0,0.1,0,0.1,0.1
				c0.1,0.8,3.4,8,3.9,9c0.6,1,0.9,1.6,1.4,1.4c0.4-0.1,0.9-1.6,1.4-3c0.2-0.5,0.3-0.9,0.5-1.4c0.5-1.3,1.3-3.5,1.8-4.9
				c0.3-0.7,0.4-1.3,0.5-1.4c0,0,0.1-0.1,0.1-0.1s0.1,0.1,0.1,0.1c-0.1,0.2-0.3,0.7-0.5,1.4c-0.5,1.4-1.3,3.6-1.8,4.9
				c-0.2,0.4-0.3,0.9-0.5,1.4c-0.7,1.8-1.1,3-1.5,3.1C104.4,39.2,104.4,39.2,104.3,39.2z"/>
		</g>
		<g>
			<path class="st5" d="M101.2,55.7c-0.2,0-0.3,0-0.3,0c-0.1,0-0.1-0.1-0.1-0.1c0-0.1,0.1-0.1,0.1-0.1c0.3,0,2.8,0,4.1-0.2
				c0,0,0.1,0,0.1,0.1c0,0.1,0,0.1-0.1,0.1C103.9,55.6,102,55.7,101.2,55.7z"/>
		</g>
		<g>
			<path class="st5" d="M101.9,59.4C101.9,59.4,101.8,59.3,101.9,59.4c-0.1-0.1-0.1-0.2,0-0.2c0.6,0,2.2-0.3,3.6-0.5
				c0.1,0,0.1,0,0.1,0.1c0,0.1,0,0.1-0.1,0.1C104.1,59.1,102.5,59.3,101.9,59.4C101.9,59.4,101.9,59.4,101.9,59.4z"/>
		</g>
		<g>
			<g>
				<path class="st2" d="M105,53.9c0,0.8,0.6,1.2,0.6,1.2l0.1,0c0.5-0.2,1-0.6,1-1.4c0-0.6-0.2-1.1-0.5-1.3l-0.1,0
					C105.5,52.5,105,53.2,105,53.9z"/>
			</g>
			<g>
				<path class="st2" d="M107,55.5c-0.4,0-0.9,0.1-1.2,0.3c-0.3,0.3-0.6,1.6-0.2,2.1c0.3,0.4,0.8,0.4,1,0.4c0.8-0.6,1-1.4,0.8-2.2
					C107.4,55.8,107.3,55.6,107,55.5z"/>
			</g>
			<g>
				<path class="st2" d="M106.7,59.7c0-0.5-0.4-0.8-0.7-0.9c-0.3,0.1-0.5,0.4-0.6,0.9c-0.1,0.6,0.2,1.4,0.8,1.7
					C106.6,60.9,106.7,60.3,106.7,59.7z"/>
			</g>
		</g>
	</g>
	<g>
		<path class="st0" d="M134.6,63.9H11.2c-0.1,0-0.2-0.1-0.2-0.2s0.1-0.2,0.2-0.2h123.3c0.1,0,0.2,0.1,0.2,0.2S134.7,63.9,134.6,63.9
			z"/>
	</g>
	<g>
		<g>
			<path class="st15" d="M78.1,22.5h-5v-1.6c0-1.3,0.2-2.5,0.7-3.3c0.5-0.9,1.1-1.7,1.9-2.5l0.6-0.7c0.4-0.4,0.7-0.8,0.9-1.2
				c0.3-0.4,0.4-0.9,0.4-1.4c0-0.8-0.2-1.5-0.5-1.9c-0.3-0.5-0.9-0.7-1.6-0.7c-0.4,0-0.8,0.1-1.1,0.3c-0.3,0.2-0.6,0.5-0.7,0.8
				c-0.2,0.3-0.3,0.6-0.5,1c-0.1,0.4-0.2,0.7-0.2,1l-5-0.9c0.1-1,0.4-1.9,0.7-2.8c0.4-0.9,0.9-1.7,1.5-2.4c0.6-0.7,1.4-1.2,2.3-1.6
				c0.9-0.4,2-0.6,3.2-0.6c2.2,0,4,0.6,5.4,1.9c1.3,1.3,2,3.1,2,5.5c0,0.8-0.1,1.5-0.3,2.2c-0.2,0.6-0.4,1.2-0.7,1.8
				c-0.3,0.5-0.7,1-1.1,1.5c-0.4,0.5-0.9,0.9-1.4,1.4c-0.7,0.6-1.1,1.1-1.3,1.6c-0.2,0.5-0.3,1-0.3,1.7V22.5z M79.1,28.5
				c0,1-0.3,1.8-0.9,2.4c-0.6,0.7-1.4,1-2.3,1c-1,0-1.7-0.3-2.3-1c-0.6-0.7-0.9-1.5-0.9-2.4c0-0.9,0.3-1.8,0.9-2.4
				c0.6-0.7,1.4-1,2.3-1c1,0,1.7,0.3,2.3,1C78.8,26.8,79.1,27.6,79.1,28.5z"/>
		</g>
	</g>
	<g>
		<g>
			<path class="st4" d="M64.4,49.8c-0.9-0.5-2.9-0.6-3.4,1.1c-0.5,1.8,1.2,3.1,1.9,3.4c0.7,0.3,1.7,0.2,1.7,0.2L64.4,49.8z"/>
		</g>
		<g>
			<path class="st4" d="M75.1,50.5c0.5-0.2,2.1-0.6,2.4,1c0.3,1.6-0.9,3-1.7,3.3C75,55,74.5,55,74.5,55L75.1,50.5z"/>
		</g>
		<g>
			<path class="st4" d="M65,56.1c-0.1,1.5-0.8,5.7-0.9,6.3c-0.2,0.6-0.6,0.8-0.6,0.8l10.8,0.4c0,0-0.5-2.6-0.5-3.8
				c0-1.3-0.1-3.3-0.1-3.3L65,56.1z"/>
		</g>
		<g>
			<path class="st16" d="M65.9,45.7c1.8-1.6,4.2-1.7,4.8-1.5c0.6,0.2,2.1-0.7,2.1-2.3c0-1.6,1.4-3.7,3.3-4.5
				c1.9-0.9,3.4,0.2,4.6,0.4c1.2,0.2,3.4-0.6,3.9-1.5c0.5-0.9,2.1-2,4-1.7c1.9,0.3,3.3,0.9,3.7,2.1c0.4,1.2,1.4,4-0.1,6
				c-1.5,2-4,2.3-5,2.5c-1,0.2-2,1.5-2.3,2.4s-1.4,2.3-3.3,2.5c-1.9,0.2-2.7-0.9-3.6-1.5c-0.9-0.6-2.8-1.9-3.5-1.8
				c0,0,1.5,1.6,1.5,4.4c0,2.8-1.6,6.5-4.4,7.5c-2.1,0.8-4.8,0.4-6.3-1.8c-1.5-2.2-1.7-4.2-1.4-6.6C64,48,64.8,46.6,65.9,45.7z"/>
		</g>
		<g>
			<path class="st17" d="M73.9,46.6C73.9,46.6,73.9,46.6,73.9,46.6c-0.1,0-1.5-0.8-2.3-1.9c0,0,0-0.1,0-0.1c0,0,0.1,0,0.1,0
				c0.7,1.1,2.2,1.8,2.2,1.8C74,46.5,74.1,46.5,73.9,46.6C74,46.6,74,46.6,73.9,46.6z"/>
		</g>
		<g>
			<path class="st17" d="M75.3,41.9C75.3,41.9,75.3,41.9,75.3,41.9c-0.1,0-0.1-0.1-0.1-0.1c0.7-1.2,1.6-1.8,2.6-1.7
				c0.1,0,0.1,0.1,0.1,0.1c0,0,0,0.1-0.1,0.1c0,0,0,0,0,0C76.9,40.2,76.1,40.7,75.3,41.9C75.4,41.9,75.3,41.9,75.3,41.9z"/>
		</g>
		<g>
			<path class="st17" d="M80.6,45.4c-1,0-2-0.6-2.4-0.9c0,0,0-0.1,0-0.1c0,0,0.1,0,0.1,0c0.3,0.3,1.9,1.3,3.2,0.6c0,0,0.1,0,0.1,0
				c0,0,0,0.1,0,0.1C81.4,45.3,81,45.4,80.6,45.4z"/>
		</g>
		<g>
			<path class="st17" d="M82.2,41.2C82.1,41.2,82.1,41.2,82.2,41.2c-0.1-0.1-0.1-0.1-0.1-0.2c0.5-0.6,1.8-1.5,2.9-1.1
				c0,0,0.1,0.1,0,0.1s-0.1,0.1-0.1,0C83.9,39.8,82.7,40.7,82.2,41.2C82.2,41.2,82.2,41.2,82.2,41.2z"/>
		</g>
		<g>
			<path class="st17" d="M87.3,37.2C87.2,37.2,87.2,37.2,87.3,37.2c-0.1-0.1-0.1-0.1-0.1-0.2c0.6-0.5,1.9-0.7,2.6-0.1
				c0,0,0,0.1,0,0.1c0,0-0.1,0.1-0.1,0C89.1,36.6,87.8,36.7,87.3,37.2C87.3,37.2,87.3,37.2,87.3,37.2z"/>
		</g>
		<g>
			<path class="st17" d="M87.9,42.1C87.9,42.1,87.9,42.1,87.9,42.1c-0.1,0-0.1-0.1-0.1-0.1c0.4-0.8,1.6-1.8,2.8-1.3
				c0,0,0.1,0.1,0.1,0.1c0,0-0.1,0.1-0.1,0.1C89.5,40.4,88.4,41.3,87.9,42.1C88,42.1,88,42.1,87.9,42.1z"/>
		</g>
		<g>
			<path class="st17" d="M67.1,49.8C67.1,49.8,67.1,49.8,67.1,49.8c-0.1,0-0.1-0.1-0.1-0.1c0-0.1,0.2-1.4,1.5-2.1c0,0,0.1,0,0.1,0
				c0,0,0,0.1,0,0.1C67.4,48.4,67.2,49.7,67.1,49.8C67.2,49.8,67.1,49.8,67.1,49.8z"/>
		</g>
		<g>
			<path class="st17" d="M71.8,51.9C71.7,51.9,71.7,51.8,71.8,51.9c-0.1-0.8,0.2-2,0.6-2.5c0,0,0.1-0.1,0.1,0c0,0,0.1,0.1,0,0.1
				C72.2,49.9,71.8,51.1,71.8,51.9C71.9,51.8,71.8,51.9,71.8,51.9C71.8,51.9,71.8,51.9,71.8,51.9z"/>
		</g>
		<g>
			<path class="st17" d="M68.5,56.7C68.4,56.7,68.4,56.7,68.5,56.7c-0.1-0.2-0.2-2,0.2-2.8c0,0,0.1-0.1,0.1,0c0,0,0.1,0.1,0,0.1
				C68.5,54.8,68.6,56.6,68.5,56.7C68.6,56.7,68.5,56.7,68.5,56.7C68.5,56.7,68.5,56.7,68.5,56.7z"/>
		</g>
		<g>
			<path class="st17" d="M73.2,56C73.2,56,73.1,56,73.2,56c-0.1,0-0.1-0.1-0.1-0.1c0,0,0.8-1.1,0.8-1.8c0-0.1,0-0.1,0.1-0.1
				s0.1,0,0.1,0.1C74,54.8,73.3,55.9,73.2,56C73.2,56,73.2,56,73.2,56z"/>
		</g>
		<g>
			<path class="st18" d="M67.7,62.5c5.1-0.2,12.1,1.9,15.8,3.7c3.7,1.8,12.2,7.5,16.3,10.2c4.1,2.7,6.5,4.5,6.6,8.4
				c0.1,3.9-2.8,8.5-6.6,8.8c-3.9,0.3-4.2-0.3-8.1-2.3c-3.9-2-12.7-6.7-12.7-6.7l-1.5,9.7c0,0-5.3,0-11.6,0c-6.3,0-11,0.1-11,0.1
				l-0.8-7.5c0,0-11.6,4.5-15.2,5.9c-3.6,1.4-12.1,3.3-14.2-5.4s6.9-11.9,12.3-14.8c5.4-2.8,12.9-6.4,18.8-8.1
				C61.4,62.9,65,62.6,67.7,62.5z"/>
		</g>
		<g>
			<path class="st2" d="M78.9,84.7C78.9,84.7,78.9,84.7,78.9,84.7c-0.1,0-0.1-0.1-0.1-0.1c0.5-2.8,1.2-8.8,1.5-11.4
				c0.1-0.6,0.1-1,0.1-1.2c0-0.1,0.1-0.1,0.1-0.1c0.1,0,0.1,0.1,0.1,0.1c0,0.2-0.1,0.6-0.1,1.2C80.2,75.8,79.5,81.8,78.9,84.7
				C79,84.7,78.9,84.7,78.9,84.7z"/>
		</g>
		<g>
			<path class="st2" d="M53.9,87C53.9,87,53.8,87,53.9,87c-0.5-3.9-0.8-7.3-1-9.8c-0.2-2.4-0.3-4.1-0.5-4.6c0,0,0-0.1,0.1-0.1
				c0,0,0.1,0,0.1,0.1c0.2,0.5,0.3,2.1,0.5,4.6c0.2,2.5,0.5,5.9,0.9,9.7C54,87,54,87,53.9,87C53.9,87,53.9,87,53.9,87z"/>
		</g>
		<g>
			<path class="st2" d="M97.3,91.1C97.3,91.1,97.2,91.1,97.3,91.1c-2.2-0.8-13.1-7.2-17.9-10.4c0,0-0.1-0.1,0-0.1c0,0,0.1-0.1,0.1,0
				c5.3,3.5,15.8,9.6,17.8,10.4C97.3,90.9,97.4,91,97.3,91.1C97.3,91,97.3,91.1,97.3,91.1z"/>
		</g>
		<g>
			<path class="st2" d="M31.2,91.1C31.1,91.1,31.1,91.1,31.2,91.1c-0.1-0.1-0.1-0.2,0-0.2c2.6-0.9,18.9-8.4,22.1-10c0,0,0.1,0,0.1,0
				c0,0,0,0.1,0,0.1C50.1,82.7,33.9,90.2,31.2,91.1C31.2,91.1,31.2,91.1,31.2,91.1z"/>
		</g>
		<g>
			<path class="st2" d="M80.8,94.5H51.8c-1.3,0-2.4-1.1-2.4-2.4V81c0-1.3,1.1-2.4,2.4-2.4h28.9c1.3,0,2.4,1.1,2.4,2.4v11
				C83.2,93.4,82.1,94.5,80.8,94.5z M51.8,78.9c-1.1,0-2.1,0.9-2.1,2.1v11c0,1.1,0.9,2.1,2.1,2.1h28.9c1.1,0,2.1-0.9,2.1-2.1V81
				c0-1.1-0.9-2.1-2.1-2.1H51.8z"/>
		</g>
	</g>
	<g>
		<g>
			<g>
				<path class="st14" d="M13.9,77.5C13.8,77.5,13.8,77.5,13.9,77.5c-0.1,0-0.2-0.1-0.2-0.2c0.1-1.2,0.8-2.2,1.8-2.8
					c0.9-0.5,1.8-0.6,2.7-0.2c1.7,0.7,4,1.1,5.1-1.3c0.6-1.4,1.5-2.3,2.5-2.7c0.9-0.3,1.9-0.2,2.9,0.3c1,0.5,1.8,0.6,2.5,0.2
					c0.7-0.3,1.2-1,1.5-2c0-0.1,0.1-0.2,0.2-0.1c0.1,0,0.2,0.1,0.1,0.2c-0.3,1.1-0.9,1.9-1.7,2.2c-0.8,0.4-1.8,0.3-2.9-0.3
					c-0.9-0.5-1.8-0.6-2.6-0.3c-0.9,0.3-1.7,1.2-2.3,2.5c-1.3,2.8-4.1,2.2-5.6,1.5c-0.8-0.3-1.6-0.2-2.4,0.2
					c-0.9,0.5-1.5,1.4-1.6,2.5C14,77.5,13.9,77.5,13.9,77.5z"/>
			</g>
		</g>
	</g>
	<g>
		<g>
			<g>
				<path class="st19" d="M119.9,45.5C119.9,45.5,119.9,45.5,119.9,45.5c-0.1,0-0.2-0.1-0.2-0.2c0.1-1.2,0.8-2.2,1.8-2.8
					c0.9-0.5,1.8-0.6,2.7-0.2c1.7,0.7,4,1.1,5.1-1.3c0.6-1.4,1.5-2.3,2.5-2.7c0.9-0.3,1.9-0.2,2.9,0.3c1,0.5,1.8,0.6,2.5,0.2
					c0.7-0.3,1.2-1,1.5-2c0-0.1,0.1-0.2,0.2-0.1c0.1,0,0.2,0.1,0.1,0.2c-0.3,1.1-0.9,1.9-1.7,2.2c-0.8,0.4-1.8,0.3-2.9-0.3
					c-0.9-0.5-1.8-0.6-2.6-0.3c-0.9,0.3-1.7,1.2-2.3,2.5c-1.3,2.8-4.1,2.2-5.6,1.5c-0.8-0.3-1.6-0.2-2.4,0.2
					c-0.9,0.5-1.5,1.4-1.6,2.5C120,45.4,120,45.5,119.9,45.5z"/>
			</g>
		</g>
	</g>
	<g>
		<g>
			<g>
				<path class="st14" d="M135.6,72.7c-0.2,0-0.3,0-0.5,0c-1-0.1-1.8-0.7-2.3-1.5c-0.9-1.7-2.5-3.4-4.9-2.1
					c-1.4,0.7-2.6,0.9-3.7,0.5c-0.9-0.3-1.6-1-2.1-2c-0.5-1-1.1-1.6-1.8-1.8c-0.7-0.2-1.6,0-2.4,0.6c-0.1,0.1-0.2,0-0.3,0
					c-0.1-0.1,0-0.2,0-0.3c0.9-0.7,1.9-0.9,2.7-0.7c0.9,0.2,1.6,0.9,2.1,2c0.4,1,1.1,1.6,1.9,1.8c0.9,0.3,2.1,0.1,3.4-0.5
					c2.8-1.4,4.5,0.8,5.4,2.3c0.4,0.7,1.1,1.2,2,1.3c1,0.1,2-0.2,2.8-1c0.1-0.1,0.2-0.1,0.3,0s0.1,0.2,0,0.3
					C137.5,72.3,136.6,72.7,135.6,72.7z"/>
			</g>
		</g>
	</g>
	<g>
		<path class="st14" d="M40.5,12.2C40.5,12.2,40.5,12.2,40.5,12.2l-5.4-2.9c-0.1,0-0.1-0.2-0.1-0.3c0-0.1,0.2-0.1,0.2-0.1l5.3,2.8
			c0.1,0,0.1,0.2,0.1,0.3C40.6,12.1,40.6,12.2,40.5,12.2z"/>
	</g>
	<g>
		<path class="st14" d="M47.6,4.6c-0.1,0-0.2-0.1-0.2-0.1l-1.1-4.2c0-0.1,0-0.2,0.1-0.2c0.1,0,0.2,0,0.2,0.1l1.1,4.2
			C47.8,4.4,47.7,4.5,47.6,4.6C47.6,4.6,47.6,4.6,47.6,4.6z"/>
	</g>
	<g>
		<path class="st14" d="M61.3,5.5C61.2,5.5,61.2,5.5,61.3,5.5c-0.2-0.1-0.2-0.2-0.2-0.3l2.3-4.9c0-0.1,0.2-0.1,0.2-0.1
			c0.1,0,0.1,0.2,0.1,0.2l-2.3,4.9C61.4,5.5,61.3,5.5,61.3,5.5z"/>
	</g>
	<g>
		<path class="st14" d="M131,54.3C131,54.3,131,54.3,131,54.3c-0.1,0-0.2-0.1-0.2-0.1l-0.8-3.7c0-0.1,0-0.1,0-0.2
			c0,0,0.1-0.1,0.1-0.1c1.2-0.1,6.9-0.3,7.5,0.2c0.1,0.1,0.1,0.2,0.1,0.2C137.9,51.4,133.6,53.3,131,54.3
			C131.1,54.3,131.1,54.3,131,54.3z M130.5,50.6l0.7,3.2c2.9-1.2,6-2.6,6.3-3.1C137,50.5,133.6,50.5,130.5,50.6z"/>
	</g>
	<g>
		<path class="st14" d="M126.4,30.7c-0.1,0-0.2-0.1-0.2-0.2c-0.1-1.4,0.7-3.1,1.8-4.2c0,0,0.1-0.1,0.1-0.1c-0.2-0.4-0.3-1-0.3-1.6
			c-0.1-3.1,4-4.7,4.2-4.8c0.1,0,0.2,0,0.2,0.1c0,0.1,0,0.2-0.1,0.2c0,0-4.1,1.6-3.9,4.4c0,0.5,0.1,1,0.2,1.4
			c0.8-0.6,1.6-0.8,2.4-0.8c1.6,0.2,1.9,1,2,1.3c0.1,0.7-0.4,1.4-1.2,1.8c-0.7,0.3-1.5,0.2-2.1-0.3c-0.3-0.2-0.8-0.7-1.2-1.4
			c0,0,0,0,0,0c-1.1,1-1.8,2.7-1.7,3.9C126.6,30.6,126.5,30.7,126.4,30.7C126.4,30.7,126.4,30.7,126.4,30.7z M128.6,26.3
			c0.3,0.8,0.8,1.2,1.1,1.4c0.6,0.4,1.2,0.5,1.8,0.2c0.6-0.3,1.1-0.8,1-1.4c-0.1-0.5-0.7-0.9-1.6-1C130,25.5,129.2,25.9,128.6,26.3z
			"/>
	</g>
	<g>
		<path class="st14" d="M116.4,10.4c0,0-0.1,0-0.1,0c-0.1-0.1-0.1-0.2,0-0.3l2.7-3.9c0.1-0.1,0.2-0.1,0.3,0c0.1,0.1,0.1,0.2,0,0.3
			l-2.7,3.9C116.5,10.4,116.5,10.4,116.4,10.4z"/>
	</g>
	<g>
		<path class="st14" d="M94.9,8.6c-0.1,0-0.1,0-0.1-0.1L92.1,5c-0.1-0.1,0-0.2,0-0.3c0.1-0.1,0.2,0,0.3,0L95,8.3
			c0.1,0.1,0,0.2,0,0.3C94.9,8.6,94.9,8.6,94.9,8.6z"/>
	</g>
	<g>
		<path class="st14" d="M66.8,42.5c-0.1,0-0.1,0-0.1-0.1l-4.3-5.8c-0.1-0.1,0-0.2,0-0.3c0.1-0.1,0.2,0,0.3,0l4.3,5.8
			c0.1,0.1,0,0.2,0,0.3C66.9,42.5,66.8,42.5,66.8,42.5z"/>
	</g>
	<g>
		<path class="st14" d="M69.9,39.7c-0.1,0-0.1,0-0.2-0.1l-1.5-4.2c0-0.1,0-0.2,0.1-0.2c0.1,0,0.2,0,0.2,0.1l1.5,4.2
			C70.1,39.5,70.1,39.6,69.9,39.7C70,39.7,69.9,39.7,69.9,39.7z"/>
	</g>
	<g>
		<path class="st14" d="M86.9,57.7C86.9,57.7,86.9,57.7,86.9,57.7l-4.8-0.5c-0.1,0-0.2-0.1-0.2-0.2c0-0.1,0.1-0.2,0.2-0.2l4.7,0.5
			c0.1,0,0.2,0.1,0.2,0.2C87,57.6,87,57.7,86.9,57.7z"/>
	</g>
	<g>
		<path class="st14" d="M83.1,52.8c-0.1,0-0.2-0.1-0.2-0.1c0-0.1,0-0.2,0.1-0.2l3.8-0.9c0.1,0,0.2,0,0.2,0.1c0,0.1,0,0.2-0.1,0.2
			L83.1,52.8C83.1,52.8,83.1,52.8,83.1,52.8z"/>
	</g>
	<g>
		<path class="st20" d="M130.1,83.2c-1,0-2.1-0.2-3-0.8c-0.8-0.6-1.2-1.1-1.6-1.6c-0.4-0.5-0.7-1-1.6-1.4c-1.7-0.8-3.9-1.1-3.9-1.1
			c-0.1,0-0.1,0-0.1-0.1s0-0.1,0-0.2l1.5-4.5c0-0.1,0.1-0.1,0.2-0.1c0.1,0,3.6,0.4,5.9,2.5c2.3,2,3.6,2.9,6.2,2.8
			c0.1,0,0.1,0,0.2,0.1c0,0.1,0,0.1,0,0.2l-1.8,3.8c0,0.1-0.1,0.1-0.1,0.1C131.9,83,131.1,83.2,130.1,83.2z M120.3,78.1
			c0.6,0.1,2.3,0.4,3.8,1.1c1,0.5,1.4,1,1.8,1.5c0.3,0.5,0.7,0.9,1.5,1.5c1.5,1,4,0.6,4.5,0.5l1.6-3.4c-2.6,0.1-3.9-0.9-6.2-2.9
			c-2-1.7-4.9-2.3-5.6-2.4L120.3,78.1z"/>
	</g>
	<g>
		<g>
			<g>
				<path class="st21" d="M16.7,45.3c-0.4,0-0.7-0.1-1.1-0.2c-0.9-0.4-1.5-1.3-1.6-2.4c-0.1-1.5,0.9-2.5,1.7-3.5
					c0.6-0.6,1.1-1.1,1.1-1.6c0.1-0.9-1.5-1.4-2.7-1.7c-0.9-0.2-2-1-2.4-2.1c-0.3-0.7-0.2-1.3,0.2-1.9l0,0c0.4-0.7,1-1.1,1.7-1.1
					c1.5-0.1,3.1,1.3,3.9,2.1c0.4,0.5,0.8,0.7,1.2,0.6c0.9-0.1,1.7-1.7,2.4-3l0.1-0.2c0.6-1.3,1.7-2.2,2.9-2.6
					c1-0.3,1.9-0.1,2.8,0.5c0.7,0.4,1.1,1,1.1,1.8c0.1,1.4-1.1,3.1-1.9,3.7c-0.2,0.2-0.5,0.4-0.8,0.6c-0.9,0.6-2.1,1.4-2.2,2.2
					c0,0.3,0.1,0.6,0.3,0.8c0.6,0.7,1.4,0.8,2.2,0.9c1,0.1,2,0.3,2.4,1.6c0.4,1.1,0,1.8-0.4,2.1c-0.6,0.6-1.8,0.9-2.7,0.6
					c-0.7-0.2-1.4-0.8-2.1-1.4c-0.7-0.6-1.5-1.2-1.9-1.2c-0.3,0-0.6,0.7-0.8,1.5c-0.3,1.1-0.8,2.6-2.1,3.6
					C17.8,45.1,17.2,45.3,16.7,45.3z M14,31.1c-0.1,0-0.1,0-0.2,0c-0.6,0-1,0.4-1.4,1l0,0c-0.3,0.5-0.4,1-0.2,1.6
					c0.4,0.9,1.4,1.6,2.1,1.8c1.5,0.4,3.1,1,3,2.1c-0.1,0.6-0.6,1.2-1.2,1.9c-0.8,0.9-1.7,1.9-1.6,3.2c0.1,1.3,0.9,1.9,1.3,2.1
					c0.7,0.3,1.6,0.2,2.2-0.2c1.2-0.9,1.6-2.3,2-3.4c0.3-0.9,0.5-1.7,1.1-1.7c0.7-0.1,1.4,0.6,2.2,1.3c0.7,0.6,1.3,1.2,2,1.4
					c0.8,0.3,1.8,0.1,2.4-0.5c0.4-0.4,0.5-1,0.3-1.8c-0.3-1.1-1.2-1.2-2.1-1.3c-0.8-0.1-1.7-0.2-2.4-1c-0.3-0.4-0.4-0.7-0.4-1.1
					c0.1-1,1.3-1.8,2.3-2.4c0.3-0.2,0.6-0.4,0.8-0.5c0.6-0.5,1.8-2,1.7-3.4c0-0.6-0.3-1.1-0.9-1.5c-0.8-0.5-1.7-0.6-2.5-0.4
					c-1.1,0.3-2.1,1.2-2.7,2.4l-0.1,0.2c-0.7,1.4-1.6,3.1-2.7,3.2c-0.5,0.1-1-0.2-1.5-0.7C16.1,31.9,14.9,31.1,14,31.1z M12.2,32
					L12.2,32L12.2,32z"/>
			</g>
		</g>
	</g>
	<g>
		<g>
			<g>
				<path class="st0" d="M14.2,67.5c-1.7,0-3.8-0.6-5.2-2.2c-0.6-0.7-1-1.4-1.2-2.1c-1.1,0-2.2-0.2-3.2-0.6
					c-2.2-0.9-3.9-3.8-4.6-6.1c0-0.1,0-0.2,0.1-0.2c0.1,0,0.2,0,0.2,0.1c0.6,2.2,2.3,5,4.4,5.9c0.9,0.4,2,0.6,2.9,0.6
					c-0.1-0.6-0.2-1.2-0.1-1.8c0.1-0.9,0.6-1.6,1.1-2c0.7-0.5,1.8-0.3,2.4,0.3c0.6,0.6,0.6,1.4,0.1,2.2c-0.6,1-1.8,1.5-3.1,1.6
					c0.2,0.7,0.6,1.3,1.1,1.9c2,2.3,5.3,2.4,7,1.8c0.1,0,0.2,0,0.2,0.1c0,0.1,0,0.2-0.1,0.2C15.8,67.3,15.1,67.5,14.2,67.5z M9.7,59
					c-0.3,0-0.6,0.1-0.8,0.2c-0.5,0.3-0.9,0.9-1,1.7c-0.1,0.6-0.1,1.2,0.1,1.7c1.2-0.1,2.3-0.6,2.9-1.5c0.4-0.7,0.4-1.3-0.1-1.8
					C10.6,59.2,10.2,59,9.7,59z"/>
			</g>
		</g>
	</g>
</g>
</svg>
