<?xml version="1.0" encoding="utf-8"?>
<!-- Generator: Adobe Illustrator 27.3.1, SVG Export Plug-In . SVG Version: 6.00 Build 0)  -->
<svg version="1.1" id="Layer_1" xmlns="http://www.w3.org/2000/svg" xmlns:xlink="http://www.w3.org/1999/xlink" x="0px" y="0px"
	 viewBox="0 0 169.3 128.3" style="enable-background:new 0 0 169.3 128.3;" xml:space="preserve">
<style type="text/css">
	.st0{fill:#D165A2;}
	.st1{fill:#E2D3C6;}
	.st2{fill:#F3E3D8;}
	.st3{fill:#FFFFFF;}
	.st4{fill:#00A389;}
	.st5{fill:#6CA8B5;}
	.st6{fill:#86C3CE;}
	.st7{fill:#212E44;}
	.st8{fill:#313436;}
	.st9{fill:#6D609E;}
	.st10{fill:#877EAF;}
	.st11{fill:#000024;}
	.st12{fill:#219ED9;}
	.st13{fill:none;stroke:#6D609E;stroke-width:0.4867;stroke-linecap:round;stroke-linejoin:round;stroke-miterlimit:10;}
	.st14{fill:#C5B7DA;}
	.st15{fill:#121234;}
	.st16{fill:#B4D17C;}
	.st17{fill:#E68F79;}
	.st18{fill:#3A4559;}
	.st19{fill:#B7A5D0;}
	.st20{fill:#F59296;}
	.st21{fill:#786EA6;}
	.st22{fill:#A087BE;}
	.st23{fill:#252B2F;}
</style>
<g>
	<g>
		<g>
			<g>
				<g>
					<path class="st0" d="M52.1,104.2c-2,0.2-6.4,0.7-7.9,1c-1.5,0.3-6.8,0.9-9.2,1.1c0,0,0-0.1,0-0.1c-0.1-1,1.9-1.7,3.9-2.3
						c2-0.6,4.7-1.2,5.7-2.5l5.4,0.1L52.1,104.2z"/>
				</g>
				<g>
					<path class="st1" d="M53,105.4c0,0-4.9,0.3-8.5,0.9c-3.6,0.7-9.4,1-9.4,1s0,0-0.1-1c2.3-0.2,7.6-0.8,9.2-1.1
						c1.5-0.3,5.9-0.8,7.9-1L53,105.4z"/>
				</g>
				<g>
					<path class="st2" d="M39.5,103.8c-0.2,0.1-0.4,0.1-0.6,0.2c-2,0.6-4,1.3-3.9,2.3c0,0,0,0.1,0,0.1c1.3-0.1,3.6-0.4,5.6-0.6
						C40.6,105.3,40.2,104.5,39.5,103.8z"/>
				</g>
				<g>
					<path class="st3" d="M41.5,104.8c0,0-0.1,0-0.1-0.1c0,0-0.5-0.7-0.9-1.1c0,0-0.1-0.1,0-0.2c0,0,0.1-0.1,0.2,0
						c0.5,0.4,0.9,1.1,0.9,1.2C41.6,104.7,41.6,104.7,41.5,104.8C41.5,104.8,41.5,104.8,41.5,104.8z"/>
				</g>
				<g>
					<path class="st3" d="M42.4,104.5c0,0-0.1,0-0.1-0.1c0,0-0.5-0.7-0.9-1.1c0,0-0.1-0.1,0-0.2c0,0,0.1,0,0.2,0
						c0.5,0.4,0.9,1.1,0.9,1.2C42.6,104.3,42.6,104.4,42.4,104.5C42.5,104.5,42.5,104.5,42.4,104.5z"/>
				</g>
				<g>
					<path class="st3" d="M43.4,104.2c0,0-0.1,0-0.1-0.1c0,0-0.5-0.7-0.9-1.1c0,0-0.1-0.1,0-0.2s0.1-0.1,0.2,0
						c0.5,0.4,0.9,1.1,0.9,1.2C43.5,104,43.5,104.1,43.4,104.2C43.4,104.1,43.4,104.2,43.4,104.2z"/>
				</g>
				<g>
					<path class="st3" d="M44.3,103.8c0,0-0.1,0-0.1-0.1c0,0-0.5-0.7-0.9-1.1c0,0-0.1-0.1,0-0.2c0,0,0.1,0,0.2,0
						c0.5,0.4,0.9,1.1,0.9,1.2C44.4,103.7,44.4,103.7,44.3,103.8C44.3,103.8,44.3,103.8,44.3,103.8z"/>
				</g>
				<g>
					<path class="st3" d="M45.3,103.5c0,0-0.1,0-0.1-0.1c0,0-0.5-0.7-0.9-1.1c0,0-0.1-0.1,0-0.2c0,0,0.1,0,0.2,0
						c0.5,0.4,0.9,1.1,0.9,1.2C45.4,103.4,45.4,103.5,45.3,103.5C45.3,103.5,45.3,103.5,45.3,103.5z"/>
				</g>
			</g>
			<g>
				<g>
					<path class="st0" d="M60.4,106.1c-2,0.2-6.4,0.7-7.9,1c-1.5,0.3-6.8,0.9-9.2,1.1c0,0,0-0.1,0-0.1c-0.1-1,1.9-1.7,3.9-2.3
						c2-0.6,4.7-1.2,5.7-2.5l5.4,0.1L60.4,106.1z"/>
				</g>
				<g>
					<path class="st1" d="M61.3,107.2c0,0-4.9,0.3-8.5,0.9c-3.6,0.7-9.4,1-9.4,1s0,0-0.1-1c2.3-0.2,7.6-0.8,9.2-1.1
						c1.5-0.3,5.9-0.8,7.9-1L61.3,107.2z"/>
				</g>
				<g>
					<path class="st2" d="M47.8,105.6c-0.2,0.1-0.4,0.1-0.6,0.2c-2,0.6-4,1.3-3.9,2.3c0,0,0,0.1,0,0.1c1.3-0.1,3.6-0.4,5.6-0.6
						C48.9,107.2,48.5,106.4,47.8,105.6z"/>
				</g>
				<g>
					<path class="st3" d="M49.8,106.6c0,0-0.1,0-0.1-0.1c0,0-0.5-0.7-0.9-1.1c0,0-0.1-0.1,0-0.2c0,0,0.1-0.1,0.2,0
						c0.5,0.4,0.9,1.1,0.9,1.2C49.9,106.5,49.9,106.6,49.8,106.6C49.8,106.6,49.8,106.6,49.8,106.6z"/>
				</g>
				<g>
					<path class="st3" d="M50.7,106.3c0,0-0.1,0-0.1-0.1c0,0-0.5-0.7-0.9-1.1c0,0-0.1-0.1,0-0.2c0,0,0.1-0.1,0.2,0
						c0.5,0.4,0.9,1.1,0.9,1.2C50.9,106.2,50.9,106.3,50.7,106.3C50.8,106.3,50.8,106.3,50.7,106.3z"/>
				</g>
				<g>
					<path class="st3" d="M51.6,106c0,0-0.1,0-0.1-0.1c0,0-0.5-0.7-0.9-1.1c0,0-0.1-0.1,0-0.2c0,0,0.1,0,0.2,0
						c0.5,0.4,0.9,1.1,0.9,1.2C51.8,105.9,51.8,106,51.6,106C51.7,106,51.7,106,51.6,106z"/>
				</g>
				<g>
					<path class="st3" d="M52.6,105.6c0,0-0.1,0-0.1-0.1c0,0-0.5-0.7-0.9-1.1c0,0-0.1-0.1,0-0.2c0,0,0.1-0.1,0.2,0
						c0.5,0.4,0.9,1.1,0.9,1.2C52.7,105.5,52.7,105.6,52.6,105.6C52.6,105.6,52.6,105.6,52.6,105.6z"/>
				</g>
				<g>
					<path class="st3" d="M53.6,105.4c0,0-0.1,0-0.1-0.1c0,0-0.5-0.7-0.9-1.1c0,0-0.1-0.1,0-0.2c0,0,0.1,0,0.2,0
						c0.5,0.4,0.9,1.1,0.9,1.2C53.7,105.3,53.7,105.3,53.6,105.4C53.6,105.4,53.6,105.4,53.6,105.4z"/>
				</g>
			</g>
			<g>
				<path class="st4" d="M62.3,41.5l-9,9.4l8.2,7.6l9.4,15.3l3.6,8.1l13.9-3.7c0,0,1.7-13.6,2-15.6c0.3-1.9,0.2-4.9-2.3-6.6
					c-2.5-1.7-8.2-3.9-8.2-3.9s-5.4-1.9-7-2.5c-1.5-0.6-4.1-1.4-4.5-1.7c-0.5-0.3-1.7-2-2.9-3.3C64.3,43.4,62.3,41.5,62.3,41.5z"/>
			</g>
			<g>
				<path class="st5" d="M37.9,100.9c0,0,0.8-17.2,1.6-22.5c0.8-5.4,1.6-15,4.3-18.8c2.7-3.8,5.1-5.2,10.3-4.8
					c5.2,0.4,9.7,3.3,10.4,7.8c0.7,4.5-0.1,18.1-0.2,19.4c-0.1,1.3-3.5,21.1-3.5,21.1C51.7,102.8,42.7,102.5,37.9,100.9z"/>
			</g>
			<g>
				<path class="st6" d="M51,104.2c0,0-2.1-18.1-2.4-23.5c-0.3-5.4-1.3-15.1,0.6-19.3c1.9-4.3,4-6.1,9.1-6.7
					c5.2-0.6,10.2,1.4,11.7,5.7c1.5,4.3,3.3,17.8,3.5,19.1c0.1,1.3,0.6,21.4,0.6,21.4C65.9,102.6,57.8,104.8,51,104.2z"/>
			</g>
			<g>
				<path class="st7" d="M63.9,97.2c-0.1,0-0.1,0-0.1-0.1c-0.5-6.9-3.2-33.2-4-35.7c0-0.1,0-0.1,0.1-0.2s0.1,0,0.2,0.1
					c0.8,2.5,3.5,28.8,4,35.7C64.1,97.1,64,97.2,63.9,97.2C63.9,97.2,63.9,97.2,63.9,97.2z"/>
			</g>
			<g>
				<g>
					<path class="st1" d="M73.8,41.6c-0.7-0.6-1.3-0.5-1.8,0c-0.5,0.5-0.4,1.8,0.5,2.5c0.9,0.7,1.7,0.9,1.7,0.9L73.8,41.6z"/>
				</g>
				<g>
					<path class="st2" d="M73.9,39c-0.3,0.6-0.5,2.7-0.4,4.3c0.1,1.6,0.4,3.3,0.8,3.8l-0.6,3.1l0,0c-0.3-0.1-0.7,0-0.8,0.4
						c-0.3,0.9-0.5,2.4,0.7,3.2c1.7,1.1,3.2,1.2,4.7,1c1.5-0.1,2-0.6,2.5-0.9c0.2-0.1,0.3-0.3,0.4-0.4c0.2-0.3,0.2-0.6,0-0.9
						c-0.1-0.2-0.3-0.4-0.2-0.9c0.1-0.9,0.5-4.7,0.5-4.7s0.8-1.3,1-2c0,0,1.3,0.5,2.4-0.5c1-1,0.9-2.6,0-3.2
						c-0.9-0.6-2.3-0.2-2.3-0.2s-0.5-1.7-0.8-3c-0.2-0.9-2.9-1.7-4.6-1.4C75.4,36.9,74.4,37.9,73.9,39z"/>
				</g>
				<g>
					<path class="st5" d="M81.2,38.5c-0.6-0.6-1.7-1.2-3.9-1c-2.2,0.2-2.8,1.2-3.1,2.2c-0.3,1-0.6,3.3-0.6,3.3l-0.5-0.5
						c0,0-0.7-1.9-0.5-3.1c0.2-1.2,0.6-1.6,0.2-2.1c-0.4-0.5-2.4-0.8-2.6-2.1c-0.2-1.5,0.7-2.5,1.6-2.7c0.9-0.3,1.7,0.6,2.1,0.4
						c0.4-0.3-0.1-1.1-0.4-1.9c-0.3-0.8-0.2-1.8,0.9-2.4c0.7-0.4,1.7,0.2,2,0.6c0.4,0.6,1.1-0.1,1.5-0.4c0.6-0.5,2.5-0.3,2.4,1.3
						c-0.2,1.6,0.9,1.7,1.5,1.9c2.5,0.6,0.4,2.9,1.1,4.2c0.5,1.1,1.6,1.5,1.3,3.6c-0.3,2.5-1.6,3.7-1.6,3.7s0.2-1.4-0.5-2.3
						C81.4,40.3,81.4,38.8,81.2,38.5z"/>
				</g>
				<g>
					<g>
						<g>
							<g>
								<path class="st8" d="M79.8,41.8c0.2,0,0.2-0.1,0.2-0.3c0-0.2-0.1-0.3-0.2-0.4c-0.2,0-0.2,0.1-0.2,0.3
									C79.6,41.7,79.6,41.8,79.8,41.8z"/>
							</g>
						</g>
					</g>
				</g>
				<g>
					<g>
						<g>
							<g>
								<path class="st8" d="M75.5,41.6c0.2,0,0.2-0.1,0.2-0.3c0-0.2-0.1-0.3-0.2-0.4c-0.2,0-0.2,0.1-0.2,0.3
									C75.2,41.5,75.3,41.6,75.5,41.6z"/>
							</g>
						</g>
					</g>
				</g>
				<g>
					<path class="st7" d="M80.5,40.3c0,0-0.1,0-0.1,0c-0.2-0.1-0.7-0.3-1.4,0c-0.1,0-0.3,0-0.3-0.1c0-0.1,0-0.3,0.1-0.3
						c0.6-0.2,1.3-0.2,1.8,0.1c0.1,0.1,0.2,0.2,0.1,0.3C80.6,40.3,80.5,40.3,80.5,40.3z"/>
				</g>
				<g>
					<path class="st7" d="M74.9,40.3c-0.1,0-0.2-0.1-0.2-0.1c-0.1-0.1,0-0.3,0.1-0.3c0.2-0.1,1-0.4,1.9,0c0.1,0.1,0.2,0.2,0.1,0.3
						c-0.1,0.1-0.2,0.2-0.3,0.1C75.9,40,75.3,40.1,74.9,40.3C74.9,40.3,74.9,40.3,74.9,40.3z"/>
				</g>
				<g>
					<path class="st9" d="M77.5,43.6C77.5,43.6,77.5,43.6,77.5,43.6c-0.3,0-1.3-0.1-1.5-0.3C76,43.2,76,43.1,76,43.1
						c0-0.2,0.4-0.6,0.9-1.3c0.2-0.3,0.5-0.6,0.5-0.7c0-0.1,0.1-0.1,0.2,0c0.1,0,0.1,0.1,0,0.2c-0.1,0.1-0.3,0.3-0.6,0.7
						c-0.3,0.4-0.9,1-0.9,1.1c0.1,0.1,0.7,0.2,1.3,0.2c0.1,0,0.1,0.1,0.1,0.1C77.6,43.5,77.6,43.6,77.5,43.6z"/>
				</g>
				<g>
					<path class="st3" d="M78.9,44.5c-0.3-0.5-0.6,0.1-1.8,0c-1.2-0.1-1.6-0.4-1.7,0c-0.2,0.5,0.5,1.3,1.7,1.4
						C78.3,45.9,79.2,45,78.9,44.5z"/>
					<path class="st9" d="M77.2,45.9C77.1,45.9,77.1,45.9,77.2,45.9c-0.8,0-1.4-0.3-1.7-0.8c-0.2-0.3-0.2-0.5-0.2-0.7
						c0.1-0.4,0.4-0.3,0.9-0.2c0.2,0,0.6,0.1,1,0.2c0.5,0,0.9,0,1.2-0.1c0.3-0.1,0.5-0.1,0.7,0.2l0,0c0.1,0.2,0.1,0.4-0.1,0.7
						C78.7,45.5,78,45.9,77.2,45.9z M75.6,44.4c-0.1,0-0.1,0-0.2,0.1c0,0.1,0,0.3,0.1,0.5c0.3,0.4,0.8,0.7,1.5,0.7
						c0.8,0,1.4-0.4,1.6-0.7c0.1-0.2,0.1-0.3,0.1-0.4l0,0c-0.1-0.2-0.1-0.2-0.4-0.1c-0.3,0.1-0.6,0.2-1.2,0.1c-0.4,0-0.8-0.1-1-0.2
						C75.9,44.4,75.7,44.4,75.6,44.4z"/>
				</g>
				<g>
					<path class="st9" d="M83.2,43.7C83.2,43.7,83.2,43.7,83.2,43.7c-0.1,0-0.1-0.1-0.1-0.1c0,0,0.1-0.6,0.8-1c0.1,0,0.1,0,0.2,0
						c0,0.1,0,0.1,0,0.2c-0.6,0.4-0.7,0.9-0.7,0.9C83.4,43.7,83.3,43.7,83.2,43.7z"/>
				</g>
				<g>
					<path class="st9" d="M73.3,44c0,0-0.1,0-0.1-0.1c0,0-0.5-1.2-0.8-1.6c0-0.1,0-0.1,0-0.2c0.1,0,0.1,0,0.2,0
						c0.3,0.4,0.8,1.6,0.8,1.7C73.5,43.9,73.4,44,73.3,44C73.4,44,73.4,44,73.3,44z"/>
				</g>
				<g>
					<g>
						<g>
							<g>
								<g>
									<g>
										<path class="st10" d="M80.2,44.3c0.3,0,0.5-0.2,0.6-0.7c0-0.5-0.1-0.8-0.4-0.8c-0.3,0-0.5,0.2-0.6,0.7
											C79.7,44,79.8,44.2,80.2,44.3z"/>
									</g>
								</g>
							</g>
						</g>
					</g>
				</g>
				<g>
					<g>
						<g>
							<g>
								<g>
									<g>
										<path class="st10" d="M75,43.9c0.3,0,0.5-0.3,0.5-0.8c0-0.5-0.2-0.7-0.6-0.7c-0.3,0-0.5,0.3-0.5,0.8
											C74.4,43.7,74.6,43.9,75,43.9z"/>
									</g>
								</g>
							</g>
						</g>
					</g>
				</g>
				<g>
					<path class="st9" d="M77.6,49.1c-0.1,0-0.3,0-0.4,0c-1.2-0.2-2.3-0.5-3-1.9c0-0.1,0-0.1,0.1-0.2c0.1,0,0.1,0,0.2,0.1
						c0.6,1.2,1.5,1.5,2.8,1.8c1.2,0.2,3.3-0.7,4.1-1.8c0-0.1,0.1-0.1,0.2,0c0.1,0,0.1,0.1,0,0.2C80.7,48.3,78.9,49.1,77.6,49.1z"/>
				</g>
			</g>
			<g>
				<path class="st2" d="M62.3,41.5l-7-8.2l8.2-16.1c0,0,3.7-1.1,5.1-2.8c1.4-1.7,2.2-6.3,2.2-7.8c0-1.5-0.2-3.8-1.4-4
					c-1.2-0.1-1.3,1.4-1.3,1.4s0.4-2.3-0.6-2.5c-1-0.2-1.8,0.1-1.9,1.4c0,0,0-0.6-1.2-0.6c-1.2,0-1.5,1.6-1.7,2.8
					C62.5,6.4,62.4,8,62,8.3c-0.4,0.3-4,0.3-4.8,1.2c-0.8,0.9-4.3,5.4-7,11.1c-2.7,5.7-6.3,12-5.6,17.6c0.7,5.6,7,11.6,9,13.1
					c0,0,2-0.6,4.9-3.2C61.4,45.3,62.3,41.5,62.3,41.5z"/>
			</g>
			<g>
				<path class="st2" d="M75.1,61.8l-14.3,3.6l-12.5-0.7c0,0,0.2-2.2-1.5-3c-1.7-0.7-4.2-1.7-5.3-1.3c-1,0.5-1.2,1.2-0.9,2
					c0.3,0.8,2.7,1,2.6,2.1c0,0-1.4,0.1-2.3-0.3c0-0.8-0.9-1.2-1.8-0.6c-0.6,0.4-0.9,2.2,0.2,3c0,0-1.4-0.4-1.5,1.5
					c-0.1,1.3,1.5,1.9,1.5,1.9s-1.1-0.3-1.2,1.1c-0.1,1.4,1.2,2,3,2.6c1.8,0.6,10,2.4,16.1,2.3c6.1-0.1,9.3-0.5,13.3-1.4
					c4.1-0.9,8.5-2.4,8.5-2.4s2.2-1.4,1.1-6.1C79.1,61.6,75.1,61.8,75.1,61.8z"/>
			</g>
			<g>
				<path class="st7" d="M75.1,62c-0.1,0-0.1,0-0.1-0.1c0-0.1,0-0.1,0.1-0.1c1.2-0.3,2.3-0.7,3.2-1c1.9-0.6,3.6-1.2,5.4-1.1
					c0.1,0,0.1,0.1,0.1,0.1c0,0.1-0.1,0.1-0.1,0.1c0,0-0.1,0-0.1,0c-1.7,0-3.2,0.5-5.2,1.1C77.4,61.3,76.3,61.6,75.1,62
					C75.1,62,75.1,62,75.1,62z"/>
			</g>
			<g>
				<path class="st7" d="M79.2,72.6c0,0-0.1,0-0.1-0.1c0-0.1,0-0.1,0.1-0.2c4.6-1.7,9.1-3.5,9.7-5.4c0-0.1,0.1-0.1,0.2-0.1
					c0.1,0,0.1,0.1,0.1,0.2C88.5,68.9,85,70.5,79.2,72.6C79.2,72.6,79.2,72.6,79.2,72.6z"/>
			</g>
			<g>
				<path class="st7" d="M76.7,56.1c-2.2,0-4.1-1-4.9-2.1c-0.9-1.2-0.5-3.6,0.4-4.2c0.1,0,0.1,0,0.2,0c0,0.1,0,0.1,0,0.2
					c-0.8,0.6-1.1,2.8-0.3,3.9c0.7,1,2.6,2.1,4.9,2c2-0.1,4.6-0.5,5.3-2.4c0-0.1,0.1-0.1,0.2-0.1c0.1,0,0.1,0.1,0.1,0.2
					c-0.7,2-3.4,2.5-5.5,2.5C76.8,56.1,76.7,56.1,76.7,56.1z"/>
			</g>
			<g>
				<path class="st9" d="M66.1,14.4C66.1,14.4,66,14.3,66.1,14.4c-0.1-0.1-0.1-0.1-0.1-0.2c0,0,1.5-1.8,2-2.9c0.5-1.1,1-3.7,0.8-5.1
					c-0.1-0.7-0.5-1-1-1c-0.5,0-1,0.3-1.2,0.9c-0.1,0.2-0.1,0.5-0.1,0.8c-0.1,1.2-0.4,2.7-2.1,3.1c-2,0.4-3.8,2.1-3.8,2.1
					c0,0-0.1,0-0.2,0c0,0,0-0.1,0-0.2c0.1-0.1,1.8-1.7,3.9-2.1c1.6-0.3,1.8-1.6,1.9-2.8c0-0.3,0.1-0.6,0.1-0.8
					c0.2-0.8,0.8-1.1,1.4-1.1c0,0,0.1,0,0.1,0c0.6,0,1.1,0.5,1.2,1.2c0.2,1.5-0.3,4.1-0.9,5.3C67.7,12.5,66.2,14.2,66.1,14.4
					C66.1,14.3,66.1,14.4,66.1,14.4z"/>
			</g>
			<g>
				<path class="st9" d="M65.3,8.1C65.3,8.1,65.3,8.1,65.3,8.1c-0.1,0-0.1-0.1-0.1-0.1c0.2-0.9,0.4-4.1,0.3-5c0-0.1,0-0.1,0.1-0.1
					c0.1,0,0.1,0,0.1,0.1c0.1,0.9-0.1,4.2-0.3,5.1C65.4,8.1,65.3,8.1,65.3,8.1z"/>
			</g>
			<g>
				<path class="st9" d="M68.1,5.2C68.1,5.2,68.1,5.2,68.1,5.2C68,5.1,68,5.1,68,5C68,5,68,4.6,68,3.6c0-0.1,0.1-0.1,0.1-0.1
					s0.1,0.1,0.1,0.1c0,1-0.1,1.5-0.1,1.5C68.2,5.1,68.2,5.2,68.1,5.2z"/>
			</g>
			<g>
				<path class="st9" d="M70.7,5.8C70.7,5.8,70.7,5.8,70.7,5.8c-0.7-0.4-1-2.2-0.9-2.9c0-0.1,0.1-0.1,0.1-0.1c0,0,0,0,0,0
					C70,2.8,70,2.9,70,3c0,0.7,0.2,2.4,0.8,2.6c0.1,0,0.1,0.1,0,0.2C70.8,5.8,70.7,5.8,70.7,5.8z"/>
			</g>
			<g>
				<path class="st9" d="M68.6,8.4c-0.3,0-0.6-0.1-1-0.3c-0.2-0.2-0.4-0.5-0.4-1c-0.1-0.7,0.1-1.6,0.5-2.1c0,0,0.1-0.1,0.2,0
					c0,0,0.1,0.1,0,0.2c-0.4,0.4-0.5,1.2-0.4,1.9c0,0.4,0.2,0.7,0.3,0.8c0.5,0.4,1.1,0.2,1.1,0.2c0.1,0,0.1,0,0.1,0.1
					c0,0.1,0,0.1-0.1,0.1C68.9,8.4,68.8,8.4,68.6,8.4z"/>
			</g>
			<g>
				<path class="st9" d="M64.9,74.8C64.9,74.8,64.8,74.8,64.9,74.8c-0.1-0.1-0.1-0.1-0.1-0.2c0.2-0.3,0.8-0.6,1.5-0.6
					c0.6-0.1,1.1,0.1,1.4,0.4c0,0,0,0.1,0,0.2c0,0-0.1,0-0.2,0c-0.2-0.2-0.7-0.3-1.2-0.3C65.7,74.2,65.2,74.5,64.9,74.8
					C65,74.8,64.9,74.8,64.9,74.8z"/>
			</g>
			<g>
				<path class="st7" d="M73.6,36C73.5,36,73.5,36,73.6,36c-1.4-0.2-1.8-1.2-1.8-2c0-0.1,0.1-0.1,0.1-0.1C72,33.9,72,34,72,34
					c0,0.3,0,1.5,1.5,1.8c0.1,0,0.1,0.1,0.1,0.1C73.7,36,73.6,36,73.6,36z"/>
			</g>
			<g>
				<path class="st7" d="M76.9,31.8C76.9,31.8,76.9,31.8,76.9,31.8c-0.1,0-0.1-0.1-0.1-0.1c0-0.3-0.1-0.7-0.4-1
					c-0.3-0.3-0.8-0.5-1.2-0.4c-0.1,0-0.1,0-0.1-0.1c0-0.1,0-0.1,0.1-0.1c0.5-0.1,1,0.1,1.4,0.5c0.4,0.3,0.5,0.8,0.5,1.2
					C77.1,31.8,77,31.8,76.9,31.8z"/>
			</g>
			<g>
				<path class="st7" d="M81.4,34.2C81.4,34.2,81.4,34.2,81.4,34.2c-1.3-0.1-2.1-1.3-2.1-2.1c0-0.1,0.1-0.1,0.1-0.1
					c0.1,0,0.1,0.1,0.1,0.1c0,0.7,0.7,1.7,1.9,1.8c0.1,0,0.1,0.1,0.1,0.1C81.5,34.2,81.4,34.2,81.4,34.2z"/>
			</g>
			<g>
				<path class="st7" d="M77.9,35.8c-0.1,0-0.1,0-0.1-0.1c0-0.7-0.7-1.5-1.5-1.4c0,0,0,0,0,0c-0.1,0-0.1-0.1-0.1-0.1
					c0-0.1,0-0.1,0.1-0.1c0.9,0,1.7,0.9,1.8,1.7C78.1,35.8,78,35.8,77.9,35.8C77.9,35.8,77.9,35.8,77.9,35.8z"/>
			</g>
			<g>
				<path class="st7" d="M82.7,40C82.7,40,82.7,40,82.7,40c-0.1,0-0.1-0.1-0.1-0.2c0,0,0.4-0.9,0-1.3c-0.1-0.1-0.3-0.3-0.5-0.4
					c-0.5-0.4-1.1-0.8-1-1.7c0-0.1,0.1-0.1,0.1-0.1c0.1,0,0.1,0.1,0.1,0.1c-0.1,0.8,0.4,1.1,0.9,1.5c0.2,0.1,0.4,0.3,0.5,0.4
					c0.5,0.6,0.1,1.5,0.1,1.6C82.8,40,82.8,40,82.7,40z"/>
			</g>
		</g>
		<g>
			<g>
				<g>
					<path class="st5" d="M145,67.7c0,0,0.9-2.1,1.2-2.8c0.3-0.8,0.6-1.7,1.3-1.6s8,4.1,10.1,5.4c2.1,1.3,6.8,4,6.9,4.7
						c0.1,0.6-0.5,1.5-1.3,1.5c-0.8,0-4.3-1.2-5.9-1.7c-1.7-0.5-4.7-1.2-4.7-1.2L145,67.7z"/>
				</g>
				<g>
					<path class="st2" d="M146.3,64.7c2.3,0.9,7.3,3.5,9.3,4.7c2.2,1.2,3.3,1.9,3.3,1.9s-0.6,1.4-0.9,2.3c1.8,0.6,4.4,1.5,5.2,1.5
						c0.8,0,1.5-0.9,1.3-1.5c-0.1-0.6-4.8-3.3-6.9-4.7c-2.1-1.3-9.5-5.3-10.1-5.4C146.9,63.2,146.6,63.9,146.3,64.7z"/>
				</g>
				<g>
					<path class="st3" d="M156.9,73.3C156.9,73.3,156.9,73.3,156.9,73.3c-0.1,0-0.1-0.1-0.1-0.2c0,0,0.1-0.5,0.4-1.3
						c0-0.1,0.1-0.1,0.2-0.1c0.1,0,0.1,0.1,0.1,0.2c-0.3,0.8-0.4,1.3-0.4,1.3C157,73.2,156.9,73.3,156.9,73.3z"/>
				</g>
				<g>
					<path class="st3" d="M155.7,72.8C155.7,72.8,155.7,72.8,155.7,72.8c-0.1,0-0.1-0.1-0.1-0.2c0,0,0.1-0.5,0.4-1.3
						c0-0.1,0.1-0.1,0.2-0.1c0.1,0,0.1,0.1,0.1,0.2c-0.3,0.8-0.4,1.3-0.4,1.3C155.8,72.8,155.7,72.8,155.7,72.8z"/>
				</g>
				<g>
					<path class="st3" d="M154.5,72.5C154.5,72.5,154.5,72.5,154.5,72.5c-0.1,0-0.1-0.1-0.1-0.1c0,0,0.2-0.8,0.5-1.6
						c0-0.1,0.1-0.1,0.2-0.1c0.1,0,0.1,0.1,0.1,0.2c-0.3,0.8-0.4,1.6-0.4,1.6C154.6,72.5,154.6,72.5,154.5,72.5z"/>
				</g>
				<g>
					<path class="st3" d="M153.3,72.3C153.3,72.3,153.3,72.3,153.3,72.3c-0.1,0-0.1-0.1-0.1-0.1c0,0,0.2-1.1,0.5-1.9
						c0-0.1,0.1-0.1,0.2-0.1c0.1,0,0.1,0.1,0.1,0.2c-0.3,0.8-0.5,1.8-0.5,1.8C153.4,72.2,153.4,72.3,153.3,72.3z"/>
				</g>
				<g>
					<path class="st3" d="M152.2,71.7C152.2,71.7,152.2,71.7,152.2,71.7c-0.1,0-0.1-0.1-0.1-0.1c0,0,0.2-1.1,0.5-1.9
						c0-0.1,0.1-0.1,0.2-0.1c0.1,0,0.1,0.1,0.1,0.2c-0.3,0.8-0.5,1.8-0.5,1.8C152.3,71.7,152.2,71.7,152.2,71.7z"/>
				</g>
			</g>
			<g>
				<path class="st11" d="M127.6,68c0.6,2.3,4.1,16.6,4.1,16.6l12.5-17.8c0,0,3.9,0.4,6.4,2.2c2.6,1.8,3,3.3,3,3.3s-9,15.1-11,18.6
					c-1.9,3.5-5.9,8-12.1,6.6c-6.2-1.4-18.4-25.1-18.4-25.1L127.6,68z"/>
			</g>
			<g>
				<g>
					<path class="st5" d="M142.2,99.2c-0.6,0.9-13.9,6.3-13.9,6.3l0.9-7.7l2.9-2.7l0.9,0.4c0,0,3.1,0.9,3.6,1.7c0,0,1.1-2,1.6-2.8
						c1.2,1.1,2.2,2,2.5,2.3C141.5,97.4,142.7,98.3,142.2,99.2z"/>
				</g>
				<g>
					<path class="st2" d="M142.2,99.2c0.4-0.7-0.2-1.4-0.8-2c-1.1,0.6-4.1,2.2-5.1,2.7c-0.8,0.5-5,2.2-7.7,3.3l-0.3,2.2
						C128.3,105.5,141.6,100.1,142.2,99.2z"/>
				</g>
				<g>
					<path class="st2" d="M138.3,94.3c-0.5,0.9-1.6,2.8-1.6,2.8c-1.1-0.6-3.6-1.7-3.6-1.7l-4.3-1.4l3-6.4
						C132.7,88.6,137,93.2,138.3,94.3z"/>
				</g>
				<g>
					<path class="st3" d="M134.7,98.7C134.6,98.7,134.6,98.7,134.7,98.7c-0.1-0.1-1.7-2-3.3-2.8c-0.1,0-0.1-0.1-0.1-0.2
						c0-0.1,0.1-0.1,0.2-0.1c1.6,0.8,3.2,2.7,3.2,2.8C134.8,98.5,134.8,98.6,134.7,98.7C134.7,98.7,134.7,98.7,134.7,98.7z"/>
				</g>
				<g>
					<path class="st3" d="M133.1,99.4C133.1,99.4,133.1,99.4,133.1,99.4c-0.1-0.1-1.4-1.8-2.8-2.6c-0.1,0-0.1-0.1,0-0.2
						c0-0.1,0.1-0.1,0.2,0c1.4,0.8,2.7,2.6,2.8,2.6C133.3,99.3,133.3,99.4,133.1,99.4C133.2,99.4,133.2,99.4,133.1,99.4z"/>
				</g>
				<g>
					<path class="st3" d="M131.6,100C131.6,100,131.5,100,131.6,100c-0.1-0.1-0.9-1.2-2.2-2.1c-0.1,0-0.1-0.1,0-0.2
						c0-0.1,0.1-0.1,0.2,0c1.3,1,2.2,2.1,2.2,2.1C131.8,99.9,131.7,100,131.6,100C131.7,100,131.6,100,131.6,100z"/>
				</g>
				<g>
					<path class="st3" d="M130.4,100.7C130.4,100.7,130.4,100.7,130.4,100.7c-0.1,0-1.2-1.1-2.5-2.1c-0.1,0-0.1-0.1,0-0.2
						c0-0.1,0.1-0.1,0.2,0c1.3,1,2.4,2.1,2.4,2.1C130.5,100.6,130.5,100.6,130.4,100.7C130.5,100.7,130.4,100.7,130.4,100.7z"/>
				</g>
			</g>
			<g>
				<path class="st7" d="M135.2,60.7c0.1,2.6,0.3,6.3-3.5,7.9c-3.7,1.5-18,4.6-18,4.6l18.6,13.9c0,0-0.4,4.5-2.8,7.2
					c-2.4,2.7-4.5,4.5-4.5,4.5S102.6,82.7,99,79.9c-3.6-2.8-4.6-6.4-3-11c1.7-4.5,17.7-9.8,17.7-9.8L135.2,60.7z"/>
			</g>
			<g>
				<path class="st7" d="M103.3,63.4c-3.5,1.7-6.6,3.7-7.3,5.6c-1.7,4.5-0.6,8.1,3,11c0.3,0.3,0.9,0.7,1.6,1.2
					c4.5-3.7,13.1-7.9,13.1-7.9C112.7,70.8,105.9,64.6,103.3,63.4z"/>
			</g>
			<g>
				<path class="st12" d="M125.9,26.9c2.6,0.7,11.6,4.2,17.3,13.9s5.2,14.9,4,17.4c-1.2,2.5-5,3.8-7.4,4l-8.4-4.6l-16.1-0.1l-6-14.6
					c0,0-3.8-1.4-3.9-1.8c-0.1-0.4,0.8-2.9,0.8-2.9S93,38.6,92,38.4c-1.4-0.2-7.1-0.3-7.9-4.2c-0.9-3.9,0.4-7.1,3.3-8.7
					c2.8-1.5,6.8-1.9,12.4-1.6c5.6,0.3,12.9,1.3,12.9,1.3L125.9,26.9z"/>
			</g>
			<g>
				<g>
					<path class="st1" d="M113.7,16c-0.7-0.5-1.4-0.4-1.8,0.2c-0.5,0.6-0.2,1.8,0.7,2.4c1,0.6,1.8,0.8,1.8,0.8L113.7,16z"/>
				</g>
				<g>
					<path class="st2" d="M113.7,14.4c-0.2,0.7-0.4,1.7-0.1,3.3c0.3,1.6,0.8,2.3,1.2,2.8l-0.2,4.6l-2,0.1c0,0,0.1,2.1,1.8,3.2
						c1.6,1.1,3.6,1.1,5,1c1.9-0.1,3.6-0.7,3.9-0.9c1.5-0.6,2.6-1.7,2.6-1.7s-4.1-1.4-4.1-2.3c0-0.9,0.1-3.9,0.1-3.9
						s0.1-0.5,0.2-1.2c0,0,1.2,0.1,2.1-1c0.9-1.1,0.8-2.4-0.1-2.9c-0.9-0.5-1.7,0.4-1.7,0.4s-0.7-1.4-1.2-2.6
						c-0.3-0.9-2.2-1.9-4.4-1.6C115.1,11.9,114.1,13.2,113.7,14.4z"/>
				</g>
				<g>
					<g>
						<g>
							<g>
								<path class="st8" d="M119.1,15.9c0.2,0,0.2-0.1,0.2-0.4c0-0.2-0.1-0.3-0.3-0.3c-0.2,0-0.2,0.1-0.2,0.4
									C118.8,15.8,118.9,15.9,119.1,15.9z"/>
							</g>
						</g>
					</g>
				</g>
				<g>
					<g>
						<g>
							<g>
								<path class="st8" d="M115.9,16.1c0.2,0,0.2-0.1,0.2-0.4c0-0.2-0.1-0.3-0.3-0.3c-0.2,0-0.2,0.1-0.2,0.4
									S115.8,16.1,115.9,16.1z"/>
							</g>
						</g>
					</g>
				</g>
				<g>
					<path class="st7" d="M118.3,14.2c0,0-0.1,0-0.1-0.1c0-0.1,0-0.1,0.1-0.2c0.6-0.3,1.2-0.3,1.7-0.1c0.1,0,0.1,0.1,0.1,0.2
						c0,0.1-0.1,0.1-0.2,0.1C119.6,13.9,119,13.8,118.3,14.2C118.3,14.1,118.3,14.2,118.3,14.2z"/>
				</g>
				<g>
					<path class="st7" d="M115,14.5c0,0-0.1,0-0.1-0.1c0-0.1,0-0.1,0-0.2c0.4-0.2,1.1-0.4,1.8-0.2c0.1,0,0.1,0.1,0.1,0.2
						c0,0.1-0.1,0.1-0.2,0.1C116.1,14.1,115.5,14.3,115,14.5C115.1,14.5,115.1,14.5,115,14.5z"/>
				</g>
				<g>
					<path class="st9" d="M117.5,17.2C117.5,17.2,117.5,17.2,117.5,17.2c-0.1,0-0.6,0-0.8-0.2c-0.1-0.1-0.1-0.1-0.1-0.2
						c0-0.2,0.1-0.4,0.3-0.6c0.2-0.3,0.3-0.6,0.4-0.9c0-0.1,0.1-0.1,0.2-0.1c0.1,0,0.1,0.1,0.1,0.2c-0.1,0.4-0.3,0.7-0.5,1
						c-0.1,0.2-0.2,0.4-0.2,0.5c0,0,0,0,0,0c0.1,0.1,0.4,0.2,0.7,0.2c0.1,0,0.1,0.1,0.1,0.1C117.7,17.2,117.6,17.2,117.5,17.2z"/>
				</g>
				<g>
					<path class="st9" d="M122.6,18.2C122.6,18.2,122.6,18.2,122.6,18.2c-0.1,0-0.1-0.1-0.1-0.2c0-0.1,0.7-1.3,1.3-1.8
						c0.1,0,0.1,0,0.2,0c0,0.1,0,0.1,0,0.2c-0.6,0.5-1.3,1.7-1.3,1.7C122.7,18.2,122.7,18.2,122.6,18.2z"/>
				</g>
				<g>
					<path class="st9" d="M113.4,18.2c0,0-0.1,0-0.1-0.1c0,0-0.5-1.2-0.8-1.5c0,0,0-0.1,0-0.2c0,0,0.1-0.1,0.2,0
						c0.4,0.4,0.9,1.5,0.9,1.6C113.6,18.1,113.5,18.2,113.4,18.2C113.4,18.2,113.4,18.2,113.4,18.2z"/>
				</g>
				<g>
					<g>
						<g>
							<g>
								<g>
									<g>
										<path class="st10" d="M120.3,17.9c0.3,0,0.5-0.3,0.5-0.8c0-0.5-0.2-0.8-0.5-0.7c-0.3,0-0.5,0.3-0.5,0.8
											C119.8,17.7,120,18,120.3,17.9z"/>
									</g>
								</g>
							</g>
						</g>
					</g>
				</g>
				<g>
					<g>
						<g>
							<g>
								<g>
									<g>
										<path class="st10" d="M115.1,18.1c0.3-0.1,0.5-0.3,0.4-0.8c-0.1-0.5-0.3-0.7-0.6-0.7c-0.3,0.1-0.5,0.3-0.4,0.8
											C114.6,18,114.8,18.2,115.1,18.1z"/>
									</g>
								</g>
							</g>
						</g>
					</g>
				</g>
				<g>
					<path class="st9" d="M117.3,18.2c-0.4,0-0.8-0.1-1.1-0.2c-0.1,0-0.1-0.1-0.1-0.2c0-0.1,0.1-0.1,0.2-0.1
						c0.8,0.3,2.2,0.1,2.8-0.1c0.1,0,0.1,0,0.2,0.1c0,0.1,0,0.1-0.1,0.2C118.7,18.1,117.9,18.2,117.3,18.2z"/>
				</g>
				<g>
					<path class="st9" d="M117.5,21.7c-0.9,0-2-0.2-2.8-1.1c0-0.1,0-0.1,0-0.2c0.1,0,0.1,0,0.2,0c1.1,1.2,2.8,1.1,3.5,1
						c0.1,0,0.1,0,0.1,0.1s0,0.1-0.1,0.1C118.2,21.7,117.9,21.7,117.5,21.7z"/>
				</g>
				<g>
					<path class="st5" d="M113.4,16.2c-0.4-0.1-0.7-1.2-0.6-1.7c0.1-0.9,1.1-1.2,1-1.8c-0.1-0.9,0.3-1.6,1.3-1.9
						c1-0.3,1.6,0.1,2-0.4c0.5-0.6,1.1-0.7,1.6-0.1c0.4,0.5,1,0,1.5-0.2c0.4-0.2,1.5,0.5,1.5,0.5s0.6-0.9,0.2-2
						c-0.2-0.7,0.1-2.2,1.1-2.4c1.3-0.2,1.3-0.9,1.7-1.5s1.3-1,2.1-0.6c0.7,0.4,1.2,0.7,2.1,0.6c0.9-0.1,1.1-1.4,2-1.5
						c0.9-0.1,1.4,0.1,1.9,0.5c0.5,0.4,0.5,1.6,1.2,1.3c0.8-0.3,2,0.7,1.6,1.5c-0.5,0.9,0.4,0.9,0.9,1.4c0.4,0.5,0.3,1.4-0.4,1.9
						c-0.7,0.4-0.8,0.5-0.8,1.2c0,0.7-1.3,1.6-2,0.9c-0.7-0.7-1.9,0-2.2,0.8c-0.2,0.7-2,0.8-2.6-0.1c-0.5-0.9-1.3-0.9-2.1-0.4
						c-0.7,0.4-1.2,0.7-1.9-0.3c-0.4-0.6-1.4-0.4-1.7,0.1c-0.3,0.5-0.4,0.8,0,1.1c0.4,0.4,0.9,1.1,0.9,1.7c0,0.6-1.3,1.6-1.3,1.6
						s-0.2-1.1-0.5-1.7c-0.2-0.4-0.9-1.9-1.9-2.2c-0.9-0.3-2.2-0.6-3.6-0.2c-1.7,0.6-2.2,1.5-2.5,2.1
						C113.6,15.2,113.4,16.2,113.4,16.2z"/>
				</g>
			</g>
			<g>
				<path class="st2" d="M94.5,30.1c0,0-2.3,0.6-2.8,3.7c-0.5,3,0.4,4.4,0.4,4.4s5.8,0.8,9.1,1.1c3.3,0.3,16,0.2,16,0.2
					s0.8-2.1,0.4-3.3c-0.4-1.3-1.9-3.3-4.3-3.8c-2.3-0.4-6.8-1.1-9.7-1.4C100.7,30.7,94.5,30.1,94.5,30.1z"/>
			</g>
			<g>
				<path class="st2" d="M112.3,61c0.1,0.9,2.1,1.8,4.7,2.3c2.6,0.5,8.3,0.6,11.2,0.4c2.8-0.1,11.6-1.5,11.6-1.5s0.9-3-0.2-5.7
					c-1.1-2.7-4.4-3.6-4.4-3.6s-6,1.2-7.3,1.1c-1.3-0.1-3.6-0.2-4.5,0.3C122.6,55,112.3,61,112.3,61z"/>
			</g>
			<g>
				<path class="st3" d="M122.9,61.1h-13.2c-0.6,0-1.1-0.5-1.1-1.1V40.5c0-0.6,0.5-1.1,1.1-1.1h13.2c0.6,0,1.1,0.5,1.1,1.1V60
					C124,60.6,123.5,61.1,122.9,61.1z"/>
				<path class="st11" d="M122.9,61.3h-13.2c-0.7,0-1.3-0.6-1.3-1.3V40.5c0-0.7,0.6-1.3,1.3-1.3h13.2c0.7,0,1.3,0.6,1.3,1.3V60
					C124.2,60.7,123.6,61.3,122.9,61.3z M109.7,39.7c-0.5,0-0.8,0.4-0.8,0.8V60c0,0.5,0.4,0.8,0.8,0.8h13.2c0.5,0,0.8-0.4,0.8-0.8
					V40.5c0-0.5-0.4-0.8-0.8-0.8H109.7z"/>
			</g>
			<g>
				<path class="st2" d="M110.6,38.7c0,1,0.3,1.7,1,1.8c0.8,0.1,1.3-0.6,1.4-1.3c0,0,0.1,0.9,1.1,1c1,0,1.3-0.5,1.4-1
					c0,0-0.1,0.7,0.7,0.8c0.7,0,0.9-0.1,1.2-0.9c0.2-0.7-1.5-1.2-3.3-1.2C112.2,37.9,110.6,38.7,110.6,38.7z"/>
			</g>
			<g>
				<path class="st2" d="M124.5,54.2c-1.1,0.2-1.7,1.5-2.7,2.5c-1,1-3.4,1.3-4,2.3c-0.6,1-0.2,1.7,0.9,1.8c1.1,0.1,2.7-0.1,3.8-0.6
					c1.1-0.5,2.4-1.2,2.4-1.2L124.5,54.2z"/>
			</g>
			<g>
				<path class="st13" d="M116.4,53.8"/>
			</g>
			<g>
				<path class="st13" d="M116.4,43.9"/>
			</g>
			<g>
				<path class="st7" d="M94.2,30.1C94.2,30.1,94.2,30.1,94.2,30.1c-0.8,0-1.5-0.1-2.2-0.1c-2.4-0.2-4.2-0.3-5.4-0.1
					c-0.1,0-0.1,0-0.1-0.1c0-0.1,0-0.1,0.1-0.1c1.2-0.2,3.1-0.1,5.5,0.1c0.7,0,1.4,0.1,2.2,0.1c0.1,0,0.1,0.1,0.1,0.1
					C94.3,30.1,94.2,30.1,94.2,30.1z"/>
			</g>
			<g>
				<path class="st7" d="M136.3,53.1c0,0-0.1,0-0.1-0.1c-0.1-0.1-6.1-11.7-7.6-14.3c0-0.1,0-0.1,0-0.2c0.1,0,0.1,0,0.2,0
					c1.5,2.6,7.6,14.1,7.6,14.3C136.4,53,136.4,53,136.3,53.1C136.3,53.1,136.3,53.1,136.3,53.1z"/>
			</g>
			<g>
				<path class="st7" d="M135.2,53.2c-0.1,0-0.1,0-0.1-0.1c0-0.1,0-0.1,0.1-0.1c1.2-0.2,6.8-0.9,8.3-0.9c0.1,0,0.1,0.1,0.1,0.1
					s-0.1,0.1-0.1,0.1C142,52.3,136.5,52.9,135.2,53.2C135.2,53.2,135.2,53.2,135.2,53.2z"/>
			</g>
			<g>
				<path class="st9" d="M110.6,39.5C110.6,39.5,110.6,39.5,110.6,39.5c-0.1,0-0.1-0.1-0.1-0.1c0,0,0-0.7-0.2-1.3
					c-0.2-0.5-0.7-1-0.9-1.1c-1.2,0.8-2.3,0.5-3.2,0.1c-0.1,0-0.1-0.1-0.1-0.2c0-0.1,0.1-0.1,0.2-0.1c0.8,0.4,1.9,0.6,3-0.2
					c0,0,0.1,0,0.1,0c0,0,0.8,0.6,1,1.3c0.3,0.7,0.2,1.4,0.2,1.4C110.7,39.4,110.7,39.5,110.6,39.5z"/>
			</g>
			<g>
				<path class="st9" d="M113,39.3C113,39.3,113,39.3,113,39.3c-0.1,0-0.1-0.1-0.1-0.1c0.1-1,0-2.3-0.6-3.1c0-0.1,0-0.1,0-0.2
					c0.1,0,0.1,0,0.2,0c0.7,0.8,0.9,2.2,0.7,3.3C113.1,39.2,113.1,39.3,113,39.3z"/>
			</g>
			<g>
				<path class="st9" d="M115.5,39.3C115.5,39.3,115.5,39.3,115.5,39.3c-0.1,0-0.1-0.1-0.1-0.1c0.3-1.2,0.1-3-0.8-3.9
					c0,0,0-0.1,0-0.2c0,0,0.1,0,0.2,0c0.9,0.9,1.1,2.8,0.8,4.1C115.6,39.2,115.6,39.3,115.5,39.3z"/>
			</g>
			<g>
				<path class="st9" d="M120.6,60.8c-0.1,0-0.1,0-0.1-0.1c-0.1-0.3-0.4-0.5-0.6-0.6c-0.6-0.3-1.7-0.3-2.2,0c-0.1,0-0.1,0-0.2,0
					c0-0.1,0-0.1,0-0.2c0.6-0.3,1.7-0.3,2.4,0c0.4,0.2,0.6,0.4,0.7,0.8C120.7,60.7,120.7,60.8,120.6,60.8
					C120.6,60.8,120.6,60.8,120.6,60.8z"/>
			</g>
			<g>
				<path class="st9" d="M115.2,63C115.2,63,115.2,63,115.2,63c-0.1,0-0.1-0.1-0.1-0.2c0,0,0-0.1,0-0.2c-0.1-0.4-0.9-0.9-1.4-1.1
					c-0.1,0-0.1-0.1-0.1-0.2c0-0.1,0.1-0.1,0.2-0.1c0.6,0.2,1.4,0.8,1.6,1.3c0.1,0.1,0.1,0.3,0,0.4C115.3,62.9,115.3,63,115.2,63z"
					/>
			</g>
			<g>
				<path class="st9" d="M124.3,59.4c0,0-0.1,0-0.1-0.1c0-0.1,0-0.1,0.1-0.2c0.9-0.5,1.9-0.9,1.9-0.9c0.1,0,0.1,0,0.2,0.1
					c0,0.1,0,0.1-0.1,0.2C126.2,58.4,125.2,58.9,124.3,59.4C124.3,59.4,124.3,59.4,124.3,59.4z"/>
			</g>
			<g>
				<path class="st9" d="M111.4,40.4c-0.1,0-0.1-0.1-0.1-0.1c0-0.3,0.1-0.8,0.5-1.2c0.3-0.3,0.8-0.4,1.3-0.4c0.1,0,0.1,0.1,0.1,0.1
					c0,0.1-0.1,0.1-0.1,0.1c-0.4,0-0.8,0.1-1.1,0.3c-0.3,0.3-0.4,0.7-0.4,1C111.5,40.4,111.4,40.4,111.4,40.4
					C111.4,40.4,111.4,40.4,111.4,40.4z"/>
			</g>
			<g>
				<path class="st9" d="M114.1,40.2C114.1,40.2,114.1,40.2,114.1,40.2c-0.1,0-0.1-0.1-0.1-0.1c0.1-0.6,0.4-1.7,1.6-1.7
					c0.1,0,0.1,0.1,0.1,0.1s-0.1,0.1-0.1,0.1c-0.9,0-1.2,0.8-1.3,1.5C114.2,40.2,114.1,40.2,114.1,40.2z"/>
			</g>
			<g>
				<path class="st9" d="M116.2,40C116.2,40,116.2,40,116.2,40c-0.1,0-0.1-0.1-0.1-0.1c0.1-0.9,0.5-2.1,1.5-2.1c0,0,0,0,0,0
					c0.1,0,0.1,0.1,0.1,0.1c0,0.1-0.1,0.1-0.1,0.1c-0.9,0-1.2,1.2-1.3,1.9C116.3,40,116.2,40,116.2,40z"/>
			</g>
			<g>
				<path class="st14" d="M112.1,72.5C112.1,72.5,112.1,72.5,112.1,72.5c-2-1.3-10.1-5.8-10.2-5.8c-0.1,0-0.1-0.1,0-0.2
					c0-0.1,0.1-0.1,0.2,0c0.1,0,8.2,4.5,10.1,5.8c0.1,0,0.1,0.1,0,0.2C112.2,72.5,112.2,72.5,112.1,72.5z"/>
			</g>
			<g>
				<path class="st14" d="M109.9,72.5C109.9,72.5,109.8,72.5,109.9,72.5c-1.6-0.3-7.9-1.5-7.9-1.5c-0.1,0-0.1-0.1-0.1-0.1
					c0-0.1,0.1-0.1,0.1-0.1c0.1,0,6.3,1.2,7.9,1.5c0.1,0,0.1,0.1,0.1,0.1C110,72.4,109.9,72.5,109.9,72.5z"/>
			</g>
			<g>
				<path class="st9" d="M126.4,8.9c-0.4,0-0.8-0.4-0.8-0.8c0-0.4,0.4-0.8,0.8-0.8s0.8,0.4,0.8,0.8C127.2,8.5,126.9,8.9,126.4,8.9z
					 M126.4,7.6c-0.3,0-0.6,0.2-0.6,0.6c0,0.3,0.2,0.6,0.6,0.6s0.6-0.2,0.6-0.6C127,7.8,126.7,7.6,126.4,7.6z"/>
			</g>
			<g>
				<path class="st9" d="M129.7,11.4c-0.4,0-0.7-0.3-0.7-0.7s0.3-0.7,0.7-0.7s0.7,0.3,0.7,0.7S130.1,11.4,129.7,11.4z M129.7,10.2
					c-0.3,0-0.5,0.2-0.5,0.5s0.2,0.5,0.5,0.5s0.5-0.2,0.5-0.5S129.9,10.2,129.7,10.2z"/>
			</g>
			<g>
				<path class="st9" d="M130.6,6.6c-0.4,0-0.6-0.3-0.6-0.6c0-0.4,0.3-0.6,0.6-0.6c0.4,0,0.6,0.3,0.6,0.6
					C131.2,6.3,130.9,6.6,130.6,6.6z M130.6,5.5c-0.2,0-0.4,0.2-0.4,0.4c0,0.2,0.2,0.4,0.4,0.4s0.4-0.2,0.4-0.4
					C131,5.7,130.8,5.5,130.6,5.5z"/>
			</g>
			<g>
				<path class="st9" d="M133.5,9.7c-0.5,0-0.9-0.4-0.9-0.9S133,8,133.5,8s0.9,0.4,0.9,0.9S133.9,9.7,133.5,9.7z M133.5,8.2
					c-0.4,0-0.6,0.3-0.6,0.6s0.3,0.6,0.6,0.6s0.6-0.3,0.6-0.6S133.8,8.2,133.5,8.2z"/>
			</g>
		</g>
		<g>
			<g>
				<path class="st11" d="M120,92.7c6.2-0.1,10.3,2.7,10.4,7.1c0.1,4.4-2.1,10.6-7.6,12.2c-5.5,1.7-30.4,6.8-30.4,6.8L88,105
					l25.1-7.1L120,92.7z"/>
			</g>
			<g>
				<path class="st15" d="M100.8,108.6c0.9,0.4-1.4,4.6-2.6,6.5c-1.1,1.9-2.9,6.9-4.2,6c-1.4-0.9,0.5-5,1.6-7.4
					C96.7,111.3,99.4,107.9,100.8,108.6z"/>
			</g>
			<g>
				<g>
					<path class="st2" d="M97.9,110.2c2.2,1.5,3.6,3.7,4.8,5.4c1.2,1.7,3.1,4.3,3.2,6.4c0.1,1.6-0.2,2.2-0.3,2.6
						c-0.2,0.3-1.5,1.2-1.5,1.2l-7.8-13.3L97.9,110.2z"/>
				</g>
				<g>
					<path class="st4" d="M96.7,111.5c1.5,1.2,4.8,5.3,5.8,6.8c1,1.5,2.4,4.3,2.6,5.4c0.1,1.1-0.1,1.8-1,2.1
						c-0.9,0.3-2.4-0.6-3.4-2.2c-0.9-1.5-2.6-3.1-3.7-4.3c-0.9-1-3.1-3.7-3.1-3.7L96.7,111.5z"/>
				</g>
				<g>
					<path class="st1" d="M101.3,124.5c0.9,1,2,1.6,2.7,1.3c0.9-0.3,1.2-1,1-2.1c0-0.4-0.2-1-0.5-1.6
						C102.6,122.4,101.8,123.6,101.3,124.5z"/>
				</g>
				<g>
					<g>
						<path class="st3" d="M100.9,122.5C100.8,122.5,100.8,122.5,100.9,122.5c-0.1-0.1-0.1-0.1-0.1-0.2c0.4-0.5,1-1,1.5-1.2
							c0.1,0,0.1,0,0.1,0.1s0,0.1-0.1,0.1C102,121.5,101.4,121.9,100.9,122.5C100.9,122.5,100.9,122.5,100.9,122.5z"/>
					</g>
					<g>
						<path class="st3" d="M100.1,121.7C100,121.7,100,121.7,100.1,121.7c-0.1-0.1-0.1-0.1-0.1-0.2c0.4-0.6,1.1-1.1,1.6-1.3
							c0.1,0,0.1,0,0.2,0.1c0,0.1,0,0.1-0.1,0.2c-0.5,0.2-1.1,0.7-1.5,1.2C100.1,121.7,100.1,121.7,100.1,121.7z"/>
					</g>
					<g>
						<path class="st3" d="M99.3,120.5C99.2,120.5,99.2,120.5,99.3,120.5c-0.1-0.1-0.1-0.1-0.1-0.2c0.4-0.6,0.9-1,1.5-1.3
							c0.1,0,0.1,0,0.2,0.1c0,0.1,0,0.1-0.1,0.2C100.2,119.5,99.8,119.9,99.3,120.5C99.3,120.5,99.3,120.5,99.3,120.5z"/>
					</g>
					<g>
						<path class="st3" d="M98.5,119.3C98.5,119.3,98.5,119.3,98.5,119.3c-0.1-0.1-0.1-0.2-0.1-0.2c0.3-0.4,1-1,1.4-1.2
							c0.1,0,0.1,0,0.2,0.1c0,0.1,0,0.1-0.1,0.2C99.6,118.3,99,118.9,98.5,119.3C98.6,119.3,98.6,119.3,98.5,119.3z"/>
					</g>
					<g>
						<path class="st3" d="M97.7,118.3C97.6,118.3,97.6,118.3,97.7,118.3c-0.1-0.1-0.1-0.1-0.1-0.2c0.2-0.3,0.7-1,1.3-1.2
							c0.1,0,0.1,0,0.2,0.1c0,0.1,0,0.1-0.1,0.2c-0.5,0.2-1,0.9-1.2,1.2C97.7,118.2,97.7,118.3,97.7,118.3z"/>
					</g>
					<g>
						<path class="st3" d="M96.4,117.2C96.4,117.2,96.4,117.2,96.4,117.2c-0.1-0.1-0.1-0.1-0.1-0.2c0.4-0.6,0.9-1.1,1.5-1.3
							c0.1,0,0.1,0,0.2,0.1c0,0.1,0,0.1-0.1,0.2c-0.5,0.3-1,0.7-1.4,1.2C96.5,117.1,96.4,117.2,96.4,117.2z"/>
					</g>
					<g>
						<path class="st3" d="M95.4,116.4C95.4,116.4,95.3,116.4,95.4,116.4c-0.1,0-0.1-0.1-0.1-0.2c0.2-0.6,0.9-1.4,1.5-1.6
							c0.1,0,0.1,0,0.2,0.1c0,0.1,0,0.1-0.1,0.2c-0.5,0.2-1.1,1-1.3,1.5C95.5,116.4,95.4,116.4,95.4,116.4z"/>
					</g>
				</g>
			</g>
			<g>
				<g>
					<path class="st2" d="M89.4,108.6c-2.5,1-4.2,3-5.7,4.4c-1.5,1.4-3.9,3.6-4.4,5.7c-0.4,1.5-0.3,2.2-0.2,2.6
						c0.1,0.4,1.2,1.5,1.2,1.5l10.2-11.5L89.4,108.6z"/>
				</g>
				<g>
					<path class="st4" d="M90.3,110.1c-1.7,0.9-5.7,4.3-7,5.6c-1.3,1.3-3.2,3.7-3.6,4.8c-0.3,1.1-0.3,1.7,0.6,2.3
						c0.9,0.5,2.5-0.2,3.7-1.5c1.2-1.3,3.2-2.5,4.4-3.5c1-0.8,3.8-3.1,3.8-3.1L90.3,110.1z"/>
				</g>
				<g>
					<path class="st1" d="M83.3,122c-1.1,0.8-2.3,1.2-2.9,0.8c-0.9-0.5-0.9-1.2-0.6-2.3c0.1-0.4,0.4-0.9,0.8-1.5
						C82.4,119.7,82.9,121,83.3,122z"/>
				</g>
				<g>
					<g>
						<path class="st3" d="M84.1,120.2c0,0-0.1,0-0.1-0.1c-0.3-0.6-0.8-1.2-1.1-1.3c-0.1,0-0.1-0.1-0.1-0.2c0-0.1,0.1-0.1,0.2-0.1
							c0.4,0.2,0.9,0.8,1.2,1.4C84.2,120.1,84.2,120.1,84.1,120.2C84.1,120.2,84.1,120.2,84.1,120.2z"/>
					</g>
					<g>
						<path class="st3" d="M85,119.5c0,0-0.1,0-0.1-0.1c-0.2-0.6-0.8-1.2-1.2-1.5c-0.1,0-0.1-0.1,0-0.2c0-0.1,0.1-0.1,0.2,0
							c0.4,0.3,1.1,0.9,1.3,1.6C85.2,119.4,85.1,119.4,85,119.5C85.1,119.5,85.1,119.5,85,119.5z"/>
					</g>
					<g>
						<path class="st3" d="M86,118.5c0,0-0.1,0-0.1-0.1c-0.3-0.6-0.7-1.1-1.1-1.4c-0.1,0-0.1-0.1,0-0.2s0.1-0.1,0.2,0
							c0.5,0.4,0.9,0.9,1.2,1.5C86.2,118.4,86.2,118.4,86,118.5C86.1,118.5,86.1,118.5,86,118.5z"/>
					</g>
					<g>
						<path class="st3" d="M87,117.5c0,0-0.1,0-0.1-0.1c-0.3-0.5-0.8-1.1-1.1-1.3c-0.1,0-0.1-0.1,0-0.2c0-0.1,0.1-0.1,0.2,0
							c0.4,0.3,0.9,1,1.2,1.4C87.1,117.4,87.1,117.4,87,117.5C87,117.5,87,117.5,87,117.5z"/>
					</g>
					<g>
						<path class="st3" d="M88.1,116.6c0,0-0.1,0-0.1-0.1c-0.1-0.3-0.5-1-0.9-1.4c-0.1,0-0.1-0.1,0-0.2c0-0.1,0.1-0.1,0.2,0
							c0.5,0.4,0.9,1.1,1,1.5C88.2,116.5,88.2,116.5,88.1,116.6C88.1,116.6,88.1,116.6,88.1,116.6z"/>
					</g>
					<g>
						<path class="st3" d="M89.5,115.7c0,0-0.1,0-0.1-0.1c-0.2-0.6-0.6-1.1-1.1-1.5c-0.1,0-0.1-0.1,0-0.2c0-0.1,0.1-0.1,0.2,0
							c0.5,0.4,0.9,0.9,1.2,1.6C89.6,115.6,89.6,115.7,89.5,115.7C89.5,115.7,89.5,115.7,89.5,115.7z"/>
					</g>
					<g>
						<path class="st3" d="M90.7,115.2c-0.1,0-0.1,0-0.1-0.1c-0.1-0.5-0.6-1.4-1-1.7c-0.1,0-0.1-0.1,0-0.2c0-0.1,0.1-0.1,0.2,0
							c0.5,0.3,1,1.3,1.1,1.9C90.8,115.1,90.7,115.2,90.7,115.2C90.7,115.2,90.7,115.2,90.7,115.2z"/>
					</g>
				</g>
			</g>
			<g>
				<path class="st7" d="M62.5,88.4c4-0.2,14.8,5,14.8,5s9.1,6.8,11.7,8.4c2.6,1.5,11.8,6.8,11.8,6.8s-2.1,0.5-5.2,6.2
					c-1.8,3.3-1.6,6.3-1.6,6.3s-9.1-3.3-12.7-4.6c-3.3-1.3-18.4-6.9-22.5-9.9c-4-2.9-6-7.7-3.6-12.4C57.7,89.5,60.1,88.5,62.5,88.4z
					"/>
			</g>
			<g>
				<path class="st16" d="M98.2,69.8c2.7,0.4,11.5,4.9,16.4,9.6c4.9,4.8,9,9.9,7.3,16.2s-7.9,8-11.1,7.8c-3.1-0.1-5.2-0.4-5.2-0.4
					L103,91.4l4.8-0.3l-5.4-3L101,99.8l-17.5-0.6l-0.9-11.7l-5,2.7l3.3,0.1l0.2,11.5c0,0-9.7,2.1-13.5-1c-3.8-3.1-4.8-6.9-3.3-11.2
					c1.5-4.4,5.4-9.3,10.5-13c5.1-3.7,12.9-6.5,16.6-6.9C95,69.4,98.2,69.8,98.2,69.8z"/>
			</g>
			<g>
				<g>
					<path class="st17" d="M92.3,57.2c0.8-0.1,0.9-0.9,1.4-1.9c0.7-1.3,2.3-1.5,2.9-0.7c0.6,0.8,0.5,1.6,1.2,1.6
						c0.7,0,1.7-0.9,2.8-0.5c1.2,0.5,0.7,1.7,0.5,2.3c-0.2,0.6-0.2,1.7,0.3,1.8c0.5,0.1,1.2,0.7,0.9,1.5S101,63,101,63.1
						c0.1,0,1.2-0.1,1.2,0.3c0.1,0.5-1.5,1.6-1.5,1.6s0.9,1,0.9,1.8c0,0.8-2.3,0.6-2.3,0.6S94,67.6,93.4,68
						c-0.6,0.3-2.3,0.4-2.9-0.1c-0.6-0.5-0.6-1.7-0.4-2.4c0.2-0.6-1.6-0.9-1.4-1.8c0.2-1,1-1.2,0.8-1.9c-0.1-0.7-1-2.2-0.4-3.1
						C89.7,57.6,90.6,57.4,92.3,57.2z"/>
				</g>
				<g>
					<path class="st2" d="M91.4,64.4c0,0,0.4-0.7,0.5-1.6c0.1-0.9-0.2-2,0.5-2.7c1.2-1.2,4.4-1.7,5.8-1c1.1,0.5,1.6,2.1,1.6,3.5
						c0,1,0.3,1.5,0.3,1.5s0.3-1.1,0.9-0.9c0.6,0.1,0.7,1.4,0.4,2.2s-0.8,1.6-1.4,1.3c0,0-0.3,1.4-1.2,2.2c0,0,0.1,2.3,0,2.7
						c-0.1,0.5-1.9,2.2-4.3,2.1c-2.4-0.1-3.6-2.5-3.7-2.8c-0.1-0.3,1.3-3,1.3-3s-0.5-0.6-0.6-0.9c0,0-2-0.3-1.9-1.8
						C89.8,63.4,91.4,64.4,91.4,64.4z"/>
				</g>
				<g>
					<g>
						<g>
							<g>
								<path class="st8" d="M93.6,63.6c-0.2,0-0.2-0.1-0.2-0.3c0-0.2,0.1-0.3,0.2-0.4c0.2,0,0.2,0.1,0.2,0.3
									C93.8,63.5,93.7,63.6,93.6,63.6z"/>
							</g>
						</g>
					</g>
				</g>
				<g>
					<g>
						<g>
							<g>
								<path class="st8" d="M97.9,63.4c-0.2,0-0.2-0.1-0.2-0.3c0-0.2,0.1-0.3,0.2-0.4c0.2,0,0.2,0.1,0.2,0.3
									C98.1,63.3,98,63.4,97.9,63.4z"/>
							</g>
						</g>
					</g>
				</g>
				<g>
					<path class="st7" d="M92.7,62c-0.1,0-0.1,0-0.2-0.1c-0.1-0.1-0.1-0.3,0-0.3c0.5-0.4,1.1-0.5,1.8-0.5c0.1,0,0.2,0.1,0.2,0.3
						s-0.1,0.2-0.3,0.2c-0.8-0.1-1.2,0.2-1.4,0.4C92.8,62,92.8,62,92.7,62z"/>
				</g>
				<g>
					<path class="st7" d="M98.5,61.4C98.4,61.4,98.4,61.4,98.5,61.4c-0.5-0.2-1.1-0.3-1.6,0c-0.1,0.1-0.3,0-0.3-0.1
						c-0.1-0.1,0-0.3,0.1-0.3c0.8-0.4,1.7-0.1,1.9,0c0.1,0.1,0.2,0.2,0.1,0.3C98.6,61.4,98.6,61.4,98.5,61.4z"/>
				</g>
				<g>
					<path class="st9" d="M96.4,64.2C96.3,64.2,96.3,64.2,96.4,64.2c-0.1-0.1-0.1-0.1-0.1-0.2c0,0,0.2-0.3,0.1-0.5
						c0-0.1-0.2-0.3-0.4-0.5c-0.2-0.1-0.3-0.3-0.4-0.4c0-0.1,0-0.1,0-0.2c0.1,0,0.1,0,0.2,0c0.1,0.1,0.2,0.2,0.3,0.4
						c0.2,0.2,0.5,0.4,0.5,0.6c0,0.3-0.2,0.7-0.2,0.7C96.4,64.2,96.4,64.2,96.4,64.2z"/>
				</g>
				<g>
					<path class="st3" d="M94.1,65.8c0-0.2,0.8-0.2,2-0.3c1.2-0.1,1.9-0.3,2-0.2c0.2,0.1-0.7,1.5-1.9,1.5
						C95,66.9,94.1,65.8,94.1,65.8z"/>
					<path class="st9" d="M96.2,67c-1.2,0-2.1-1.1-2.2-1.1c0,0,0,0,0-0.1c0,0,0-0.1,0-0.1c0.1-0.2,0.5-0.2,1.6-0.3l0.4,0
						c0.5,0,0.8-0.1,1.1-0.1c0.6-0.1,0.8-0.1,1,0c0.1,0.1,0,0.2,0,0.3C98.1,66,97.3,66.9,96.2,67C96.2,67,96.2,67,96.2,67z
						 M94.3,65.8c0.2,0.2,1,1,2,0.9c0.7,0,1.2-0.5,1.4-0.7c0.2-0.3,0.4-0.5,0.4-0.6c-0.1,0-0.4,0-0.8,0.1c-0.3,0-0.7,0.1-1.1,0.1
						l-0.4,0C95.1,65.7,94.5,65.7,94.3,65.8z"/>
				</g>
				<g>
					<path class="st9" d="M96.1,69.8c-1.6,0-3-0.7-4-2c0-0.1,0-0.1,0-0.2c0.1,0,0.1,0,0.2,0c1,1.3,2.4,1.9,4,1.9
						c1.6-0.1,2.5-0.9,2.5-1c0,0,0.1,0,0.2,0c0,0,0.1,0.1,0,0.2c0,0-0.9,1-2.7,1C96.2,69.8,96.2,69.8,96.1,69.8z"/>
				</g>
				<g>
					<path class="st9" d="M91.1,66c-0.1,0-0.1,0-0.1-0.1c0,0-0.1-0.5-0.7-0.9c-0.1,0-0.1-0.1,0-0.2c0-0.1,0.1-0.1,0.2,0
						c0.7,0.5,0.8,1,0.8,1C91.3,65.9,91.2,66,91.1,66C91.2,66,91.1,66,91.1,66z"/>
				</g>
				<g>
					<path class="st9" d="M100.4,65.8C100.3,65.8,100.3,65.8,100.4,65.8c-0.1,0-0.1-0.1-0.1-0.1c0-0.1,0.3-1.4,0.5-1.8
						c0-0.1,0.1-0.1,0.2,0c0.1,0,0.1,0.1,0,0.2c-0.2,0.4-0.5,1.7-0.5,1.7C100.5,65.8,100.4,65.8,100.4,65.8z"/>
				</g>
				<g>
					<g>
						<g>
							<g>
								<g>
									<g>
										<path class="st10" d="M93,65.8c-0.3,0-0.5-0.2-0.6-0.7c0-0.5,0.1-0.8,0.4-0.8c0.3,0,0.5,0.2,0.6,0.7
											C93.5,65.5,93.3,65.8,93,65.8z"/>
									</g>
								</g>
							</g>
						</g>
					</g>
				</g>
				<g>
					<g>
						<g>
							<g>
								<g>
									<g>
										<path class="st10" d="M99,65.3c-0.3,0-0.5-0.3-0.5-0.8c0-0.5,0.2-0.7,0.6-0.7c0.3,0,0.5,0.3,0.5,0.8
											C99.5,65.1,99.3,65.3,99,65.3z"/>
									</g>
								</g>
							</g>
						</g>
					</g>
				</g>
			</g>
			<g>
				<path class="st2" d="M103,91.4c2.1,0.5,4,2.6,4.2,5.1c0.2,2.5-1.5,6.6-1.5,6.6l-7.6-0.4c0,0-3.7-4.2-3.1-6.3
					c0.6-2.1,2.2-3.4,3.5-4.2C99.8,91.5,103,91.4,103,91.4z"/>
			</g>
			<g>
				<path class="st2" d="M80.8,90.4c-1.1,0.8-3.2,2.3-3.3,5.8c-0.1,3.5,2.7,5.7,2.7,5.7h5.4l4-7c0,0-0.8-3.6-2.7-4
					C84.9,90.4,80.8,90.4,80.8,90.4z"/>
			</g>
			<g>
				<g>
					<path class="st9" d="M100.5,99.7c-0.1,0-0.1,0-0.1-0.1c0-0.1,0-0.1,0.1-0.2c0.1,0,1.7-0.6,2.5-0.6c0.1,0,0.1,0.1,0.1,0.1
						s-0.1,0.1-0.1,0.1C102.2,99.1,100.6,99.7,100.5,99.7C100.5,99.7,100.5,99.7,100.5,99.7z"/>
				</g>
				<g>
					<path class="st9" d="M99.7,96.5C99.7,96.5,99.6,96.5,99.7,96.5c-0.1-0.1-0.1-0.2-0.1-0.2c0.1,0,1.6-1.2,2.8-1.4
						c0.1,0,0.1,0,0.1,0.1c0,0.1,0,0.1-0.1,0.1C101.3,95.3,99.8,96.4,99.7,96.5C99.8,96.5,99.7,96.5,99.7,96.5z"/>
				</g>
				<g>
					<path class="st9" d="M87,99.5C86.9,99.5,86.9,99.4,87,99.5c-0.5-0.6-2.9-1.6-3.7-1.6c-0.1,0-0.1-0.1-0.1-0.1s0.1-0.1,0.1-0.1
						c0.8,0,3.3,1,3.8,1.7C87.1,99.3,87.1,99.4,87,99.5C87,99.5,87,99.5,87,99.5z"/>
				</g>
				<g>
					<path class="st9" d="M86.9,95.6C86.9,95.6,86.8,95.6,86.9,95.6c-0.1,0-2.3-1.5-3.2-1.5c-0.1,0-0.1-0.1-0.1-0.1
						c0-0.1,0.1-0.1,0.1-0.1c0,0,0,0,0,0c0.9,0.1,3.2,1.5,3.3,1.6c0.1,0,0.1,0.1,0,0.2C87,95.5,86.9,95.6,86.9,95.6z"/>
				</g>
			</g>
			<g>
				<path class="st18" d="M100.4,104.6L85.4,104c-0.6,0-1-0.5-1-1.1l0.4-9.3c0-0.6,0.5-1,1.1-1l14.9,0.6c0.6,0,1,0.5,1,1.1l-0.4,9.3
					C101.4,104.2,101,104.6,100.4,104.6z"/>
			</g>
			<g>
				<path class="st3" d="M94,97.7c0-0.5-0.4-1-0.9-1.1c-0.5,0-1,0.4-1.1,0.9c0,0.6-0.6,1-0.6,1.6c-0.1,0.8,0.6,1.5,1.4,1.6
					c0.8,0.1,1.5-0.6,1.6-1.4C94.5,98.7,94,98.2,94,97.7z M92.9,100c-0.4,0-0.8-0.4-0.7-0.9c0-0.4,0.4-0.8,0.9-0.7s0.8,0.4,0.7,0.9
					C93.7,99.7,93.3,100,92.9,100z"/>
			</g>
			<g>
				<g>
					<path class="st7" d="M102.4,88.2C102.4,88.2,102.4,88.2,102.4,88.2c-0.1,0-0.1-0.1-0.1-0.2c0.2-1.1,0.7-2.6,1.1-4.1
						c0.5-1.5,0.9-3,1-3.6c0-0.1,0.1-0.1,0.1-0.1c0.1,0,0.1,0.1,0.1,0.1c-0.1,0.6-0.5,2-1,3.6c-0.4,1.5-0.9,3-1.1,4
						C102.5,88.1,102.5,88.2,102.4,88.2z"/>
				</g>
				<g>
					<path class="st7" d="M82.5,87.7c-0.1,0-0.1,0-0.1-0.1c-0.3-3-0.8-7.6-1.1-8.4c0-0.1,0-0.1,0.1-0.2c0.1,0,0.1,0,0.2,0.1
						c0.3,0.8,0.8,5.9,1.1,8.4C82.7,87.6,82.6,87.7,82.5,87.7C82.5,87.7,82.5,87.7,82.5,87.7z"/>
				</g>
				<g>
					<path class="st7" d="M107.9,91.2c-0.1,0-0.1,0-0.1-0.1c0-0.1,0-0.1,0.1-0.1c3.2-0.2,9-0.1,10.7,0c0.1,0,0.1,0.1,0.1,0.1
						c0,0.1-0.1,0.1-0.1,0.1c0,0,0,0,0,0C116.9,91.1,111.1,90.9,107.9,91.2C107.9,91.2,107.9,91.2,107.9,91.2z"/>
				</g>
				<g>
					<path class="st7" d="M77.5,90.4C77.5,90.4,77.5,90.4,77.5,90.4c-3-0.3-9.1-0.3-10.1-0.2c-0.1,0-0.1,0-0.1-0.1s0-0.1,0.1-0.1
						c1-0.1,7.1-0.1,10.2,0.2c0.1,0,0.1,0.1,0.1,0.1C77.6,90.4,77.6,90.4,77.5,90.4z"/>
				</g>
				<g>
					<path class="st7" d="M106.8,86.3c0,0-0.1,0-0.1-0.1c0-0.1,0-0.1,0.1-0.2c1.2-0.6,3.7-1.6,3.7-1.6c0.1,0,0.1,0,0.2,0.1
						s0,0.1-0.1,0.2C110.5,84.7,108.1,85.7,106.8,86.3C106.9,86.3,106.8,86.3,106.8,86.3z"/>
				</g>
				<g>
					<path class="st7" d="M79.4,86C79.4,86,79.4,86,79.4,86c0,0-3.6-0.3-4.4-0.5c-0.1,0-0.1-0.1-0.1-0.1c0-0.1,0.1-0.1,0.1-0.1
						c0.8,0.1,4.4,0.5,4.4,0.5c0.1,0,0.1,0.1,0.1,0.1C79.6,86,79.5,86,79.4,86z"/>
				</g>
				<g>
					<path class="st7" d="M69.8,100.8c-0.1,0-0.1-0.1-0.1-0.1s0.1-0.1,0.1-0.1c0.8,0,4.2-1.4,4.2-1.4c0.1,0,0.1,0,0.2,0.1
						c0,0.1,0,0.1-0.1,0.2C73.9,99.5,70.6,100.8,69.8,100.8z"/>
				</g>
				<g>
					<path class="st7" d="M112.2,102.3c-0.7,0-3.2-1-4.1-1.6c-0.1,0-0.1-0.1,0-0.2c0-0.1,0.1-0.1,0.2,0c0.9,0.5,3.4,1.5,3.9,1.5
						c0.1,0,0.1,0.1,0.1,0.1S112.3,102.3,112.2,102.3z"/>
				</g>
				<g>
					<path class="st7" d="M86.7,71.7c0,0-0.1,0-0.1-0.1c0-0.1,0-0.1,0-0.2c0.4-0.3,1.9-0.5,3.1-0.7c0.5-0.1,0.9-0.1,1.2-0.2
						c0.1,0,0.1,0,0.1,0.1c0,0.1,0,0.1-0.1,0.1c-0.3,0.1-0.7,0.1-1.2,0.2C88.6,71.3,87.1,71.5,86.7,71.7
						C86.7,71.7,86.7,71.7,86.7,71.7z"/>
				</g>
				<g>
					<path class="st7" d="M92.2,87.5c-0.1,0-0.1,0-0.1-0.1c0-0.1,0-0.1,0.1-0.2c0.2-0.1,0.7-0.2,1.2-0.3c1.3-0.3,3.4-0.8,3.8-1.3
						c0,0,0.1,0,0.2,0c0,0,0,0.1,0,0.2c-0.5,0.5-2.5,1-3.9,1.3C92.9,87.3,92.5,87.4,92.2,87.5C92.2,87.5,92.2,87.5,92.2,87.5z"/>
				</g>
			</g>
		</g>
		<g>
			<g>
				<path class="st19" d="M91.6,52.4c-0.1,0-0.2-0.1-0.2-0.2L89.6,46c0-0.1,0-0.3,0.2-0.3c0.1,0,0.3,0,0.3,0.2l1.8,6.2
					C91.9,52.2,91.8,52.3,91.6,52.4C91.6,52.4,91.6,52.4,91.6,52.4z"/>
			</g>
			<g>
				<path class="st19" d="M103.4,53.3c0,0-0.1,0-0.1,0c-0.1-0.1-0.1-0.2-0.1-0.3l2.4-3.5c0.1-0.1,0.2-0.1,0.3-0.1
					c0.1,0.1,0.1,0.2,0.1,0.3l-2.4,3.5C103.5,53.2,103.4,53.3,103.4,53.3z"/>
			</g>
			<g>
				<path class="st19" d="M97.6,53.1c0,0-0.1,0-0.1,0c-0.5-0.3-0.8-1.1-0.7-1.9c0-1,0.5-1.8,1.3-2.3c0.6-0.4,0.9-0.8,1-1.3
					c0.1-0.6-0.1-1.4-0.6-2.2c-1-1.6-0.2-3.3,0.9-4.3c0.1-0.1,0.3-0.1,0.3,0c0.1,0.1,0.1,0.3,0,0.3c-0.5,0.4-1.9,2-0.8,3.7
					c0.6,0.9,0.9,1.8,0.7,2.6c-0.1,0.6-0.6,1.2-1.2,1.6c-0.9,0.6-1,1.4-1,1.9c0,0.6,0.2,1.2,0.5,1.5c0.1,0.1,0.1,0.2,0.1,0.3
					C97.8,53,97.7,53.1,97.6,53.1z"/>
			</g>
			<g>
				<path class="st20" d="M44.4,50.8c-0.2,0-0.4,0-0.6-0.1c-0.9-0.2-1.6-0.9-2.1-1.9c-0.5-0.9-1.1-1.6-1.9-1.8
					c-1-0.3-2.1-0.1-3.4,0.6c-2.7,1.5-4.6-0.7-5.5-2.2c-0.4-0.7-1.2-1.2-2-1.3c-1-0.1-2,0.3-2.8,1.1c-0.1,0.1-0.2,0.1-0.3,0
					c-0.1-0.1-0.1-0.2,0-0.3c0.8-0.9,2-1.3,3.1-1.2c1,0.1,1.8,0.6,2.3,1.5c1,1.6,2.6,3.3,5,2c1.4-0.8,2.6-1,3.7-0.6
					c0.9,0.3,1.6,0.9,2.1,2c0.5,1,1.1,1.6,1.9,1.7c0.8,0.2,1.6-0.1,2.4-0.7c0.1-0.1,0.2,0,0.3,0c0.1,0.1,0,0.2,0,0.3
					C45.8,50.6,45.1,50.8,44.4,50.8z"/>
			</g>
			<g>
				<path class="st21" d="M150.6,61.1c-0.1,0-0.2-0.1-0.2-0.2c-0.3-1.2,0-2.4,0.7-3.3c0.7-0.8,1.6-1.2,2.5-1.1
					c1.9,0.1,4.1-0.3,4.4-3c0.1-1.6,0.6-2.7,1.5-3.5c0.7-0.6,1.7-0.8,2.9-0.7c1,0.1,1.9-0.1,2.5-0.6c0.5-0.5,0.8-1.3,0.7-2.3
					c0-0.1,0.1-0.2,0.2-0.3c0.1,0,0.2,0.1,0.3,0.2c0.1,1.2-0.2,2.1-0.9,2.7c-0.7,0.6-1.6,0.9-2.8,0.7c-1-0.1-1.9,0.1-2.5,0.6
					c-0.8,0.6-1.2,1.7-1.3,3.1c-0.3,3.2-3.2,3.5-4.9,3.4c-0.8,0-1.6,0.3-2.1,1c-0.6,0.8-0.9,1.8-0.6,2.9
					C150.8,60.9,150.8,61.1,150.6,61.1C150.6,61.1,150.6,61.1,150.6,61.1z"/>
			</g>
			<g>
				<path class="st20" d="M74.6,22.8c-0.4,0-0.9,0-1.3-0.1c-0.1,0-0.2-0.1-0.2-0.2c0-0.1,0.1-0.2,0.2-0.2c2.9,0.3,7-0.4,9-2.5
					c0.9-0.9,1.6-2.1,2-3.3c-0.8-0.1-1.6-0.3-2.2-0.7c-1-0.6-1.6-1.4-1.8-2.2c-0.2-1.1,0.4-2.2,1.4-2.6c0.9-0.4,1.9-0.1,2.6,0.9
					c0.9,1.2,1,2.8,0.5,4.4c0.9,0,1.9-0.1,2.8-0.5c3.7-1.3,5.3-5.2,5.3-7.5c0-0.1,0.1-0.2,0.2-0.2c0,0,0,0,0,0
					c0.1,0,0.2,0.1,0.2,0.2c0,2.4-1.7,6.5-5.6,7.9c-1,0.4-2.1,0.5-3.1,0.5c-0.4,1.3-1.2,2.5-2.1,3.5C80.8,22,77.4,22.8,74.6,22.8z
					 M82.4,11.2c-0.2,0-0.4,0-0.6,0.1c-0.8,0.4-1.3,1.3-1.1,2.2c0.1,0.7,0.7,1.5,1.6,2c0.6,0.4,1.4,0.6,2.2,0.7
					c0.5-1.5,0.4-3-0.4-4.1C83.5,11.5,83,11.2,82.4,11.2z"/>
			</g>
			<g>
				<path class="st6" d="M44.7,13.7c-0.5,0-0.9-0.1-1.3-0.4c-0.9-0.6-1.2-1.8-1.3-2.3c-0.8,0.3-2.7,0.9-3.9-1
					c-0.6-0.9-0.6-1.8-0.1-2.6c0.6-1,1.8-1.5,2.8-1.6c-0.2-0.6-0.5-2,0.5-3c0.3-0.3,0.7-0.5,1.1-0.5c0.6,0,1.1,0.4,1.5,0.6
					C44,2.3,44.4,1,45.3,0.4C46,0,46.7-0.1,47.6,0.1c0.8,0.2,1.4,0.7,1.7,1.3c0.6,1.1,0.2,2.5,0.1,3.1c0.4,0.1,1.3,0.5,1.9,1.2
					c0.4,0.6,0.6,1.4,0.4,2.3c-0.3,1.4-1,2-1.6,2.2c-0.8,0.4-1.8,0.3-2.5,0c0.1,0.5,0.1,1.3-0.3,2c-0.4,0.7-1,1.1-1.9,1.3
					C45.2,13.7,44.9,13.7,44.7,13.7z M42.3,10.3c0,0,0.1,0,0.1,0c0.1,0,0.1,0.1,0.1,0.2c0,0,0.1,1.6,1.1,2.3c0.4,0.3,1,0.4,1.7,0.2
					c0.8-0.2,1.3-0.5,1.6-1.1c0.5-0.9,0.1-2.1,0.1-2.1c0-0.1,0-0.2,0.1-0.3c0.1-0.1,0.2-0.1,0.3,0c0.5,0.3,1.6,0.6,2.5,0.2
					C50.5,9.6,51,8.9,51.2,8c0.1-0.7,0-1.4-0.3-1.9C50.2,5.2,49,5,49,5c-0.1,0-0.1-0.1-0.2-0.1c0-0.1,0-0.1,0-0.2c0,0,0.7-1.8,0-3
					c-0.3-0.5-0.7-0.9-1.4-1.1c-0.7-0.2-1.3-0.1-1.8,0.2c-1.1,0.8-1.3,2.6-1.3,2.7c0,0.1-0.1,0.2-0.2,0.2c-0.1,0-0.2,0-0.3-0.1
					c0,0-0.7-0.8-1.5-0.8c-0.3,0-0.6,0.1-0.8,0.3c-1,1-0.2,2.7-0.2,2.7c0,0.1,0,0.2,0,0.2c0,0.1-0.1,0.1-0.2,0.1
					c-0.9-0.1-2.1,0.4-2.7,1.4c-0.4,0.6-0.3,1.4,0.1,2.1c1.3,2,3.5,0.7,3.6,0.7C42.2,10.3,42.2,10.3,42.3,10.3z"/>
			</g>
			<g>
				<path class="st3" d="M15.6,74.3c0,0-0.1-3.3,1.9-4.4c1.9-1.1,3.9,0.6,3.9,0.6s0.4-2.7,3-3.6c2.7-0.8,4.7,0.6,5.2,1.6
					c0.5,0.9,0.5,2.1,0.5,2.1s1.5-1.2,2.7-0.4c1.2,0.9,0.8,3.6-1.7,3.9C28.6,74.4,15.6,74.3,15.6,74.3z"/>
				<path class="st6" d="M20.8,74.6c-2.7,0-4.9,0-5.2,0c-0.1,0-0.3-0.1-0.3-0.3c0-0.1-0.1-3.5,2-4.6c1.6-0.9,3.2-0.1,3.8,0.3
					c0.2-0.8,1-2.7,3.1-3.4c2.9-0.9,5,0.8,5.5,1.7c0.3,0.6,0.5,1.3,0.5,1.8c0.6-0.3,1.6-0.8,2.6-0.1c0.6,0.5,0.9,1.4,0.7,2.3
					c-0.3,1.1-1.2,1.9-2.5,2.1C29.6,74.5,24.7,74.6,20.8,74.6z M15.9,74c1.8,0,12.9,0.1,15.1-0.2c1-0.1,1.8-0.8,2.1-1.7
					c0.2-0.7,0-1.4-0.5-1.8c-1-0.7-2.3,0.3-2.3,0.3c-0.1,0.1-0.2,0.1-0.3,0c-0.1,0-0.1-0.1-0.1-0.2c0,0,0-1.1-0.5-2
					c-0.5-0.9-2.4-2.2-4.9-1.4c-2.5,0.8-2.9,3.3-2.9,3.4c0,0.1-0.1,0.2-0.2,0.2c-0.1,0-0.2,0-0.3,0c-0.1-0.1-1.8-1.5-3.6-0.5
					C16.1,70.9,15.9,73.3,15.9,74z"/>
			</g>
			<g>
				<path class="st6" d="M142.1,28.5c-1.3,0-2.3,0-2.8-0.1l0,0c-1.6-0.2-2.1-1.1-2.3-1.6c-0.2-0.8,0-1.8,0.6-2.3
					c0.6-0.5,1.2-0.5,1.6-0.5c0.3,0,0.7,0.1,0.9,0.3c-0.1-0.8,0-2.3,1.3-3.4c0.8-0.7,1.9-0.9,2.9-0.6c0.9,0.3,1.6,0.9,2,1.7
					c0.4-0.7,1.5-1.9,3.3-1.6c0.9,0.1,1.6,0.6,2,1.3c0.4,0.7,0.5,1.5,0.5,2c0.7-0.3,2.2-0.6,3.3,0.4c1.6,1.4,1,3.7,1,3.8
					c0,0.1-0.1,0.2-0.2,0.2C155.7,28.1,146.9,28.5,142.1,28.5z M139.4,27.9c2.3,0.3,14.9-0.2,16.6-0.3c0.1-0.5,0.3-2.2-0.9-3.2
					c-1.3-1.2-3.1-0.2-3.2-0.2c-0.1,0.1-0.2,0-0.3,0c-0.1-0.1-0.1-0.2-0.1-0.3c0.1-0.2,0.1-1.3-0.3-2.1c-0.3-0.6-0.9-1-1.6-1.1
					c-2.2-0.3-3,1.7-3,1.8c0,0.1-0.1,0.2-0.2,0.2c-0.1,0-0.2-0.1-0.2-0.2c-0.3-0.9-1-1.6-1.8-1.9c-0.8-0.2-1.7-0.1-2.5,0.5
					c-1.6,1.3-1.1,3.5-1.1,3.5c0,0.1,0,0.2-0.1,0.3c-0.1,0-0.2,0-0.3-0.1c-0.1-0.2-0.6-0.4-1.1-0.5c-0.3,0-0.8,0-1.2,0.4
					c-0.5,0.4-0.7,1.1-0.5,1.8C137.7,27.3,138.4,27.8,139.4,27.9L139.4,27.9z"/>
			</g>
			<g>
				<g>
					<path class="st22" d="M7.7,28.7c-1.8,0-3.5,0-4.3-0.1C1.9,28.4,1.1,27.3,1,27l-0.8-0.4c-0.1,0-0.1-0.1-0.1-0.2
						c0-0.1,0.1-0.2,0.1-0.2l0.8-0.4c0.1-0.4,0.6-1.6,2.1-1.7C4.3,24,6,24,6.7,23.9c0-0.8,0.1-3.3,0.2-4.8c0.1-1.7,0.6-2,1.4-1.9
						c0.3,0,0.5,0.2,0.7,0.5c0.1-0.2,0.2-0.3,0.3-0.4C9.4,17.1,9.7,17,9.9,17c0.3,0,0.6,0.1,0.8,0.4c0.2,0.2,0.3,0.4,0.3,0.7
						c0.1-0.2,0.3-0.3,0.6-0.3c0.2,0,0.4,0.1,0.6,0.2c0.4,0.3,0.4,1.1,0.4,2.1c0,0.2,0,0.5,0,0.7c0,1.3,0,2.5-0.1,3c0.7,0,2.4,0,3,0
						c0.7,0,1.9-0.5,1.9-0.6c0.1,0,0.2,0,0.2,0c0.1,0,0.1,0.1,0.1,0.2c0,0.1,0,1.8-0.9,3.3c-0.9,1.5-2.6,1.7-4.9,1.9
						C11,28.7,9.3,28.7,7.7,28.7z M0.8,26.4l0.4,0.2c0,0,0.1,0.1,0.1,0.1c0,0,0.7,1.2,2.1,1.4c1.6,0.2,6.3,0.2,8.6,0
						c2.5-0.2,3.8-0.4,4.5-1.6c0.6-1,0.7-2.1,0.8-2.7c-0.5,0.2-1.2,0.4-1.8,0.4c-0.7,0-3.3,0-3.3,0c-0.1,0-0.1,0-0.2-0.1
						C12,24.1,12,24,12,24c0,0,0.1-1.6,0.1-3.2c0-0.3,0-0.5,0-0.7c0-0.8,0-1.5-0.2-1.7c0,0-0.1-0.1-0.2-0.1c-0.3,0-0.4,0.6-0.5,1
						c0,0.1,0,0.2,0,0.2c0,0.1-0.1,0.2-0.3,0.2c-0.1,0-0.2-0.1-0.2-0.3c0,0,0-0.1,0-0.3c0-0.4,0-1.1-0.3-1.5
						c-0.2-0.2-0.6-0.3-0.8-0.1c-0.3,0.3-0.4,1-0.4,1.4c0,0.1,0,0.2,0,0.3c0,0.1-0.1,0.2-0.2,0.2c-0.1,0-0.2-0.1-0.2-0.2
						c0,0,0-0.1,0-0.3c0-0.9-0.3-1.3-0.5-1.3c-0.4,0-0.8,0-0.9,1.5c-0.1,1.7-0.2,4.9-0.2,5c0,0.1-0.1,0.2-0.2,0.2
						c0,0-2.3,0.1-3.9,0.2c-1.4,0.1-1.7,1.4-1.7,1.4c0,0.1-0.1,0.1-0.1,0.2L0.8,26.4z"/>
				</g>
				<g>
					<path class="st22" d="M6.9,26.1C6.9,26.1,6.9,26.1,6.9,26.1c-0.1,0-0.2-0.1-0.2-0.2c0,0,0-0.9,0.1-1.7c0-0.1,0.1-0.2,0.3-0.2
						c0.1,0,0.2,0.1,0.2,0.3c0,0.8-0.1,1.7-0.1,1.7C7.1,26,7,26.1,6.9,26.1z"/>
				</g>
				<g>
					<path class="st22" d="M12.2,26.1C12.2,26.1,12.1,26.1,12.2,26.1c-0.2,0-0.3-0.1-0.2-0.3c0,0,0.1-1,0.1-1.8
						c0-0.1,0.1-0.2,0.2-0.2c0.1,0,0.2,0.1,0.2,0.2c0,0.8-0.1,1.8-0.1,1.8C12.4,26,12.3,26.1,12.2,26.1z"/>
				</g>
				<g>
					<path class="st22" d="M2.8,27.2c-0.6,0-1.1-0.5-1.1-1.1S2.2,25,2.8,25s1.1,0.5,1.1,1.1S3.4,27.2,2.8,27.2z M2.8,25.5
						c-0.3,0-0.6,0.3-0.6,0.6c0,0.3,0.3,0.6,0.6,0.6c0.3,0,0.6-0.3,0.6-0.6C3.4,25.8,3.1,25.5,2.8,25.5z"/>
				</g>
			</g>
			<g>
				<path class="st19" d="M59.7,5c-0.1,0-0.1,0-0.2-0.1l-2.3-3c-0.1-0.1-0.1-0.3,0-0.3c0.1-0.1,0.3-0.1,0.3,0l2.3,3
					c0.1,0.1,0.1,0.3,0,0.3C59.8,5,59.7,5,59.7,5z"/>
			</g>
			<g>
				<path class="st19" d="M74,9.7c-0.1,0-0.2-0.1-0.2-0.2c0-0.1,0-0.3,0.2-0.3l4-1.2c0.1,0,0.3,0,0.3,0.2c0,0.1,0,0.3-0.2,0.3
					L74,9.7C74,9.7,74,9.7,74,9.7z"/>
			</g>
			<g>
				<path class="st19" d="M106.5,18.8c-0.1,0-0.1,0-0.2-0.1l-4.4-3.8c-0.1-0.1-0.1-0.2,0-0.3c0.1-0.1,0.2-0.1,0.3,0l4.4,3.8
					c0.1,0.1,0.1,0.2,0,0.3C106.6,18.8,106.6,18.8,106.5,18.8z"/>
			</g>
			<g>
				<path class="st19" d="M127.3,21.9c-0.1,0-0.2,0-0.2-0.1c-0.1-0.1,0-0.3,0.1-0.3l7-3.6c0.1-0.1,0.3,0,0.3,0.1
					c0.1,0.1,0,0.3-0.1,0.3l-7,3.6C127.4,21.9,127.4,21.9,127.3,21.9z"/>
			</g>
			<g>
				<path class="st19" d="M64.6,127.1c-0.1,0-0.1,0-0.1,0c-0.1-0.1-0.1-0.2,0-0.3l5.5-7.2c0.1-0.1,0.2-0.1,0.3,0
					c0.1,0.1,0.1,0.2,0,0.3l-5.5,7.2C64.8,127.1,64.7,127.1,64.6,127.1z"/>
			</g>
			<g>
				<path class="st19" d="M169.1,67C169.1,67,169.1,67,169.1,67l-9.3-0.3c-0.1,0-0.2-0.1-0.2-0.2c0-0.1,0.1-0.2,0.2-0.2l9.3,0.3
					c0.1,0,0.2,0.1,0.2,0.2C169.3,66.9,169.2,67,169.1,67z"/>
			</g>
			<g>
				<path class="st19" d="M119.6,128.3c-0.1,0-0.1,0-0.2-0.1l-7.2-7.7c-0.1-0.1-0.1-0.3,0-0.3c0.1-0.1,0.3-0.1,0.3,0l7.2,7.7
					c0.1,0.1,0.1,0.3,0,0.3C119.7,128.3,119.7,128.3,119.6,128.3z"/>
			</g>
			<g>
				<path class="st19" d="M60.8,34.3c-0.1,0-0.1,0-0.2-0.1c-0.1-0.1-0.1-0.2,0-0.3l4.6-4.9c0.1-0.1,0.2-0.1,0.3,0
					c0.1,0.1,0.1,0.2,0,0.3L61,34.2C61,34.2,60.9,34.3,60.8,34.3z"/>
			</g>
			<g>
				<path class="st20" d="M34.9,37c-1.9,0-3.4-1.5-3.4-3.4s1.5-3.4,3.4-3.4s3.4,1.5,3.4,3.4S36.8,37,34.9,37z M34.9,30.6
					c-1.7,0-3,1.4-3,3s1.4,3,3,3s3-1.4,3-3S36.6,30.6,34.9,30.6z"/>
			</g>
			<g>
				<path class="st22" d="M29.8,83.5c-1.2,0-2.2-1-2.2-2.2s1-2.2,2.2-2.2s2.2,1,2.2,2.2S31,83.5,29.8,83.5z M29.8,79.6
					c-0.9,0-1.7,0.8-1.7,1.7s0.8,1.7,1.7,1.7s1.7-0.8,1.7-1.7S30.7,79.6,29.8,79.6z"/>
			</g>
		</g>
	</g>
	<g>
		<g>
			<path class="st23" d="M116.3,45.3c1.2,0,2.2,0.7,2.8,1.7h2.2c-0.6-2.1-2.6-3.7-5-3.7c-2.3,0-4.3,1.6-5,3.7h2.2
				C114.1,46,115.1,45.3,116.3,45.3"/>
		</g>
		<g>
			<path class="st23" d="M119.4,48.5c0,1.7-1.4,3.1-3.1,3.1s-3.1-1.4-3.1-3.1c0-0.2,0-0.3,0-0.5h-2.1c0,0.2,0,0.3,0,0.5
				c0,2.9,2.3,5.2,5.2,5.2c2.8,0,5.2-2.3,5.2-5.2c0-0.2,0-0.3,0-0.5h-2.1C119.4,48.2,119.4,48.3,119.4,48.5"/>
		</g>
	</g>
</g>
</svg>
