<?xml version="1.0" encoding="utf-8"?>
<!-- Generator: Adobe Illustrator 27.3.1, SVG Export Plug-In . SVG Version: 6.00 Build 0)  -->
<svg version="1.1" id="Layer_1" xmlns="http://www.w3.org/2000/svg" xmlns:xlink="http://www.w3.org/1999/xlink" x="0px" y="0px"
	 viewBox="0 0 102.1 113.6" style="enable-background:new 0 0 102.1 113.6;" xml:space="preserve">
<style type="text/css">
	.st0{fill:#86C3CE;}
	.st1{fill:#E2D3C6;}
	.st2{fill:#25214C;}
	.st3{fill:#F16468;}
	.st4{fill:#A087BE;}
	.st5{fill:#786EA6;}
	.st6{fill:#F3E3D8;}
	.st7{fill:#A49CC2;}
	.st8{fill:#212E44;}
	.st9{fill:#000024;}
	.st10{fill:#2F2870;}
	.st11{fill:#6D609E;}
	.st12{fill:#4C4C66;}
	.st13{fill:#BDDEE4;}
	.st14{fill:#F59296;}
</style>
<g>
	<g>
		<path class="st0" d="M83.1,107.9H0.2c-0.1,0-0.2-0.1-0.2-0.2v-6.5c0-0.1,0.1-0.2,0.2-0.2h82.9c0.1,0,0.2,0.1,0.2,0.2v6.5
			C83.4,107.8,83.3,107.9,83.1,107.9z M0.5,107.5H83v-6H0.5V107.5z"/>
	</g>
	<g>
		<path class="st1" d="M63.1,90.5c0,0-3.3-14.1-4.5-18.3c-1.2-4.2-2.5-8.9-4.6-10.6c-2.2-1.7-3.2-2-4.8-3.4c-1.7-1.4-2.6-3-3.6-2.4
			s-0.7,1.9-0.1,2.8c0.6,0.9,1.5,1.9,1.5,1.9s-2.5,0.5-3.4-0.7s-1.6-4.5-2.2-5.9c-0.6-1.4-1.3-1.6-1.9-1.4s-1.1,1-0.5,2.9
			c0,0-0.7-2.5-1.9-2.1s-1.2,1.4-1,2.2s1.3,3.6,1.3,3.6S36,55.6,35,55.3c-0.9-0.4-1.6,0.2-1.3,1.5c0.4,1.3,1.7,5.7,3.6,8.9
			c1.9,3.2,6.5,4.3,8.9,4.1L50.5,88c0,0,0.4,12.9,6.5,13.2s7.7-0.4,7.7-0.4L63.1,90.5z"/>
	</g>
	<g>
		<polygon class="st2" points="67.5,77.8 62.2,90.8 72.3,97.9 		"/>
	</g>
	<g>
		<path class="st3" d="M57.4,34.2c-1.3-0.9-1.2-3.8,1.8-5.3c2.1-1,4.9-1.1,6.3-0.6c2.1,0.8,3.3,2,3.3,2s-0.2-0.4-1-0.9
			c-0.7-0.5-1.5-1.7-1-2.8c0.4-0.9,1.5-1.1,2.1-1.5s0.5-1.3-0.5-2c-1.1-0.7-2.5-1.3-2.7-3c-0.3-2.3,1.9-2.8,2.2-3.6
			c0.2-0.8-0.4-1.5,0.5-2.8c0.7-1,3.6-2.6,5.4-0.1c1.2,1.6,1.8,2.7,3.6,3.3c2.2,0.7,3,3.5,1.7,5.1c-1.2,1.6-2.7,2.1-1.9,3.6
			c0.6,1.1,2,2.8,1.4,4.4c-1.4,3.8-4.7,2.4-7,3c0,0,1.1,2.5,0.6,4.5s-1.5,3.6-3.4,4.8c0,0-4.1-2.9-6.5-4.8
			C59.9,35.8,57.4,34.2,57.4,34.2z"/>
	</g>
	<g>
		<path class="st4" d="M97.2,63.4L97.2,63.4c-0.2,0-0.2-0.1-0.2-0.3c0.1-1-0.1-1.9-0.8-2.5c-0.5-0.5-1.3-0.8-2-0.7
			c-1.5,0.2-4.1,0.1-4.6-2.7c-0.2-1.3-0.7-2.2-1.4-2.7c-0.6-0.4-1.4-0.5-2.3-0.4c-1.1,0.2-2,0-2.6-0.5s-1-1.3-1-2.4
			c0-0.1,0.1-0.2,0.2-0.2l0,0c0.1,0,0.2,0.1,0.2,0.2c0,0.9,0.3,1.6,0.8,2s1.3,0.6,2.2,0.4c1-0.2,1.9-0.1,2.6,0.4
			c0.8,0.6,1.4,1.6,1.6,3c0.4,2.3,2.4,2.5,4.1,2.3c0.9-0.1,1.7,0.2,2.4,0.8c0.7,0.7,1.1,1.8,0.9,2.9C97.4,63.3,97.3,63.4,97.2,63.4z
			"/>
	</g>
	<g>
		<path class="st5" d="M53.1,18.2c-0.1,0-0.1,0-0.1-0.1c-0.1-0.1-0.1-0.2,0-0.3c0.6-0.7,0.9-1.7,0.7-2.5c-0.2-0.7-0.6-1.3-1.3-1.6
			c-1.4-0.6-3.6-2.1-2.5-4.7c0.5-1.2,0.6-2.2,0.2-3c-0.3-0.7-0.9-1.2-1.8-1.5c-1-0.4-1.7-1-2-1.8C46,1.9,46.2,1,46.7,0.1
			C46.8,0,46.9,0,47,0c0.1,0.1,0.1,0.2,0.1,0.3c-0.5,0.8-0.6,1.5-0.4,2.2C47,3.1,47.6,3.7,48.4,4c1,0.4,1.7,1,2,1.8
			c0.4,0.9,0.3,2.1-0.2,3.4c-0.9,2.2,0.7,3.4,2.3,4.1c0.8,0.4,1.4,1.1,1.6,2c0.2,1,0,2.1-0.8,2.9C53.3,18.2,53.2,18.2,53.1,18.2z"/>
	</g>
	<g>
		<path class="st6" d="M55.6,39.1c0.1,0.5,2,0.7,2,0.7s0.3,1,0.4,1.3c0,0,1.6-0.8,1.8-0.5s-0.6,1.6-1.1,2c0,0,0.4,1.5,1.5,2.3
			c1.2,0.8,2.1,0.9,2.1,0.9s1.3,4.6,2,8c0.8,3.5,1.7,8.3,1.3,9.7c1.5-3.9,6.3-9,8.8-11.3c-0.3-0.4-0.6-0.7-0.8-1
			c-1.8-2.3-4.4-7.8-4.6-10.6c0,0,1.6,0.3,2.3-1.3c0.7-1.6-0.4-2.8-1.3-3s-1.8,0.3-2.1,1c-0.3,0.7-0.8,1.1-1.5,1.2
			c-0.7,0-2.2-0.2-3.1-1.9c-1.3-2.5-1.8-4.9-1.8-4.9c-1,0-3.5,0.6-4.1,2.4s-0.1,3.6-0.1,3.6S55.5,38.6,55.6,39.1z"/>
	</g>
	<g>
		<g>
			<g>
				<g>
					<g>
						<path class="st7" d="M63.2,41.6c0.8-0.4,0.9-1.1,0.4-2.3c-0.5-1.2-1.2-1.6-2-1.2c-0.8,0.4-0.9,1.1-0.4,2.3
							C61.8,41.5,62.4,41.9,63.2,41.6z"/>
					</g>
				</g>
			</g>
		</g>
	</g>
	<g>
		<g>
			<g>
				<g>
					<g>
						<path class="st8" d="M59.4,37.5c0.2,0,0.2-0.2,0.1-0.4c-0.1-0.2-0.2-0.3-0.3-0.3S59,37,59.1,37.2
							C59.2,37.5,59.3,37.6,59.4,37.5z"/>
					</g>
				</g>
			</g>
		</g>
	</g>
	<g>
		<path class="st8" d="M68.3,38.4c0,0.7,0.5,1.3,1,1.3c0.6,0,1-0.6,1-1.3s-0.5-1.3-1-1.3C68.8,37.2,68.3,37.7,68.3,38.4z"/>
	</g>
	<g>
		<g>
			<path class="st9" d="M69.3,37.4c-0.1,0-0.2-0.1-0.2-0.2c-0.2-4.4-3.2-8.2-5.9-8.9c-0.1,0-0.2-0.2-0.2-0.3s0.2-0.2,0.3-0.2
				c2.8,0.8,6,4.6,6.2,9.4C69.6,37.3,69.5,37.4,69.3,37.4C69.4,37.4,69.4,37.4,69.3,37.4z"/>
		</g>
		<g>
			<path class="st9" d="M65.5,43.4c-0.9,0-1.8-0.2-2.6-0.6c-0.1-0.1-0.2-0.2-0.1-0.3c0.1-0.1,0.2-0.2,0.3-0.1
				c2.4,1.2,5.1,0.5,6.2-1.5c0.1-0.1,0.2-0.1,0.3-0.1c0.1,0.1,0.2,0.2,0.1,0.3C68.9,42.6,67.3,43.4,65.5,43.4z"/>
		</g>
	</g>
	<g>
		<path class="st10" d="M57.9,41.2c0-0.1-0.1-0.3-0.1-0.5c1.1-0.2,1.9-0.5,2.1-0.1c0.2,0.4,0.1,1.7-1,2.7c-0.1-0.3-0.2-0.6-0.2-0.6
			c0.5-0.4,1.3-1.7,1.1-2C59.6,40.4,57.9,41.2,57.9,41.2z"/>
	</g>
	<g>
		<circle class="st8" cx="62.1" cy="41.8" r="1.4"/>
	</g>
	<g>
		<path class="st10" d="M65.7,63.6c1.5-3.9,6.3-9,8.8-11.3c2.4,2.8,7.7,8.4,13.4,19.1c2.5,4.8,4.2,10.1,5.3,14.8
			c2.5,5.4,4.7,11.5,4.2,15.8c-0.8,6.9-6.7,10.9-12.8,11.5s-14.1-5.4-14.1-5.4s-0.1-1.1,0-4.9c0-1.6,0.4-2.7,0.9-3.6
			C71,98.4,69.9,91.5,69,88c-0.9-3.9-2.2-12.1-2.2-12.1s-4-2-4.3-3.2C62.2,71.5,65.2,65,65.7,63.6z"/>
	</g>
	<g>
		<path class="st6" d="M76.7,95.5c0,0-3.7,1.2-5.3,5.1c-1.5,3.7-1.1,7.6-1.1,7.6s-9.9-5.7-14.8-8.2S45,94.7,45,94.7s-3.6-1-5-0.3
			s-2.8,2.2-4.1,2.2s-2.3-0.4-2.5-1.5C33.3,94,34,92.7,34,92.7s-1.8,0.3-1.6-1.3c0.2-1.6,0.8-2.2,0.8-2.2s-1.1-0.3-0.6-2
			s2.2-3.8,4.3-4.7c2.1-0.9,4.8-0.8,8.5,0.2s13.2,5.1,18.5,7.3C69.2,92.2,76.7,95.5,76.7,95.5z"/>
	</g>
	<g>
		<g>
			<path class="st11" d="M62.9,46c-0.2,0-0.4,0-0.6-0.1c-0.1,0-0.1-0.1-0.1-0.1l0.1-0.1c1.5,0.4,4.1-0.9,4.8-1.9
				c0-0.1,0.1-0.1,0.2,0c0.1,0,0.1,0.1,0,0.2C66.6,44.9,64.5,46,62.9,46z"/>
		</g>
		<g>
			<path class="st12" d="M93.1,86.4C93.1,86.4,93,86.4,93.1,86.4c-0.2-0.4-0.4-0.8-0.7-1.3c-2.2-4.7-8.1-17.1-12.7-22.7
				c0,0,0-0.1,0-0.2s0.1,0,0.2,0c4.6,5.6,10.5,18.1,12.7,22.8c0.3,0.5,0.5,1,0.6,1.2C93.2,86.3,93.2,86.4,93.1,86.4L93.1,86.4z"/>
		</g>
		<g>
			<path class="st12" d="M80.2,97.3c0,0-5.5-10.6-8.1-15.8c-2.9-5.6-4.4-10.4-4.3-13.7c0-0.1,0-0.1,0.1-0.1s0.1,0.1,0.1,0.1
				c-0.1,3.3,1.5,8.1,4.3,13.6c2.7,5.2,8.1,15.8,8.1,15.8L80.2,97.3z"/>
		</g>
		<g>
			<path class="st12" d="M87.2,100.3C87.2,100.3,87.1,100.3,87.2,100.3c-1.8-1.1-6.5-2.9-9.1-3.9c-0.7-0.3-1.2-0.4-1.4-0.6
				c-0.1,0-0.1-0.1-0.1-0.2s0.1-0.1,0.2-0.1c0.3,0.1,0.8,0.3,1.4,0.6c2.6,1,7.3,2.8,9,3.9C87.3,100.1,87.3,100.2,87.2,100.3
				C87.3,100.2,87.2,100.3,87.2,100.3z"/>
		</g>
		<g>
			<path class="st11" d="M48.2,61.9C48.1,61.9,48.1,61.9,48.2,61.9L47,60.5c0,0,0-0.1,0-0.2c0,0,0.1,0,0.2,0l1.1,1.3
				C48.3,61.8,48.3,61.9,48.2,61.9L48.2,61.9z"/>
		</g>
		<g>
			<path class="st11" d="M53.5,64C53.4,64,53.4,64,53.5,64L53.5,64c-0.9-1.2-1.9-2.6-4.4-2.3c-1.3,0.2-2,0.5-2.7,0.9
				C45.6,63,45,63.3,44,63.3c-0.1,0-0.1,0-0.2,0c-2,0-4-0.6-4-0.6s0,0-0.1,0c-0.1-0.1-2.3-3.5-2.5-4.2c0-0.1,0-0.1,0.1-0.1
				s0.1,0,0.1,0.1c0.2,0.6,2.3,3.8,2.5,4.1c0.3,0.1,2.2,0.6,4.1,0.6c1,0,1.6-0.3,2.2-0.6c0.7-0.3,1.4-0.7,2.7-0.9
				C51.6,61.3,52.7,62.9,53.5,64L53.5,64C53.6,63.9,53.6,64,53.5,64L53.5,64z"/>
		</g>
		<g>
			<path class="st8" d="M58,35.3C58,35.3,57.9,35.3,58,35.3c-0.1-0.1-0.1-0.1-0.1-0.2c0.4-0.5,1.5-0.6,2.4-0.4
				c0.1,0,0.1,0.1,0.1,0.1L60.2,35C59.4,34.7,58.4,34.9,58,35.3C58.1,35.3,58,35.3,58,35.3z"/>
		</g>
		<g>
			<path class="st11" d="M42.3,62.2L42.3,62.2c-0.1-0.1-1.5-1.3-2-2.5c-0.4-0.9-0.6-1.7-0.9-2.7c-0.1-0.5-0.3-1-0.4-1.6
				c0-0.1,0-0.1,0.1-0.1s0.1,0,0.1,0.1c0.2,0.6,0.3,1.2,0.4,1.6c0.3,1,0.5,1.8,0.8,2.7C40.9,60.8,42.3,62.1,42.3,62.2
				C42.4,62,42.5,62.1,42.3,62.2C42.4,62.2,42.4,62.2,42.3,62.2z"/>
		</g>
		<g>
			<path class="st11" d="M46.4,69.8C46.3,69.8,46.3,69.8,46.4,69.8c-0.1-0.2-0.1-0.2,0-0.2c1.9,0,4.7-0.3,4.8-0.3s0.1,0,0.1,0.1
				s0,0.1-0.1,0.1C51.2,69.5,48.3,69.8,46.4,69.8L46.4,69.8z"/>
		</g>
		<g>
			<path class="st11" d="M34,92.8C34,92.8,33.9,92.8,34,92.8c-0.1-0.1-0.1-0.1-0.1-0.2c1.1-1.7,4.2-4,7.6-3.7c0.1,0,0.1,0.1,0.1,0.1
				l-0.1,0.1C38.2,88.9,35.2,91.1,34,92.8C34.1,92.8,34,92.8,34,92.8z"/>
		</g>
		<g>
			<path class="st11" d="M33.2,89.3L33.2,89.3c-0.1,0-0.1-0.1-0.1-0.2c1.5-2.9,4.2-4.5,7.7-4.4c0.1,0,0.1,0.1,0.1,0.1L40.8,85
				c-0.1,0-0.2,0-0.3,0c-3.2,0-5.7,1.5-7.1,4.2C33.3,89.3,33.3,89.3,33.2,89.3z"/>
		</g>
	</g>
	<g>
		<g>
			<path class="st10" d="M33.6,85.4c0.3,0.7-0.4,2.7-0.8,3.3l-0.1,0.1c-0.2-0.3-0.3-0.8-0.1-1.5C32.8,86.6,33.1,86,33.6,85.4
				L33.6,85.4z"/>
		</g>
		<g>
			<path class="st10" d="M34,92.7L34,92.7c0.4-0.5,0.8-1,0.8-1c1.5,1.2,0,4.3-0.8,4.3h-0.1c-0.3-0.2-0.4-0.5-0.5-1
				C33.3,94,34,92.7,34,92.7z"/>
		</g>
		<g>
			<path class="st10" d="M32.4,91.4c0.2-1.6,0.8-2.2,0.8-2.2l0,0l0.5-0.8c0.9,0.9-0.9,3.9-0.9,3.9h-0.1
				C32.5,92.2,32.3,91.9,32.4,91.4z"/>
		</g>
	</g>
	<g>
		<g>
			<path class="st10" d="M34.2,55.2L34.2,55.2c0.1,0,1,1.6,0.9,2.4c-0.1,0.8-0.5,1-0.5,1l-0.1-0.1c-0.3-0.8-0.5-1.5-0.6-1.9
				C33.7,56,33.9,55.5,34.2,55.2z"/>
		</g>
		<g>
			<path class="st10" d="M36.6,53.5L36.6,53.5c0.1,0,0.9,2.7,0.1,3.4l-0.2-0.4c-0.2-0.4-0.3-0.8-0.3-1C36.1,54.8,36,53.9,36.6,53.5z
				"/>
		</g>
		<g>
			<path class="st10" d="M45.8,55.7c0.7-0.1,1.3,0.6,2.2,1.5c-0.6,0-1.3-0.4-1.7-0.9C46.1,56,45.9,55.9,45.8,55.7z"/>
		</g>
		<g>
			<path class="st10" d="M39.4,52.5c0.1,0.9-0.2,2-0.4,2.4C38.6,53.5,38.9,52.8,39.4,52.5z"/>
		</g>
	</g>
	<g>
		<g>
			<path class="st5" d="M27.3,77.2h-0.1c-0.1,0-0.1-0.1-0.1-0.1l-9.7-50.8c0-0.1,0.1-0.2,0.2-0.3l2.9-0.5c0.1,0,0.1,0,0.2,0
				s0.1,0.1,0.1,0.1l9.7,50.8c0,0.1-0.1,0.2-0.2,0.3L27.3,77.2L27.3,77.2z M17.9,26.4l9.6,50.3l2.4-0.5l-9.6-50.3L17.9,26.4z"/>
		</g>
		<g>
			<path class="st5" d="M27.3,77.2c-0.1,0-0.1,0-0.2-0.1s-9.4-9.8-12-23.7s2.3-27.2,2.3-27.3c0-0.1,0.2-0.2,0.3-0.1
				c0.1,0,0.2,0.2,0.1,0.3c0,0.1-4.9,13.3-2.3,27s11.8,23.4,11.9,23.5S27.5,77,27.3,77.2C27.4,77.2,27.3,77.2,27.3,77.2z"/>
		</g>
		<g>
			<path class="st5" d="M22.3,101.5h-9.2c-2.5,0-4.6-2.1-4.6-4.6V63.4c0-3.7,0.7-6.2,2.1-7.9c1.3-1.5,2.9-2.1,4.6-2.6l0.1,0.4
				c-1.7,0.5-3.3,1.1-4.4,2.5c-1.3,1.6-2,4-2,7.6v33.5c0,2.3,1.9,4.1,4.1,4.1h8.8v-2.4H13c-0.9,0-1.7-0.8-1.7-1.7V63.4
				c0-3,0.5-4.9,1.4-6c0.7-0.9,1.8-1.3,3-1.6l0.1,0.4c-1.2,0.4-2.2,0.7-2.8,1.5c-0.9,1-1.3,2.9-1.3,5.7v33.5c0,0.7,0.6,1.2,1.2,1.2
				h9.2v3.4H22.3z"/>
		</g>
		<g>
			<path class="st5" d="M42.5,101.5H24.9l1.3-3.3H41L42.5,101.5z M25.6,101h16.1l-1-2.4H26.6L25.6,101z"/>
		</g>
	</g>
	<g>
		<g>
			<path class="st4" d="M51.7,29.9L51.7,29.9L41,22.2c-0.1-0.1-0.1-0.2-0.1-0.3c0.1-0.1,0.2-0.1,0.3-0.1l10.5,7.6
				c0.1,0.1,0.1,0.2,0.1,0.3S51.7,29.9,51.7,29.9z"/>
		</g>
		<g>
			<path class="st4" d="M47.6,34.6L47.6,34.6l-8.3-0.5c-0.1,0-0.2-0.1-0.2-0.2c0-0.1,0.1-0.2,0.2-0.2l0,0l8.3,0.5
				c0.1,0,0.2,0.1,0.2,0.2C47.9,34.5,47.8,34.6,47.6,34.6z"/>
		</g>
		<g>
			<path class="st4" d="M42.2,45.9c-0.1,0-0.2-0.1-0.2-0.1c0-0.1,0-0.3,0.1-0.3l9.7-4.2c0.1-0.1,0.3,0,0.3,0.1s0,0.3-0.1,0.3
				L42.2,45.9C42.3,45.9,42.2,45.9,42.2,45.9z"/>
		</g>
	</g>
	<g>
		<path class="st13" d="M34.5,70.3c-0.1,0-0.2-0.1-0.2-0.2c-0.3-1.1-0.8-1.6-1.3-2c-0.6-0.5-1.2-1.1-1.4-2.3c-0.2-1.3,0.1-2,0.5-2.7
			c0.3-0.7,0.7-1.3,0.4-2.4c-0.2-1.1-0.7-1.6-1.3-2.1c-0.6-0.5-1.2-1.1-1.4-2.3c-0.2-1.3,0.1-2,0.5-2.7c0.3-0.7,0.7-1.3,0.4-2.4
			c-0.2-1.1-0.7-1.6-1.3-2.1c-0.6-0.5-1.2-1.1-1.4-2.3c-0.2-1.3,0.1-2,0.5-2.7c0.3-0.7,0.7-1.3,0.4-2.4c-0.2-1.1-0.7-1.6-1.3-2.1
			c-0.6-0.5-1.2-1.1-1.4-2.3s0.1-2,0.5-2.7c0.3-0.7,0.7-1.3,0.4-2.4c-0.2-1.1-0.7-1.6-1.3-2.1c-0.6-0.5-1.2-1.1-1.4-2.3
			c0-0.1,0.1-0.2,0.2-0.3c0.1,0,0.2,0.1,0.3,0.2c0.2,1.1,0.7,1.6,1.3,2.1c0.6,0.5,1.2,1.1,1.4,2.3c0.2,1.3-0.1,2-0.5,2.7
			c-0.3,0.7-0.7,1.3-0.4,2.4c0.2,1.1,0.7,1.6,1.3,2.1c0.6,0.5,1.2,1.1,1.4,2.3c0.2,1.3-0.1,2-0.5,2.7c-0.3,0.7-0.7,1.3-0.4,2.4
			s0.7,1.6,1.3,2.1c0.6,0.5,1.2,1.1,1.4,2.3c0.2,1.3-0.1,2-0.5,2.7c-0.3,0.7-0.7,1.3-0.4,2.4c0.2,1.1,0.7,1.6,1.3,2.1
			c0.6,0.5,1.2,1.1,1.4,2.3c0.2,1.3-0.1,2-0.5,2.7c-0.3,0.7-0.7,1.3-0.4,2.4c0.2,1.1,0.7,1.6,1.3,2.1s1.2,1.1,1.4,2.3
			C34.7,70.2,34.6,70.3,34.5,70.3L34.5,70.3z"/>
	</g>
	<g>
		<path class="st0" d="M91.9,48.4c-1.4,0-2.5-1.1-2.5-2.5s1.1-2.5,2.5-2.5s2.5,1.1,2.5,2.5S93.2,48.4,91.9,48.4z M91.9,44
			c-1.1,0-2,0.9-2,2s0.9,2,2,2s2-0.9,2-2S93,44,91.9,44z"/>
	</g>
	<g>
		<path class="st14" d="M86.4,24.8c-0.1,0-0.2-0.1-0.2-0.1c-0.4-1.8-0.5-5.3,1.9-7.3c1-0.8,2.5-1.4,3.9-1.6c0.1-0.6,0.3-1.2,0.7-1.9
			c2.1-3.7,6.3-3.7,9.3-2.5c0.1,0,0.1,0.1,0.1,0.2c0,0.1-0.1,0.1-0.2,0.1c-2.9-1.1-6.9-1.1-8.8,2.4c-0.3,0.6-0.5,1.1-0.6,1.7
			c1.6-0.1,3.1,0.2,4.3,1.2c1.1,1,1.2,1.9,1,2.6c-0.3,1.1-1.2,1.9-2,2.1s-1.8-0.3-2.6-1.3c-0.7-0.9-1.3-2.4-1.1-4.1
			c-1.3,0.2-2.6,0.7-3.6,1.5c-2.3,1.8-2.2,5.2-1.8,6.9C86.6,24.6,86.5,24.7,86.4,24.8L86.4,24.8z M92.3,16.1c-0.2,1.6,0.4,3,1,3.9
			c0.7,0.9,1.6,1.4,2.2,1.2c0.7-0.2,1.5-0.9,1.8-1.8c0.2-0.8-0.1-1.5-0.9-2.2C95.3,16.2,93.8,15.9,92.3,16.1z"/>
	</g>
	<g>
		<path class="st4" d="M76.8,54.9c-4.5,1.8-9.8,6.9-11.2,8.7c-0.3-0.9-0.2-1.7-0.2-1.7c2.3-3.7,5.5-6.8,9.2-10.2
			C75.8,52.9,76.2,53.7,76.8,54.9z"/>
	</g>
</g>
</svg>
