<?xml version="1.0" encoding="utf-8"?>
<!-- Generator: Adobe Illustrator 26.5.0, SVG Export Plug-In . SVG Version: 6.00 Build 0)  -->
<svg version="1.1" id="Capa_1" xmlns="http://www.w3.org/2000/svg" xmlns:xlink="http://www.w3.org/1999/xlink" x="0px" y="0px"
	 viewBox="0 0 1110 268" style="enable-background:new 0 0 1110 268;" xml:space="preserve">
<style type="text/css">
	.st0{fill:#5D4FFE;}
	.st1{fill:#FFFFFF;}
	.st2{fill:#683EC3;}
	.st3{fill:#28F1F3;}
</style>
<rect class="st0" width="1110" height="268"/>
<g>
	<g>
		<g>
			<path class="st1" d="M474,49.9h2.3l7.2,19.2H482l-2.4-6.3h-9.1l-2.3,6.3h-1.5L474,49.9z M479.2,61.5L475.2,51H475l-3.9,10.5
				H479.2z"/>
			<path class="st1" d="M485.3,49.9h1.3v8.3h0.1c0.4-1,1-1.9,1.9-2.5c0.9-0.7,1.9-1,3.2-1c1.6,0,2.7,0.5,3.5,1.5s1.2,2.4,1.2,4.1
				v8.7H495v-8.7c0-1.4-0.3-2.5-0.8-3.3c-0.6-0.7-1.4-1.1-2.6-1.1c-1.1,0-2.1,0.3-2.8,0.9c-0.7,0.6-1.3,1.3-1.6,2.1
				c-0.3,0.8-0.5,1.5-0.5,2.1v7.9h-1.4V49.9z"/>
			<path class="st1" d="M502.5,68.5c-1-0.6-1.7-1.5-2.2-2.6c-0.5-1.1-0.8-2.4-0.8-3.8c0-1.4,0.3-2.7,0.8-3.8c0.5-1.1,1.3-2,2.3-2.6
				s2.1-1,3.4-1c1.3,0,2.4,0.3,3.3,1s1.7,1.5,2.2,2.6s0.8,2.4,0.8,3.7c0,1.4-0.3,2.6-0.8,3.7c-0.5,1.1-1.3,2-2.3,2.7
				c-1,0.7-2.1,1-3.3,1C504.5,69.4,503.4,69.1,502.5,68.5z M501.4,65.2c0.4,0.9,1,1.7,1.7,2.2c0.7,0.5,1.6,0.8,2.7,0.8
				c1,0,1.9-0.3,2.6-0.8c0.7-0.5,1.3-1.3,1.7-2.2s0.6-1.9,0.6-3.1c0-1.1-0.2-2.2-0.6-3.1c-0.4-0.9-0.9-1.6-1.7-2.2
				c-0.7-0.5-1.6-0.8-2.7-0.8s-1.9,0.3-2.7,0.8c-0.8,0.5-1.3,1.3-1.7,2.2s-0.6,1.9-0.6,3.1C500.9,63.2,501.1,64.2,501.4,65.2z"/>
			<path class="st1" d="M515.4,55.1h1.1v2.2h0.1c0.5-1.5,1.8-2.2,3.8-2.2h1.1v1.4h-1.9c-0.9,0-1.6,0.3-2.1,0.8s-0.7,1.3-0.7,2.2v9.6
				h-1.4V55.1z"/>
			<path class="st1" d="M524,68.4c-0.8-0.7-1.2-1.6-1.2-2.9c0-1.3,0.6-2.3,1.7-3c1.1-0.7,2.6-1.1,4.3-1.1h3.6v-1.8
				c0-1-0.3-1.9-0.9-2.5c-0.6-0.6-1.5-1-2.6-1c-1,0-1.9,0.3-2.8,0.9c-0.9,0.6-1.5,1.4-1.9,2.6l-1.3-0.6c0.5-1.3,1.3-2.3,2.4-3.1
				c1.1-0.7,2.3-1.1,3.6-1.1c1.5,0,2.8,0.5,3.6,1.4c0.9,0.9,1.3,2.1,1.3,3.5v7.8c0,0.1,0,0.2,0.1,0.3c0.1,0.1,0.1,0.1,0.2,0.1h1.3
				v1.3h-1.4c-0.6,0-1-0.2-1.2-0.5c-0.2-0.3-0.4-0.8-0.4-1.5l0-1.4h-0.2c-0.5,1.1-1.1,2-2,2.7c-0.9,0.7-1.9,1-3.1,1
				C525.9,69.4,524.8,69.1,524,68.4z M525.1,67.4c0.6,0.4,1.3,0.6,2.3,0.6c0.8,0,1.6-0.2,2.3-0.7s1.3-1.1,1.8-2
				c0.5-0.8,0.8-1.8,0.9-2.9h-3.5c-1.3,0-2.4,0.3-3.3,0.8c-0.9,0.5-1.3,1.3-1.3,2.2C524.2,66.4,524.5,67,525.1,67.4z"/>
			<path class="st1" d="M537.1,68.7c-0.2-0.2-0.2-0.5-0.2-0.8c0-0.4,0.1-0.8,0.4-1.1c0.3-0.3,0.6-0.5,1.1-0.5c0.5,0,0.9,0.1,1.1,0.4
				c0.3,0.3,0.4,0.7,0.4,1.1c0,0.3-0.1,0.8-0.4,1.4l-1.1,2.6h-1.3l0.7-2.7C537.5,69.2,537.3,69,537.1,68.7z"/>
			<path class="st1" d="M549.6,68.5c-1-0.6-1.8-1.5-2.4-2.7l1.3-0.7c0.5,1,1.2,1.7,2,2.2c0.8,0.5,1.8,0.8,2.8,0.8
				c1,0,1.9-0.2,2.5-0.7s1-1,1-1.8c0-0.5-0.2-1-0.5-1.3c-0.3-0.3-0.7-0.6-1.2-0.8c-0.5-0.2-1.2-0.4-2-0.7c-1.1-0.3-1.9-0.6-2.6-0.9
				c-0.6-0.3-1.2-0.7-1.6-1.2c-0.5-0.5-0.7-1.2-0.7-2.1c0-0.9,0.2-1.6,0.7-2.3s1.1-1.1,1.9-1.4c0.8-0.3,1.5-0.5,2.3-0.5
				c1.3,0,2.3,0.3,3.2,1c0.9,0.7,1.6,1.5,2,2.6l-1.3,0.4c-0.3-0.9-0.9-1.5-1.6-2c-0.7-0.5-1.5-0.7-2.4-0.7c-1,0-1.8,0.3-2.4,0.8
				c-0.7,0.5-1,1.2-1,2c0,0.6,0.2,1,0.5,1.4c0.4,0.4,0.8,0.6,1.3,0.8c0.5,0.2,1.2,0.4,2.2,0.7c1,0.3,1.8,0.6,2.5,0.8
				c0.6,0.3,1.2,0.7,1.6,1.1c0.4,0.5,0.7,1.1,0.7,1.9c0,1.3-0.5,2.2-1.5,2.9c-1,0.7-2.2,1-3.6,1C551.8,69.5,550.6,69.2,549.6,68.5z"
				/>
			<path class="st1" d="M561.4,52c-0.3-0.3-0.4-0.6-0.4-0.9c0-0.3,0.1-0.6,0.4-0.9c0.3-0.2,0.6-0.4,0.9-0.4c0.3,0,0.6,0.1,0.9,0.4
				c0.2,0.2,0.4,0.5,0.4,0.9c0,0.3-0.1,0.6-0.4,0.9c-0.2,0.3-0.5,0.4-0.9,0.4C562,52.4,561.7,52.3,561.4,52z M561.6,55.1h1.4v14
				h-1.4V55.1z"/>
			<path class="st1" d="M572.3,55.1h1.3v3.1h0.1c0.4-1,1-1.8,1.9-2.5c0.8-0.7,1.9-1,3.2-1c1.2,0,2.2,0.3,3.2,0.9
				c0.9,0.6,1.7,1.5,2.2,2.6s0.8,2.4,0.8,3.8c0,1.5-0.3,2.8-0.8,3.9s-1.3,2-2.2,2.6c-0.9,0.6-2,0.9-3.2,0.9c-1.3,0-2.3-0.3-3.1-1
				c-0.8-0.7-1.4-1.5-1.8-2.5h-0.1v8.4h-1.3V55.1z M574.3,65.1c0.4,0.9,0.9,1.6,1.7,2.2c0.7,0.5,1.6,0.8,2.7,0.8
				c0.9,0,1.8-0.2,2.5-0.7s1.3-1.2,1.7-2.1c0.4-0.9,0.6-2,0.6-3.2c0-1.2-0.2-2.3-0.6-3.2c-0.4-0.9-0.9-1.6-1.7-2.2
				c-0.7-0.5-1.5-0.8-2.5-0.8c-1,0-1.9,0.3-2.7,0.8c-0.8,0.6-1.3,1.3-1.7,2.2c-0.4,0.9-0.6,2-0.6,3.1
				C573.8,63.2,573.9,64.2,574.3,65.1z"/>
			<path class="st1" d="M588.3,68.4c-0.8-0.7-1.2-1.6-1.2-2.9c0-1.3,0.6-2.3,1.7-3c1.1-0.7,2.6-1.1,4.3-1.1h3.6v-1.8
				c0-1-0.3-1.9-0.9-2.5c-0.6-0.6-1.5-1-2.6-1c-1,0-1.9,0.3-2.8,0.9c-0.9,0.6-1.5,1.4-1.9,2.6l-1.3-0.6c0.5-1.3,1.3-2.3,2.4-3.1
				c1.1-0.7,2.3-1.1,3.6-1.1c1.5,0,2.8,0.5,3.6,1.4c0.9,0.9,1.3,2.1,1.3,3.5v7.8c0,0.1,0,0.2,0.1,0.3c0.1,0.1,0.1,0.1,0.2,0.1h1.3
				v1.3h-1.4c-0.6,0-1-0.2-1.2-0.5c-0.2-0.3-0.4-0.8-0.4-1.5l0-1.4h-0.2c-0.5,1.1-1.1,2-2,2.7c-0.9,0.7-1.9,1-3.1,1
				C590.2,69.4,589.1,69.1,588.3,68.4z M589.4,67.4c0.6,0.4,1.3,0.6,2.3,0.6c0.8,0,1.6-0.2,2.3-0.7s1.3-1.1,1.8-2
				c0.5-0.8,0.8-1.8,0.9-2.9h-3.5c-1.3,0-2.4,0.3-3.3,0.8c-0.9,0.5-1.3,1.3-1.3,2.2C588.5,66.4,588.8,67,589.4,67.4z"/>
			<path class="st1" d="M606.4,64.3v2.5c0.5-0.1,0.9-0.1,1.3-0.1c0.9,0,1.9,0.1,2.9,0.4c1,0.2,1.9,0.7,2.6,1.2s1.1,1.3,1.1,2.3
				c0,1.3-0.6,2.2-1.8,2.8c-1.2,0.6-2.8,1-4.8,1c-2,0-3.5-0.3-4.7-1c-1.2-0.6-1.8-1.6-1.8-2.8c0-1,0.4-1.8,1.2-2.3
				c0.8-0.6,1.7-1,2.9-1.3V64c-1-0.3-1.8-0.9-2.4-1.6c-0.6-0.8-0.8-1.6-0.8-2.6c0-0.9,0.2-1.7,0.7-2.5c0.5-0.7,1.2-1.3,2-1.7
				c0.9-0.4,1.8-0.6,2.9-0.6h6.5v1.3h-3.3v0.2c1.4,0.8,2,2,2,3.5c0,0.8-0.2,1.5-0.7,2.2s-1.1,1.2-2,1.6c-0.8,0.4-1.8,0.6-2.8,0.6
				C607.1,64.3,606.8,64.3,606.4,64.3z M604,72.3c0.9,0.4,2.1,0.7,3.6,0.7c1.5,0,2.8-0.2,3.7-0.7c0.9-0.4,1.4-1.1,1.4-1.9
				c0-0.8-0.5-1.4-1.4-1.8c-1-0.5-2.2-0.7-3.7-0.7c-1.5,0-2.7,0.2-3.6,0.7c-1,0.5-1.4,1.1-1.4,1.8C602.6,71.3,603.1,71.9,604,72.3z
				 M604.5,62.1c0.7,0.6,1.7,0.9,2.9,0.9c1.2,0,2.1-0.3,2.9-0.9s1.1-1.4,1.1-2.3c0-0.6-0.2-1.2-0.5-1.8c-0.3-0.5-0.8-1-1.4-1.3
				c-0.6-0.3-1.3-0.5-2.1-0.5c-0.9,0-1.6,0.2-2.2,0.5c-0.6,0.3-1.1,0.8-1.4,1.3c-0.3,0.5-0.5,1.1-0.5,1.7
				C603.4,60.7,603.8,61.5,604.5,62.1z"/>
			<path class="st1" d="M617,68.4c-0.8-0.7-1.2-1.6-1.2-2.9c0-1.3,0.6-2.3,1.7-3c1.1-0.7,2.6-1.1,4.3-1.1h3.6v-1.8
				c0-1-0.3-1.9-0.9-2.5c-0.6-0.6-1.5-1-2.6-1c-1,0-1.9,0.3-2.8,0.9c-0.9,0.6-1.5,1.4-1.9,2.6l-1.3-0.6c0.5-1.3,1.3-2.3,2.4-3.1
				c1.1-0.7,2.3-1.1,3.6-1.1c1.5,0,2.8,0.5,3.6,1.4c0.9,0.9,1.3,2.1,1.3,3.5v7.8c0,0.1,0,0.2,0.1,0.3c0.1,0.1,0.1,0.1,0.2,0.1h1.3
				v1.3h-1.4c-0.6,0-1-0.2-1.2-0.5c-0.2-0.3-0.4-0.8-0.4-1.5l0-1.4h-0.2c-0.5,1.1-1.1,2-2,2.7c-0.9,0.7-1.9,1-3.1,1
				C618.9,69.4,617.8,69.1,617,68.4z M618.1,67.4c0.6,0.4,1.3,0.6,2.3,0.6c0.8,0,1.6-0.2,2.3-0.7s1.3-1.1,1.8-2
				c0.5-0.8,0.8-1.8,0.9-2.9h-3.5c-1.3,0-2.4,0.3-3.3,0.8c-0.9,0.5-1.3,1.3-1.3,2.2C617.2,66.4,617.5,67,618.1,67.4z M625.3,49.5
				v0.3l-3.1,3.2h-1.4l2.9-3.5H625.3z"/>
			<path class="st1" d="M632.8,68.5c-1-0.6-1.8-1.5-2.4-2.7l1.3-0.7c0.5,1,1.2,1.7,2,2.2c0.8,0.5,1.8,0.8,2.8,0.8
				c1,0,1.9-0.2,2.5-0.7s1-1,1-1.8c0-0.5-0.2-1-0.5-1.3c-0.3-0.3-0.7-0.6-1.2-0.8c-0.5-0.2-1.2-0.4-2-0.7c-1.1-0.3-1.9-0.6-2.6-0.9
				c-0.6-0.3-1.2-0.7-1.6-1.2c-0.5-0.5-0.7-1.2-0.7-2.1c0-0.9,0.2-1.6,0.7-2.3s1.1-1.1,1.9-1.4c0.8-0.3,1.5-0.5,2.3-0.5
				c1.3,0,2.3,0.3,3.2,1c0.9,0.7,1.6,1.5,2,2.6l-1.3,0.4c-0.3-0.9-0.9-1.5-1.6-2c-0.7-0.5-1.5-0.7-2.4-0.7c-1,0-1.8,0.3-2.4,0.8
				c-0.7,0.5-1,1.2-1,2c0,0.6,0.2,1,0.5,1.4c0.4,0.4,0.8,0.6,1.3,0.8c0.5,0.2,1.2,0.4,2.2,0.7c1,0.3,1.8,0.6,2.5,0.8
				c0.6,0.3,1.2,0.7,1.6,1.1c0.4,0.5,0.7,1.1,0.7,1.9c0,1.3-0.5,2.2-1.5,2.9c-1,0.7-2.2,1-3.6,1C635,69.5,633.8,69.2,632.8,68.5z"/>
			<path class="st1" d="M455,99.8c-1-0.6-1.7-1.5-2.2-2.6c-0.5-1.1-0.8-2.4-0.8-3.7c0-1.4,0.3-2.7,0.8-3.8c0.5-1.1,1.3-2,2.3-2.7
				c1-0.6,2-1,3.2-1c1.3,0,2.4,0.3,3.3,1c0.9,0.7,1.6,1.6,2,2.8l-1.3,0.4c-0.3-1-0.9-1.7-1.6-2.2s-1.5-0.7-2.5-0.7
				c-0.8,0-1.6,0.2-2.4,0.7c-0.7,0.5-1.3,1.2-1.8,2.1s-0.7,2-0.7,3.3c0,1.1,0.2,2.2,0.6,3.1s1,1.6,1.8,2.2c0.8,0.5,1.6,0.8,2.6,0.8
				c1,0,1.9-0.3,2.7-0.8c0.8-0.5,1.5-1.2,1.9-2.1l1.1,0.6c-0.6,1.1-1.4,2-2.4,2.6c-1,0.6-2.2,0.9-3.4,0.9
				C457.1,100.8,456,100.5,455,99.8z"/>
			<path class="st1" d="M468.9,99.8c-1-0.6-1.7-1.5-2.2-2.6c-0.5-1.1-0.8-2.4-0.8-3.8c0-1.4,0.3-2.7,0.8-3.8c0.5-1.1,1.3-2,2.3-2.6
				s2.1-1,3.4-1c1.3,0,2.4,0.3,3.3,1s1.7,1.5,2.2,2.6s0.8,2.4,0.8,3.7c0,1.4-0.3,2.6-0.8,3.7c-0.5,1.1-1.3,2-2.3,2.7
				c-1,0.7-2.1,1-3.3,1C471,100.8,469.9,100.5,468.9,99.8z M467.9,96.5c0.4,0.9,1,1.7,1.7,2.2c0.7,0.5,1.6,0.8,2.7,0.8
				c1,0,1.9-0.3,2.6-0.8c0.7-0.5,1.3-1.3,1.7-2.2s0.6-1.9,0.6-3.1c0-1.1-0.2-2.2-0.6-3.1c-0.4-0.9-0.9-1.6-1.7-2.2
				c-0.7-0.5-1.6-0.8-2.7-0.8s-1.9,0.3-2.7,0.8c-0.8,0.5-1.3,1.3-1.7,2.2s-0.6,1.9-0.6,3.1C467.3,94.6,467.5,95.6,467.9,96.5z"/>
			<path class="st1" d="M481.8,86.5h1.2v3.1h0.1c0.4-1,1-1.8,2-2.5c0.9-0.7,2-1,3.1-1c1.5,0,2.7,0.5,3.5,1.5s1.2,2.4,1.2,4.2v8.7
				h-1.4v-8.7c0-1.5-0.3-2.6-0.9-3.3c-0.6-0.7-1.5-1-2.7-1c-1,0-1.8,0.3-2.5,0.9c-0.7,0.6-1.3,1.3-1.7,2.1c-0.4,0.8-0.6,1.5-0.6,2.1
				v7.9h-1.4V86.5z"/>
			<path class="st1" d="M504.5,100.4h-2.8V81.2h6.5c1.5,0,2.8,0.3,3.9,0.9c1.1,0.6,2,1.4,2.7,2.5c0.6,1,0.9,2.2,0.9,3.6
				c0,1.3-0.3,2.5-1,3.6c-0.7,1.1-1.6,1.9-2.7,2.5c-1.1,0.6-2.4,0.9-3.7,0.9h-3.7V100.4z M507.6,92.4c1.5,0,2.8-0.4,3.7-1.1
				c0.9-0.7,1.4-1.8,1.4-3.2c0-1.3-0.5-2.4-1.4-3.1s-2.2-1.1-3.8-1.1h-3.1v8.4H507.6z"/>
			<path class="st1" d="M519.9,100c-1.1-0.6-1.9-1.4-2.6-2.5c-0.7-1.1-1-2.4-1-4c0-1.4,0.3-2.7,0.9-3.8c0.6-1.1,1.4-2,2.4-2.6
				s2.2-1,3.5-1c1.3,0,2.4,0.3,3.3,0.9c0.9,0.6,1.7,1.4,2.2,2.4c0.5,1,0.8,2.1,0.8,3.3l0,1.9h-10.2c0.2,1.2,0.7,2.1,1.5,2.8
				c0.8,0.7,1.7,1,2.8,1c0.7,0,1.5-0.2,2.2-0.5c0.7-0.3,1.4-0.8,2-1.5l1.6,1.6c-0.7,0.9-1.6,1.6-2.6,2.1c-1,0.5-2.1,0.7-3.2,0.7
				C522.1,100.8,521,100.5,519.9,100z M526.6,92.4c0-0.8-0.2-1.5-0.5-2.1c-0.3-0.6-0.8-1-1.4-1.3c-0.6-0.3-1.1-0.5-1.8-0.5
				c-0.9,0-1.7,0.3-2.5,1c-0.7,0.7-1.2,1.6-1.3,2.9H526.6z"/>
			<path class="st1" d="M532,86.5h2.5V89h0.2c0.5-1.7,1.7-2.6,3.7-2.6h0.9v3.1h-1.9c-0.9,0-1.6,0.2-2,0.7c-0.4,0.5-0.6,1.2-0.6,2.1
				v8.1H532V86.5z"/>
			<path class="st1" d="M543.1,99.9c-1.1-0.6-2-1.5-2.5-2.7l2-1.3c0.5,0.8,1.1,1.4,1.8,1.8c0.7,0.4,1.5,0.6,2.4,0.6
				c0.8,0,1.5-0.1,1.9-0.4c0.5-0.3,0.7-0.7,0.7-1.1c0-0.4-0.3-0.8-0.8-1.1c-0.5-0.3-1.3-0.6-2.3-1s-1.9-0.6-2.5-0.9
				c-0.6-0.3-1.2-0.7-1.7-1.3c-0.5-0.6-0.7-1.3-0.7-2.3c0-0.8,0.2-1.5,0.7-2.1c0.5-0.6,1.1-1.1,1.8-1.5s1.5-0.5,2.4-0.5
				c1.3,0,2.5,0.3,3.5,1c1,0.7,1.7,1.5,2.1,2.6l-2.2,1.1c-0.3-0.7-0.8-1.2-1.5-1.6c-0.7-0.4-1.3-0.6-2-0.6c-0.7,0-1.2,0.2-1.6,0.5
				c-0.4,0.3-0.6,0.7-0.6,1.2c0,0.4,0.1,0.7,0.4,1s0.6,0.5,1,0.7c0.4,0.2,1.1,0.4,1.9,0.7c0.9,0.3,1.6,0.6,2.2,0.9
				c0.6,0.3,1.1,0.7,1.6,1.3c0.5,0.6,0.7,1.3,0.7,2.2c0,0.8-0.2,1.5-0.7,2.1c-0.5,0.6-1.1,1-1.9,1.4c-0.8,0.3-1.7,0.5-2.6,0.5
				C545.4,100.8,544.2,100.5,543.1,99.9z"/>
			<path class="st1" d="M557,99.9c-1-0.6-1.8-1.5-2.4-2.6c-0.6-1.1-0.8-2.4-0.8-3.8c0-1.4,0.3-2.7,0.9-3.8c0.6-1.1,1.4-2,2.4-2.6
				s2.2-0.9,3.5-0.9c1.3,0,2.5,0.3,3.5,1s1.8,1.5,2.4,2.6c0.6,1.1,0.8,2.4,0.8,3.8c0,1.4-0.3,2.6-0.9,3.7c-0.6,1.1-1.4,2-2.4,2.7
				s-2.2,1-3.5,1S558,100.5,557,99.9z M557.5,96.9c0.7,0.9,1.7,1.4,3,1.4c1.2,0,2.2-0.5,2.9-1.4c0.7-0.9,1.1-2.1,1.1-3.5
				c0-1.4-0.3-2.6-1-3.5c-0.7-0.9-1.7-1.4-2.9-1.4c-1.3,0-2.3,0.5-3,1.4c-0.7,0.9-1.1,2.1-1.1,3.5C556.5,94.8,556.8,96,557.5,96.9z"
				/>
			<path class="st1" d="M569.9,86.5h2.6v2.7h0.2c0.2-0.9,0.8-1.6,1.7-2.2c0.9-0.6,1.9-0.9,3-0.9c1.5,0,2.7,0.5,3.5,1.5
				s1.2,2.3,1.2,4.1v8.8h-2.8v-7.9c0-1.4-0.2-2.4-0.7-3c-0.5-0.7-1.2-1-2.1-1c-1.1,0-2,0.4-2.7,1.3s-1,2.1-1,3.6v7h-2.8V86.5z"/>
			<path class="st1" d="M585.8,99.7c-0.8-0.7-1.3-1.6-1.3-2.8c0-0.9,0.3-1.7,0.8-2.4c0.5-0.7,1.2-1.2,2.1-1.5
				c0.9-0.3,1.8-0.5,2.9-0.5h3.3v-0.9c0-1-0.3-1.7-0.8-2.3c-0.5-0.6-1.2-0.8-1.9-0.8c-0.9,0-1.6,0.2-2.2,0.7c-0.6,0.5-1,1.2-1.5,2.2
				l-2.4-1c0.5-1.4,1.2-2.5,2.2-3.2s2.3-1.1,3.7-1.1c1.6,0,2.9,0.5,3.9,1.4c1,0.9,1.5,2.2,1.5,3.9v6.3c0,0.3,0.1,0.5,0.4,0.5h1.1
				v2.2h-1.6c-1.3,0-1.9-0.7-1.9-2l0-0.9H594c-0.4,1-1.1,1.7-2,2.4s-1.9,0.9-3.1,0.9C587.7,100.8,586.6,100.4,585.8,99.7z
				 M587.9,97.9c0.4,0.3,1,0.4,1.6,0.4c0.6,0,1.3-0.2,1.9-0.5s1.1-0.8,1.5-1.4c0.4-0.6,0.6-1.2,0.7-1.8h-2.3c-1.2,0-2.2,0.2-2.9,0.5
				s-1.1,0.9-1.1,1.5C587.3,97.2,587.5,97.6,587.9,97.9z"/>
			<path class="st1" d="M600,97.4V81.3h2.8v16c0,0.3,0,0.4,0.1,0.5c0.1,0.1,0.2,0.1,0.4,0.1h1.9v2.5h-2.8
				C600.8,100.4,600,99.4,600,97.4z"/>
			<path class="st1" d="M615.7,100.4h-2.8V81.2h6.5c1.5,0,2.8,0.3,3.9,0.9c1.1,0.6,2,1.4,2.7,2.5c0.6,1,0.9,2.2,0.9,3.6
				c0,1.3-0.3,2.5-1,3.6c-0.7,1.1-1.6,1.9-2.7,2.5c-1.1,0.6-2.4,0.9-3.7,0.9h-3.7V100.4z M618.8,92.4c1.5,0,2.8-0.4,3.7-1.1
				c0.9-0.7,1.4-1.8,1.4-3.2c0-1.3-0.5-2.4-1.4-3.1s-2.2-1.1-3.8-1.1h-3.1v8.4H618.8z"/>
			<path class="st1" d="M628.7,99.7c-0.8-0.7-1.3-1.6-1.3-2.8c0-0.9,0.3-1.7,0.8-2.4c0.5-0.7,1.2-1.2,2.1-1.5
				c0.9-0.3,1.8-0.5,2.9-0.5h3.3v-0.9c0-1-0.3-1.7-0.8-2.3c-0.5-0.6-1.2-0.8-1.9-0.8c-0.9,0-1.6,0.2-2.2,0.7c-0.6,0.5-1,1.2-1.5,2.2
				l-2.4-1c0.5-1.4,1.2-2.5,2.2-3.2s2.3-1.1,3.7-1.1c1.6,0,2.9,0.5,3.9,1.4c1,0.9,1.5,2.2,1.5,3.9v6.3c0,0.3,0.1,0.5,0.4,0.5h1.1
				v2.2H639c-1.3,0-1.9-0.7-1.9-2l0-0.9h-0.2c-0.4,1-1.1,1.7-2,2.4s-1.9,0.9-3.1,0.9C630.5,100.8,629.5,100.4,628.7,99.7z
				 M630.8,97.9c0.4,0.3,1,0.4,1.6,0.4c0.6,0,1.3-0.2,1.9-0.5s1.1-0.8,1.5-1.4c0.4-0.6,0.6-1.2,0.7-1.8h-2.3c-1.2,0-2.2,0.2-2.9,0.5
				s-1.1,0.9-1.1,1.5C630.1,97.2,630.3,97.6,630.8,97.9z"/>
			<path class="st1" d="M643.9,86.5l3.8,11.6h0.2l3.7-11.6h2.7l-5.1,15.5c-0.4,1.3-0.9,2.1-1.4,2.7c-0.5,0.5-1.2,0.8-2.2,0.8h-3.2
				v-2.3h2.6c0.5,0,0.8-0.1,1-0.4c0.2-0.3,0.5-0.7,0.7-1.3l0.4-1h-1.5l-4.6-14H643.9z"/>
			<path class="st1" d="M655.3,100.1c-0.2-0.2-0.2-0.5-0.2-0.8c0-0.4,0.1-0.8,0.4-1.1c0.3-0.3,0.6-0.5,1.1-0.5
				c0.5,0,0.9,0.1,1.1,0.4c0.3,0.3,0.4,0.7,0.4,1.1c0,0.3-0.1,0.8-0.4,1.4l-1.1,2.6h-1.3l0.7-2.7
				C655.6,100.5,655.4,100.3,655.3,100.1z"/>
		</g>
		<g>
			<g>
				
					<image style="overflow:visible;opacity:0.5;" width="1942" height="1101" xlink:href="5882F07589A83051.png"  transform="matrix(0.24 0 0 0.24 327.9656 23.5071)">
				</image>
				<g>
					<path class="st2" d="M659.7,169.4l-207.7,6c-15.9,0.5-29.2-12.1-29.6-28v0c-0.5-15.9,12.1-29.2,28-29.6l207.7-6
						c15.9-0.5,29.2,12.1,29.6,28v0C688.1,155.7,675.6,169,659.7,169.4z"/>
				</g>
			</g>
			<g>
				<path class="st1" d="M449.9,153.7l-0.3-10.1l-2.5,0.1L447,141l2.5-0.1l0.1-3.7l3.1-0.1l0.1,3.7l4.1-0.1l0.1,2.7l-4,0.1l0.3,10
					c0,0.3,0.1,0.5,0.2,0.6c0.1,0.1,0.3,0.2,0.5,0.2l3.4-0.1l0.1,3l-4.6,0.1C451,157.3,450,156.1,449.9,153.7z"/>
				<path class="st1" d="M461.5,155.7c-1-1.1-1.5-2.7-1.6-4.8l-0.3-10.3l3.3-0.1l0.3,9.8c0,1.5,0.3,2.5,0.9,3.2
					c0.6,0.7,1.4,1,2.5,0.9c1.4,0,2.4-0.6,3.1-1.8c0.7-1.1,1-2.4,0.9-3.8l-0.2-8.5l3.3-0.1l0.5,16.4l-2.9,0.1l-0.1-3.3l-0.2,0
					c-0.5,1.1-1.1,2-2,2.8c-0.9,0.7-2,1.1-3.3,1.2C463.9,157.4,462.5,156.9,461.5,155.7z"/>
				<path class="st1" d="M480.7,155.8c-1.3-0.6-2.3-1.6-3.1-3l2.3-1.6c0.6,1,1.3,1.7,2.2,2.1c0.9,0.4,1.8,0.6,2.8,0.6
					c1,0,1.7-0.2,2.3-0.6c0.5-0.4,0.8-0.8,0.8-1.3c0-0.5-0.3-0.9-1-1.3c-0.6-0.3-1.5-0.7-2.8-1c-1.2-0.4-2.2-0.7-3-1
					c-0.8-0.3-1.4-0.8-2-1.5c-0.6-0.7-0.9-1.6-0.9-2.7c0-0.9,0.2-1.7,0.7-2.5c0.5-0.8,1.2-1.3,2.1-1.8c0.9-0.4,1.8-0.7,2.7-0.7
					c1.6,0,3,0.3,4.2,1c1.2,0.7,2.1,1.7,2.6,2.9l-2.5,1.4c-0.4-0.8-1-1.4-1.8-1.9c-0.8-0.4-1.6-0.6-2.3-0.6c-0.8,0-1.4,0.2-1.9,0.6
					c-0.4,0.4-0.7,0.8-0.6,1.4c0,0.5,0.2,0.9,0.5,1.1c0.3,0.3,0.8,0.5,1.2,0.7c0.5,0.2,1.2,0.4,2.3,0.7c1.1,0.3,1.9,0.6,2.7,1
					c0.7,0.3,1.4,0.8,1.9,1.5c0.6,0.6,0.9,1.5,0.9,2.5c0,0.9-0.2,1.8-0.8,2.5c-0.5,0.7-1.3,1.3-2.2,1.7c-0.9,0.4-1.9,0.6-3,0.6
					C483.5,156.8,482,156.5,480.7,155.8z"/>
				<path class="st1" d="M506,155.2c-1-0.6-1.7-1.5-2.2-2.6l-0.2,0l0.1,3.2l-2.8,0.1l-0.7-22.5l3.2-0.1l0.3,9.2l0.2,0
					c0.5-1.1,1.2-1.9,2.1-2.6c0.9-0.7,2-1,3.4-1.1c1.3,0,2.5,0.3,3.6,1c1.1,0.7,1.9,1.7,2.5,3s0.9,2.7,1,4.3
					c0.1,1.8-0.2,3.3-0.9,4.7c-0.6,1.4-1.5,2.4-2.6,3.2c-1.1,0.8-2.3,1.2-3.6,1.2C508.2,156.1,507,155.8,506,155.2z M505.4,151.5
					c0.9,1,2.1,1.5,3.6,1.5c0.8,0,1.6-0.3,2.2-0.8c0.7-0.5,1.2-1.2,1.5-2c0.4-0.9,0.5-1.9,0.5-3c0-1.7-0.5-3-1.3-3.9
					c-0.8-1-1.9-1.4-3.2-1.4c-1,0-1.8,0.3-2.5,0.8s-1.2,1.2-1.6,2.1c-0.4,0.9-0.5,1.8-0.5,2.8C504,149.1,504.5,150.5,505.4,151.5z"
					/>
				<path class="st1" d="M523.2,154.7c-1.3-0.6-2.3-1.6-3.1-2.9c-0.8-1.3-1.2-2.8-1.3-4.7c0-1.7,0.2-3.2,0.9-4.5
					c0.6-1.3,1.6-2.4,2.7-3.2c1.2-0.8,2.5-1.2,4.1-1.2c1.5,0,2.8,0.3,3.9,1c1.1,0.7,2,1.6,2.6,2.8c0.6,1.2,1,2.5,1,3.9l0,2.2
					l-12,0.3c0.3,1.4,0.9,2.5,1.9,3.2c1,0.7,2,1.1,3.3,1.1c0.9,0,1.7-0.2,2.6-0.7c0.8-0.4,1.6-1,2.2-1.8l1.9,1.9
					c-0.8,1.1-1.8,1.9-3,2.5c-1.2,0.6-2.4,0.9-3.7,1C525.8,155.6,524.4,155.3,523.2,154.7z M530.8,145.6c0-0.9-0.3-1.7-0.7-2.4
					c-0.4-0.7-1-1.2-1.6-1.5c-0.7-0.3-1.4-0.5-2.1-0.5c-1.1,0-2,0.5-2.9,1.3c-0.8,0.8-1.3,2-1.5,3.4L530.8,145.6z"/>
				<path class="st1" d="M536.9,138.4l3.1-0.1l0.1,3.2l0.2,0c0.3-1,0.9-1.9,2-2.6c1.1-0.7,2.2-1.1,3.5-1.1c1.8-0.1,3.2,0.5,4.1,1.6
					c1,1.1,1.5,2.7,1.5,4.8l0.3,10.3l-3.3,0.1l-0.3-9.3c0-1.6-0.4-2.8-1-3.5c-0.6-0.8-1.4-1.1-2.5-1.1c-1.3,0-2.3,0.6-3.1,1.6
					c-0.8,1.1-1.1,2.5-1.1,4.2l0.2,8.2l-3.3,0.1L536.9,138.4z"/>
				<path class="st1" d="M558.9,153.6c-1.3-0.6-2.3-1.6-3.1-2.9c-0.8-1.3-1.2-2.8-1.3-4.7c0-1.7,0.2-3.2,0.9-4.5
					c0.6-1.3,1.5-2.4,2.7-3.2c1.2-0.8,2.5-1.2,4.1-1.2c1.5,0,2.8,0.3,3.9,1c1.1,0.7,2,1.6,2.6,2.8c0.6,1.2,1,2.5,1,3.9l0,2.2
					l-12,0.3c0.3,1.4,0.9,2.5,1.9,3.2c1,0.7,2,1.1,3.3,1.1c0.9,0,1.7-0.2,2.6-0.7c0.8-0.4,1.6-1,2.2-1.8l1.9,1.9
					c-0.8,1.1-1.8,1.9-3,2.5c-1.2,0.6-2.4,0.9-3.7,1C561.5,154.6,560.2,154.3,558.9,153.6z M566.5,144.5c0-0.9-0.3-1.7-0.7-2.4
					c-0.4-0.7-1-1.2-1.6-1.5c-0.7-0.3-1.4-0.5-2.1-0.5c-1.1,0-2,0.5-2.9,1.3c-0.8,0.8-1.3,2-1.5,3.4L566.5,144.5z"/>
				<path class="st1" d="M573.3,140l-2,0.1l-0.1-2.7l2-0.1l-0.1-2.6c0-1.1,0.3-2,0.9-2.6c0.6-0.6,1.5-1,2.6-1l4-0.1l0.1,2.7
					l-3.6,0.1c-0.5,0-0.8,0.3-0.7,0.9l0.1,2.6l3.6-0.1l0.1,2.7l-3.6,0.1l0.4,13.7l-3.3,0.1L573.3,140z"/>
				<path class="st1" d="M582.3,134c-0.5-0.4-0.7-0.9-0.7-1.5c0-0.6,0.2-1.1,0.6-1.5c0.4-0.4,0.9-0.6,1.5-0.7c0.6,0,1.1,0.2,1.6,0.6
					c0.5,0.4,0.7,0.9,0.7,1.5c0,0.6-0.2,1.1-0.6,1.5c-0.4,0.4-0.9,0.6-1.5,0.7C583.3,134.6,582.8,134.4,582.3,134z M582.3,137.1
					l3.3-0.1l0.5,16.4l-3.3,0.1L582.3,137.1z"/>
				<path class="st1" d="M593,152.5c-1.2-0.7-2.2-1.7-2.9-3c-0.7-1.3-1.1-2.7-1.2-4.4c0-1.7,0.3-3.2,0.9-4.5s1.6-2.4,2.8-3.2
					c1.2-0.8,2.5-1.2,4-1.2c1.7,0,3.1,0.4,4.3,1.3c1.2,0.9,2.1,2.1,2.6,3.7l-2.7,1.2c-0.5-1.2-1.1-2-1.7-2.5
					c-0.6-0.5-1.5-0.8-2.5-0.8c-0.8,0-1.5,0.3-2.2,0.7c-0.7,0.5-1.3,1.2-1.7,2.1c-0.4,0.9-0.6,2-0.6,3.2c0,1.1,0.3,2,0.7,2.9
					c0.4,0.8,1.1,1.5,1.8,2c0.8,0.5,1.6,0.7,2.6,0.7c1,0,1.9-0.3,2.7-0.9c0.8-0.6,1.4-1.3,1.9-2.2l2.3,1.6c-1.5,2.8-3.9,4.3-7.1,4.4
					C595.6,153.5,594.3,153.2,593,152.5z"/>
				<path class="st1" d="M606.6,133.3c-0.5-0.4-0.7-0.9-0.7-1.5c0-0.6,0.2-1.1,0.6-1.5c0.4-0.4,0.9-0.6,1.5-0.7
					c0.6,0,1.1,0.2,1.6,0.6c0.4,0.4,0.7,0.9,0.7,1.5c0,0.6-0.2,1.1-0.6,1.6c-0.4,0.4-0.9,0.6-1.5,0.7
					C607.6,133.9,607.1,133.7,606.6,133.3z M606.6,136.3l3.3-0.1l0.5,16.4l-3.3,0.1L606.6,136.3z"/>
				<path class="st1" d="M617.2,151.8c-1.2-0.7-2.2-1.7-2.9-3c-0.7-1.3-1.1-2.8-1.1-4.4c0-1.7,0.2-3.2,0.9-4.5
					c0.6-1.3,1.6-2.4,2.7-3.1c1.2-0.8,2.6-1.2,4.1-1.2c1.5,0,2.9,0.3,4.1,1c1.2,0.7,2.2,1.7,2.8,3c0.7,1.3,1.1,2.8,1.1,4.4
					c0,1.6-0.2,3.1-0.9,4.4c-0.6,1.3-1.5,2.4-2.7,3.2s-2.5,1.2-4.1,1.3S618.5,152.5,617.2,151.8z M617.8,148.4
					c0.9,1.1,2,1.6,3.5,1.5c1.4,0,2.6-0.6,3.4-1.7c0.8-1.1,1.2-2.5,1.2-4.2s-0.5-3-1.3-4.1c-0.8-1.1-2-1.6-3.5-1.5
					c-1.5,0-2.6,0.6-3.5,1.7c-0.8,1.1-1.2,2.5-1.2,4.2S616.9,147.3,617.8,148.4z"/>
				<path class="st1" d="M634.3,151.4c-1.3-0.6-2.3-1.6-3.1-3l2.3-1.6c0.6,1,1.3,1.7,2.2,2.1c0.9,0.4,1.8,0.6,2.8,0.6
					c1,0,1.7-0.2,2.3-0.6c0.5-0.4,0.8-0.8,0.8-1.3c0-0.5-0.3-0.9-1-1.3c-0.6-0.3-1.5-0.7-2.8-1c-1.2-0.4-2.2-0.7-3-1
					c-0.8-0.3-1.4-0.8-2-1.5c-0.6-0.7-0.9-1.6-0.9-2.7c0-0.9,0.2-1.7,0.7-2.5c0.5-0.8,1.2-1.3,2.1-1.8c0.9-0.4,1.8-0.7,2.7-0.7
					c1.6,0,3,0.3,4.2,1c1.2,0.7,2.1,1.7,2.6,2.9l-2.5,1.4c-0.4-0.8-1-1.4-1.8-1.8c-0.8-0.4-1.6-0.6-2.3-0.6c-0.8,0-1.4,0.2-1.9,0.6
					c-0.4,0.4-0.7,0.8-0.6,1.4c0,0.5,0.2,0.9,0.5,1.1c0.3,0.3,0.8,0.5,1.2,0.7s1.2,0.4,2.3,0.7c1.1,0.3,1.9,0.6,2.7,1
					c0.7,0.3,1.4,0.8,1.9,1.5s0.9,1.5,0.9,2.5c0,0.9-0.2,1.8-0.8,2.5c-0.5,0.7-1.3,1.3-2.2,1.7c-0.9,0.4-1.9,0.6-3,0.6
					C637.1,152.3,635.6,152,634.3,151.4z"/>
			</g>
			<g>
				
					<image style="overflow:visible;opacity:0.5;" width="1207" height="836" xlink:href="5882F07589A83053.png"  transform="matrix(0.24 0 0 0.24 450.6261 101.5275)">
				</image>
				<g>
					<path class="st3" d="M636.1,221.6l-91.6-2.6c-14.9-0.4-26.6-12.8-26.2-27.7v0c0.4-14.9,12.8-26.6,27.7-26.2l91.6,2.6
						c14.9,0.4,26.6,12.8,26.2,27.7v0C663.4,210.2,651,222,636.1,221.6z"/>
				</g>
			</g>
			<g>
				<path class="st2" d="M551.8,201.9c-1.1-0.7-2-1.7-2.6-2.9c-0.6-1.2-0.9-2.6-0.9-4.2c0-1.6,0.4-2.9,1.1-4.2s1.6-2.2,2.8-2.9
					c1.1-0.7,2.4-1,3.8-1c1.6,0,2.9,0.5,3.9,1.4s1.8,2.1,2.2,3.6l-2.6,1c-0.4-1.1-0.9-1.9-1.5-2.5c-0.6-0.5-1.3-0.8-2.3-0.9
					c-0.7,0-1.5,0.2-2.1,0.6s-1.2,1-1.7,1.8c-0.4,0.8-0.7,1.8-0.7,3c0,1,0.1,1.9,0.5,2.7c0.4,0.8,0.9,1.5,1.6,1.9s1.5,0.7,2.4,0.8
					c0.9,0,1.8-0.2,2.5-0.7c0.8-0.5,1.4-1.1,1.9-2l2.1,1.6c-1.6,2.6-3.9,3.8-6.9,3.7C554.1,203,552.9,202.6,551.8,201.9z"/>
				<path class="st2" d="M565.4,187.6l2.8,0.1l-0.1,2.8l0.2,0c0.6-1.9,2-2.8,4.2-2.7l1,0l-0.1,3.4l-2-0.1c-1,0-1.8,0.2-2.2,0.7
					c-0.5,0.5-0.7,1.3-0.7,2.3l-0.3,8.9l-3.1-0.1L565.4,187.6z"/>
				<path class="st2" d="M577.9,202.8c-1.2-0.7-2.1-1.6-2.8-2.9c-0.7-1.2-1-2.7-1-4.4c0-1.6,0.4-2.9,1.1-4.2
					c0.7-1.2,1.6-2.2,2.7-2.8c1.2-0.7,2.4-1,3.9-0.9c1.4,0,2.6,0.4,3.6,1.1c1,0.7,1.8,1.6,2.3,2.8c0.5,1.1,0.8,2.4,0.7,3.7l-0.1,2
					l-11.2-0.3c0.2,1.3,0.7,2.4,1.6,3.1c0.8,0.7,1.8,1.1,3,1.2c0.8,0,1.6-0.1,2.5-0.5c0.8-0.4,1.5-0.9,2.2-1.6l1.7,1.9
					c-0.8,1-1.8,1.7-2.9,2.2c-1.1,0.5-2.3,0.7-3.5,0.7C580.3,203.8,579.1,203.4,577.9,202.8z M585.5,194.7c0-0.9-0.2-1.6-0.5-2.3
					c-0.4-0.7-0.8-1.2-1.5-1.5c-0.6-0.4-1.2-0.6-1.9-0.6c-1,0-1.9,0.3-2.7,1c-0.8,0.7-1.3,1.8-1.6,3.1L585.5,194.7z"/>
				<path class="st2" d="M594,203.1c-1.1-0.7-2-1.7-2.6-2.9c-0.6-1.2-0.9-2.6-0.9-4.2c0-1.6,0.4-2.9,1.1-4.2
					c0.7-1.2,1.6-2.2,2.8-2.9s2.4-1,3.8-1c1.6,0,2.9,0.5,3.9,1.4c1.1,0.9,1.8,2.1,2.2,3.6l-2.6,1c-0.4-1.1-0.9-1.9-1.5-2.5
					c-0.6-0.5-1.3-0.8-2.3-0.9c-0.7,0-1.5,0.2-2.1,0.6c-0.7,0.4-1.2,1-1.7,1.8c-0.4,0.8-0.7,1.8-0.7,3c0,1,0.1,1.9,0.5,2.7
					c0.4,0.8,0.9,1.5,1.6,1.9c0.7,0.5,1.5,0.7,2.4,0.8c0.9,0,1.8-0.2,2.5-0.7c0.8-0.5,1.4-1.1,1.9-2l2.1,1.6
					c-1.6,2.6-3.9,3.8-6.9,3.7C596.3,204.2,595.1,203.8,594,203.1z"/>
				<path class="st2" d="M610.1,203.7c-1.2-0.7-2.1-1.6-2.8-2.9c-0.7-1.2-1-2.7-1-4.4c0-1.5,0.4-2.9,1.1-4.2
					c0.7-1.2,1.6-2.2,2.7-2.8c1.2-0.7,2.4-1,3.9-0.9c1.4,0,2.6,0.4,3.6,1.1c1,0.7,1.8,1.6,2.3,2.8c0.5,1.1,0.8,2.4,0.7,3.7l-0.1,2
					l-11.2-0.3c0.2,1.3,0.7,2.4,1.6,3.1c0.8,0.7,1.8,1.1,3,1.2c0.8,0,1.6-0.1,2.5-0.5c0.8-0.4,1.5-0.9,2.2-1.6l1.7,1.9
					c-0.8,1-1.8,1.7-2.9,2.2s-2.3,0.7-3.5,0.7C612.5,204.7,611.3,204.3,610.1,203.7z M617.7,195.6c0-0.9-0.2-1.6-0.5-2.3
					c-0.4-0.7-0.8-1.2-1.5-1.5c-0.6-0.4-1.2-0.6-1.9-0.6c-1,0-1.9,0.3-2.7,1c-0.8,0.7-1.3,1.8-1.6,3.1L617.7,195.6z"/>
				<path class="st2" d="M623.8,189.2l2.9,0.1l-0.1,3l0.2,0c0.3-1,1-1.7,2-2.4c1-0.6,2.1-0.9,3.3-0.9c1.7,0,2.9,0.6,3.8,1.7
					c0.9,1.1,1.2,2.6,1.2,4.5l-0.3,9.7l-3.1-0.1l0.2-8.7c0-1.5-0.2-2.6-0.7-3.4c-0.5-0.7-1.3-1.1-2.3-1.2c-1.2,0-2.2,0.4-3,1.4
					c-0.8,0.9-1.2,2.2-1.2,3.9l-0.2,7.7l-3.1-0.1L623.8,189.2z"/>
			</g>
		</g>
	</g>
</g>
</svg>
